<?xml version="1.0" encoding="utf-8"?>
<!-- Generator: Adobe Illustrator 23.0.1, SVG Export Plug-In . SVG Version: 6.00 Build 0)  -->
<svg version="1.1" id="Layer_1" xmlns="http://www.w3.org/2000/svg" xmlns:xlink="http://www.w3.org/1999/xlink" x="0px" y="0px"
	 viewBox="0 0 1495 162" style="enable-background:new 0 0 1495 162;" xml:space="preserve">
<style type="text/css">
	.st0{fill:url(#SVGID_1_);}
	.st1{opacity:0.4;}
	.st2{fill:url(#SVGID_2_);filter:url(#Adobe_OpacityMaskFilter);}
	.st3{mask:url(#mask0_1_);}
	.st4{fill:#86EBF9;}
	.st5{fill:#263238;}
	.st6{fill:#7BDDEB;}
	.st7{fill:url(#SVGID_3_);filter:url(#Adobe_OpacityMaskFilter_1_);}
	.st8{mask:url(#mask1_1_);}
	.st9{fill:#564449;}
	.st10{fill:#3F3437;}
	.st11{opacity:6.000000e-02;fill:#FFFFFF;enable-background:new    ;}
	.st12{fill:#FFFFFF;}
	.st13{fill:#789BEC;}
	.st14{fill:#F4A28A;}
	.st15{fill:#B9CEF9;}
	.st16{fill:#E2DDD3;}
	.st17{fill:#D3915F;}
	.st18{fill:#D38371;}
	.st19{fill:#6FAA99;}
	.st20{fill:none;stroke:#3B2C47;stroke-width:0.25;stroke-miterlimit:10;}
	.st21{fill:#875A54;}
	.st22{fill:#D8DAE5;}
	.st23{fill:#414456;}
	.st24{fill:#4BB27C;}
	.st25{fill:#2A6359;}
	.st26{fill:#668AD3;}
	.st27{opacity:0.36;fill:#597CB5;enable-background:new    ;}
</style>
<linearGradient id="SVGID_1_" gradientUnits="userSpaceOnUse" x1="741.0508" y1="160.7116" x2="761.1838" y2="-81.8869" gradientTransform="matrix(1 0 0 -1 0 164)">
	<stop  offset="1.587280e-02" style="stop-color:#D8F3FB"/>
	<stop  offset="0.8288" style="stop-color:#EAD8FB"/>
</linearGradient>
<path class="st0" d="M8,0h1479c4.4,0,8,3.6,8,8v146c0,4.4-3.6,8-8,8H8c-4.4,0-8-3.6-8-8V8C0,3.6,3.6,0,8,0z"/>
<g class="st1">
	<defs>
		<filter id="Adobe_OpacityMaskFilter" filterUnits="userSpaceOnUse" x="43" y="-79.2" width="323.2" height="350.2">
			<feColorMatrix  type="matrix" values="1 0 0 0 0  0 1 0 0 0  0 0 1 0 0  0 0 0 1 0"/>
		</filter>
	</defs>
	<mask maskUnits="userSpaceOnUse" x="43" y="-79.2" width="323.2" height="350.2" id="mask0_1_">
		
			<linearGradient id="SVGID_2_" gradientUnits="userSpaceOnUse" x1="182.7644" y1="154.6534" x2="250.6184" y2="-69.0332" gradientTransform="matrix(1 0 0 -1 0 164)">
			<stop  offset="1.587280e-02" style="stop-color:#D8F3FB"/>
			<stop  offset="0.8288" style="stop-color:#EAD8FB"/>
		</linearGradient>
		<path class="st2" d="M8,0h393c4.4,0,8,3.6,8,8v146c0,4.4-3.6,8-8,8H8c-4.4,0-8-3.6-8-8V8C0,3.6,3.6,0,8,0z"/>
	</mask>
	<g class="st3">
		<path class="st4" d="M252.4,206.7c-27.2-19-33.4-54.3-32.3-86c0.2-5.3-0.4-10.9,2.1-15.5c2.5-4.6,8.4-7.8,13.1-5.6
			c3.9,1.8,5.6,6.4,7.8,10.2c2.9,5,7.3,9.2,12.4,11.9c3.4,1.7,7.5,2.8,10.9,1c4.6-2.5,5.1-8.8,5.1-14.1c-0.1-9.8-0.1-19.6-0.2-29.5
			c0-5.3,0-10.6,1.6-15.6c1.6-5,5.3-9.6,10.3-11.1c5-1.4,11.2,1.5,12.3,6.7c0.4,2.2,0,4.4,0.1,6.6c0.1,2.2,1.2,4.6,3.2,5.2
			c2.1,0.6,4.2-0.9,5.8-2.4c5.4-5.3,9.1-12.2,12.6-19c3.4-6.8,6.8-13.8,11.7-19.6c4.9-5.8,11.7-10.4,19.3-10.8
			c7.5-0.4,15.6,4.2,17.5,11.6c1.9,7.4-2.4,15-7.1,21c-7,8.9-15.3,16.8-24.5,23.3c-1.7,1.2-3.5,2.4-4.1,4.4c-1.1,3.5,2.2,7,5.6,8.2
			c3.9,1.3,8.2,0.9,12.3,1.4c4.1,0.5,8.6,2.3,10.1,6.2c2.2,5.4-2.3,11-6.8,14.7c-8.9,7.4-19,13.3-29.8,17.2
			c-3.9,1.4-7.9,2.7-11.1,5.4c-3.1,2.7-5,7.5-3.1,11.2c1.9,3.7,6.7,4.9,10.8,4.1c4.1-0.7,7.7-3,11.6-4.4c7.2-2.7,16.6-2.2,21.2,4
			c3,4.1,3.3,9.8,1.8,14.7c-1.5,4.9-4.7,9.1-8,13c-11.6,13.6-26.4,24.6-43.2,30.4C284.7,211.3,269.1,212.8,252.4,206.7z"/>
		<path class="st5" d="M358.1,23.4c0,0-0.2,0.2-0.5,0.5c-0.4,0.3-0.9,0.8-1.6,1.4c-1.4,1.2-3.4,3-6,5.4
			c-5.1,4.8-12.3,11.9-20.1,21.7c-3.9,4.9-8,10.4-12.2,16.4c-4.3,6-8.8,12.5-13.2,19.5c-4.5,7-9,14.4-13,22.5c-2,4-3.8,8.2-5.7,12.5
			c-1.8,4.3-3.7,8.7-5.6,13.1c-7.5,17.7-14.1,34.7-18.8,50.7c-4.7,15.9-7.5,30.7-8.8,43.2c-1.3,12.5-1,22.7-0.5,29.7
			c0.3,3.5,0.5,6.2,0.8,8.1c0.1,0.9,0.2,1.6,0.2,2.1c0,0.5,0.1,0.7,0,0.7c0,0-0.1-0.2-0.1-0.7c-0.1-0.5-0.2-1.2-0.3-2.1
			c-0.3-1.8-0.6-4.5-1-8.1c-0.6-7-1-17.3,0.2-29.8c1.1-12.6,3.9-27.4,8.6-43.4c4.7-16,11.2-33.1,18.7-50.8c1.9-4.4,3.8-8.8,5.6-13.1
			c1.8-4.3,3.7-8.5,5.7-12.6c4.1-8.1,8.6-15.6,13.1-22.6c4.5-7,9-13.4,13.3-19.4c4.3-6,8.4-11.5,12.4-16.4
			c7.9-9.8,15.2-16.9,20.4-21.6c2.6-2.3,4.7-4.1,6.1-5.3c0.7-0.6,1.2-1,1.6-1.3C357.9,23.6,358.1,23.4,358.1,23.4z"/>
		<path class="st5" d="M290.9,110.4c-0.1,0-0.2-0.8-0.5-2.2c-0.3-1.5-0.6-3.6-1-6.2c-0.7-5.2-1.5-12.5-2.4-20.6
			c-0.8-8-1.7-15.3-2.5-20.5c-0.4-2.6-0.7-4.7-1-6.2c-0.2-1.5-0.4-2.3-0.3-2.3c0.1,0,0.3,0.8,0.7,2.2c0.4,1.4,0.8,3.5,1.3,6.1
			c1,5.2,2,12.5,2.8,20.5c0.8,7.9,1.5,15.1,2.1,20.6c0.3,2.5,0.5,4.5,0.7,6.2C290.9,109.5,291,110.4,290.9,110.4z"/>
		<path class="st5" d="M358.6,97.7c0,0.1-1,0.2-2.7,0.3c-1.7,0.1-4.3,0.4-7.3,0.7c-6.2,0.7-14.7,1.9-24.1,3.7
			c-9.4,1.8-17.8,3.8-23.8,5.4c-3,0.8-5.5,1.5-7.1,1.9c-1.7,0.5-2.6,0.7-2.6,0.6c0-0.1,0.9-0.4,2.5-1c1.7-0.6,4.1-1.4,7.1-2.2
			c6-1.8,14.4-3.9,23.8-5.6c9.4-1.8,18-2.9,24.2-3.4c3.1-0.3,5.6-0.4,7.4-0.4C357.7,97.6,358.6,97.6,358.6,97.7z"/>
		<path class="st5" d="M261.4,185.6c0,0-0.2-0.3-0.5-0.8c-0.3-0.7-0.7-1.5-1.1-2.4c-1-2.1-2.4-5.3-4-9.1
			c-3.3-7.8-7.4-18.6-11.9-30.6c-4.5-12.1-8.5-22.9-11.6-30.7c-1.5-3.8-2.8-6.9-3.7-9.2c-0.4-1-0.7-1.8-1-2.5
			c-0.2-0.6-0.3-0.9-0.3-0.9c0,0,0.2,0.3,0.5,0.8c0.3,0.7,0.7,1.5,1.1,2.4c1,2.1,2.4,5.3,4,9.1c3.3,7.8,7.4,18.6,11.9,30.6
			c4.4,12,8.5,22.9,11.6,30.7c1.5,3.8,2.8,6.9,3.7,9.2c0.4,1,0.7,1.8,1,2.5C261.4,185.3,261.5,185.6,261.4,185.6z"/>
		<path class="st5" d="M351.4,156.6c0,0-0.3,0.2-0.9,0.4c-0.7,0.2-1.6,0.5-2.6,0.9c-2.4,0.8-5.7,1.8-9.6,3.1
			c-8.1,2.6-19.3,6.4-31.7,10.6c-12.4,4.2-23.6,7.9-31.8,10.3c-4.1,1.2-7.4,2.2-9.7,2.8c-1.1,0.3-1.9,0.5-2.7,0.7
			c-0.6,0.1-0.9,0.2-1,0.2c0,0,0.3-0.2,0.9-0.4c0.7-0.2,1.6-0.5,2.6-0.9c2.4-0.8,5.7-1.8,9.6-3.1c8.1-2.6,19.3-6.4,31.7-10.6
			c12.4-4.2,23.6-7.9,31.8-10.3c4.1-1.2,7.4-2.2,9.7-2.8c1.1-0.3,1.9-0.5,2.7-0.7C351.1,156.6,351.4,156.6,351.4,156.6z"/>
		<path class="st6" d="M201.1,181.7c37.8-26.4,46.4-75.5,44.9-119.6c-0.2-7.3,0.6-15.1-2.9-21.6c-3.5-6.5-11.7-10.9-18.3-7.8
			c-5.5,2.6-7.8,8.9-10.9,14.2c-4.1,7-10.1,12.8-17.3,16.5c-4.7,2.4-10.5,3.9-15.1,1.4c-6.4-3.5-7.1-12.3-7.1-19.6
			c0.1-13.6,0.2-27.3,0.3-40.9c0-7.3,0.1-14.8-2.2-21.7c-2.3-7-7.3-13.4-14.3-15.4c-6.9-2-15.6,2.1-17.1,9.2c-0.6,3,0,6.1-0.2,9.1
			c-0.2,3-1.6,6.4-4.5,7.2c-2.9,0.9-5.9-1.2-8-3.4c-7.5-7.4-12.7-16.9-17.5-26.4s-9.4-19.2-16.3-27.2c-6.9-8-16.3-14.4-26.8-15
			C57.5-79.8,46.3-73.3,43.6-63C41-52.7,47-42.3,53.6-33.9c9.7,12.4,21.2,23.3,34,32.4c2.3,1.6,4.8,3.4,5.7,6.1
			c1.6,4.9-3,9.7-7.8,11.3C80,17.8,74,17.2,68.3,17.9c-5.7,0.7-11.9,3.2-14,8.6c-3,7.5,3.3,15.3,9.4,20.5
			C76,57.2,90.1,65.4,105.1,70.8c5.4,2,11,3.7,15.4,7.5c4.4,3.8,7,10.4,4.4,15.5c-2.6,5.2-9.3,6.8-15,5.8c-5.7-1-10.7-4.1-16.1-6.1
			c-10-3.8-23-3.1-29.5,5.6c-4.2,5.7-4.6,13.7-2.5,20.5c2.1,6.8,6.5,12.7,11.1,18.1c16.1,18.9,36.7,34.2,60.1,42.2
			C156.3,188,177.9,190.2,201.1,181.7z"/>
		<path class="st5" d="M54.2-73.1c0,0,0.2,0.3,0.7,0.7c0.5,0.5,1.3,1.1,2.2,1.9c1.9,1.7,4.8,4.2,8.3,7.5c7.1,6.6,17.1,16.6,28,30.2
			c5.5,6.8,11.1,14.5,17,22.8c5.9,8.4,12.2,17.4,18.4,27c6.2,9.7,12.5,20.1,18.1,31.3c2.8,5.6,5.3,11.4,7.9,17.4
			c2.6,6,5.2,12,7.8,18.2c10.4,24.5,19.6,48.3,26.1,70.4c6.6,22.1,10.5,42.7,12.2,60.1c1.8,17.4,1.4,31.6,0.7,41.3
			c-0.4,4.9-0.8,8.6-1.1,11.2c-0.1,1.2-0.3,2.2-0.3,2.9c-0.1,0.7-0.1,1-0.1,1c0,0,0.1-0.3,0.2-1c0.1-0.7,0.3-1.7,0.5-2.9
			c0.4-2.5,0.9-6.3,1.4-11.2c0.9-9.7,1.4-24-0.3-41.5c-1.6-17.5-5.4-38.1-12-60.3c-6.5-22.2-15.6-46.1-26-70.6
			c-2.6-6.1-5.2-12.2-7.8-18.2c-2.6-6-5.1-11.9-7.9-17.5c-5.7-11.3-11.9-21.7-18.2-31.4c-6.3-9.7-12.6-18.7-18.5-27
			c-6-8.3-11.7-16-17.2-22.8c-11-13.6-21.1-23.4-28.3-30c-3.6-3.3-6.5-5.7-8.5-7.3c-1-0.8-1.7-1.4-2.3-1.8
			C54.4-72.9,54.2-73.1,54.2-73.1z"/>
		<path class="st5" d="M147.6,47.7c0.1,0,0.3-1.1,0.7-3.1c0.4-2,0.8-5,1.4-8.6c1-7.3,2.1-17.4,3.3-28.6s2.4-21.2,3.5-28.5
			c0.6-3.6,1-6.6,1.4-8.6c0.3-2,0.5-3.2,0.4-3.2c-0.1,0-0.4,1.1-0.9,3.1c-0.5,2-1.2,4.9-1.8,8.5c-1.4,7.2-2.8,17.3-3.9,28.5
			c-1.1,11-2.1,21-2.9,28.6c-0.4,3.4-0.7,6.3-0.9,8.6C147.6,46.6,147.5,47.7,147.6,47.7z"/>
		<path class="st5" d="M53.5,30.2c0,0.1,1.3,0.2,3.8,0.5c2.4,0.2,5.9,0.5,10.2,1c8.6,0.9,20.5,2.6,33.5,5.1
			c13,2.5,24.7,5.2,33.1,7.4c4.2,1.1,7.6,2.1,9.9,2.7c2.3,0.7,3.7,1,3.7,0.9c0-0.1-1.2-0.6-3.5-1.4c-2.3-0.8-5.7-1.9-9.8-3.1
			c-8.3-2.5-20-5.4-33.1-7.8c-13-2.5-25-4-33.7-4.7c-4.3-0.4-7.8-0.5-10.3-0.6C54.8,30,53.5,30.1,53.5,30.2z"/>
		<path class="st5" d="M188.6,152.3c0,0,0.3-0.4,0.6-1.2c0.4-0.9,1-2,1.6-3.4c1.4-3,3.3-7.3,5.6-12.7c4.6-10.8,10.3-25.9,16.5-42.6
			c6.2-16.8,11.8-31.9,16.2-42.7c2.1-5.3,3.9-9.6,5.2-12.8c0.6-1.4,1-2.6,1.4-3.5c0.3-0.8,0.4-1.2,0.4-1.3c0,0-0.3,0.4-0.6,1.2
			c-0.4,0.9-1,2-1.6,3.4c-1.4,3-3.3,7.3-5.6,12.7c-4.6,10.8-10.3,25.9-16.5,42.6c-6.2,16.7-11.8,31.9-16.1,42.7
			c-2.1,5.3-3.9,9.6-5.2,12.8c-0.6,1.4-1,2.6-1.4,3.5C188.7,151.9,188.5,152.3,188.6,152.3z"/>
		<path class="st5" d="M63.5,112c0,0,0.4,0.2,1.2,0.5c1,0.3,2.2,0.7,3.6,1.2c3.4,1.1,7.9,2.6,13.4,4.3c11.3,3.7,26.9,8.9,44.1,14.7
			c17.2,5.8,32.8,10.9,44.2,14.4c5.7,1.7,10.3,3.1,13.5,3.9c1.5,0.4,2.7,0.7,3.7,1c0.9,0.2,1.3,0.3,1.3,0.2c0,0-0.4-0.2-1.2-0.5
			c-1-0.3-2.2-0.7-3.6-1.2c-3.4-1.1-7.9-2.6-13.4-4.4c-11.3-3.7-26.9-8.9-44.1-14.7c-17.2-5.8-32.8-10.9-44.2-14.4
			c-5.7-1.7-10.3-3.1-13.5-3.9c-1.5-0.4-2.7-0.7-3.7-1C64,112.1,63.5,112,63.5,112z"/>
	</g>
</g>
<defs>
	<filter id="Adobe_OpacityMaskFilter_1_" filterUnits="userSpaceOnUse" x="1098.4" y="-38.7" width="485.5" height="288.8">
		<feColorMatrix  type="matrix" values="1 0 0 0 0  0 1 0 0 0  0 0 1 0 0  0 0 0 1 0"/>
	</filter>
</defs>
<mask maskUnits="userSpaceOnUse" x="1098.4" y="-38.7" width="485.5" height="288.8" id="mask1_1_">
	
		<linearGradient id="SVGID_3_" gradientUnits="userSpaceOnUse" x1="1255.0212" y1="155.4595" x2="1318.9513" y2="-70.743" gradientTransform="matrix(1 0 0 -1 0 164)">
		<stop  offset="1.587280e-02" style="stop-color:#D8F3FB"/>
		<stop  offset="0.8288" style="stop-color:#EAD8FB"/>
	</linearGradient>
	<path class="st7" d="M1064,0h423c4.4,0,8,3.6,8,8v146c0,4.4-3.6,8-8,8h-423c-4.4,0-8-3.6-8-8V8C1056,3.6,1059.6,0,1064,0z"/>
</mask>
<g class="st8">
	<path class="st9" d="M1166.9,111.5V92.4h-29.7l-11.7-57.3l78.7,3.1l10.3,54.2h-32.3v19.1H1166.9z"/>
	<path class="st10" d="M1182.3,92.4h-15.3v3.4h15.3V92.4z"/>
	<path class="st10" d="M1163.8,66.3v3.1h17.1l-0.5-3.1H1163.8z"/>
	<path class="st11" d="M1135.7,84.8l71.9-27l-1.4-9.1l-72.5,27.1L1135.7,84.8z"/>
	<path class="st12" d="M1411.8,49.6l7.5,44.4h-7.5l-6.4-41.9L1411.8,49.6z"/>
	<path class="st12" d="M1383.8,10.5c0,0,2.9,1.8,11.1,6.5c10.9,6.2,13,13.6,13,13.6l3.8,18.9l-6.4,2.4l4.9,33.5l-13-0.1
		c0,0-35.7,0.5-41.8-1c-2-0.5-3.8-28.8-3.8-28.8c-2.2-2.2-13.7-1.2-14.4-2.6c-5.4-11.3-5.2-23.9-4.3-27.7
		c1.8-8.6,19.3-14.8,19.3-14.8c8.2-3.8,21.2-7.1,21.2-7.1L1383.8,10.5z"/>
	<path class="st13" d="M1359.5,7.4c0,0,5,13.7,18.5,23.5c0,0,3.4-16.4,1.1-21.2L1359.5,7.4z"/>
	<path class="st14" d="M1379.1,9.7l1-8.1c0,0,6.4,1.1,8.4-3.1c2-4.3,2.6-27.4,2.6-28c0-0.5-0.5-10.7-16-9
		c-15.3,1.8-12.6,16-12.9,24.8c-0.3,9.5-2.7,22.3-2.6,21l9.8,4.6C1372.7,13.6,1376.8,12.7,1379.1,9.7z"/>
	<path class="st15" d="M1386.3,42.4l0.7,2.6h13.9l-1.6-3.3L1386.3,42.4z"/>
	<path class="st12" d="M1337.3,53c0,0,7.5,31.9,10,32.6c2.7,0.5,75.9,0.3,75.9,0.3l1.2-5.4c0,0-56.9-5.6-59.3-8.4
		c-2.4-2.9-9.6-17.6-9.6-17.6L1337.3,53z"/>
	<path class="st9" d="M1423.9,83l16.4-38h28.2l-18.7,38H1423.9z"/>
	<path class="st16" d="M1378.3,40.8c0,0-0.7,0-1.8-0.1c-1.2-0.1-2.8-0.3-4.9-0.8c-1.1-0.3-2.2-0.8-3.1-1.8c-0.8-1-1.4-2.3-1.6-3.8
		c-0.3-1.4-0.3-2.9-0.8-4.2c-0.4-1.4-1.1-2.9-2.4-3.4c-1.4-0.7-2.9-0.1-4.5-0.1c-0.8,0-1.6-0.1-2.3-0.7c-0.7-0.4-1.1-1.2-1.2-2
		c-0.1-2.9,0-5.3,0.3-7.5c0.1-2,0.4-3.8,0.5-4.9c0.1-1.2,0.4-1.8,0.4-1.8s0,0.7-0.1,1.8c-0.1,1.2-0.3,2.9-0.4,4.9
		c-0.1,2-0.1,4.6-0.1,7.3c0,0.7,0.4,1.2,0.9,1.5c0.5,0.3,1.2,0.5,1.9,0.5c1.4,0,3.1-0.5,4.8,0.1c1.6,0.8,2.4,2.4,2.8,3.9
		c0.4,1.5,0.5,3,0.7,4.3c0.3,1.4,0.7,2.6,1.4,3.5s1.8,1.4,2.7,1.6c2,0.4,3.7,0.7,4.9,1C1377.7,40.6,1378.3,40.8,1378.3,40.8z"/>
	<path class="st16" d="M1387.6,76.5c0,0-0.3-0.7-0.5-1.8c-0.3-1.4-0.7-3-1.2-4.9c-0.9-4.1-2.2-9.9-3.5-16.2
		c-1.4-6.4-2.6-12.1-3.4-16.3c-0.4-2-0.7-3.7-0.9-4.9c-0.3-1.2-0.3-1.8-0.3-1.9c0,0,0.3,0.7,0.6,1.8c0.3,1.4,0.7,3,1.2,4.9
		c0.9,4.1,2.2,9.9,3.7,16.2c1.4,6.4,2.6,12.1,3.4,16.3c0.4,2,0.7,3.7,0.9,4.9C1387.6,75.8,1387.8,76.5,1387.6,76.5z"/>
	<path class="st16" d="M1386.1,52.6c-0.1,0,0.5-0.5,1.5-0.3c0.4,0.1,0.9,0.7,1.1,1.4c0.1,0.7,0,1.5-0.8,2c-0.3,0.3-0.8,0.3-1.2,0.3
		c-0.4-0.1-0.7-0.4-1-0.7c-0.4-0.5-0.4-1.2-0.3-1.8c0.3-1,0.8-1.2,0.8-1.2c0.1,0-0.3,0.5-0.4,1.4c0,0.4,0,0.8,0.3,1.2
		s0.8,0.5,1.2,0.3s0.5-0.8,0.5-1.4c0-0.4-0.4-0.8-0.7-1C1386.7,52.5,1386.1,52.6,1386.1,52.6z"/>
	<path class="st16" d="M1389,65.1c0-0.1,0.7-0.4,1.6,0c0.5,0.1,1.1,0.5,1.4,1.4c0.3,0.7,0.1,1.8-0.5,2.3c-0.3,0.3-0.8,0.5-1.2,0.5
		c-0.4,0-0.8-0.1-1.2-0.4c-0.7-0.5-0.8-1.4-0.5-1.9c0.1-0.5,0.5-0.8,0.8-1c0.3-0.1,0.4-0.1,0.4,0c0,0.1-0.7,0.3-0.8,1.1
		c-0.1,0.4,0,1,0.6,1.2c0.4,0.3,1.1,0.3,1.5-0.1c0.4-0.4,0.5-1.1,0.4-1.6c-0.1-0.5-0.6-1-1-1.1C1389.7,65.1,1389,65.2,1389,65.1z"/>
	<path class="st16" d="M1416.8,79.5c0,0-0.3,0-0.9,0c-0.7,0-1.6,0-2.7-0.1c-2.4-0.1-5.8-0.3-10-0.8c-8.6-0.8-20.2-2.6-33.1-4.2
		c-3.2-0.4-6.4-0.7-9.5-1c-0.4-0.1-0.9-0.3-1.2-0.7c-0.3-0.4-0.4-0.8-0.5-1.1c-0.3-0.7-0.4-1.5-0.7-2.2c-0.4-1.4-0.8-2.9-1.2-4.2
		c-1.5-5.4-2.8-10.3-4.1-14.4c-1.1-4.1-2-7.3-2.7-9.8c-0.3-1.1-0.5-2-0.7-2.7c-0.1-0.5-0.3-1-0.1-1c0,0,0.1,0.3,0.3,1
		c0.3,0.7,0.5,1.5,0.8,2.6c0.7,2.3,1.8,5.7,2.8,9.6c1.2,4.1,2.6,9,4.2,14.4c0.4,1.4,0.8,2.7,1.2,4.2c0.3,0.7,0.4,1.4,0.7,2.2
		c0.3,0.7,0.5,1.2,1.2,1.4c3,0.3,6.2,0.5,9.4,1c12.9,1.6,24.6,3.5,33.1,4.3c4.2,0.5,7.7,0.8,10,1c1.1,0.1,2,0.1,2.7,0.3
		C1416.5,79.5,1416.8,79.5,1416.8,79.5z"/>
	<path class="st16" d="M1408.9,79.9c-0.1,0-0.3-1.8-0.7-4.5c-0.4-2.7-1.1-6.5-1.9-10.6c-0.8-4.2-1.6-7.9-1.9-10.7
		c-0.1-1.4-0.3-2.4-0.4-3.3c0-0.8,0-1.2,0-1.2c0.1,0,0.4,1.6,0.8,4.3c0.5,2.7,1.2,6.5,2.2,10.6c0.8,4.2,1.5,8,1.8,10.7
		c0.1,1.4,0.3,2.4,0.3,3.3C1409.1,79.5,1409.1,79.9,1408.9,79.9z"/>
	<path class="st16" d="M1381.2,8.3c0,0,0.1,0.5,0.7,1.2c0.5,0.8,1.5,1.6,2.6,3c0.9,1.4,1.8,3.4,1.5,5.7c0,1.1-0.5,2.3-0.8,3.4
		c-0.4,1.1-0.7,2.3,0,3.3c0.7,1,2,1.1,2.9,2.2c0.4,0.5,0.4,1.4,0.4,1.9c-0.1,0.7-0.3,1.2-0.5,1.6c-1,2-1.9,3.7-2.7,5.2
		c-0.8,1.5-1.4,2.6-1.9,3.4c-0.4,0.8-0.7,1.2-0.8,1.2c0,0,0.1-0.5,0.6-1.4c0.4-0.8,0.9-2,1.6-3.5c0.7-1.5,1.6-3.3,2.6-5.2
		c0.4-1,0.7-2.2,0.1-3c-0.5-0.8-1.9-1-2.8-2.2c-0.4-0.5-0.5-1.4-0.5-2s0.3-1.2,0.4-1.9c0.4-1.1,0.8-2.2,0.8-3.3
		c0.3-2-0.4-4.1-1.2-5.3c-0.9-1.4-1.9-2.3-2.3-3.1C1381.2,8.9,1381.2,8.3,1381.2,8.3z"/>
	<path class="st17" d="M1488.6,108.9v141.2h-376.5v-62.8c-7.3,4.9-12.6,8.1-12.6,8.1c-0.7-5-1.1-9.5-1.1-13.8c1.1,0,2.4-0.4,3.8-1.2
		c2.6-1.5,4.1-3.8,3.3-5c-0.8-1.4-3.4-1.2-6,0.3c-0.4,0.1-0.7,0.4-0.9,0.7c0.1-1.9,0.3-3.8,0.6-5.4c0.3-2.4,0.7-4.8,1.2-6.9h35
		v-55.1h353.3V108.9z"/>
	<path class="st18" d="M1220.8,73.6l-7.5,44.4l8.7-1.5l5.2-40.6L1220.8,73.6z"/>
	<path class="st19" d="M1243.1,33.5c0,0,1.2-0.5-7.1,4.2c-10.9,6.2-13,13.6-13,13.6l-4.3,21.6l7.3,3l-2.7,33.3l6.1-0.8
		c0,0,39.5,1.4,39.6,0.7c0.7-8.1,6-30.4,6-30.4c2.2-2.2,13.7-1.2,14.4-2.6c5.4-11.3,2.5-26.6,1.6-30.4c-1.8-8.6-16.6-12.1-16.6-12.1
		c-8.1-3.8-21.2-7.1-21.2-7.1L1243.1,33.5z"/>
	<path class="st12" d="M1267.4,30.2c0,0-5,13.7-18.5,23.5c0,0-3.4-16.4-1.1-21.2L1267.4,30.2z"/>
	<path class="st14" d="M1247.8,32.5l-0.9-8.1c0,0-6.4,1.1-8.4-3.1c-2-4.3-2.6-27.4-2.6-28s0.6-10.7,16-9c15.3,1.8,12.6,16,12.9,24.8
		c0.3,9.5,2.7,22.3,2.6,21l-9.8,4.6C1254.2,36.4,1250.1,35.5,1247.8,32.5z"/>
	<path class="st12" d="M1240.6,65.2l-0.7,2.6h-13.8l1.8-3.1L1240.6,65.2z"/>
	<path class="st14" d="M1289.6,75.8c0,0-7.5,31.9-10.1,32.6c-2.7,0.5-75.9,0.3-75.9,0.3l-1.2-5.4c0,0,56.9-5.6,59.3-8.4
		c2.4-2.9,9.6-17.6,9.6-17.6L1289.6,75.8z"/>
	<path class="st20" d="M1240.5,5.8c0,2.4-2,4.5-4.5,4.5c-2.4,0-4.5-2-4.5-4.5c0-2.4,2-4.5,4.5-4.5C1238.4,1.3,1240.5,3.3,1240.5,5.8
		z"/>
	<path class="st20" d="M1251.6,5.8c0,2.4-2,4.5-4.5,4.5c-2.4,0-4.5-2-4.5-4.5c0-2.4,2-4.5,4.5-4.5C1249.7,1.3,1251.6,3.3,1251.6,5.8
		z"/>
	<path class="st20" d="M1240.5,5.8h2.3"/>
	<path class="st21" d="M1232.9-3.3c6.1,1.6,12.3,1.9,18.6,1.4c0-1.5,0.4-3,1.1-4.2c0.7,3.3,2,6.2,4.1,9c1.4-0.8,3.1-0.7,4.2,0.4
		c1.1,1,1.5,2.9,0.8,4.2c-0.5,1-1.5,1.9-1.3,3c0,0.5,0.3,1,0.7,1.4c1.1,1.6,2.2,3.1,3.4,4.5c3.5-4.5,1.8-9.1,4.1-14.3
		c0.5-1.2,0.1-4.5,0-5.8c0-0.7-0.3-1.2-0.5-1.8c-1-2.2-1.9-4.2-2.8-6.4c-0.4-1-0.8-1.9-1.5-2.7c-1.9-2.4-5.3-3-8.3-3.4
		c-3.9-0.5-8-1.1-11.7,0.1c-1.6,0.5-3,1.4-4.3,2.4C1235.5-12.7,1233-8.1,1232.9-3.3z"/>
	<path class="st21" d="M1266.3,3.6c3.9,0,5.8,1.5,9.4,3.5c3.4,2,6.1,5.6,6.7,9.5c0.7,4.3-1.2,8.8,0,13c0.5,1.6,1.5,3.1,2.3,4.6
		c1.6,3.1,2.5,6.5,2.5,10c0,2.7-0.7,5.7-2.7,7.3c-1.6,1.4-3.9,1.6-6,1.8c-2,0.1-4.1,0-5.8-0.8c-1.9-1.1-3.2-3-3.9-5.2
		c-0.7-2.2-0.8-4.3-0.8-6.5c-0.3-4.9-0.4-9.9,0.7-14.7c0.7-2.6,1.6-5.2,1.4-7.7c-0.1-1.6-0.8-3.1-1.5-4.6c-0.7-1.6-1.4-3.3-2-4.9
		c-0.8-1.8-1.4-4.2,0.3-5.4"/>
	<path class="st17" d="M1300.8,111.5V93.2h-6.1V83h199.8v10.2h-5.8v18.3H1300.8z"/>
	<path class="st12" d="M1488.6,108.9v113.8h-352.4V171h-37.3c0.3-2.4,0.7-4.8,1.2-6.9h35v-55.1H1488.6z"/>
	<path class="st12" d="M1300.8,111.5V93.2h187.9v20.8L1300.8,111.5z"/>
	<path class="st22" d="M1385.9,138.2h-155.6v57.1h155.6V138.2z"/>
	<path class="st23" d="M1261.8,163.7h-3.2v5.5h-1.8v-13.6h4.5c1.5,0,2.7,0.3,3.5,1c0.8,0.7,1.2,1.7,1.2,3c0,0.8-0.2,1.6-0.7,2.2
		c-0.5,0.6-1.1,1.1-1.9,1.4l3.2,5.8v0.1h-1.9L1261.8,163.7z M1258.6,162.2h2.8c0.9,0,1.6-0.2,2.1-0.7c0.5-0.5,0.8-1.1,0.8-1.8
		c0-0.8-0.3-1.5-0.8-1.9s-1.2-0.7-2.2-0.7h-2.8V162.2z M1276.2,162.9h-5.9v4.8h6.8v1.5h-8.6v-13.6h8.5v1.5h-6.8v4.4h5.9V162.9z
		 M1289.4,164.9c-0.2,1.4-0.7,2.5-1.6,3.3c-0.9,0.8-2.1,1.2-3.6,1.2c-1.6,0-2.9-0.6-3.9-1.7s-1.5-2.7-1.5-4.6v-1.3
		c0-1.3,0.2-2.4,0.7-3.3c0.5-1,1.1-1.7,1.9-2.2c0.8-0.5,1.8-0.8,2.9-0.8c1.4,0,2.6,0.4,3.5,1.2c0.9,0.8,1.4,1.9,1.5,3.3h-1.8
		c-0.2-1.1-0.5-1.9-1-2.4s-1.2-0.7-2.2-0.7c-1.1,0-2,0.4-2.7,1.3c-0.6,0.8-1,2.1-1,3.6v1.3c0,1.5,0.3,2.6,0.9,3.5
		c0.6,0.9,1.5,1.3,2.6,1.3c1,0,1.8-0.2,2.3-0.7c0.5-0.5,0.9-1.2,1.1-2.4H1289.4z M1299.5,162.9h-5.9v4.8h6.8v1.5h-8.6v-13.6h8.5v1.5
		h-6.8v4.4h5.9V162.9z M1304.5,163.9v5.3h-1.8v-13.6h5c1.5,0,2.7,0.4,3.5,1.1c0.8,0.8,1.3,1.8,1.3,3c0,1.3-0.4,2.3-1.2,3.1
		c-0.8,0.7-2,1.1-3.5,1.1H1304.5z M1304.5,162.4h3.2c1,0,1.7-0.2,2.2-0.7c0.5-0.5,0.8-1.1,0.8-2c0-0.8-0.3-1.5-0.8-1.9
		c-0.5-0.5-1.2-0.7-2.1-0.8h-3.3V162.4z M1324.2,157.1h-4.4v12.1h-1.8v-12.1h-4.3v-1.5h10.5V157.1z M1328.1,169.2h-1.8v-13.6h1.8
		V169.2z M1341.8,162.9c0,1.3-0.2,2.5-0.7,3.5c-0.5,1-1.1,1.7-1.9,2.3c-0.8,0.5-1.8,0.8-2.9,0.8c-1.1,0-2-0.3-2.8-0.8
		c-0.8-0.5-1.5-1.3-1.9-2.2c-0.4-1-0.7-2.1-0.7-3.4v-1c0-1.3,0.2-2.5,0.7-3.5c0.5-1,1.1-1.8,1.9-2.3c0.8-0.5,1.8-0.8,2.9-0.8
		c1.1,0,2.1,0.3,2.9,0.8c0.8,0.5,1.5,1.3,1.9,2.3c0.4,1,0.7,2.2,0.7,3.5V162.9z M1340.1,162c0-1.6-0.3-2.8-1-3.7
		c-0.7-0.9-1.6-1.3-2.7-1.3c-1.1,0-2,0.4-2.7,1.3c-0.6,0.9-1,2.1-1,3.6v1c0,1.6,0.3,2.8,1,3.7c0.7,0.9,1.6,1.3,2.7,1.3
		c1.2,0,2-0.4,2.7-1.3c0.6-0.8,1-2.1,1-3.6V162z M1355,169.2h-1.8l-6.8-10.5v10.5h-1.8v-13.6h1.8l6.9,10.5v-10.5h1.8V169.2z"/>
	<path class="st9" d="M1488.6,93.2h-187.9v5.3h187.9V93.2z"/>
	<path class="st24" d="M1196.1,145.6c1.5-0.7,3.3-0.8,4.8-0.4c0.8,0.1,1.8,0.8,1.8,1.6c0,0.5-0.4,0.8-0.8,1.2
		c-0.8,0.7-1.8,1.2-2.9,1.6l20,7.7c-3.5-11.8-8-19.1-12.8-23.8c-1,0.1-12.1,1-13.6-0.9c-1.6-2,7.5-2.9,7.9-3l5.6,3.8
		c-13.2-12.5-28.1-2.4-28.1-2.4c-8-10.9-18.7-5.6-18.7-5.6l9.1,12.2l24.8,9.6C1194.1,146.7,1195,146,1196.1,145.6z"/>
	<path class="st24" d="M1196.5,206.7c9.6,6.9,20.5,15.3,20.5,15.3s8.4-21.6-4.2-49.1c-0.8-1.6-1.6-3.3-2.3-4.6
		c-3.7,0.8-13.8,2.7-15.6-0.7c-1.8-3.3,9.2-2.9,13.4-2.6c-11.7-15.7-24.3-1.8-24.3-1.8s-8-11.7-15.2-5.8c-8.7,7.1-1.6,21.6,6.5,31.9
		c0.8-2.2,4.5-11.3,6.4-9.2c1.9,2-1.2,12.2-1.9,14.3c2.2,2.3,4.3,4.1,6,5c1.8,1.1,3.9,2.6,6.4,4.2c0,0,0.9-13.2,2.6-11.9
		C1196.5,192.9,1196.5,206.7,1196.5,206.7z"/>
	<path class="st25" d="M1177.6,131.9c0.3,0.3-1.9,2-4.8,3.7c-2.8,1.8-5.3,2.9-5.4,2.6c-0.3-0.3,1.9-2,4.8-3.7
		C1174.9,132.5,1177.4,131.5,1177.6,131.9z"/>
	<path class="st25" d="M1160.4,219.7c-0.1,0-0.1-1.2-0.3-3.4s-0.1-5.3-0.3-9.1c-0.1-7.7-0.3-18.3-0.3-30c0-5.8,0-11.4,0-16.6
		c0-2.6,0-4.9,0.1-7.2c0-2.3,0.4-4.5,0.8-6.4c0.9-3.8,2.6-6.7,4.2-8.1c1.6-1.6,2.8-1.9,2.8-1.8s-1.1,0.5-2.4,2.2
		c-1.4,1.6-2.8,4.3-3.7,8c-0.8,3.7-0.7,8.3-0.6,13.3c0,5.2,0,10.7,0,16.6c0,11.7-0.1,22.4-0.3,30c0,3.8-0.1,6.9-0.3,9.1
		C1160.3,218.5,1160.5,219.7,1160.4,219.7z"/>
	<path class="st25" d="M1160.4,186c-0.3,0-0.5-1.9-1.2-5c-0.7-3.1-1.6-7.3-2.6-12.1c-2.2-9.4-3.9-17-3.5-17.1
		c0.4-0.1,2.7,7.3,4.9,16.8c1.1,4.8,1.9,9,2.2,12.2C1160.5,184,1160.5,186,1160.4,186z"/>
	<path class="st24" d="M1144.4,138.2c0,0-3.4-4.6-9.2-6.5c-5.2-1.6-12.1-1.2-20.1,6.5c0,0-0.7,0.4-1.9,1.5c3.7,0.1,6.5,1.8,6.5,3.7
		c0,2-3.3,3.8-7.2,3.8h-0.3c-1.8,0-3.4-0.4-4.6-0.9c-2.7,4.1-5.6,9.8-7.3,17.6c-0.5,2.2-1,4.5-1.2,6.9c-0.3,1.8-0.4,3.5-0.6,5.4
		c0.3-0.3,0.7-0.4,0.9-0.7c2.6-1.5,5.3-1.6,6-0.3c0.8,1.4-0.7,3.5-3.3,5c-1.4,0.8-2.7,1.2-3.8,1.2c0,4.2,0.4,8.8,1.1,13.8
		c0,0,5.3-3.3,12.6-8.1c3.1-2,6.7-4.5,10.2-7.1c-0.5-1.8-0.8-4.1-0.8-6.7c0-1,0-1.8,0.1-2.7c0.3-3.1,1.1-5.7,2-6.9
		c0.4-0.5,0.8-0.8,1.3-0.8c0.4,0,1,0.3,1.4,0.8c1,1.2,1.8,3.8,2,6.9c0,0.8,0.1,1.8,0.1,2.7c0,0.8,0,1.5-0.1,2.2
		c2-1.6,4.2-3.3,6.2-4.9c5.2-4.2,10.1-8.6,13.8-12.8c-1.1-1.2-2.2-3.1-3.1-5.3c-1.8-4.2-2.2-8.1-0.8-8.7s3.8,2.4,5.6,6.7
		c0.6,1.4,1,2.6,1.2,3.8c2.2-2.9,3.7-5.6,4.1-8C1158.5,129.8,1144.4,138.2,1144.4,138.2z M1137.2,158.2c-0.8,0-1.6-0.9-2-2.4
		c-0.4-1.2-0.7-2.7-0.7-4.3s0.3-3.1,0.7-4.3c0.5-1.5,1.2-2.4,2-2.4c1.5,0,2.7,3,2.7,6.8S1138.7,158.2,1137.2,158.2z"/>
	<path class="st25" d="M1099.4,195.4c-0.1,0,0.1-1.1,0.6-3c0.3-0.9,0.5-2,0.8-3.4c0.3-1.4,0.8-2.9,1.4-4.3c0.5-1.6,1.1-3.4,1.9-5.3
		c0.8-1.9,1.8-3.8,2.7-5.8c1.1-1.9,2.3-4.1,3.5-6.1c0.7-1.1,1.4-2,2.2-3.1c0.7-1.1,1.5-2.2,2.3-3.1c0.8-1.1,1.6-2,2.4-3
		c0.8-1,1.8-1.9,2.6-2.9c1.6-1.9,3.4-3.4,5-5c3.4-3,6.7-5.4,9.6-7.2c2.9-1.9,5.3-3.1,7.1-3.9c1.8-0.8,2.7-1.1,2.8-1
		c0,0.1-0.9,0.5-2.6,1.5c-1.6,0.9-4.1,2.3-6.8,4.2c-2.8,1.9-6,4.3-9.2,7.3c-1.6,1.5-3.4,3.1-4.9,5c-0.8,0.9-1.6,1.8-2.4,2.7
		c-0.8,0.9-1.6,2-2.4,3c-6.4,8.1-10.4,16.7-12.8,22.9c-0.7,1.6-1.2,3-1.5,4.3c-0.4,1.2-0.7,2.3-1.1,3.3
		C1099.9,194.4,1099.6,195.5,1099.4,195.4z"/>
	<path class="st26" d="M1505.3,156.8c0,0-9-0.8-12.5,3.9c-3.7,4.8-24.3,76.7-24.3,76.7l19.5,5.6l16-50.5L1505.3,156.8z"/>
	<path class="st27" d="M1496.5,216.6c0,0-7.5-51.2-4.1-55.2c3.5-4.1,6.5-4.1,6.5-4.1l-1.2,56.5L1496.5,216.6z"/>
	<path class="st13" d="M1583.1,160.5c0,0-62-14.5-74.9-9.5c-12.9,5-12,13-12.6,16.7c-0.7,3.7,3.7,73.7,3.7,73.7l23.9,0.8
		c0,0-1.2-66.5,0-68.1c0.8-1.1,10.1-2.2,19.6-2.2c9.1,0,41.3,0,41.3,0L1583.1,160.5z"/>
</g>
</svg>
