<svg id="Group_42" data-name="Group 42" xmlns="http://www.w3.org/2000/svg" width="388.115" height="358.668" viewBox="0 0 388.115 358.668">
  <path id="Path_495" data-name="Path 495" d="M845.592,599.165l-31.506-46.8s47.713,16.657,42.3,46.8Z" transform="translate(-492.001 -311.816)" fill="#e5e5e5"/>
  <path id="Path_496" data-name="Path 496" d="M319.858,567.694l-1.2-.023a277.382,277.382,0,0,1,4.246-39.641c5.172-28.036,13.772-46.448,25.561-54.726l.687.979C321.616,493.619,319.872,566.955,319.858,567.694Z" transform="translate(-292.85 -280.034)" fill="#e5e5e5"/>
  <path id="Path_497" data-name="Path 497" d="M344.858,602.974l-1.2-.023c.026-1.325.773-32.541,13.062-41.169l.687.979C345.618,571.041,344.864,602.656,344.858,602.974Z" transform="translate(-302.9 -315.6)" fill="#e5e5e5"/>
  <circle id="Ellipse_147" data-name="Ellipse 147" cx="5.98" cy="5.98" r="5.98" transform="translate(57.13 182.397)" fill="#f207e2"/>
  <circle id="Ellipse_148" data-name="Ellipse 148" cx="5.98" cy="5.98" r="5.98" transform="translate(54.168 233.827)" fill="#f207e2"/>
  <path id="Path_498" data-name="Path 498" d="M335.666,472.784a26.563,26.563,0,0,1-1.805,13.6,24.208,24.208,0,0,1-4.07-26A26.561,26.561,0,0,1,335.666,472.784Z" transform="translate(-296.495 -274.841)" fill="#e5e5e5"/>
  <path id="Path_499" data-name="Path 499" d="M364.475,504.5a26.564,26.564,0,0,1-13.706.592,24.208,24.208,0,0,1,24.889-8.537A26.563,26.563,0,0,1,364.475,504.5Z" transform="translate(-305.757 -289.126)" fill="#e5e5e5"/>
  <path id="Path_500" data-name="Path 500" d="M367.6,582.35a18.62,18.62,0,0,1-9.607.415,16.968,16.968,0,0,1,17.445-5.984A18.619,18.619,0,0,1,367.6,582.35Z" transform="translate(-308.661 -321.427)" fill="#e5e5e5"/>
  <path id="Path_501" data-name="Path 501" d="M663.017,631.818H276.1a.6.6,0,0,1,0-1.2H663.017a.6.6,0,0,1,0,1.2Z" transform="translate(-275.5 -343.272)" fill="#cbcbcb"/>
  <path id="Path_502" data-name="Path 502" d="M371.923,515.917l-4.892,12.734-51.444-12.811,7.22-18.794Z" transform="translate(-126.86 -199.802)" fill="#ffb7b7"/>
  <path id="Path_503" data-name="Path 503" d="M689.682,676.959l-15.775,41.059-.519-.2a17.121,17.121,0,0,1-9.842-22.121h0l9.635-25.077Z" transform="translate(-431.027 -359.35)" fill="#2f2e41"/>
  <path id="Path_504" data-name="Path 504" d="M538.758,412.112l-22.419,2.1-1.112,66.7a12.556,12.556,0,0,0,13.367,11.39l14.214-.979Z" transform="translate(-371.865 -255.436)" fill="#e5e5e5"/>
  <path id="Path_505" data-name="Path 505" d="M675.815,406.489l-15.34-.2-.909,79.259h0a24.687,24.687,0,0,0,25.492-25.628Z" transform="translate(-429.887 -253.096)" fill="#e5e5e5"/>
  <path id="Path_506" data-name="Path 506" d="M534.54,578.53a48.792,48.792,0,0,1-1.578,6.793c-.774,2.177-1.969,4.19-2.677,6.389-2.256,7.01.871,14.825,5.866,20.236a33.021,33.021,0,0,0,16.1,9.56,65.682,65.682,0,0,0,13.835,1.454c12.859.436,26.049.826,38.234-3.306a66.429,66.429,0,0,0,11.108-5.046,8.315,8.315,0,0,0,2.882-2.269,7.932,7.932,0,0,0,1.04-4.656c-.027-5.451-1.133-10.875-.87-16.32.145-3.016.71-6.03.432-9.036a16.67,16.67,0,0,0-12.74-14.36c-3.457-.742-7.042-.338-10.561,0a269.26,269.26,0,0,1-27.485,1.229c-9.376-.06-18.694-1.491-28.024-1.641-2.759-.044-2.7.806-3.582,3.477A65.061,65.061,0,0,0,534.54,578.53Z" transform="translate(-377.619 -317.918)" fill="#2f2e41"/>
  <path id="Path_507" data-name="Path 507" d="M459.172,577.94a27.745,27.745,0,0,0-7.717-.82,19.261,19.261,0,0,0-17.882,22.706,32.352,32.352,0,0,0,3.058,8.356c2.047,4.153,4.5,8.3,8.29,10.959a32.29,32.29,0,0,0,7.316,3.483l19.955,7.517c2.936,1.106,5.872,2.212,8.836,3.237a172.84,172.84,0,0,0,46.154,9.175,49.977,49.977,0,0,0,14.33-.726,4.665,4.665,0,0,0,2.935-1.586,5.026,5.026,0,0,0,.656-2.166l1.228-8.6a7.2,7.2,0,0,0-.1-3.624,6.941,6.941,0,0,0-3.317-3.126c-13.119-7.535-28.437-11.692-39.48-22.034-2.6-2.435-4.775-6.294-7.934-7.947-3.582-1.875-7.8-2.946-11.5-4.674C475.9,584.3,467.944,579.957,459.172,577.94Z" transform="translate(-338.915 -321.759)" fill="#2f2e41"/>
  <path id="Path_508" data-name="Path 508" d="M503.9,596.554c7.053,2.21,36.832,17.522,41.937,22.868-.684.247-23.9-12.763-24.594-12.972a140.265,140.265,0,0,1-18.711-6.594c-1.21-.559-7.858-3.189-7.557-4.715C495.313,593.419,502.647,596.162,503.9,596.554Z" transform="translate(-363.72 -328.784)" opacity="0.1"/>
  <path id="Path_509" data-name="Path 509" d="M555.3,374.019l-18.991,14.419s-20.039.627-19.362,13.437,8.7,73.46,8.7,73.46l1.74,20.868,33.006,9.4A107.994,107.994,0,0,0,615.1,506.78h0l-3.922-20.935s15.883-95.08,6.315-99.267-15.549-2.99-15.549-2.99l-11.993-10.466Z" transform="translate(-372.549 -239.763)" fill="#e5e5e5"/>
  <path id="Path_510" data-name="Path 510" d="M623.114,300.79c0,18.719-17.308,15.887-38.659,15.887S545.8,319.509,545.8,300.79s8.455-51.9,38.659-51.9C615.7,248.891,623.114,282.072,623.114,300.79Z" transform="translate(-384.153 -189.824)" fill="#2f2e41"/>
  <circle id="Ellipse_149" data-name="Ellipse 149" cx="26.014" cy="26.014" r="26.014" transform="translate(165.215 98.914) rotate(-45)" fill="#ffb7b7"/>
  <path id="Path_511" data-name="Path 511" d="M559.964,295.911h10.289l4.539-12.71.908,12.71h4.918l2.648-7.414.53,7.414h36.541A27.538,27.538,0,0,0,592.8,268.373h-5.3a27.538,27.538,0,0,0-27.539,27.539Z" transform="translate(-389.849 -197.656)" fill="#2f2e41"/>
  <rect id="Rectangle_153" data-name="Rectangle 153" width="52.028" height="62.792" transform="translate(174.375 137.247)" fill="#f207e2"/>
  <path id="Path_512" data-name="Path 512" d="M296.381,514.917l4.893,12.734,51.444-12.811L345.5,496.045Z" transform="translate(-119.139 -199.4)" fill="#ffb7b7"/>
  <path id="Path_513" data-name="Path 513" d="M565.655,669.62,575.29,694.7h0a17.121,17.121,0,0,1-9.842,22.121l-.519.2L549.154,675.96Z" transform="translate(-385.503 -358.949)" fill="#2f2e41"/>
  <path id="Path_514" data-name="Path 514" d="M685.886,569.628a35.917,35.917,0,0,1,12.652-.864c3.382.373,6.867,1.314,9.337,3.655,3.006,2.85,3.972,7.256,4.052,11.4a35.608,35.608,0,0,1-7.739,22.741,20.64,20.64,0,0,1-4.425,4.26,29.126,29.126,0,0,1-5.757,2.774l-44.689,17.627c-11.757,4.637-23.555,9.288-35.818,12.345a2.791,2.791,0,0,1-3.727-1.3l-.029-.062a92.585,92.585,0,0,1-9.794-17.917,1.207,1.207,0,0,1,.534-1.9l31.609-18.161a31.961,31.961,0,0,0,6.434-4.433,15.974,15.974,0,0,0,3.3-4.6c.655-1.369.716-4.6,1.553-5.609.819-.99,3.622-1.069,4.917-1.459a44.614,44.614,0,0,0,5.353-2.023c7.071-3.163,13.367-7.759,20.145-11.463A51.685,51.685,0,0,1,685.886,569.628Z" transform="translate(-405.812 -318.32)" fill="#2f2e41"/>
  <path id="Path_515" data-name="Path 515" d="M679.767,590.705c-5.431,4.079-12.462,7.828-17.844,12.014-1.837,1.429-32.458,18.644-32.891,20.931,5.021.846,37.007-21.531,41.584-23.763s8.633-5.382,12.653-8.507c1.024-.8,5.366-3.191,2.425-4.081C684.037,586.8,680.99,589.89,679.767,590.705Z" transform="translate(-417.612 -325.835)" opacity="0.1"/>
  <circle id="Ellipse_150" data-name="Ellipse 150" cx="18.687" cy="18.687" r="18.687" transform="translate(341.074 70.099)" fill="#f1f1f1"/>
  <circle id="Ellipse_151" data-name="Ellipse 151" cx="13.109" cy="13.109" r="13.109" transform="translate(312.068 84.603)" fill="#f1f1f1"/>
  <circle id="Ellipse_152" data-name="Ellipse 152" cx="10.511" cy="10.511" r="10.511" transform="translate(74.535 81.248)" fill="#f1f1f1"/>
  <circle id="Ellipse_153" data-name="Ellipse 153" cx="7.373" cy="7.373" r="7.373" transform="translate(94.978 94.59)" fill="#f1f1f1"/>
  <circle id="Ellipse_154" data-name="Ellipse 154" cx="8.035" cy="8.035" r="8.035" transform="translate(196.281 0)" fill="#f1f1f1"/>
  <path id="Path_516" data-name="Path 516" d="M537.087,442.9l.718-5.544s26.791,1.956,22.6,8.534-14.353,7.176-14.353,7.176Z" transform="translate(-380.653 -265.582)" fill="#2f2e41" opacity="0.17"/>
  <path id="Path_517" data-name="Path 517" d="M551.053,406.273a10.46,10.46,0,0,1,7.61,4.672h0a10.45,10.45,0,0,1-3.4,14.689,10.068,10.068,0,0,1-1.385.681l-16.467,50.37a8.366,8.366,0,1,1-15.044-7.324l17.513-49.811a10.439,10.439,0,0,1,11.172-13.278Z" transform="translate(-374.396 -253.063)" fill="#ffb7b7"/>
  <path id="Path_518" data-name="Path 518" d="M528.891,438.142s9.436,16.121,23.077,8.061L538.748,496.8H527.609l-11.522-2.152,3.226-20.9Z" transform="translate(-372.211 -265.899)" fill="#e5e5e5"/>
  <path id="Path_519" data-name="Path 519" d="M644.9,444.006l-7.817-10.731s3.757-11.131,18.324-7.06C655.411,426.214,664.68,446.963,644.9,444.006Z" transform="translate(-420.85 -260.745)" fill="#e5e5e5"/>
  <path id="Path_520" data-name="Path 520" d="M644.9,444.006l-7.817-10.731s3.757-11.131,18.324-7.06C655.411,426.214,664.68,446.963,644.9,444.006Z" transform="translate(-420.85 -260.745)" fill="#2f2e41" opacity="0.17"/>
  <path id="Path_521" data-name="Path 521" d="M643.6,393.2a10.381,10.381,0,0,1,5.582,12.347L666.7,455.359a8.366,8.366,0,1,1-15.044,7.324l-16.467-50.37a10.072,10.072,0,0,1-1.385-.681,10.45,10.45,0,0,1-3.4-14.689h0a10.46,10.46,0,0,1,7.61-4.672A10.331,10.331,0,0,1,643.6,393.2Z" transform="translate(-417.48 -247.433)" fill="#ffb7b7"/>
  <path id="Path_522" data-name="Path 522" d="M637.087,433.876s12.9,7.825,18.324-7.061l18.173,47.85-5.4,9.444-.781.065a19.972,19.972,0,0,1-17.093-7.228h0a39.673,39.673,0,0,1-8.288-17.626Z" transform="translate(-420.851 -261.346)" fill="#e5e5e5"/>
</svg>
