<?xml version="1.0" encoding="utf-8"?>
<!-- Generator: Adobe Illustrator 23.0.1, SVG Export Plug-In . SVG Version: 6.00 Build 0)  -->
<svg version="1.1" id="Layer_1" xmlns="http://www.w3.org/2000/svg" xmlns:xlink="http://www.w3.org/1999/xlink" x="0px" y="0px"
	 viewBox="0 0 200 200" style="enable-background:new 0 0 200 200;" xml:space="preserve">
<style type="text/css">
	.st0{opacity:0.45;}
	.st1{fill:#B7D0F1;}
	.st2{fill:#7E9BC2;}
	.st3{fill:#DCE8FA;}
</style>
<g class="st0">
	<path class="st1" d="M100,194c51.9,0,94-42.1,94-94S151.9,6,100,6S6,48.1,6,100S48.1,194,100,194z"/>
	<path class="st2" d="M99.7,99.8c12.2,0,21.9-9.7,21.9-21.9S111.9,56,99.7,56s-21.9,9.7-21.9,21.9C77.8,90.3,87.5,99.8,99.7,99.8z"
		/>
	<path class="st2" d="M133.7,141.9H65.8c-3.5,0-6.2-3-5.5-6.2c3-18.9,19.7-33.7,39.4-33.7c9.2,0,18,3.2,24.9,8.7
		c7.5,6.2,13,15,14.7,24.9C139.9,139.1,137.1,141.9,133.7,141.9z"/>
	<path class="st3" d="M133.7,141.9H88c3.7-17.2,18.5-30.2,36.4-31.4c7.5,6.2,13,15,14.7,24.9C139.9,139.1,137.1,141.9,133.7,141.9z"
		/>
</g>
</svg>
