<svg xmlns="http://www.w3.org/2000/svg" width="110" height="110" viewBox="0 0 110 110">
  <g id="icon-clinic" transform="translate(-5033 -1513)">
    <rect id="Rectangle_11" data-name="Rectangle 11" width="110" height="110" rx="55" transform="translate(5033 1513)" fill="#f207e2"/>
    <g id="clinic" transform="translate(5063 1543)">
      <path id="Path_28" data-name="Path 28" d="M374.209,321.154h-2.8v-.369a8.259,8.259,0,0,0-8.107-8.368h-.587v-.956H347.844v.956h-.587a8.238,8.238,0,0,0-8.085,8.368v.369h-2.608a6.521,6.521,0,0,0-6.3,6.521v23.3a6.52,6.52,0,0,0,3.652,5.912v4.738h8.824V357.5H367.08v4.13h8.89v-4.347a6.521,6.521,0,0,0,4.478-6.238V327.653a6.521,6.521,0,0,0-6.238-6.5Zm-.239,3.282h.239a3.174,3.174,0,0,1,3.065,2.7h-3.3Zm-11.259-10.368h.587a6.521,6.521,0,0,1,6.521,6.716v.37h-2.847a3.891,3.891,0,0,0-3.825-3.76h-.413Zm-13.28-.956h11.694v4.347H349.431Zm13.693,5.912A2.282,2.282,0,0,1,365.3,321.2H344.584a2.282,2.282,0,0,1,2.174-2.173Zm-22.366,1.761a6.521,6.521,0,0,1,6.521-6.716h.587v3.326h-.956a3.891,3.891,0,0,0-3.825,3.76h-2.3Zm-4.195,3.652h.217v2.7h-3.3a3.2,3.2,0,0,1,3.086-2.7Zm-2.847,27.821h3.065v1.913h-.217a3.086,3.086,0,0,1-2.847-1.913Zm7.477,7.694H335.5v-2.586a5.712,5.712,0,0,0,1.065.109h4.63Zm33.233,0h-5.608v-2.478h5.716Zm-.217-5.782h-.239v-1.913h3.065a3.087,3.087,0,0,1-2.826,1.913Zm3.108-3.565h-4.934v3.565H338.389v-3.565h-4.934V328.761h4.934v-4.347H372.4v4.347h4.934Z" transform="translate(-330.26 -311.46)" fill="#fff"/>
      <path id="Path_29" data-name="Path 29" d="M349.585,325.344v-4.8h-6.977v4.8H338v7.194h4.651v4.825h6.977v-4.825h4.651v-7.194Zm2.174,4.738h-4.695v1.891h0v2.913H344.89V331.3h0v-1.217h-4.63V327.8h4.63v-1.2h0v-3.586h2.173v2.869h0v1.891h4.695Z" transform="translate(-321.177 -300.804)" fill="#fff"/>
    </g>
  </g>
</svg>
