<?xml version="1.0" encoding="utf-8"?>
<!-- Generator: Adobe Illustrator 23.0.1, SVG Export Plug-In . SVG Version: 6.00 Build 0)  -->
<svg version="1.1" id="Layer_1" xmlns="http://www.w3.org/2000/svg" xmlns:xlink="http://www.w3.org/1999/xlink" x="0px" y="0px"
	 viewBox="0 0 736 327" style="enable-background:new 0 0 736 327;" xml:space="preserve">
<style type="text/css">
	.st0{fill:url(#SVGID_1_);}
	.st1{fill:#B7FBEB;filter:url(#Adobe_OpacityMaskFilter);}
	.st2{mask:url(#mask0_1_);}
	.st3{opacity:0.8;}
	.st4{fill:#E0E0E0;}
	.st5{fill:#7ED6C1;}
	.st6{fill:#27DEBF;}
	.st7{opacity:0.2;enable-background:new    ;}
	.st8{fill:#F5F5F5;}
	.st9{fill:#263238;}
	.st10{opacity:0.3;enable-background:new    ;}
	.st11{fill:#C4C4C4;filter:url(#Adobe_OpacityMaskFilter_1_);stroke:#000000;}
	.st12{mask:url(#mask1_1_);}
	.st13{fill:#EBEBEB;}
	.st14{fill:#37474F;}
	.st15{fill:#455A64;}
	.st16{opacity:0.5;fill:#F5F5F5;enable-background:new    ;}
	.st17{opacity:0.6;fill:#F5F5F5;enable-background:new    ;}
	.st18{opacity:0.7;fill:#F5F5F5;enable-background:new    ;}
	.st19{opacity:0.5;}
</style>
<linearGradient id="SVGID_1_" gradientUnits="userSpaceOnUse" x1="319.835" y1="306.0535" x2="470.196" y2="-135.8463" gradientTransform="matrix(1 0 0 -1 0 328)">
	<stop  offset="1.587280e-02" style="stop-color:#D8F5FB"/>
	<stop  offset="0.8288" style="stop-color:#D8FBEA"/>
</linearGradient>
<rect class="st0" width="736" height="327"/>
<defs>
	<filter id="Adobe_OpacityMaskFilter" filterUnits="userSpaceOnUse" x="432.8" y="67.1" width="327.6" height="324.8">
		<feColorMatrix  type="matrix" values="1 0 0 0 0  0 1 0 0 0  0 0 1 0 0  0 0 0 1 0"/>
	</filter>
</defs>
<mask maskUnits="userSpaceOnUse" x="432.8" y="67.1" width="327.6" height="324.8" id="mask0_1_">
	<path class="st1" d="M324,51h404c4.4,0,8,3.6,8,8v260c0,4.4-3.6,8-8,8H324c-4.4,0-8-3.6-8-8V59C316,54.6,319.6,51,324,51z"/>
</mask>
<g class="st2">
	<g class="st3">
		<path class="st4" d="M691.7,293.6c-12.2-7.1-32.1-7.1-44.3,0c-12.2,7.1-12.2,18.5,0,25.6c12.2,7.1,32.1,7.1,44.3,0
			C703.9,312.1,703.9,300.7,691.7,293.6z"/>
		<path class="st5" d="M691.7,293.6c-12.2-7.1-32.1-7.1-44.3,0c-12.2,7.1-12.2,18.5,0,25.6c12.2,7.1,32.1,7.1,44.3,0
			C703.9,312.1,703.9,300.7,691.7,293.6z"/>
		<path class="st5" d="M503.5,219.6c-12.2-7.1-32.1-7.1-44.3,0c-12.2,7.1-12.2,18.5,0,25.6c12.2,7.1,32.1,7.1,44.3,0
			C515.8,238.1,515.8,226.6,503.5,219.6z"/>
		<path class="st5" d="M739.1,236.1c-12.2-7.1-32.1-7.1-44.3,0c-12.2,7.1-12.2,18.5,0,25.6c12.2,7.1,32.1,7.1,44.3,0
			C751.4,254.6,751.4,243.2,739.1,236.1z"/>
		<path class="st6" d="M512.2,321.8c0,0-0.9-15.5-7.6-32.1c-6.7-16.5-18.3-30-33.2-33.1c-14.8-3.1-20.5,4.6-19.3,13.4
			c1.2,8.8,13.7,15.4,22.1,22.9c8.3,7.3,24,25.2,28.3,42.4l8.3,0.9L512.2,321.8z"/>
		<path class="st7" d="M512.2,321.8c0,0-0.9-15.5-7.6-32.1c-6.7-16.5-18.3-30-33.2-33.1c-14.8-3.1-20.5,4.6-19.3,13.4
			c1.2,8.8,13.7,15.4,22.1,22.9c8.3,7.3,24,25.2,28.3,42.4l8.3,0.9L512.2,321.8z"/>
		<path class="st8" d="M508,336.2c-0.4,0-0.6-0.4-0.6-0.6c1.9-29.5-17.3-62.2-43.8-74.4c-0.4-0.1-0.5-0.5-0.2-0.9
			c0.1-0.4,0.5-0.5,0.9-0.2c26.9,12.3,46.4,45.5,44.5,75.5C508.6,335.9,508.3,336.2,508,336.2z"/>
		<path class="st6" d="M511.7,388.2c0,0-8.7,5.5-22.1,3.1c-13.6-2.4-16.4-11.6-17.5-20.6c-1.1-9.1-7.8-5-16.9-8.7
			c-9.1-3.7-10.6-13.1-8.6-20c1.5-5.1,4.6-8.2,4.6-8.2s-6.3-2.9-12.2-12.6c-3.5-5.8-6.2-13.7-6.2-13.7s7.3-5.6,21.9-2.6
			c7.7,1.6,13.4,6.1,13.4,6.1s8-9,18.8-5.7c3.9,1.2,6.3,4,7.8,7.6c0.6,1.5,1,3.1,1.7,4.5c1.1,1.9,3.4,2.9,5.5,3.1
			c5.1,0.7,9.9-0.1,14.7,2.5c2.4,1.2,4,3.6,5.3,6C529,341.4,511.7,388.2,511.7,388.2z"/>
		<path class="st8" d="M517.7,370.5c-0.2,0-0.4-0.1-0.5-0.2c-21.1-34.3-54.7-54.2-76.8-60.7c-0.4-0.1-0.5-0.5-0.4-0.7
			c0.1-0.4,0.5-0.5,0.7-0.4c22.5,6.6,56.2,26.6,77.5,61.2c0.1,0.2,0.1,0.6-0.2,0.9C517.8,370.5,517.7,370.5,517.7,370.5z"/>
		<path class="st8" d="M477.8,328.4c-0.4,0-0.6-0.2-0.6-0.5c-1-8.5,2.6-15.8,2.7-16c0.1-0.2,0.5-0.4,0.9-0.2
			c0.2,0.1,0.4,0.5,0.2,0.9c0,0.1-3.6,7.3-2.6,15.4C478.4,328,478.1,328.4,477.8,328.4z"/>
		<path class="st9" d="M718.9,121.3l8.3,4.8v14.4l-8.3-4.8V121.3z"/>
		<path class="st6" d="M712.5,86.7l-26.8,15.5v-31c0-1.4-0.9-3.1-2.1-3.7c-1.2-0.6-3.1-0.6-4.3,0.1l-132.6,76.5
			c-5.1,3-7.7,6.9-7.7,10.8v129.3c0,3.9,2.6,7.8,7.7,10.7l0.2,0.1c10.3,5.9,26.9,5.9,37.1,0l132.7-76.6c1.2-0.7,2.2-2.4,2.2-3.8
			V87.8c0,0-1-0.6-2.1-1.2C715.7,86,713.7,86,712.5,86.7z"/>
		<path class="st6" d="M546.7,165.6c-10.2-5.9-10.2-15.6,0-21.5l132.6-76.5c1.2-0.7,3.1-0.7,4.3-0.1c1.2,0.6,1.1,1.8-0.1,2.5
			l-129,74.4c-1.2,0.7-3.2,1.8-4.3,2.7c-6,4.5-6.5,10.5-1.4,14.7c1.1,0.9,3.1,2,4.4,2.6c7.4,3.1,18,2.8,25.9-0.8
			c1.3-0.6,3.3-1.7,4.5-2.4l128.9-74.4c1.2-0.7,3.1-0.7,4.3-0.1c1.1,0.7,1.1,1.8-0.1,2.5L584,165.7c-10.2,5.9-26.9,5.9-37.1,0
			L546.7,165.6z"/>
		<path class="st10" d="M546.7,165.6c-10.2-5.9-10.2-15.6,0-21.5l132.6-76.5c1.2-0.7,3.1-0.7,4.3-0.1c1.2,0.6,1.1,1.8-0.1,2.5
			l-129,74.4c-1.2,0.7-3.2,1.8-4.3,2.7c-6,4.5-6.5,10.5-1.4,14.7c1.1,0.9,3.1,2,4.4,2.6c7.4,3.1,18,2.8,25.9-0.8
			c1.3-0.6,3.3-1.7,4.5-2.4l128.9-74.4c1.2-0.7,3.1-0.7,4.3-0.1c1.1,0.7,1.1,1.8-0.1,2.5L584,165.7c-10.2,5.9-26.9,5.9-37.1,0
			L546.7,165.6z"/>
		<path class="st8" d="M543.4,173.3c-0.1,0-0.2,0-0.3-0.1c-0.7-0.6-1.3-1.2-1.8-1.8c-0.2-0.2-0.1-0.5,0.1-0.7
			c0.2-0.2,0.5-0.2,0.7,0.1c0.5,0.6,1.1,1.2,1.7,1.7c0.2,0.2,0.2,0.5,0,0.7C543.6,173.2,543.5,173.3,543.4,173.3z"/>
		<path class="st8" d="M567.1,180.2c-0.3,0-0.5-0.2-0.5-0.5s0.2-0.5,0.5-0.5c1.7-0.1,3.3-0.2,5-0.5c0.3,0,0.5,0.1,0.6,0.4
			c0,0.3-0.1,0.5-0.4,0.6C570.5,179.9,568.8,180.1,567.1,180.2z M562,180.1c-1.8-0.1-3.5-0.4-5.1-0.7c-0.3-0.1-0.4-0.3-0.4-0.6
			c0.1-0.3,0.3-0.4,0.6-0.4c1.6,0.3,3.3,0.5,4.9,0.7c0.3,0,0.5,0.3,0.5,0.5C562.5,179.9,562.3,180.1,562,180.1z M577,178.6
			c-0.2,0-0.4-0.1-0.5-0.4s0.1-0.5,0.3-0.6c1.7-0.5,3.2-1,4.7-1.7c0.2-0.1,0.5,0,0.7,0.2c0.1,0.3,0,0.5-0.2,0.7
			c-1.5,0.7-3.1,1.3-4.8,1.8C577.1,178.6,577,178.6,577,178.6z M552.2,178.1c-0.1,0-0.1,0-0.2,0c-1.7-0.6-3.3-1.3-4.7-2
			c-0.2-0.1-0.3-0.4-0.2-0.7c0.1-0.2,0.4-0.3,0.7-0.2c1.4,0.8,2.9,1.4,4.5,2c0.3,0.1,0.4,0.4,0.3,0.6
			C552.6,178,552.4,178.1,552.2,178.1z M586.2,174.5c-0.2,0-0.3-0.1-0.4-0.2c-0.1-0.2-0.1-0.5,0.2-0.7l4.4-2.5
			c0.2-0.1,0.5-0.1,0.7,0.2c0.1,0.2,0.1,0.5-0.2,0.7l-4.4,2.5C586.3,174.5,586.2,174.5,586.2,174.5z M594.9,169.5
			c-0.2,0-0.3-0.1-0.4-0.2c-0.1-0.2-0.1-0.5,0.2-0.7l4.3-2.6c0.2-0.1,0.5-0.1,0.7,0.2c0.1,0.2,0.1,0.5-0.2,0.7l-4.4,2.5
			C595.1,169.4,595,169.5,594.9,169.5z M603.6,164.4c-0.2,0-0.3-0.1-0.4-0.2c-0.1-0.2-0.1-0.5,0.2-0.7l4.4-2.5
			c0.2-0.1,0.5-0.1,0.7,0.2c0.1,0.2,0.1,0.5-0.2,0.7l-4.4,2.5C603.8,164.4,603.7,164.4,603.6,164.4z M612.4,159.4
			c-0.2,0-0.3-0.1-0.4-0.2c-0.1-0.2-0.1-0.5,0.2-0.7l4.4-2.5c0.2-0.1,0.5-0.1,0.7,0.2c0.1,0.2,0.1,0.5-0.2,0.7l-4.4,2.5
			C612.5,159.4,612.4,159.4,612.4,159.4z M621.1,154.3c-0.2,0-0.3-0.1-0.4-0.2c-0.1-0.2-0.1-0.5,0.2-0.7l4.4-2.5
			c0.2-0.1,0.5-0.1,0.7,0.2c0.1,0.2,0.1,0.5-0.2,0.7l-4.4,2.5C621.3,154.3,621.2,154.3,621.1,154.3z M629.8,149.3
			c-0.2,0-0.3-0.1-0.4-0.2c-0.1-0.2-0.1-0.5,0.2-0.7l4.4-2.5c0.2-0.1,0.5-0.1,0.7,0.2c0.1,0.2,0.1,0.5-0.2,0.7l-4.4,2.5
			C630,149.3,629.9,149.3,629.8,149.3z M638.6,144.3c-0.2,0-0.3-0.1-0.4-0.2c-0.1-0.2-0.1-0.5,0.2-0.7l4.4-2.5
			c0.2-0.1,0.5-0.1,0.7,0.2c0.1,0.2,0.1,0.5-0.2,0.7l-4.4,2.5C638.7,144.2,638.6,144.3,638.6,144.3z M647.3,139.2
			c-0.2,0-0.3-0.1-0.4-0.2c-0.1-0.2-0.1-0.5,0.2-0.7l4.4-2.5c0.2-0.1,0.5-0.1,0.7,0.2c0.1,0.2,0.1,0.5-0.2,0.7l-4.4,2.5
			C647.5,139.2,647.4,139.2,647.3,139.2z M656,134.2c-0.2,0-0.3-0.1-0.4-0.2c-0.1-0.2-0.1-0.5,0.2-0.7l4.4-2.5
			c0.2-0.1,0.5-0.1,0.7,0.2c0.1,0.2,0.1,0.5-0.2,0.7l-4.4,2.5C656.2,134.2,656.1,134.2,656,134.2z M664.7,129.1
			c-0.2,0-0.3-0.1-0.4-0.2c-0.1-0.2-0.1-0.5,0.2-0.7l4.4-2.5c0.2-0.1,0.5-0.1,0.7,0.2c0.1,0.2,0.1,0.5-0.2,0.7l-4.4,2.5
			C664.9,129.1,664.8,129.1,664.7,129.1z M673.5,124.1c-0.2,0-0.3-0.1-0.4-0.2c-0.1-0.2-0.1-0.5,0.2-0.7l4.4-2.5
			c0.2-0.1,0.5-0.1,0.7,0.2c0.1,0.2,0.1,0.5-0.2,0.7l-4.4,2.5C673.6,124.1,673.6,124.1,673.5,124.1z M682.2,119
			c-0.2,0-0.3-0.1-0.4-0.2c-0.1-0.2-0.1-0.5,0.2-0.7l4.4-2.5c0.2-0.1,0.5-0.1,0.7,0.2c0.1,0.2,0.1,0.5-0.2,0.7l-4.4,2.5
			C682.4,119,682.3,119,682.2,119z M690.9,114c-0.2,0-0.3-0.1-0.4-0.2c-0.1-0.2-0.1-0.5,0.2-0.7l4.4-2.5c0.2-0.1,0.5-0.1,0.7,0.2
			c0.1,0.2,0.1,0.5-0.2,0.7l-4.4,2.5C691.1,114,691,114,690.9,114z M699.7,109c-0.2,0-0.3-0.1-0.4-0.2c-0.1-0.2-0.1-0.5,0.2-0.7
			l4.4-2.5c0.2-0.1,0.5-0.1,0.7,0.2c0.1,0.2,0.1,0.5-0.2,0.7L700,109C699.8,108.9,699.8,109,699.7,109z"/>
		<path class="st8" d="M710.6,105.2c-0.3,0-0.5-0.2-0.5-0.5V103l-1.4,0.8c-0.2,0.1-0.5,0.1-0.7-0.2c-0.1-0.2-0.1-0.5,0.2-0.7
			l2.2-1.2c0.2-0.1,0.3-0.1,0.5,0c0.2,0.1,0.2,0.3,0.2,0.4v2.5C711.1,104.9,710.9,105.2,710.6,105.2z"/>
		<path class="st8" d="M710.6,205.3c-0.3,0-0.5-0.2-0.5-0.5v-5c0-0.3,0.2-0.5,0.5-0.5c0.3,0,0.5,0.2,0.5,0.5v5
			C711.1,205.1,710.9,205.3,710.6,205.3z M710.6,195.3c-0.3,0-0.5-0.2-0.5-0.5v-5c0-0.3,0.2-0.5,0.5-0.5c0.3,0,0.5,0.2,0.5,0.5v5
			C711.1,195.1,710.9,195.3,710.6,195.3z M710.6,185.3c-0.3,0-0.5-0.2-0.5-0.5v-5c0-0.3,0.2-0.5,0.5-0.5c0.3,0,0.5,0.2,0.5,0.5v5
			C711.1,185.1,710.9,185.3,710.6,185.3z M710.6,175.3c-0.3,0-0.5-0.2-0.5-0.5v-5c0-0.3,0.2-0.5,0.5-0.5c0.3,0,0.5,0.2,0.5,0.5v5
			C711.1,175,710.9,175.3,710.6,175.3z M710.6,165.3c-0.3,0-0.5-0.2-0.5-0.5v-5c0-0.3,0.2-0.5,0.5-0.5c0.3,0,0.5,0.2,0.5,0.5v5
			C711.1,165,710.9,165.3,710.6,165.3z M710.6,155.2c-0.3,0-0.5-0.2-0.5-0.5v-5c0-0.3,0.2-0.5,0.5-0.5c0.3,0,0.5,0.2,0.5,0.5v5
			C711.1,155,710.9,155.2,710.6,155.2z M710.6,145.2c-0.3,0-0.5-0.2-0.5-0.5v-5c0-0.3,0.2-0.5,0.5-0.5c0.3,0,0.5,0.2,0.5,0.5v5
			C711.1,145,710.9,145.2,710.6,145.2z M710.6,135.2c-0.3,0-0.5-0.2-0.5-0.5v-5c0-0.3,0.2-0.5,0.5-0.5c0.3,0,0.5,0.2,0.5,0.5v5
			C711.1,135,710.9,135.2,710.6,135.2z M710.6,125.2c-0.3,0-0.5-0.2-0.5-0.5v-5c0-0.3,0.2-0.5,0.5-0.5c0.3,0,0.5,0.2,0.5,0.5v5
			C711.1,125,710.9,125.2,710.6,125.2z M710.6,115.2c-0.3,0-0.5-0.2-0.5-0.5v-5c0-0.3,0.2-0.5,0.5-0.5c0.3,0,0.5,0.2,0.5,0.5v5
			C711.1,115,710.9,115.2,710.6,115.2z"/>
		<path class="st8" d="M708.4,214.1c-0.2,0-0.3-0.1-0.4-0.2c-0.1-0.2-0.1-0.5,0.2-0.7l1.9-1.1v-2.2c0-0.3,0.2-0.5,0.5-0.5
			c0.3,0,0.5,0.2,0.5,0.5v2.5c0,0.2-0.1,0.3-0.2,0.4l-2.2,1.2C708.6,214,708.5,214.1,708.4,214.1z"/>
		<path class="st8" d="M567.1,290.3c-0.3,0-0.5-0.2-0.5-0.5c0-0.3,0.2-0.5,0.5-0.5c1.7-0.1,3.3-0.2,5-0.5c0.3,0,0.5,0.1,0.6,0.4
			c0,0.3-0.1,0.5-0.4,0.6C570.5,290.1,568.8,290.2,567.1,290.3z M562,290.2c-1.8-0.1-3.5-0.4-5.1-0.7c-0.3-0.1-0.4-0.3-0.4-0.6
			c0.1-0.3,0.3-0.4,0.6-0.4c1.6,0.3,3.3,0.5,4.9,0.7c0.3,0,0.5,0.3,0.5,0.5C562.5,290,562.3,290.2,562,290.2z M577,288.8
			c-0.2,0-0.4-0.1-0.5-0.4c-0.1-0.3,0.1-0.5,0.3-0.6c1.7-0.5,3.2-1,4.7-1.7c0.2-0.1,0.5,0,0.7,0.2c0.1,0.3,0,0.5-0.2,0.7
			c-1.5,0.7-3.1,1.3-4.8,1.8C577.1,288.8,577.1,288.8,577,288.8z M552.2,288.3c-0.1,0-0.1,0-0.2,0c-1.7-0.6-3.3-1.3-4.7-2
			c-0.2-0.1-0.3-0.4-0.2-0.7c0.1-0.2,0.4-0.3,0.7-0.2c1.4,0.7,2.9,1.4,4.5,2c0.3,0.1,0.4,0.4,0.3,0.6
			C552.6,288.1,552.4,288.3,552.2,288.3z M586.2,284.6c-0.2,0-0.3-0.1-0.4-0.2c-0.1-0.2-0.1-0.5,0.2-0.7l4.4-2.5
			c0.2-0.1,0.5-0.1,0.7,0.2c0.1,0.2,0.1,0.5-0.2,0.7l-4.4,2.5C586.3,284.6,586.3,284.6,586.2,284.6z M594.9,279.6
			c-0.2,0-0.3-0.1-0.4-0.2c-0.1-0.2-0.1-0.5,0.2-0.7l4.4-2.5c0.2-0.1,0.5-0.1,0.7,0.2c0.1,0.2,0.1,0.5-0.2,0.7l-4.4,2.5
			C595.1,279.6,595,279.6,594.9,279.6z M603.6,274.6c-0.2,0-0.3-0.1-0.4-0.2c-0.1-0.2-0.1-0.5,0.2-0.7l4.4-2.5
			c0.2-0.1,0.5-0.1,0.7,0.2c0.1,0.2,0.1,0.5-0.2,0.7l-4.4,2.5C603.8,274.5,603.7,274.6,603.6,274.6z M612.4,269.5
			c-0.2,0-0.3-0.1-0.4-0.2c-0.1-0.2-0.1-0.5,0.2-0.7l4.4-2.5c0.2-0.1,0.5-0.1,0.7,0.2c0.1,0.2,0.1,0.5-0.2,0.7l-4.4,2.5
			C612.5,269.5,612.4,269.5,612.4,269.5z M621.1,264.5c-0.2,0-0.3-0.1-0.4-0.2c-0.1-0.2-0.1-0.5,0.2-0.7l4.4-2.5
			c0.2-0.1,0.5-0.1,0.7,0.2c0.1,0.2,0.1,0.5-0.2,0.7l-4.4,2.5C621.3,264.5,621.2,264.5,621.1,264.5z M629.8,259.4
			c-0.2,0-0.3-0.1-0.4-0.2c-0.1-0.2-0.1-0.5,0.2-0.7l4.4-2.5c0.2-0.1,0.5-0.1,0.7,0.2c0.1,0.2,0.1,0.5-0.2,0.7l-4.4,2.5
			C630,259.4,629.9,259.4,629.8,259.4z M638.6,254.4c-0.2,0-0.3-0.1-0.4-0.2c-0.1-0.2-0.1-0.5,0.2-0.7l4.4-2.5
			c0.2-0.1,0.5-0.1,0.7,0.2c0.1,0.2,0.1,0.5-0.2,0.7l-4.4,2.5C638.7,254.4,638.6,254.4,638.6,254.4z M647.3,249.4
			c-0.2,0-0.3-0.1-0.4-0.2c-0.1-0.2-0.1-0.5,0.2-0.7l4.4-2.5c0.2-0.1,0.5-0.1,0.7,0.2c0.1,0.2,0.1,0.5-0.2,0.7l-4.4,2.5
			C647.5,249.3,647.4,249.4,647.3,249.4z M656,244.3c-0.2,0-0.3-0.1-0.4-0.2c-0.1-0.2-0.1-0.5,0.2-0.7l4.4-2.5
			c0.2-0.1,0.5-0.1,0.7,0.2c0.1,0.2,0.1,0.5-0.2,0.7l-4.4,2.5C656.2,244.3,656.1,244.3,656,244.3z M664.8,239.3
			c-0.2,0-0.3-0.1-0.4-0.2c-0.1-0.2-0.1-0.5,0.2-0.7l4.4-2.5c0.2-0.1,0.5-0.1,0.7,0.2c0.1,0.2,0.1,0.5-0.2,0.7l-4.4,2.5
			C664.9,239.3,664.8,239.3,664.8,239.3z M673.5,234.2c-0.2,0-0.3-0.1-0.4-0.2c-0.1-0.2-0.1-0.5,0.2-0.7l4.4-2.5
			c0.2-0.1,0.5-0.1,0.7,0.2c0.1,0.2,0.1,0.5-0.2,0.7l-4.4,2.5C673.7,234.2,673.6,234.2,673.5,234.2z M682.2,229.2
			c-0.2,0-0.3-0.1-0.4-0.2c-0.1-0.2-0.1-0.5,0.2-0.7l4.4-2.5c0.2-0.1,0.5-0.1,0.7,0.2c0.1,0.2,0.1,0.5-0.2,0.7l-4.4,2.5
			C682.4,229.2,682.3,229.2,682.2,229.2z M690.9,224.1c-0.2,0-0.3-0.1-0.4-0.2c-0.1-0.2-0.1-0.5,0.2-0.7l4.4-2.5
			c0.2-0.1,0.5-0.1,0.7,0.2c0.1,0.2,0.1,0.5-0.2,0.7l-4.4,2.5C691.1,224.1,691,224.1,690.9,224.1z M699.7,219.1
			c-0.2,0-0.3-0.1-0.4-0.2c-0.1-0.2-0.1-0.5,0.2-0.7l4.4-2.5c0.2-0.1,0.5-0.1,0.7,0.2c0.1,0.2,0.1,0.5-0.2,0.7l-4.4,2.5
			C699.9,219.1,699.8,219.1,699.7,219.1z"/>
		<path class="st8" d="M543.4,283.4c-0.1,0-0.2,0-0.3-0.1c-0.7-0.6-1.3-1.2-1.8-1.8c-0.2-0.2-0.1-0.5,0.1-0.7
			c0.2-0.2,0.5-0.2,0.7,0.1c0.5,0.6,1.1,1.2,1.7,1.7c0.2,0.2,0.2,0.5,0,0.7C543.6,283.4,543.5,283.4,543.4,283.4z"/>
		<defs>
			<filter id="Adobe_OpacityMaskFilter_1_" filterUnits="userSpaceOnUse" x="540.6" y="76.4" width="161.7" height="102.4">
				<feColorMatrix  type="matrix" values="1 0 0 0 0  0 1 0 0 0  0 0 1 0 0  0 0 0 1 0"/>
			</filter>
		</defs>
		<mask maskUnits="userSpaceOnUse" x="540.6" y="76.4" width="161.7" height="102.4" id="mask1_1_">
			<path class="st11" d="M580.5,163.5l133-78l-30-15.5c-36.2,19-110,63-132,76.5C531.5,158.8,563.5,174,580.5,163.5z"/>
		</mask>
		<g class="st12">
			<path class="st4" d="M685.7,95.4V80.3c0-1.1-0.8-2.5-1.8-3.1l-0.6-0.4c-1-0.6-2.6-0.6-3.5,0l-139.2,80.5l20.7,12l122.6-70.8
				C684.9,97.9,685.7,96.5,685.7,95.4z"/>
			<path class="st13" d="M679.8,76.9l-139.2,80.4l4.1,2.4l139.2-80.4c1-0.6,1-1.5,0-2l-0.6-0.4C682.3,76.3,680.8,76.3,679.8,76.9z"
				/>
			<path class="st4" d="M694,100.1V85c0-1.1-0.8-2.5-1.8-3.1l-0.6-0.4c-1-0.6-2.6-0.6-3.5,0L548.9,162l20.7,12l122.6-70.8
				C693.2,102.6,694,101.3,694,100.1z"/>
			<path class="st13" d="M688.1,81.7L548.9,162l4.1,2.4L692.2,84c1-0.6,1-1.5,0-2l-0.6-0.4C690.6,81.1,689.1,81.1,688.1,81.7z"/>
			<path class="st4" d="M702.3,104.9V89.8c0-1.1-0.8-2.5-1.8-3.1l-0.6-0.4c-1-0.6-2.6-0.6-3.5,0l-139.3,80.5l20.7,12L700.5,108
				C701.5,107.4,702.3,106.1,702.3,104.9z"/>
			<path class="st13" d="M696.4,86.4l-139.3,80.4l4.1,2.4l139.2-80.4c1-0.6,1-1.5,0-2l-0.6-0.4C698.9,85.9,697.3,85.9,696.4,86.4z"
				/>
		</g>
		<path class="st6" d="M735.5,133v29.4c0,1.1-0.8,2.5-1.8,3.1l-53.7,31c0,0-0.1,0-0.1,0.1c-4.1,2.3-7.7,2.6-10.4,1.2
			c-0.8-0.4-4-2.3-4.7-2.8c-2.4-1.6-3.9-4.7-3.9-9c0-9,6.3-19.9,14.2-25l50.3-29.1c0.1-0.1,0.2-0.1,0.3-0.2c0.7-0.6,0.6-1.3-0.3-1.9
			l-6.5-3.8v-4.8l14.8,8.6c0.9,0.5,1.6,1.7,1.7,2.7C735.4,132.7,735.5,132.9,735.5,133z"/>
		<path class="st10" d="M735.5,133v29.4c0,1.1-0.8,2.5-1.8,3.1l-53.7,31c0,0-0.1,0-0.1,0.1c-4.1,2.3-7.7,2.6-10.4,1.2
			c-0.8-0.4-4-2.3-4.7-2.8c-2.4-1.6-3.9-4.7-3.9-9c0-9,6.3-19.9,14.2-25l50.3-29.1c0.1-0.1,0.2-0.1,0.3-0.2c0.7-0.6,0.6-1.3-0.3-1.9
			l-6.5-3.8v-4.8l14.8,8.6c0.9,0.5,1.6,1.7,1.7,2.7C735.4,132.7,735.5,132.9,735.5,133z"/>
		<path class="st6" d="M735.5,133v29.4c0,1.1-0.8,2.5-1.8,3.1l-53.7,31c0,0-0.1,0-0.1,0.1c-5.3,3-9.9,2.6-12.6-0.5
			c-1.5-1.7-2.3-4.3-2.3-7.6c0-9.3,6.7-20.6,15-25.4l51.3-29.6l2.4-1.4c0.9-0.5,1.6-0.2,1.7,0.7C735.4,132.7,735.5,132.9,735.5,133z
			"/>
		<path class="st14" d="M677.4,181.2c0,4,2.8,5.6,6.2,3.6c3.4-2,6.2-6.8,6.2-10.8s-2.8-5.6-6.2-3.6
			C680.2,172.4,677.4,177.2,677.4,181.2z"/>
		<path class="st14" d="M690.1,171.2l-1.9-1.1l-9,15.1l2.1,1.2L690.1,171.2z"/>
		<path class="st15" d="M679.5,182.4c0,4,2.8,5.6,6.2,3.6c3.4-2,6.2-6.8,6.2-10.8s-2.8-5.6-6.2-3.6
			C682.3,173.6,679.5,178.4,679.5,182.4z"/>
		<path class="st14" d="M732.9,219.3c0,0-4.1-13.5-2.1-26.3c2-12.8,8.1-22.9,16.1-27c7.9-4.3,17.8,0.4,11.3,9.4
			c-6.5,9-19.8,21.1-18.5,43.6L732.9,219.3z"/>
		<path class="st8" d="M736.2,219.6c-0.2,0-0.3-0.1-0.4-0.3c-4.5-16.3,2-42.5,16.9-51.8c0.2-0.1,0.4-0.1,0.6,0.1
			c0.1,0.2,0.1,0.4-0.1,0.6c-14.7,9.1-20.9,34.8-16.6,50.9c0.1,0.2-0.1,0.4-0.3,0.5C736.3,219.6,736.3,219.6,736.2,219.6z"/>
		<path class="st6" d="M696.3,298.3c-1.3-2.3-3.6-4.5-6.8-6.3c-11-6.4-28.9-6.4-40,0c-3.1,1.8-5.4,3.9-6.8,6.3h-1.5v5.8
			c0.2,4,2.9,8,8.3,11c11,6.4,28.9,6.4,40,0c5.3-3,8.1-7.1,8.3-11v-5.8H696.3z"/>
		<path class="st16" d="M696.3,298.3c-1.3-2.3-3.6-4.5-6.8-6.3c-11-6.4-28.9-6.4-40,0c-3.1,1.8-5.4,3.9-6.8,6.3h-1.5v5.8
			c0.2,4,2.9,8,8.3,11c11,6.4,28.9,6.4,40,0c5.3-3,8.1-7.1,8.3-11v-5.8H696.3z"/>
		<path class="st6" d="M689.5,286.8c-11-6.4-28.9-6.4-40,0c-11,6.4-11,16.7,0,23.1c11,6.4,28.9,6.4,40,0
			C700.6,303.5,700.6,293.2,689.5,286.8z"/>
		<path class="st17" d="M689.5,286.8c-11-6.4-28.9-6.4-40,0c-11,6.4-11,16.7,0,23.1c11,6.4,28.9,6.4,40,0
			C700.6,303.5,700.6,293.2,689.5,286.8z"/>
		<path class="st6" d="M682.5,291c-3.5-1.8-8.1-2.7-13.1-2.7c-4.9,0-9.5,1-13.1,2.7c-3.7,1.9-5.8,4.5-5.8,7.3s2,5.5,5.8,7.3
			c3.4,1.8,8.1,2.7,13.1,2.7c4.9,0,9.5-1,13.1-2.7c3.7-1.9,5.8-4.5,5.8-7.3S686.3,292.9,682.5,291z"/>
		<path class="st17" d="M682.5,291c-3.5-1.8-8.1-2.7-13.1-2.7c-4.9,0-9.5,1-13.1,2.7c-3.7,1.9-5.8,4.5-5.8,7.3s2,5.5,5.8,7.3
			c3.4,1.8,8.1,2.7,13.1,2.7c4.9,0,9.5-1,13.1-2.7c3.7-1.9,5.8-4.5,5.8-7.3S686.3,292.9,682.5,291z"/>
		<path class="st6" d="M688.9,287.8c-5.2-2.9-12-4.7-19.3-4.7s-14.2,1.6-19.3,4.7c-5,2.8-7.7,6.6-7.7,10.4c0,3.9,2.7,7.6,7.7,10.4
			c5.2,2.9,12,4.7,19.3,4.7s14.2-1.6,19.3-4.7c5-2.8,7.7-6.6,7.7-10.4C696.6,294.4,693.9,290.7,688.9,287.8z M682.5,305.6
			c-3.5,1.8-8.1,2.7-13.1,2.7c-4.9,0-9.5-1-13.1-2.7c-3.7-1.9-5.8-4.5-5.8-7.3s2-5.5,5.8-7.3c3.4-1.8,8.1-2.7,13.1-2.7
			c4.9,0,9.5,1,13.1,2.7c3.7,1.9,5.8,4.5,5.8,7.3S686.3,303.7,682.5,305.6z"/>
		<path class="st18" d="M688.9,287.8c-5.2-2.9-12-4.7-19.3-4.7s-14.2,1.6-19.3,4.7c-5,2.8-7.7,6.6-7.7,10.4c0,3.9,2.7,7.6,7.7,10.4
			c5.2,2.9,12,4.7,19.3,4.7s14.2-1.6,19.3-4.7c5-2.8,7.7-6.6,7.7-10.4C696.6,294.4,693.9,290.7,688.9,287.8z M682.5,305.6
			c-3.5,1.8-8.1,2.7-13.1,2.7c-4.9,0-9.5-1-13.1-2.7c-3.7-1.9-5.8-4.5-5.8-7.3s2-5.5,5.8-7.3c3.4-1.8,8.1-2.7,13.1-2.7
			c4.9,0,9.5,1,13.1,2.7c3.7,1.9,5.8,4.5,5.8,7.3S686.3,303.7,682.5,305.6z"/>
		<path class="st6" d="M682.1,304.8c7-3.5,7-9.3,0-12.9c-7-3.5-18.2-3.5-25.1,0c-7,3.5-7,9.3,0,12.9
			C664,308.4,675.2,308.4,682.1,304.8z"/>
		<path class="st16" d="M682.1,304.8c7-3.5,7-9.3,0-12.9c-7-3.5-18.2-3.5-25.1,0c-7,3.5-7,9.3,0,12.9
			C664,308.4,675.2,308.4,682.1,304.8z"/>
		<path class="st6" d="M682.1,294.3c-7-3.5-18.2-3.5-25.1,0c-2.8,1.5-4.6,3.3-5.1,5.3c0.5,1.9,2.2,3.7,5.1,5.3
			c7,3.5,18.2,3.5,25.1,0c2.8-1.5,4.6-3.3,5.1-5.3C686.7,297.6,685,295.8,682.1,294.3z"/>
		<path class="st17" d="M682.1,294.3c-7-3.5-18.2-3.5-25.1,0c-2.8,1.5-4.6,3.3-5.1,5.3c0.5,1.9,2.2,3.7,5.1,5.3
			c7,3.5,18.2,3.5,25.1,0c2.8-1.5,4.6-3.3,5.1-5.3C686.7,297.6,685,295.8,682.1,294.3z"/>
		<path class="st6" d="M671.2,292.1v2.5l-0.9,1l-1.6,1.7v-2.7L671.2,292.1z"/>
		<path class="st6" d="M668.7,294.6v2.7h-5.2v-3.1C663.5,294.1,668.3,293.4,668.7,294.6z"/>
		<path class="st6" d="M680.5,302v2.2l-2.8,1.6l-2.1-1.2c-2.2,1-5.2,1.5-8.2,0.4v-2.2l1.3-1.3l-1.3,0.4c-2,0.5-4.1,0.5-6.4-0.7
			c-1.3-0.7-1.8-1.5-1.8-2.3v-2.2l0.2-0.9l-0.8-0.4v-2.2l2.1,1.2c-1,0.8-1.6,1.6-1.5,2.4c0,0.8,0.6,1.6,1.8,2.3
			c2.7,1.6,5.6,1.1,8,0.3c2.3-0.8,4-1.6,5.4-0.9c0.8,0.5,0.6,1.1-0.4,1.6c-1.5,0.9-3.1,0.6-4,0.2l-2.7,2.6c0.5,0.2,1,0.3,1.5,0.4
			c2.4,0.5,4.9,0,6.7-0.8l2.1,1.2L680.5,302z"/>
		<path class="st6" d="M675.6,302.4v2.2l2.1,1.2v-2.2L675.6,302.4z"/>
		<g class="st19">
			<path class="st16" d="M671.2,292.1v2.5l-0.9,1l-1.6,1.7v-2.7L671.2,292.1z"/>
			<path class="st16" d="M668.7,294.6v2.7h-5.2v-3.1C663.5,294.1,668.3,293.4,668.7,294.6z"/>
			<path class="st16" d="M680.5,302v2.2l-2.8,1.6l-2.1-1.2c-2.2,1-5.2,1.5-8.2,0.4v-2.2l1.3-1.3l-1.3,0.4c-2,0.5-4.1,0.5-6.4-0.7
				c-1.3-0.7-1.8-1.5-1.8-2.3v-2.2l0.2-0.9l-0.8-0.4v-2.2l2.1,1.2c-1,0.8-1.6,1.6-1.5,2.4c0,0.8,0.6,1.6,1.8,2.3
				c2.7,1.6,5.6,1.1,8,0.3c2.3-0.8,4-1.6,5.4-0.9c0.8,0.5,0.6,1.1-0.4,1.6c-1.5,0.9-3.1,0.6-4,0.2l-2.7,2.6c0.5,0.2,1,0.3,1.5,0.4
				c2.4,0.5,4.9,0,6.7-0.8l2.1,1.2L680.5,302z"/>
			<path class="st16" d="M675.6,302.4v2.2l2.1,1.2v-2.2L675.6,302.4z"/>
		</g>
		<path class="st6" d="M680,301.7l-1.6-0.9c0,0,1.6-0.7,1.6-2.5c0-0.1,0-0.1,0-0.2c-0.1-0.8-0.6-1.5-1.8-2.2c-1.2-0.7-2.5-1-3.7-1
			c-0.1,0-0.2,0-0.3,0c-0.1,0-0.2,0-0.3,0s-0.2,0-0.3,0h-0.1c-0.1,0-0.2,0-0.2,0c-0.6,0.1-1.2,0.2-1.8,0.4c-0.3,0.1-0.6,0.2-0.9,0.3
			c-0.4,0.1-0.8,0.3-1.2,0.4c-0.2,0.1-0.3,0.1-0.4,0.2c-1.1,0.4-1.9,0.6-2.5,0.7c-0.4,0.1-0.8,0-1.1,0c-0.2,0-0.3-0.1-0.5-0.2
			c-0.6-0.4-0.7-0.9,0.5-1.6c1.3-0.7,2.5-0.8,3.6-0.4l2.5-2.5c-2.4-0.8-5.1-0.6-7.7,0.4l-2.1-1.2l-2.8,1.6l2.1,1.2
			c-1,0.8-1.6,1.6-1.5,2.4c0,0.8,0.6,1.6,1.8,2.3c2.7,1.6,5.6,1.1,8,0.3c2.3-0.8,4-1.6,5.4-0.9c0.8,0.5,0.6,1.1-0.3,1.6
			c-1.5,0.9-3.1,0.6-4,0.2l-2.7,2.6c0.5,0.2,1,0.3,1.5,0.4c2.4,0.5,4.9,0,6.7-0.8l2.1,1.2l2.8-1.6L680,301.7z"/>
		<path class="st18" d="M680,301.7l-1.6-0.9c0,0,1.6-0.7,1.6-2.5c0-0.1,0-0.1,0-0.2c-0.1-0.8-0.6-1.5-1.8-2.2c-1.2-0.7-2.5-1-3.7-1
			c-0.1,0-0.2,0-0.3,0c-0.1,0-0.2,0-0.3,0s-0.2,0-0.3,0h-0.1c-0.1,0-0.2,0-0.2,0c-0.6,0.1-1.2,0.2-1.8,0.4c-0.3,0.1-0.6,0.2-0.9,0.3
			c-0.4,0.1-0.8,0.3-1.2,0.4c-0.2,0.1-0.3,0.1-0.4,0.2c-1.1,0.4-1.9,0.6-2.5,0.7c-0.4,0.1-0.8,0-1.1,0c-0.2,0-0.3-0.1-0.5-0.2
			c-0.6-0.4-0.7-0.9,0.5-1.6c1.3-0.7,2.5-0.8,3.6-0.4l2.5-2.5c-2.4-0.8-5.1-0.6-7.7,0.4l-2.1-1.2l-2.8,1.6l2.1,1.2
			c-1,0.8-1.6,1.6-1.5,2.4c0,0.8,0.6,1.6,1.8,2.3c2.7,1.6,5.6,1.1,8,0.3c2.3-0.8,4-1.6,5.4-0.9c0.8,0.5,0.6,1.1-0.3,1.6
			c-1.5,0.9-3.1,0.6-4,0.2l-2.7,2.6c0.5,0.2,1,0.3,1.5,0.4c2.4,0.5,4.9,0,6.7-0.8l2.1,1.2l2.8-1.6L680,301.7z"/>
		<path class="st6" d="M697.9,290.3c-1.3-2.3-3.6-4.5-6.8-6.3c-11-6.4-28.9-6.4-40,0c-3.1,1.8-5.4,3.9-6.8,6.3h-1.5v5.8
			c0.2,4,2.9,8,8.3,11c11,6.4,28.9,6.4,40,0c5.3-3,8.1-7.1,8.3-11v-5.8H697.9z"/>
		<path class="st16" d="M697.9,290.3c-1.3-2.3-3.6-4.5-6.8-6.3c-11-6.4-28.9-6.4-40,0c-3.1,1.8-5.4,3.9-6.8,6.3h-1.5v5.8
			c0.2,4,2.9,8,8.3,11c11,6.4,28.9,6.4,40,0c5.3-3,8.1-7.1,8.3-11v-5.8H697.9z"/>
		<path class="st6" d="M691.3,278.8c-11-6.4-28.9-6.4-40,0c-11,6.4-11,16.7,0,23.1c11,6.4,28.9,6.4,40,0
			C702.3,295.6,702.3,285.2,691.3,278.8z"/>
		<path class="st17" d="M691.3,278.8c-11-6.4-28.9-6.4-40,0c-11,6.4-11,16.7,0,23.1c11,6.4,28.9,6.4,40,0
			C702.3,295.6,702.3,285.2,691.3,278.8z"/>
		<path class="st6" d="M684.3,283c-3.5-1.8-8.1-2.7-13.1-2.7c-4.9,0-9.5,1-13.1,2.7c-3.7,1.9-5.8,4.5-5.8,7.3c0,2.8,2,5.5,5.8,7.3
			c3.4,1.8,8.1,2.7,13.1,2.7c4.9,0,9.5-1,13.1-2.7c3.7-1.9,5.8-4.5,5.8-7.3C689.9,287.6,687.9,285,684.3,283z"/>
		<path class="st17" d="M684.3,283c-3.5-1.8-8.1-2.7-13.1-2.7c-4.9,0-9.5,1-13.1,2.7c-3.7,1.9-5.8,4.5-5.8,7.3c0,2.8,2,5.5,5.8,7.3
			c3.4,1.8,8.1,2.7,13.1,2.7c4.9,0,9.5-1,13.1-2.7c3.7-1.9,5.8-4.5,5.8-7.3C689.9,287.6,687.9,285,684.3,283z"/>
		<path class="st6" d="M690.6,279.9c-5.2-2.9-12-4.7-19.3-4.7c-7.3,0-14.2,1.6-19.3,4.7c-5,2.8-7.7,6.6-7.7,10.4
			c0,3.9,2.7,7.6,7.7,10.4c5.2,2.9,12,4.7,19.3,4.7c7.3,0,14.2-1.6,19.3-4.7c5-2.8,7.7-6.6,7.7-10.4
			C698.2,286.5,695.5,282.7,690.6,279.9z M684.3,297.7c-3.5,1.8-8.1,2.7-13.1,2.7c-4.9,0-9.5-1-13.1-2.7c-3.7-1.9-5.8-4.5-5.8-7.3
			c0-2.8,2-5.5,5.8-7.3c3.4-1.8,8.1-2.7,13.1-2.7c4.9,0,9.5,1,13.1,2.7c3.7,1.9,5.8,4.5,5.8,7.3
			C689.9,293.2,687.9,295.8,684.3,297.7z"/>
		<path class="st18" d="M690.6,279.9c-5.2-2.9-12-4.7-19.3-4.7c-7.3,0-14.2,1.6-19.3,4.7c-5,2.8-7.7,6.6-7.7,10.4
			c0,3.9,2.7,7.6,7.7,10.4c5.2,2.9,12,4.7,19.3,4.7c7.3,0,14.2-1.6,19.3-4.7c5-2.8,7.7-6.6,7.7-10.4
			C698.2,286.5,695.5,282.7,690.6,279.9z M684.3,297.7c-3.5,1.8-8.1,2.7-13.1,2.7c-4.9,0-9.5-1-13.1-2.7c-3.7-1.9-5.8-4.5-5.8-7.3
			c0-2.8,2-5.5,5.8-7.3c3.4-1.8,8.1-2.7,13.1-2.7c4.9,0,9.5,1,13.1,2.7c3.7,1.9,5.8,4.5,5.8,7.3
			C689.9,293.2,687.9,295.8,684.3,297.7z"/>
		<path class="st6" d="M671.2,299.4c9.8,0,17.8-4.1,17.8-9.1c0-5-8-9.1-17.8-9.1c-9.8,0-17.8,4.1-17.8,9.1
			C653.4,295.4,661.4,299.4,671.2,299.4z"/>
		<path class="st16" d="M671.2,299.4c9.8,0,17.8-4.1,17.8-9.1c0-5-8-9.1-17.8-9.1c-9.8,0-17.8,4.1-17.8,9.1
			C653.4,295.4,661.4,299.4,671.2,299.4z"/>
		<path class="st6" d="M683.8,286.4c-7-3.5-18.2-3.5-25.1,0c-2.8,1.5-4.6,3.3-5.1,5.3c0.5,1.9,2.2,3.7,5.1,5.3
			c7,3.5,18.2,3.5,25.1,0c2.8-1.5,4.6-3.3,5.1-5.3C688.3,289.6,686.7,287.8,683.8,286.4z"/>
		<path class="st17" d="M683.8,286.4c-7-3.5-18.2-3.5-25.1,0c-2.8,1.5-4.6,3.3-5.1,5.3c0.5,1.9,2.2,3.7,5.1,5.3
			c7,3.5,18.2,3.5,25.1,0c2.8-1.5,4.6-3.3,5.1-5.3C688.3,289.6,686.7,287.8,683.8,286.4z"/>
		<path class="st6" d="M672.9,284.1v2.6l-0.9,0.9l-1.6,1.7v-2.7L672.9,284.1z"/>
		<path class="st6" d="M670.4,286.6v2.7h-5.2v-3.1C665.2,286.2,670,285.5,670.4,286.6z"/>
		<path class="st6" d="M682.1,294v2.2l-2.8,1.6l-2.1-1.2c-2.2,1-5.2,1.5-8.2,0.4v-2.2l1.3-1.3l-1.3,0.4c-2,0.5-4.1,0.5-6.4-0.7
			c-1.3-0.7-1.8-1.5-1.8-2.3v-2.2l0.2-0.9l-0.8-0.4v-2.2l2.1,1.2c-1,0.8-1.6,1.6-1.5,2.4c0,0.8,0.6,1.6,1.8,2.3
			c2.7,1.6,5.6,1.1,8,0.3c2.3-0.8,4-1.6,5.4-0.9c0.8,0.5,0.6,1.1-0.4,1.6c-1.5,0.9-3.1,0.6-4,0.2l-2.7,2.6c0.5,0.2,1,0.3,1.5,0.4
			c2.4,0.5,4.9,0,6.7-0.8l2.1,1.2L682.1,294z"/>
		<path class="st6" d="M677.2,294.5v2.2l2.1,1.2v-2.2L677.2,294.5z"/>
		<g class="st19">
			<path class="st16" d="M672.9,284.1v2.6l-0.9,0.9l-1.6,1.7v-2.7L672.9,284.1z"/>
			<path class="st16" d="M670.4,286.6v2.7h-5.2v-3.1C665.2,286.2,670,285.5,670.4,286.6z"/>
			<path class="st16" d="M682.1,294v2.2l-2.8,1.6l-2.1-1.2c-2.2,1-5.2,1.5-8.2,0.4v-2.2l1.3-1.3l-1.3,0.4c-2,0.5-4.1,0.5-6.4-0.7
				c-1.3-0.7-1.8-1.5-1.8-2.3v-2.2l0.2-0.9l-0.8-0.4v-2.2l2.1,1.2c-1,0.8-1.6,1.6-1.5,2.4c0,0.8,0.6,1.6,1.8,2.3
				c2.7,1.6,5.6,1.1,8,0.3c2.3-0.8,4-1.6,5.4-0.9c0.8,0.5,0.6,1.1-0.4,1.6c-1.5,0.9-3.1,0.6-4,0.2l-2.7,2.6c0.5,0.2,1,0.3,1.5,0.4
				c2.4,0.5,4.9,0,6.7-0.8l2.1,1.2L682.1,294z"/>
			<path class="st16" d="M677.2,294.5v2.2l2.1,1.2v-2.2L677.2,294.5z"/>
		</g>
		<path class="st6" d="M681.7,293.8l-1.6-0.9c0,0,1.6-0.7,1.6-2.5c0-0.1,0-0.1,0-0.2c-0.1-0.8-0.6-1.5-1.8-2.2c-1.2-0.7-2.5-1-3.7-1
			c-0.1,0-0.2,0-0.3,0c-0.1,0-0.2,0-0.3,0c-0.1,0-0.2,0-0.3,0h-0.1c-0.1,0-0.2,0-0.2,0c-0.6,0.1-1.2,0.2-1.8,0.4
			c-0.3,0.1-0.6,0.2-0.9,0.3c-0.4,0.1-0.8,0.3-1.2,0.4c-0.2,0.1-0.3,0.1-0.4,0.2c-1.1,0.4-1.9,0.6-2.5,0.7c-0.4,0.1-0.8,0-1.1,0
			c-0.2,0-0.3-0.1-0.5-0.2c-0.6-0.4-0.7-0.9,0.5-1.6c1.3-0.7,2.5-0.8,3.6-0.4l2.5-2.5c-2.4-0.8-5.1-0.6-7.7,0.4l-2.1-1.2l-2.8,1.6
			l2.1,1.2c-1,0.8-1.6,1.6-1.5,2.4c0,0.8,0.6,1.6,1.8,2.3c2.7,1.6,5.6,1.1,8,0.3c2.3-0.8,4-1.6,5.4-0.9c0.8,0.5,0.6,1.1-0.3,1.6
			c-1.5,0.9-3.1,0.6-4,0.2l-2.7,2.6c0.5,0.2,1,0.3,1.5,0.4c2.4,0.5,4.9,0,6.7-0.8l2.1,1.2l2.8-1.6L681.7,293.8z"/>
		<path class="st18" d="M681.7,293.8l-1.6-0.9c0,0,1.6-0.7,1.6-2.5c0-0.1,0-0.1,0-0.2c-0.1-0.8-0.6-1.5-1.8-2.2
			c-1.2-0.7-2.5-1-3.7-1c-0.1,0-0.2,0-0.3,0c-0.1,0-0.2,0-0.3,0c-0.1,0-0.2,0-0.3,0h-0.1c-0.1,0-0.2,0-0.2,0
			c-0.6,0.1-1.2,0.2-1.8,0.4c-0.3,0.1-0.6,0.2-0.9,0.3c-0.4,0.1-0.8,0.3-1.2,0.4c-0.2,0.1-0.3,0.1-0.4,0.2c-1.1,0.4-1.9,0.6-2.5,0.7
			c-0.4,0.1-0.8,0-1.1,0c-0.2,0-0.3-0.1-0.5-0.2c-0.6-0.4-0.7-0.9,0.5-1.6c1.3-0.7,2.5-0.8,3.6-0.4l2.5-2.5
			c-2.4-0.8-5.1-0.6-7.7,0.4l-2.1-1.2l-2.8,1.6l2.1,1.2c-1,0.8-1.6,1.6-1.5,2.4c0,0.8,0.6,1.6,1.8,2.3c2.7,1.6,5.6,1.1,8,0.3
			c2.3-0.8,4-1.6,5.4-0.9c0.8,0.5,0.6,1.1-0.3,1.6c-1.5,0.9-3.1,0.6-4,0.2l-2.7,2.6c0.5,0.2,1,0.3,1.5,0.4c2.4,0.5,4.9,0,6.7-0.8
			l2.1,1.2l2.8-1.6L681.7,293.8z"/>
		<path class="st6" d="M696.3,298.3c-1.3-2.3-3.6-4.5-6.8-6.3c-11-6.4-28.9-6.4-40,0c-3.1,1.8-5.4,3.9-6.8,6.3h-1.5v5.8
			c0.2,4,2.9,8,8.3,11c11,6.4,28.9,6.4,40,0c5.3-3,8.1-7.1,8.3-11v-5.8H696.3z"/>
		<path class="st16" d="M696.3,298.3c-1.3-2.3-3.6-4.5-6.8-6.3c-11-6.4-28.9-6.4-40,0c-3.1,1.8-5.4,3.9-6.8,6.3h-1.5v5.8
			c0.2,4,2.9,8,8.3,11c11,6.4,28.9,6.4,40,0c5.3-3,8.1-7.1,8.3-11v-5.8H696.3z"/>
		<path class="st6" d="M689.5,286.8c-11-6.4-28.9-6.4-40,0c-11,6.4-11,16.7,0,23.1c11,6.4,28.9,6.4,40,0
			C700.6,303.5,700.6,293.2,689.5,286.8z"/>
		<path class="st17" d="M689.5,286.8c-11-6.4-28.9-6.4-40,0c-11,6.4-11,16.7,0,23.1c11,6.4,28.9,6.4,40,0
			C700.6,303.5,700.6,293.2,689.5,286.8z"/>
		<path class="st6" d="M682.5,291c-3.5-1.8-8.1-2.7-13.1-2.7c-4.9,0-9.5,1-13.1,2.7c-3.7,1.9-5.8,4.5-5.8,7.3s2,5.5,5.8,7.3
			c3.4,1.8,8.1,2.7,13.1,2.7c4.9,0,9.5-1,13.1-2.7c3.7-1.9,5.8-4.5,5.8-7.3S686.3,292.9,682.5,291z"/>
		<path class="st17" d="M682.5,291c-3.5-1.8-8.1-2.7-13.1-2.7c-4.9,0-9.5,1-13.1,2.7c-3.7,1.9-5.8,4.5-5.8,7.3s2,5.5,5.8,7.3
			c3.4,1.8,8.1,2.7,13.1,2.7c4.9,0,9.5-1,13.1-2.7c3.7-1.9,5.8-4.5,5.8-7.3S686.3,292.9,682.5,291z"/>
		<path class="st6" d="M688.9,287.8c-5.2-2.9-12-4.7-19.3-4.7s-14.2,1.6-19.3,4.7c-5,2.8-7.7,6.6-7.7,10.4c0,3.9,2.7,7.6,7.7,10.4
			c5.2,2.9,12,4.7,19.3,4.7s14.2-1.6,19.3-4.7c5-2.8,7.7-6.6,7.7-10.4C696.6,294.4,693.9,290.7,688.9,287.8z M682.5,305.6
			c-3.5,1.8-8.1,2.7-13.1,2.7c-4.9,0-9.5-1-13.1-2.7c-3.7-1.9-5.8-4.5-5.8-7.3s2-5.5,5.8-7.3c3.4-1.8,8.1-2.7,13.1-2.7
			c4.9,0,9.5,1,13.1,2.7c3.7,1.9,5.8,4.5,5.8,7.3S686.3,303.7,682.5,305.6z"/>
		<path class="st18" d="M688.9,287.8c-5.2-2.9-12-4.7-19.3-4.7s-14.2,1.6-19.3,4.7c-5,2.8-7.7,6.6-7.7,10.4c0,3.9,2.7,7.6,7.7,10.4
			c5.2,2.9,12,4.7,19.3,4.7s14.2-1.6,19.3-4.7c5-2.8,7.7-6.6,7.7-10.4C696.6,294.4,693.9,290.7,688.9,287.8z M682.5,305.6
			c-3.5,1.8-8.1,2.7-13.1,2.7c-4.9,0-9.5-1-13.1-2.7c-3.7-1.9-5.8-4.5-5.8-7.3s2-5.5,5.8-7.3c3.4-1.8,8.1-2.7,13.1-2.7
			c4.9,0,9.5,1,13.1,2.7c3.7,1.9,5.8,4.5,5.8,7.3S686.3,303.7,682.5,305.6z"/>
		<path class="st6" d="M682.1,304.8c7-3.5,7-9.3,0-12.9c-7-3.5-18.2-3.5-25.1,0c-7,3.5-7,9.3,0,12.9
			C664,308.4,675.2,308.4,682.1,304.8z"/>
		<path class="st16" d="M682.1,304.8c7-3.5,7-9.3,0-12.9c-7-3.5-18.2-3.5-25.1,0c-7,3.5-7,9.3,0,12.9
			C664,308.4,675.2,308.4,682.1,304.8z"/>
		<path class="st6" d="M682.1,294.3c-7-3.5-18.2-3.5-25.1,0c-2.8,1.5-4.6,3.3-5.1,5.3c0.5,1.9,2.2,3.7,5.1,5.3
			c7,3.5,18.2,3.5,25.1,0c2.8-1.5,4.6-3.3,5.1-5.3C686.7,297.6,685,295.8,682.1,294.3z"/>
		<path class="st17" d="M682.1,294.3c-7-3.5-18.2-3.5-25.1,0c-2.8,1.5-4.6,3.3-5.1,5.3c0.5,1.9,2.2,3.7,5.1,5.3
			c7,3.5,18.2,3.5,25.1,0c2.8-1.5,4.6-3.3,5.1-5.3C686.7,297.6,685,295.8,682.1,294.3z"/>
		<path class="st6" d="M671.2,292.1v2.5l-0.9,1l-1.6,1.7v-2.7L671.2,292.1z"/>
		<path class="st6" d="M668.7,294.6v2.7h-5.2v-3.1C663.5,294.1,668.3,293.4,668.7,294.6z"/>
		<path class="st6" d="M680.5,302v2.2l-2.8,1.6l-2.1-1.2c-2.2,1-5.2,1.5-8.2,0.4v-2.2l1.3-1.3l-1.3,0.4c-2,0.5-4.1,0.5-6.4-0.7
			c-1.3-0.7-1.8-1.5-1.8-2.3v-2.2l0.2-0.9l-0.8-0.4v-2.2l2.1,1.2c-1,0.8-1.6,1.6-1.5,2.4c0,0.8,0.6,1.6,1.8,2.3
			c2.7,1.6,5.6,1.1,8,0.3c2.3-0.8,4-1.6,5.4-0.9c0.8,0.5,0.6,1.1-0.4,1.6c-1.5,0.9-3.1,0.6-4,0.2l-2.7,2.6c0.5,0.2,1,0.3,1.5,0.4
			c2.4,0.5,4.9,0,6.7-0.8l2.1,1.2L680.5,302z"/>
		<path class="st6" d="M675.6,302.4v2.2l2.1,1.2v-2.2L675.6,302.4z"/>
		<g class="st19">
			<path class="st16" d="M671.2,292.1v2.5l-0.9,1l-1.6,1.7v-2.7L671.2,292.1z"/>
			<path class="st16" d="M668.7,294.6v2.7h-5.2v-3.1C663.5,294.1,668.3,293.4,668.7,294.6z"/>
			<path class="st16" d="M680.5,302v2.2l-2.8,1.6l-2.1-1.2c-2.2,1-5.2,1.5-8.2,0.4v-2.2l1.3-1.3l-1.3,0.4c-2,0.5-4.1,0.5-6.4-0.7
				c-1.3-0.7-1.8-1.5-1.8-2.3v-2.2l0.2-0.9l-0.8-0.4v-2.2l2.1,1.2c-1,0.8-1.6,1.6-1.5,2.4c0,0.8,0.6,1.6,1.8,2.3
				c2.7,1.6,5.6,1.1,8,0.3c2.3-0.8,4-1.6,5.4-0.9c0.8,0.5,0.6,1.1-0.4,1.6c-1.5,0.9-3.1,0.6-4,0.2l-2.7,2.6c0.5,0.2,1,0.3,1.5,0.4
				c2.4,0.5,4.9,0,6.7-0.8l2.1,1.2L680.5,302z"/>
			<path class="st16" d="M675.6,302.4v2.2l2.1,1.2v-2.2L675.6,302.4z"/>
		</g>
		<path class="st6" d="M680,301.7l-1.6-0.9c0,0,1.6-0.7,1.6-2.5c0-0.1,0-0.1,0-0.2c-0.1-0.8-0.6-1.5-1.8-2.2c-1.2-0.7-2.5-1-3.7-1
			c-0.1,0-0.2,0-0.3,0c-0.1,0-0.2,0-0.3,0s-0.2,0-0.3,0h-0.1c-0.1,0-0.2,0-0.2,0c-0.6,0.1-1.2,0.2-1.8,0.4c-0.3,0.1-0.6,0.2-0.9,0.3
			c-0.4,0.1-0.8,0.3-1.2,0.4c-0.2,0.1-0.3,0.1-0.4,0.2c-1.1,0.4-1.9,0.6-2.5,0.7c-0.4,0.1-0.8,0-1.1,0c-0.2,0-0.3-0.1-0.5-0.2
			c-0.6-0.4-0.7-0.9,0.5-1.6c1.3-0.7,2.5-0.8,3.6-0.4l2.5-2.5c-2.4-0.8-5.1-0.6-7.7,0.4l-2.1-1.2l-2.8,1.6l2.1,1.2
			c-1,0.8-1.6,1.6-1.5,2.4c0,0.8,0.6,1.6,1.8,2.3c2.7,1.6,5.6,1.1,8,0.3c2.3-0.8,4-1.6,5.4-0.9c0.8,0.5,0.6,1.1-0.3,1.6
			c-1.5,0.9-3.1,0.6-4,0.2l-2.7,2.6c0.5,0.2,1,0.3,1.5,0.4c2.4,0.5,4.9,0,6.7-0.8l2.1,1.2l2.8-1.6L680,301.7z"/>
		<path class="st18" d="M680,301.7l-1.6-0.9c0,0,1.6-0.7,1.6-2.5c0-0.1,0-0.1,0-0.2c-0.1-0.8-0.6-1.5-1.8-2.2c-1.2-0.7-2.5-1-3.7-1
			c-0.1,0-0.2,0-0.3,0c-0.1,0-0.2,0-0.3,0s-0.2,0-0.3,0h-0.1c-0.1,0-0.2,0-0.2,0c-0.6,0.1-1.2,0.2-1.8,0.4c-0.3,0.1-0.6,0.2-0.9,0.3
			c-0.4,0.1-0.8,0.3-1.2,0.4c-0.2,0.1-0.3,0.1-0.4,0.2c-1.1,0.4-1.9,0.6-2.5,0.7c-0.4,0.1-0.8,0-1.1,0c-0.2,0-0.3-0.1-0.5-0.2
			c-0.6-0.4-0.7-0.9,0.5-1.6c1.3-0.7,2.5-0.8,3.6-0.4l2.5-2.5c-2.4-0.8-5.1-0.6-7.7,0.4l-2.1-1.2l-2.8,1.6l2.1,1.2
			c-1,0.8-1.6,1.6-1.5,2.4c0,0.8,0.6,1.6,1.8,2.3c2.7,1.6,5.6,1.1,8,0.3c2.3-0.8,4-1.6,5.4-0.9c0.8,0.5,0.6,1.1-0.3,1.6
			c-1.5,0.9-3.1,0.6-4,0.2l-2.7,2.6c0.5,0.2,1,0.3,1.5,0.4c2.4,0.5,4.9,0,6.7-0.8l2.1,1.2l2.8-1.6L680,301.7z"/>
		<path class="st6" d="M697.9,290.3c-1.3-2.3-3.6-4.5-6.8-6.3c-11-6.4-28.9-6.4-40,0c-3.1,1.8-5.4,3.9-6.8,6.3h-1.5v5.8
			c0.2,4,2.9,8,8.3,11c11,6.4,28.9,6.4,40,0c5.3-3,8.1-7.1,8.3-11v-5.8H697.9z"/>
		<path class="st16" d="M697.9,290.3c-1.3-2.3-3.6-4.5-6.8-6.3c-11-6.4-28.9-6.4-40,0c-3.1,1.8-5.4,3.9-6.8,6.3h-1.5v5.8
			c0.2,4,2.9,8,8.3,11c11,6.4,28.9,6.4,40,0c5.3-3,8.1-7.1,8.3-11v-5.8H697.9z"/>
		<path class="st6" d="M691.3,278.8c-11-6.4-28.9-6.4-40,0c-11,6.4-11,16.7,0,23.1c11,6.4,28.9,6.4,40,0
			C702.3,295.6,702.3,285.2,691.3,278.8z"/>
		<path class="st17" d="M691.3,278.8c-11-6.4-28.9-6.4-40,0c-11,6.4-11,16.7,0,23.1c11,6.4,28.9,6.4,40,0
			C702.3,295.6,702.3,285.2,691.3,278.8z"/>
		<path class="st6" d="M684.3,283c-3.5-1.8-8.1-2.7-13.1-2.7c-4.9,0-9.5,1-13.1,2.7c-3.7,1.9-5.8,4.5-5.8,7.3c0,2.8,2,5.5,5.8,7.3
			c3.4,1.8,8.1,2.7,13.1,2.7c4.9,0,9.5-1,13.1-2.7c3.7-1.9,5.8-4.5,5.8-7.3C689.9,287.6,687.9,285,684.3,283z"/>
		<path class="st17" d="M684.3,283c-3.5-1.8-8.1-2.7-13.1-2.7c-4.9,0-9.5,1-13.1,2.7c-3.7,1.9-5.8,4.5-5.8,7.3c0,2.8,2,5.5,5.8,7.3
			c3.4,1.8,8.1,2.7,13.1,2.7c4.9,0,9.5-1,13.1-2.7c3.7-1.9,5.8-4.5,5.8-7.3C689.9,287.6,687.9,285,684.3,283z"/>
		<path class="st6" d="M690.6,279.9c-5.2-2.9-12-4.7-19.3-4.7c-7.3,0-14.2,1.6-19.3,4.7c-5,2.8-7.7,6.6-7.7,10.4
			c0,3.9,2.7,7.6,7.7,10.4c5.2,2.9,12,4.7,19.3,4.7c7.3,0,14.2-1.6,19.3-4.7c5-2.8,7.7-6.6,7.7-10.4
			C698.2,286.5,695.5,282.7,690.6,279.9z M684.3,297.7c-3.5,1.8-8.1,2.7-13.1,2.7c-4.9,0-9.5-1-13.1-2.7c-3.7-1.9-5.8-4.5-5.8-7.3
			c0-2.8,2-5.5,5.8-7.3c3.4-1.8,8.1-2.7,13.1-2.7c4.9,0,9.5,1,13.1,2.7c3.7,1.9,5.8,4.5,5.8,7.3
			C689.9,293.2,687.9,295.8,684.3,297.7z"/>
		<path class="st18" d="M690.6,279.9c-5.2-2.9-12-4.7-19.3-4.7c-7.3,0-14.2,1.6-19.3,4.7c-5,2.8-7.7,6.6-7.7,10.4
			c0,3.9,2.7,7.6,7.7,10.4c5.2,2.9,12,4.7,19.3,4.7c7.3,0,14.2-1.6,19.3-4.7c5-2.8,7.7-6.6,7.7-10.4
			C698.2,286.5,695.5,282.7,690.6,279.9z M684.3,297.7c-3.5,1.8-8.1,2.7-13.1,2.7c-4.9,0-9.5-1-13.1-2.7c-3.7-1.9-5.8-4.5-5.8-7.3
			c0-2.8,2-5.5,5.8-7.3c3.4-1.8,8.1-2.7,13.1-2.7c4.9,0,9.5,1,13.1,2.7c3.7,1.9,5.8,4.5,5.8,7.3
			C689.9,293.2,687.9,295.8,684.3,297.7z"/>
		<path class="st6" d="M671.2,299.4c9.8,0,17.8-4.1,17.8-9.1c0-5-8-9.1-17.8-9.1c-9.8,0-17.8,4.1-17.8,9.1
			C653.4,295.4,661.4,299.4,671.2,299.4z"/>
		<path class="st16" d="M671.2,299.4c9.8,0,17.8-4.1,17.8-9.1c0-5-8-9.1-17.8-9.1c-9.8,0-17.8,4.1-17.8,9.1
			C653.4,295.4,661.4,299.4,671.2,299.4z"/>
		<path class="st6" d="M683.8,286.4c-7-3.5-18.2-3.5-25.1,0c-2.8,1.5-4.6,3.3-5.1,5.3c0.5,1.9,2.2,3.7,5.1,5.3
			c7,3.5,18.2,3.5,25.1,0c2.8-1.5,4.6-3.3,5.1-5.3C688.3,289.6,686.7,287.8,683.8,286.4z"/>
		<path class="st17" d="M683.8,286.4c-7-3.5-18.2-3.5-25.1,0c-2.8,1.5-4.6,3.3-5.1,5.3c0.5,1.9,2.2,3.7,5.1,5.3
			c7,3.5,18.2,3.5,25.1,0c2.8-1.5,4.6-3.3,5.1-5.3C688.3,289.6,686.7,287.8,683.8,286.4z"/>
		<path class="st6" d="M672.9,284.1v2.6l-0.9,0.9l-1.6,1.7v-2.7L672.9,284.1z"/>
		<path class="st6" d="M670.4,286.6v2.7h-5.2v-3.1C665.2,286.2,670,285.5,670.4,286.6z"/>
		<path class="st6" d="M682.1,294v2.2l-2.8,1.6l-2.1-1.2c-2.2,1-5.2,1.5-8.2,0.4v-2.2l1.3-1.3l-1.3,0.4c-2,0.5-4.1,0.5-6.4-0.7
			c-1.3-0.7-1.8-1.5-1.8-2.3v-2.2l0.2-0.9l-0.8-0.4v-2.2l2.1,1.2c-1,0.8-1.6,1.6-1.5,2.4c0,0.8,0.6,1.6,1.8,2.3
			c2.7,1.6,5.6,1.1,8,0.3c2.3-0.8,4-1.6,5.4-0.9c0.8,0.5,0.6,1.1-0.4,1.6c-1.5,0.9-3.1,0.6-4,0.2l-2.7,2.6c0.5,0.2,1,0.3,1.5,0.4
			c2.4,0.5,4.9,0,6.7-0.8l2.1,1.2L682.1,294z"/>
		<path class="st6" d="M677.2,294.5v2.2l2.1,1.2v-2.2L677.2,294.5z"/>
		<g class="st19">
			<path class="st16" d="M672.9,284.1v2.6l-0.9,0.9l-1.6,1.7v-2.7L672.9,284.1z"/>
			<path class="st16" d="M670.4,286.6v2.7h-5.2v-3.1C665.2,286.2,670,285.5,670.4,286.6z"/>
			<path class="st16" d="M682.1,294v2.2l-2.8,1.6l-2.1-1.2c-2.2,1-5.2,1.5-8.2,0.4v-2.2l1.3-1.3l-1.3,0.4c-2,0.5-4.1,0.5-6.4-0.7
				c-1.3-0.7-1.8-1.5-1.8-2.3v-2.2l0.2-0.9l-0.8-0.4v-2.2l2.1,1.2c-1,0.8-1.6,1.6-1.5,2.4c0,0.8,0.6,1.6,1.8,2.3
				c2.7,1.6,5.6,1.1,8,0.3c2.3-0.8,4-1.6,5.4-0.9c0.8,0.5,0.6,1.1-0.4,1.6c-1.5,0.9-3.1,0.6-4,0.2l-2.7,2.6c0.5,0.2,1,0.3,1.5,0.4
				c2.4,0.5,4.9,0,6.7-0.8l2.1,1.2L682.1,294z"/>
			<path class="st16" d="M677.2,294.5v2.2l2.1,1.2v-2.2L677.2,294.5z"/>
		</g>
		<path class="st6" d="M681.7,293.8l-1.6-0.9c0,0,1.6-0.7,1.6-2.5c0-0.1,0-0.1,0-0.2c-0.1-0.8-0.6-1.5-1.8-2.2c-1.2-0.7-2.5-1-3.7-1
			c-0.1,0-0.2,0-0.3,0c-0.1,0-0.2,0-0.3,0c-0.1,0-0.2,0-0.3,0h-0.1c-0.1,0-0.2,0-0.2,0c-0.6,0.1-1.2,0.2-1.8,0.4
			c-0.3,0.1-0.6,0.2-0.9,0.3c-0.4,0.1-0.8,0.3-1.2,0.4c-0.2,0.1-0.3,0.1-0.4,0.2c-1.1,0.4-1.9,0.6-2.5,0.7c-0.4,0.1-0.8,0-1.1,0
			c-0.2,0-0.3-0.1-0.5-0.2c-0.6-0.4-0.7-0.9,0.5-1.6c1.3-0.7,2.5-0.8,3.6-0.4l2.5-2.5c-2.4-0.8-5.1-0.6-7.7,0.4l-2.1-1.2l-2.8,1.6
			l2.1,1.2c-1,0.8-1.6,1.6-1.5,2.4c0,0.8,0.6,1.6,1.8,2.3c2.7,1.6,5.6,1.1,8,0.3c2.3-0.8,4-1.6,5.4-0.9c0.8,0.5,0.6,1.1-0.3,1.6
			c-1.5,0.9-3.1,0.6-4,0.2l-2.7,2.6c0.5,0.2,1,0.3,1.5,0.4c2.4,0.5,4.9,0,6.7-0.8l2.1,1.2l2.8-1.6L681.7,293.8z"/>
		<path class="st18" d="M681.7,293.8l-1.6-0.9c0,0,1.6-0.7,1.6-2.5c0-0.1,0-0.1,0-0.2c-0.1-0.8-0.6-1.5-1.8-2.2
			c-1.2-0.7-2.5-1-3.7-1c-0.1,0-0.2,0-0.3,0c-0.1,0-0.2,0-0.3,0c-0.1,0-0.2,0-0.3,0h-0.1c-0.1,0-0.2,0-0.2,0
			c-0.6,0.1-1.2,0.2-1.8,0.4c-0.3,0.1-0.6,0.2-0.9,0.3c-0.4,0.1-0.8,0.3-1.2,0.4c-0.2,0.1-0.3,0.1-0.4,0.2c-1.1,0.4-1.9,0.6-2.5,0.7
			c-0.4,0.1-0.8,0-1.1,0c-0.2,0-0.3-0.1-0.5-0.2c-0.6-0.4-0.7-0.9,0.5-1.6c1.3-0.7,2.5-0.8,3.6-0.4l2.5-2.5
			c-2.4-0.8-5.1-0.6-7.7,0.4l-2.1-1.2l-2.8,1.6l2.1,1.2c-1,0.8-1.6,1.6-1.5,2.4c0,0.8,0.6,1.6,1.8,2.3c2.7,1.6,5.6,1.1,8,0.3
			c2.3-0.8,4-1.6,5.4-0.9c0.8,0.5,0.6,1.1-0.3,1.6c-1.5,0.9-3.1,0.6-4,0.2l-2.7,2.6c0.5,0.2,1,0.3,1.5,0.4c2.4,0.5,4.9,0,6.7-0.8
			l2.1,1.2l2.8-1.6L681.7,293.8z"/>
		<path class="st6" d="M508.2,223.4c-1.3-2.3-3.6-4.5-6.8-6.3c-11-6.4-28.9-6.4-40,0c-3.1,1.8-5.4,3.9-6.8,6.3h-1.5v5.8
			c0.2,4.1,2.9,8,8.3,11c11,6.4,28.9,6.4,40,0c5.3-3,8.1-7.1,8.3-11v-5.8H508.2z"/>
		<path class="st16" d="M508.2,223.4c-1.3-2.3-3.6-4.5-6.8-6.3c-11-6.4-28.9-6.4-40,0c-3.1,1.8-5.4,3.9-6.8,6.3h-1.5v5.8
			c0.2,4.1,2.9,8,8.3,11c11,6.4,28.9,6.4,40,0c5.3-3,8.1-7.1,8.3-11v-5.8H508.2z"/>
		<path class="st6" d="M501.5,211.9c-11-6.4-28.9-6.4-40,0c-11,6.4-11,16.7,0,23.1c11,6.4,28.9,6.4,40,0
			C512.5,228.7,512.5,218.3,501.5,211.9z"/>
		<path class="st17" d="M501.5,211.9c-11-6.4-28.9-6.4-40,0c-11,6.4-11,16.7,0,23.1c11,6.4,28.9,6.4,40,0
			C512.5,228.7,512.5,218.3,501.5,211.9z"/>
		<path class="st6" d="M494.5,216.1c-3.5-1.8-8.1-2.7-13.1-2.7c-4.9,0-9.5,1-13.1,2.7c-3.7,1.9-5.8,4.5-5.8,7.3c0,2.8,2,5.5,5.8,7.3
			c3.4,1.8,8.1,2.7,13.1,2.7c4.9,0,9.5-1,13.1-2.7c3.7-1.9,5.8-4.5,5.8-7.3C500.2,220.7,498.1,218.1,494.5,216.1z"/>
		<path class="st17" d="M494.5,216.1c-3.5-1.8-8.1-2.7-13.1-2.7c-4.9,0-9.5,1-13.1,2.7c-3.7,1.9-5.8,4.5-5.8,7.3
			c0,2.8,2,5.5,5.8,7.3c3.4,1.8,8.1,2.7,13.1,2.7c4.9,0,9.5-1,13.1-2.7c3.7-1.9,5.8-4.5,5.8-7.3
			C500.2,220.7,498.1,218.1,494.5,216.1z"/>
		<path class="st6" d="M500.9,213c-5.2-2.9-12-4.7-19.3-4.7s-14.2,1.6-19.3,4.7c-5,2.8-7.7,6.6-7.7,10.4c0,3.9,2.7,7.6,7.7,10.4
			c5.2,2.9,12,4.7,19.3,4.7s14.2-1.6,19.3-4.7c5-2.8,7.7-6.6,7.7-10.4C508.5,219.6,505.7,215.8,500.9,213z M494.5,230.8
			c-3.5,1.8-8.1,2.7-13.1,2.7c-4.9,0-9.5-1-13.1-2.7c-3.7-1.9-5.8-4.5-5.8-7.3c0-2.8,2-5.5,5.8-7.3c3.4-1.8,8.1-2.7,13.1-2.7
			c4.9,0,9.5,1,13.1,2.7c3.7,1.9,5.8,4.5,5.8,7.3C500.2,226.3,498.1,228.9,494.5,230.8z"/>
		<path class="st18" d="M500.9,213c-5.2-2.9-12-4.7-19.3-4.7s-14.2,1.6-19.3,4.7c-5,2.8-7.7,6.6-7.7,10.4c0,3.9,2.7,7.6,7.7,10.4
			c5.2,2.9,12,4.7,19.3,4.7s14.2-1.6,19.3-4.7c5-2.8,7.7-6.6,7.7-10.4C508.5,219.6,505.7,215.8,500.9,213z M494.5,230.8
			c-3.5,1.8-8.1,2.7-13.1,2.7c-4.9,0-9.5-1-13.1-2.7c-3.7-1.9-5.8-4.5-5.8-7.3c0-2.8,2-5.5,5.8-7.3c3.4-1.8,8.1-2.7,13.1-2.7
			c4.9,0,9.5,1,13.1,2.7c3.7,1.9,5.8,4.5,5.8,7.3C500.2,226.3,498.1,228.9,494.5,230.8z"/>
		<path class="st6" d="M481.4,232.5c9.8,0,17.8-4.1,17.8-9.1c0-5-8-9.1-17.8-9.1c-9.8,0-17.8,4.1-17.8,9.1
			C463.6,228.5,471.6,232.5,481.4,232.5z"/>
		<path class="st16" d="M481.4,232.5c9.8,0,17.8-4.1,17.8-9.1c0-5-8-9.1-17.8-9.1c-9.8,0-17.8,4.1-17.8,9.1
			C463.6,228.5,471.6,232.5,481.4,232.5z"/>
		<path class="st6" d="M494,219.5c-7-3.5-18.2-3.5-25.1,0c-2.8,1.5-4.6,3.3-5.1,5.3c0.5,1.9,2.2,3.7,5.1,5.3c7,3.5,18.2,3.5,25.1,0
			c2.8-1.5,4.6-3.3,5.1-5.3C498.5,222.7,496.9,220.9,494,219.5z"/>
		<path class="st17" d="M494,219.5c-7-3.5-18.2-3.5-25.1,0c-2.8,1.5-4.6,3.3-5.1,5.3c0.5,1.9,2.2,3.7,5.1,5.3c7,3.5,18.2,3.5,25.1,0
			c2.8-1.5,4.6-3.3,5.1-5.3C498.5,222.7,496.9,220.9,494,219.5z"/>
		<path class="st6" d="M483.2,217.1v2.6l-0.9,0.9l-1.6,1.7v-2.7L483.2,217.1z"/>
		<path class="st6" d="M480.6,219.7v2.7h-5.2v-3.1C475.5,219.3,480.2,218.6,480.6,219.7z"/>
		<path class="st6" d="M492.4,227.1v2.2l-2.8,1.6l-2.1-1.2c-2.2,1-5.2,1.5-8.2,0.4v-2.2l1.3-1.3l-1.3,0.4c-2,0.5-4.1,0.5-6.4-0.7
			c-1.3-0.7-1.8-1.5-1.8-2.3v-2.2l0.2-0.9l-0.8-0.4v-2.2l2.1,1.2c-1,0.8-1.6,1.6-1.5,2.4c0,0.8,0.6,1.6,1.8,2.3
			c2.7,1.6,5.6,1.1,8,0.3c2.3-0.8,4-1.6,5.4-0.9c0.8,0.5,0.6,1.1-0.4,1.6c-1.5,0.9-3.1,0.6-4,0.2L479,228c0.5,0.2,1,0.3,1.5,0.4
			c2.4,0.5,4.9,0,6.7-0.8l2.1,1.2L492.4,227.1z"/>
		<path class="st6" d="M487.4,227.6v2.2l2.1,1.2v-2.2L487.4,227.6z"/>
		<g class="st19">
			<path class="st16" d="M483.2,217.1v2.6l-0.9,0.9l-1.6,1.7v-2.7L483.2,217.1z"/>
			<path class="st16" d="M480.6,219.7v2.7h-5.2v-3.1C475.5,219.3,480.2,218.6,480.6,219.7z"/>
			<path class="st16" d="M492.4,227.1v2.2l-2.8,1.6l-2.1-1.2c-2.2,1-5.2,1.5-8.2,0.4v-2.2l1.3-1.3l-1.3,0.4c-2,0.5-4.1,0.5-6.4-0.7
				c-1.3-0.7-1.8-1.5-1.8-2.3v-2.2l0.2-0.9l-0.8-0.4v-2.2l2.1,1.2c-1,0.8-1.6,1.6-1.5,2.4c0,0.8,0.6,1.6,1.8,2.3
				c2.7,1.6,5.6,1.1,8,0.3c2.3-0.8,4-1.6,5.4-0.9c0.8,0.5,0.6,1.1-0.4,1.6c-1.5,0.9-3.1,0.6-4,0.2L479,228c0.5,0.2,1,0.3,1.5,0.4
				c2.4,0.5,4.9,0,6.7-0.8l2.1,1.2L492.4,227.1z"/>
			<path class="st16" d="M487.4,227.6v2.2l2.1,1.2v-2.2L487.4,227.6z"/>
		</g>
		<path class="st6" d="M492,226.9l-1.6-0.9c0,0,1.6-0.7,1.6-2.5c0-0.1,0-0.1,0-0.2c-0.1-0.8-0.6-1.5-1.8-2.2c-1.2-0.7-2.5-1-3.7-1
			c-0.1,0-0.2,0-0.3,0c-0.1,0-0.2,0-0.3,0c-0.1,0-0.2,0-0.3,0h-0.1c-0.1,0-0.2,0-0.2,0c-0.6,0.1-1.2,0.2-1.8,0.4
			c-0.3,0.1-0.6,0.2-0.9,0.3c-0.4,0.1-0.8,0.3-1.2,0.4c-0.2,0.1-0.3,0.1-0.4,0.2c-1.1,0.4-1.9,0.6-2.5,0.7c-0.4,0.1-0.8,0-1.1,0
			c-0.2,0-0.3-0.1-0.5-0.2c-0.6-0.4-0.7-0.9,0.5-1.6c1.3-0.7,2.5-0.8,3.6-0.4l2.5-2.5c-2.4-0.8-5.1-0.6-7.7,0.4l-2.1-1.2l-2.8,1.6
			l2.1,1.2c-1,0.8-1.6,1.6-1.5,2.4c0,0.8,0.6,1.6,1.8,2.3c2.7,1.6,5.6,1.1,8,0.3c2.3-0.8,4-1.6,5.4-0.9c0.8,0.5,0.6,1.1-0.3,1.6
			c-1.5,0.9-3.1,0.6-4,0.2l-2.7,2.6c0.5,0.2,1,0.3,1.5,0.4c2.4,0.5,4.9,0,6.7-0.8l2.1,1.2l2.8-1.6L492,226.9z"/>
		<path class="st18" d="M492,226.9l-1.6-0.9c0,0,1.6-0.7,1.6-2.5c0-0.1,0-0.1,0-0.2c-0.1-0.8-0.6-1.5-1.8-2.2c-1.2-0.7-2.5-1-3.7-1
			c-0.1,0-0.2,0-0.3,0c-0.1,0-0.2,0-0.3,0c-0.1,0-0.2,0-0.3,0h-0.1c-0.1,0-0.2,0-0.2,0c-0.6,0.1-1.2,0.2-1.8,0.4
			c-0.3,0.1-0.6,0.2-0.9,0.3c-0.4,0.1-0.8,0.3-1.2,0.4c-0.2,0.1-0.3,0.1-0.4,0.2c-1.1,0.4-1.9,0.6-2.5,0.7c-0.4,0.1-0.8,0-1.1,0
			c-0.2,0-0.3-0.1-0.5-0.2c-0.6-0.4-0.7-0.9,0.5-1.6c1.3-0.7,2.5-0.8,3.6-0.4l2.5-2.5c-2.4-0.8-5.1-0.6-7.7,0.4l-2.1-1.2l-2.8,1.6
			l2.1,1.2c-1,0.8-1.6,1.6-1.5,2.4c0,0.8,0.6,1.6,1.8,2.3c2.7,1.6,5.6,1.1,8,0.3c2.3-0.8,4-1.6,5.4-0.9c0.8,0.5,0.6,1.1-0.3,1.6
			c-1.5,0.9-3.1,0.6-4,0.2l-2.7,2.6c0.5,0.2,1,0.3,1.5,0.4c2.4,0.5,4.9,0,6.7-0.8l2.1,1.2l2.8-1.6L492,226.9z"/>
		<path class="st6" d="M743.5,240.7c-1.3-2.3-3.6-4.5-6.8-6.3c-11-6.4-28.9-6.4-40,0c-3.1,1.8-5.4,3.9-6.8,6.3h-1.5v5.8
			c0.2,4.1,2.9,8,8.3,11c11,6.4,28.9,6.4,40,0c5.3-3,8.1-7.1,8.3-11v-5.8H743.5z"/>
		<path class="st16" d="M743.5,240.7c-1.3-2.3-3.6-4.5-6.8-6.3c-11-6.4-28.9-6.4-40,0c-3.1,1.8-5.4,3.9-6.8,6.3h-1.5v5.8
			c0.2,4.1,2.9,8,8.3,11c11,6.4,28.9,6.4,40,0c5.3-3,8.1-7.1,8.3-11v-5.8H743.5z"/>
		<path class="st6" d="M736.8,229.2c-11-6.4-28.9-6.4-40,0c-11,6.4-11,16.7,0,23.1c11,6.4,28.9,6.4,40,0
			C747.8,246,747.8,235.6,736.8,229.2z"/>
		<path class="st17" d="M736.8,229.2c-11-6.4-28.9-6.4-40,0c-11,6.4-11,16.7,0,23.1c11,6.4,28.9,6.4,40,0
			C747.8,246,747.8,235.6,736.8,229.2z"/>
		<path class="st6" d="M729.8,233.4c-3.5-1.8-8.1-2.7-13.1-2.7c-4.9,0-9.5,1-13.1,2.7c-3.7,1.9-5.8,4.5-5.8,7.3c0,2.8,2,5.5,5.8,7.3
			c3.4,1.8,8.1,2.7,13.1,2.7c4.9,0,9.5-1,13.1-2.7c3.7-1.9,5.8-4.5,5.8-7.3C735.5,238,733.5,235.4,729.8,233.4z"/>
		<path class="st17" d="M729.8,233.4c-3.5-1.8-8.1-2.7-13.1-2.7c-4.9,0-9.5,1-13.1,2.7c-3.7,1.9-5.8,4.5-5.8,7.3
			c0,2.8,2,5.5,5.8,7.3c3.4,1.8,8.1,2.7,13.1,2.7c4.9,0,9.5-1,13.1-2.7c3.7-1.9,5.8-4.5,5.8-7.3C735.5,238,733.5,235.4,729.8,233.4z
			"/>
		<path class="st6" d="M736.2,230.3c-5.2-2.9-12-4.7-19.3-4.7s-14.2,1.6-19.3,4.7c-5,2.8-7.7,6.6-7.7,10.4c0,3.9,2.7,7.6,7.7,10.4
			c5.2,2.9,12,4.7,19.3,4.7s14.2-1.6,19.3-4.7c5-2.8,7.7-6.6,7.7-10.4C743.8,236.9,741,233.1,736.2,230.3z M729.8,248.1
			c-3.5,1.8-8.1,2.7-13.1,2.7c-4.9,0-9.5-1-13.1-2.7c-3.7-1.9-5.8-4.5-5.8-7.3c0-2.8,2-5.5,5.8-7.3c3.4-1.8,8.1-2.7,13.1-2.7
			c4.9,0,9.5,1,13.1,2.7c3.7,1.9,5.8,4.5,5.8,7.3C735.5,243.6,733.5,246.2,729.8,248.1z"/>
		<path class="st18" d="M736.2,230.3c-5.2-2.9-12-4.7-19.3-4.7s-14.2,1.6-19.3,4.7c-5,2.8-7.7,6.6-7.7,10.4c0,3.9,2.7,7.6,7.7,10.4
			c5.2,2.9,12,4.7,19.3,4.7s14.2-1.6,19.3-4.7c5-2.8,7.7-6.6,7.7-10.4C743.8,236.9,741,233.1,736.2,230.3z M729.8,248.1
			c-3.5,1.8-8.1,2.7-13.1,2.7c-4.9,0-9.5-1-13.1-2.7c-3.7-1.9-5.8-4.5-5.8-7.3c0-2.8,2-5.5,5.8-7.3c3.4-1.8,8.1-2.7,13.1-2.7
			c4.9,0,9.5,1,13.1,2.7c3.7,1.9,5.8,4.5,5.8,7.3C735.5,243.6,733.5,246.2,729.8,248.1z"/>
		<path class="st6" d="M716.8,249.8c9.8,0,17.8-4.1,17.8-9.1c0-5-8-9.1-17.8-9.1c-9.8,0-17.8,4.1-17.8,9.1
			C698.9,245.8,706.9,249.8,716.8,249.8z"/>
		<path class="st16" d="M716.8,249.8c9.8,0,17.8-4.1,17.8-9.1c0-5-8-9.1-17.8-9.1c-9.8,0-17.8,4.1-17.8,9.1
			C698.9,245.8,706.9,249.8,716.8,249.8z"/>
		<path class="st6" d="M729.3,236.8c-7-3.5-18.2-3.5-25.1,0c-2.8,1.5-4.6,3.3-5.1,5.3c0.5,1.9,2.2,3.7,5.1,5.3
			c7,3.5,18.2,3.5,25.1,0c2.8-1.5,4.6-3.3,5.1-5.3C733.9,240,732.2,238.2,729.3,236.8z"/>
		<path class="st17" d="M729.3,236.8c-7-3.5-18.2-3.5-25.1,0c-2.8,1.5-4.6,3.3-5.1,5.3c0.5,1.9,2.2,3.7,5.1,5.3
			c7,3.5,18.2,3.5,25.1,0c2.8-1.5,4.6-3.3,5.1-5.3C733.9,240,732.2,238.2,729.3,236.8z"/>
		<path class="st6" d="M718.5,234.4v2.6l-0.9,0.9l-1.6,1.7V237L718.5,234.4z"/>
		<path class="st6" d="M715.9,237v2.7h-5.2v-3.1C710.8,236.6,715.5,235.9,715.9,237z"/>
		<path class="st6" d="M727.7,244.4v2.2l-2.8,1.6l-2.1-1.2c-2.2,1-5.2,1.5-8.2,0.4v-2.2l1.3-1.3l-1.3,0.4c-2,0.5-4.1,0.5-6.4-0.7
			c-1.3-0.7-1.8-1.5-1.8-2.3V239l0.2-0.9l-0.8-0.4v-2.2l2.1,1.2c-1,0.8-1.6,1.6-1.5,2.4c0,0.8,0.6,1.6,1.8,2.3
			c2.7,1.6,5.6,1.1,8,0.3c2.3-0.8,4-1.6,5.4-0.9c0.8,0.5,0.6,1.1-0.4,1.6c-1.5,0.9-3.1,0.6-4,0.2l-2.7,2.6c0.5,0.2,1,0.3,1.5,0.4
			c2.4,0.5,4.9,0,6.7-0.8l2.1,1.2L727.7,244.4z"/>
		<path class="st6" d="M722.7,244.9v2.2l2.1,1.2v-2.2L722.7,244.9z"/>
		<g class="st19">
			<path class="st16" d="M718.5,234.4v2.6l-0.9,0.9l-1.6,1.7V237L718.5,234.4z"/>
			<path class="st16" d="M715.9,237v2.7h-5.2v-3.1C710.8,236.6,715.5,235.9,715.9,237z"/>
			<path class="st16" d="M727.7,244.4v2.2l-2.8,1.6l-2.1-1.2c-2.2,1-5.2,1.5-8.2,0.4v-2.2l1.3-1.3l-1.3,0.4c-2,0.5-4.1,0.5-6.4-0.7
				c-1.3-0.7-1.8-1.5-1.8-2.3V239l0.2-0.9l-0.8-0.4v-2.2l2.1,1.2c-1,0.8-1.6,1.6-1.5,2.4c0,0.8,0.6,1.6,1.8,2.3
				c2.7,1.6,5.6,1.1,8,0.3c2.3-0.8,4-1.6,5.4-0.9c0.8,0.5,0.6,1.1-0.4,1.6c-1.5,0.9-3.1,0.6-4,0.2l-2.7,2.6c0.5,0.2,1,0.3,1.5,0.4
				c2.4,0.5,4.9,0,6.7-0.8l2.1,1.2L727.7,244.4z"/>
			<path class="st16" d="M722.7,244.9v2.2l2.1,1.2v-2.2L722.7,244.9z"/>
		</g>
		<path class="st6" d="M727.3,244.2l-1.6-0.9c0,0,1.6-0.7,1.6-2.5c0-0.1,0-0.1,0-0.2c-0.1-0.8-0.6-1.5-1.8-2.2c-1.2-0.7-2.5-1-3.7-1
			c-0.1,0-0.2,0-0.3,0s-0.2,0-0.3,0c-0.1,0-0.2,0-0.3,0h-0.1c-0.1,0-0.2,0-0.2,0c-0.6,0.1-1.2,0.2-1.8,0.4c-0.3,0.1-0.6,0.2-0.9,0.3
			c-0.4,0.1-0.8,0.3-1.2,0.4c-0.2,0.1-0.3,0.1-0.4,0.2c-1.1,0.4-1.9,0.6-2.5,0.7c-0.4,0.1-0.8,0-1.1,0c-0.2,0-0.3-0.1-0.5-0.2
			c-0.6-0.4-0.7-0.9,0.5-1.6c1.3-0.7,2.5-0.8,3.6-0.4l2.5-2.5c-2.4-0.8-5.1-0.6-7.7,0.4l-2.1-1.2l-2.8,1.6l2.1,1.2
			c-1,0.8-1.6,1.6-1.5,2.4c0,0.8,0.6,1.6,1.8,2.3c2.7,1.6,5.6,1.1,8,0.3c2.3-0.8,4-1.6,5.4-0.9c0.8,0.5,0.6,1.1-0.3,1.6
			c-1.5,0.9-3.1,0.6-4,0.2l-2.7,2.6c0.5,0.2,1,0.3,1.5,0.4c2.4,0.5,4.9,0,6.7-0.8l2.1,1.2l2.8-1.6L727.3,244.2z"/>
		<path class="st18" d="M727.3,244.2l-1.6-0.9c0,0,1.6-0.7,1.6-2.5c0-0.1,0-0.1,0-0.2c-0.1-0.8-0.6-1.5-1.8-2.2
			c-1.2-0.7-2.5-1-3.7-1c-0.1,0-0.2,0-0.3,0s-0.2,0-0.3,0c-0.1,0-0.2,0-0.3,0h-0.1c-0.1,0-0.2,0-0.2,0c-0.6,0.1-1.2,0.2-1.8,0.4
			c-0.3,0.1-0.6,0.2-0.9,0.3c-0.4,0.1-0.8,0.3-1.2,0.4c-0.2,0.1-0.3,0.1-0.4,0.2c-1.1,0.4-1.9,0.6-2.5,0.7c-0.4,0.1-0.8,0-1.1,0
			c-0.2,0-0.3-0.1-0.5-0.2c-0.6-0.4-0.7-0.9,0.5-1.6c1.3-0.7,2.5-0.8,3.6-0.4l2.5-2.5c-2.4-0.8-5.1-0.6-7.7,0.4l-2.1-1.2l-2.8,1.6
			l2.1,1.2c-1,0.8-1.6,1.6-1.5,2.4c0,0.8,0.6,1.6,1.8,2.3c2.7,1.6,5.6,1.1,8,0.3c2.3-0.8,4-1.6,5.4-0.9c0.8,0.5,0.6,1.1-0.3,1.6
			c-1.5,0.9-3.1,0.6-4,0.2l-2.7,2.6c0.5,0.2,1,0.3,1.5,0.4c2.4,0.5,4.9,0,6.7-0.8l2.1,1.2l2.8-1.6L727.3,244.2z"/>
		<path class="st6" d="M745.5,232.6c-1.3-2.3-3.6-4.5-6.8-6.3c-11-6.4-28.9-6.4-40,0c-3.1,1.8-5.4,3.9-6.8,6.3h-1.5v5.8
			c0.2,4.1,2.9,8,8.3,11c11,6.4,28.9,6.4,40,0c5.3-3,8.1-7.1,8.3-11v-5.8H745.5z"/>
		<path class="st16" d="M745.5,232.6c-1.3-2.3-3.6-4.5-6.8-6.3c-11-6.4-28.9-6.4-40,0c-3.1,1.8-5.4,3.9-6.8,6.3h-1.5v5.8
			c0.2,4.1,2.9,8,8.3,11c11,6.4,28.9,6.4,40,0c5.3-3,8.1-7.1,8.3-11v-5.8H745.5z"/>
		<path class="st6" d="M738.8,221.1c-11-6.4-28.9-6.4-40,0c-11,6.4-11,16.7,0,23.1c11,6.4,28.9,6.4,40,0
			C749.8,237.9,749.8,227.5,738.8,221.1z"/>
		<path class="st17" d="M738.8,221.1c-11-6.4-28.9-6.4-40,0c-11,6.4-11,16.7,0,23.1c11,6.4,28.9,6.4,40,0
			C749.8,237.9,749.8,227.5,738.8,221.1z"/>
		<path class="st6" d="M731.8,225.3c-3.5-1.8-8.1-2.7-13.1-2.7c-4.9,0-9.5,1-13.1,2.7c-3.7,1.9-5.8,4.5-5.8,7.3c0,2.8,2,5.5,5.8,7.3
			c3.4,1.8,8.1,2.7,13.1,2.7c4.9,0,9.5-1,13.1-2.7c3.7-1.9,5.8-4.5,5.8-7.3C737.5,229.9,735.5,227.3,731.8,225.3z"/>
		<path class="st17" d="M731.8,225.3c-3.5-1.8-8.1-2.7-13.1-2.7c-4.9,0-9.5,1-13.1,2.7c-3.7,1.9-5.8,4.5-5.8,7.3
			c0,2.8,2,5.5,5.8,7.3c3.4,1.8,8.1,2.7,13.1,2.7c4.9,0,9.5-1,13.1-2.7c3.7-1.9,5.8-4.5,5.8-7.3
			C737.5,229.9,735.5,227.3,731.8,225.3z"/>
		<path class="st6" d="M738.2,222.2c-5.2-2.9-12-4.7-19.3-4.7s-14.2,1.6-19.3,4.7c-5,2.8-7.7,6.6-7.7,10.4c0,3.9,2.7,7.6,7.7,10.4
			c5.2,2.9,12,4.7,19.3,4.7s14.2-1.6,19.3-4.7c5-2.8,7.7-6.6,7.7-10.4C745.8,228.8,743.1,225,738.2,222.2z M731.8,240
			c-3.5,1.8-8.1,2.7-13.1,2.7c-4.9,0-9.5-1-13.1-2.7c-3.7-1.9-5.8-4.5-5.8-7.3c0-2.8,2-5.5,5.8-7.3c3.4-1.8,8.1-2.7,13.1-2.7
			c4.9,0,9.5,1,13.1,2.7c3.7,1.9,5.8,4.5,5.8,7.3C737.5,235.5,735.5,238.1,731.8,240z"/>
		<path class="st18" d="M738.2,222.2c-5.2-2.9-12-4.7-19.3-4.7s-14.2,1.6-19.3,4.7c-5,2.8-7.7,6.6-7.7,10.4c0,3.9,2.7,7.6,7.7,10.4
			c5.2,2.9,12,4.7,19.3,4.7s14.2-1.6,19.3-4.7c5-2.8,7.7-6.6,7.7-10.4C745.8,228.8,743.1,225,738.2,222.2z M731.8,240
			c-3.5,1.8-8.1,2.7-13.1,2.7c-4.9,0-9.5-1-13.1-2.7c-3.7-1.9-5.8-4.5-5.8-7.3c0-2.8,2-5.5,5.8-7.3c3.4-1.8,8.1-2.7,13.1-2.7
			c4.9,0,9.5,1,13.1,2.7c3.7,1.9,5.8,4.5,5.8,7.3C737.5,235.5,735.5,238.1,731.8,240z"/>
		<path class="st6" d="M718.8,241.7c9.8,0,17.8-4.1,17.8-9.1c0-5-8-9.1-17.8-9.1s-17.8,4.1-17.8,9.1
			C701,237.7,708.9,241.7,718.8,241.7z"/>
		<path class="st16" d="M718.8,241.7c9.8,0,17.8-4.1,17.8-9.1c0-5-8-9.1-17.8-9.1s-17.8,4.1-17.8,9.1
			C701,237.7,708.9,241.7,718.8,241.7z"/>
		<path class="st6" d="M731.3,228.7c-7-3.5-18.2-3.5-25.1,0c-2.8,1.5-4.6,3.3-5.1,5.3c0.5,1.9,2.2,3.7,5.1,5.3
			c7,3.5,18.2,3.5,25.1,0c2.8-1.5,4.6-3.3,5.1-5.3C735.9,231.9,734.3,230.1,731.3,228.7z"/>
		<path class="st17" d="M731.3,228.7c-7-3.5-18.2-3.5-25.1,0c-2.8,1.5-4.6,3.3-5.1,5.3c0.5,1.9,2.2,3.7,5.1,5.3
			c7,3.5,18.2,3.5,25.1,0c2.8-1.5,4.6-3.3,5.1-5.3C735.9,231.9,734.3,230.1,731.3,228.7z"/>
		<path class="st6" d="M720.5,226.3v2.6l-0.9,0.9l-1.6,1.7v-2.7L720.5,226.3z"/>
		<path class="st6" d="M718,228.9v2.7h-5.2v-3.1C712.8,228.5,717.6,227.8,718,228.9z"/>
		<path class="st6" d="M729.7,236.3v2.2l-2.8,1.6l-2.1-1.2c-2.2,1-5.2,1.5-8.2,0.4v-2.2l1.3-1.3l-1.3,0.4c-2,0.5-4.1,0.5-6.4-0.7
			c-1.3-0.7-1.8-1.5-1.8-2.3v-2.2l0.2-0.9l-0.8-0.4v-2.2l2.1,1.2c-1,0.8-1.6,1.6-1.5,2.4c0,0.8,0.6,1.6,1.8,2.3
			c2.7,1.6,5.6,1.1,8,0.3c2.3-0.8,4-1.6,5.4-0.9c0.8,0.5,0.6,1.1-0.4,1.6c-1.5,0.9-3.1,0.6-4,0.2l-2.7,2.6c0.5,0.2,1,0.3,1.5,0.4
			c2.4,0.5,4.9,0,6.7-0.8l2.1,1.2L729.7,236.3z"/>
		<path class="st6" d="M724.7,236.8v2.2l2.1,1.2V238L724.7,236.8z"/>
		<g class="st19">
			<path class="st16" d="M720.5,226.3v2.6l-0.9,0.9l-1.6,1.7v-2.7L720.5,226.3z"/>
			<path class="st16" d="M718,228.9v2.7h-5.2v-3.1C712.8,228.5,717.6,227.8,718,228.9z"/>
			<path class="st16" d="M729.7,236.3v2.2l-2.8,1.6l-2.1-1.2c-2.2,1-5.2,1.5-8.2,0.4v-2.2l1.3-1.3l-1.3,0.4c-2,0.5-4.1,0.5-6.4-0.7
				c-1.3-0.7-1.8-1.5-1.8-2.3v-2.2l0.2-0.9l-0.8-0.4v-2.2l2.1,1.2c-1,0.8-1.6,1.6-1.5,2.4c0,0.8,0.6,1.6,1.8,2.3
				c2.7,1.6,5.6,1.1,8,0.3c2.3-0.8,4-1.6,5.4-0.9c0.8,0.5,0.6,1.1-0.4,1.6c-1.5,0.9-3.1,0.6-4,0.2l-2.7,2.6c0.5,0.2,1,0.3,1.5,0.4
				c2.4,0.5,4.9,0,6.7-0.8l2.1,1.2L729.7,236.3z"/>
			<path class="st16" d="M724.7,236.8v2.2l2.1,1.2V238L724.7,236.8z"/>
		</g>
		<path class="st6" d="M729.3,236.1l-1.6-0.9c0,0,1.6-0.7,1.6-2.5c0-0.1,0-0.1,0-0.2c-0.1-0.8-0.6-1.5-1.8-2.2c-1.2-0.7-2.5-1-3.7-1
			c-0.1,0-0.2,0-0.3,0s-0.2,0-0.3,0c-0.1,0-0.2,0-0.3,0h-0.1c-0.1,0-0.2,0-0.2,0c-0.6,0.1-1.2,0.2-1.8,0.4c-0.3,0.1-0.6,0.2-0.9,0.3
			c-0.4,0.1-0.8,0.3-1.2,0.4c-0.2,0.1-0.3,0.1-0.4,0.2c-1.1,0.4-1.9,0.6-2.5,0.7c-0.4,0.1-0.8,0-1.1,0c-0.2,0-0.3-0.1-0.5-0.2
			c-0.6-0.4-0.7-0.9,0.5-1.6c1.3-0.7,2.5-0.8,3.6-0.4l2.5-2.5c-2.4-0.8-5.1-0.6-7.7,0.4l-2.1-1.2l-2.8,1.6l2.1,1.2
			c-1,0.8-1.6,1.6-1.5,2.4c0,0.8,0.6,1.6,1.8,2.3c2.7,1.6,5.6,1.1,8,0.3c2.3-0.8,4-1.6,5.4-0.9c0.8,0.5,0.6,1.1-0.3,1.6
			c-1.5,0.9-3.1,0.6-4,0.2l-2.7,2.6c0.5,0.2,1,0.3,1.5,0.4c2.4,0.5,4.9,0,6.7-0.8l2.1,1.2l2.8-1.6L729.3,236.1z"/>
		<path class="st18" d="M729.3,236.1l-1.6-0.9c0,0,1.6-0.7,1.6-2.5c0-0.1,0-0.1,0-0.2c-0.1-0.8-0.6-1.5-1.8-2.2
			c-1.2-0.7-2.5-1-3.7-1c-0.1,0-0.2,0-0.3,0s-0.2,0-0.3,0c-0.1,0-0.2,0-0.3,0h-0.1c-0.1,0-0.2,0-0.2,0c-0.6,0.1-1.2,0.2-1.8,0.4
			c-0.3,0.1-0.6,0.2-0.9,0.3c-0.4,0.1-0.8,0.3-1.2,0.4c-0.2,0.1-0.3,0.1-0.4,0.2c-1.1,0.4-1.9,0.6-2.5,0.7c-0.4,0.1-0.8,0-1.1,0
			c-0.2,0-0.3-0.1-0.5-0.2c-0.6-0.4-0.7-0.9,0.5-1.6c1.3-0.7,2.5-0.8,3.6-0.4l2.5-2.5c-2.4-0.8-5.1-0.6-7.7,0.4l-2.1-1.2l-2.8,1.6
			l2.1,1.2c-1,0.8-1.6,1.6-1.5,2.4c0,0.8,0.6,1.6,1.8,2.3c2.7,1.6,5.6,1.1,8,0.3c2.3-0.8,4-1.6,5.4-0.9c0.8,0.5,0.6,1.1-0.3,1.6
			c-1.5,0.9-3.1,0.6-4,0.2l-2.7,2.6c0.5,0.2,1,0.3,1.5,0.4c2.4,0.5,4.9,0,6.7-0.8l2.1,1.2l2.8-1.6L729.3,236.1z"/>
		<path class="st6" d="M742.5,225.5c-1.3-2.3-3.6-4.5-6.8-6.3c-11-6.4-28.9-6.4-40,0c-3.1,1.8-5.4,3.9-6.8,6.3h-1.5v5.8
			c0.2,4,2.9,8,8.3,11c11,6.4,28.9,6.4,40,0c5.3-3,8.1-7.1,8.3-11v-5.8H742.5z"/>
		<path class="st16" d="M742.5,225.5c-1.3-2.3-3.6-4.5-6.8-6.3c-11-6.4-28.9-6.4-40,0c-3.1,1.8-5.4,3.9-6.8,6.3h-1.5v5.8
			c0.2,4,2.9,8,8.3,11c11,6.4,28.9,6.4,40,0c5.3-3,8.1-7.1,8.3-11v-5.8H742.5z"/>
		<path class="st6" d="M735.8,214c-11-6.4-28.9-6.4-40,0c-11,6.4-11,16.7,0,23.1c11,6.4,28.9,6.4,40,0
			C746.8,230.8,746.8,220.4,735.8,214z"/>
		<path class="st17" d="M735.8,214c-11-6.4-28.9-6.4-40,0c-11,6.4-11,16.7,0,23.1c11,6.4,28.9,6.4,40,0
			C746.8,230.8,746.8,220.4,735.8,214z"/>
		<path class="st6" d="M728.8,218.2c-3.5-1.8-8.1-2.7-13.1-2.7c-4.9,0-9.5,1-13.1,2.7c-3.7,1.9-5.8,4.5-5.8,7.3c0,2.8,2,5.5,5.8,7.3
			c3.4,1.8,8.1,2.7,13.1,2.7c4.9,0,9.5-1,13.1-2.7c3.7-1.9,5.8-4.5,5.8-7.3C734.5,222.8,732.4,220.2,728.8,218.2z"/>
		<path class="st17" d="M728.8,218.2c-3.5-1.8-8.1-2.7-13.1-2.7c-4.9,0-9.5,1-13.1,2.7c-3.7,1.9-5.8,4.5-5.8,7.3
			c0,2.8,2,5.5,5.8,7.3c3.4,1.8,8.1,2.7,13.1,2.7c4.9,0,9.5-1,13.1-2.7c3.7-1.9,5.8-4.5,5.8-7.3
			C734.5,222.8,732.4,220.2,728.8,218.2z"/>
		<path class="st6" d="M735.2,215.1c-5.2-2.9-12-4.7-19.3-4.7c-7.3,0-14.2,1.6-19.3,4.7c-5,2.8-7.7,6.6-7.7,10.4
			c0,3.9,2.7,7.6,7.7,10.4c5.2,2.9,12,4.7,19.3,4.7c7.3,0,14.2-1.6,19.3-4.7c5-2.8,7.7-6.6,7.7-10.4
			C742.8,221.7,740,217.9,735.2,215.1z M728.8,232.9c-3.5,1.8-8.1,2.7-13.1,2.7c-4.9,0-9.5-1-13.1-2.7c-3.7-1.9-5.8-4.5-5.8-7.3
			c0-2.8,2-5.5,5.8-7.3c3.4-1.8,8.1-2.7,13.1-2.7c4.9,0,9.5,1,13.1,2.7c3.7,1.9,5.8,4.5,5.8,7.3C734.5,228.4,732.4,231,728.8,232.9z
			"/>
		<path class="st18" d="M735.2,215.1c-5.2-2.9-12-4.7-19.3-4.7c-7.3,0-14.2,1.6-19.3,4.7c-5,2.8-7.7,6.6-7.7,10.4
			c0,3.9,2.7,7.6,7.7,10.4c5.2,2.9,12,4.7,19.3,4.7c7.3,0,14.2-1.6,19.3-4.7c5-2.8,7.7-6.6,7.7-10.4
			C742.8,221.7,740,217.9,735.2,215.1z M728.8,232.9c-3.5,1.8-8.1,2.7-13.1,2.7c-4.9,0-9.5-1-13.1-2.7c-3.7-1.9-5.8-4.5-5.8-7.3
			c0-2.8,2-5.5,5.8-7.3c3.4-1.8,8.1-2.7,13.1-2.7c4.9,0,9.5,1,13.1,2.7c3.7,1.9,5.8,4.5,5.8,7.3C734.5,228.4,732.4,231,728.8,232.9z
			"/>
		<path class="st6" d="M715.7,234.6c9.8,0,17.8-4.1,17.8-9.1c0-5-8-9.1-17.8-9.1c-9.8,0-17.8,4.1-17.8,9.1
			C697.9,230.6,705.9,234.6,715.7,234.6z"/>
		<path class="st16" d="M715.7,234.6c9.8,0,17.8-4.1,17.8-9.1c0-5-8-9.1-17.8-9.1c-9.8,0-17.8,4.1-17.8,9.1
			C697.9,230.6,705.9,234.6,715.7,234.6z"/>
		<path class="st6" d="M728.3,221.6c-7-3.5-18.2-3.5-25.1,0c-2.8,1.5-4.6,3.3-5.1,5.3c0.5,1.9,2.2,3.7,5.1,5.3
			c7,3.5,18.2,3.5,25.1,0c2.8-1.5,4.6-3.3,5.1-5.3C732.8,224.8,731.2,223,728.3,221.6z"/>
		<path class="st17" d="M728.3,221.6c-7-3.5-18.2-3.5-25.1,0c-2.8,1.5-4.6,3.3-5.1,5.3c0.5,1.9,2.2,3.7,5.1,5.3
			c7,3.5,18.2,3.5,25.1,0c2.8-1.5,4.6-3.3,5.1-5.3C732.8,224.8,731.2,223,728.3,221.6z"/>
		<path class="st6" d="M717.5,219.3v2.6l-0.9,0.9l-1.6,1.7v-2.7L717.5,219.3z"/>
		<path class="st6" d="M714.9,221.8v2.7h-5.2v-3.1C709.8,221.4,714.5,220.7,714.9,221.8z"/>
		<path class="st6" d="M726.7,229.2v2.2l-2.8,1.6l-2.1-1.2c-2.2,1-5.2,1.5-8.2,0.4V230l1.3-1.3l-1.3,0.4c-2,0.5-4.1,0.5-6.4-0.7
			c-1.3-0.7-1.8-1.5-1.8-2.3v-2.2l0.2-0.9l-0.8-0.4v-2.2l2.1,1.2c-1,0.8-1.6,1.6-1.5,2.4c0,0.8,0.6,1.6,1.8,2.3
			c2.7,1.6,5.6,1.1,8,0.3c2.3-0.8,4-1.6,5.4-0.9c0.8,0.5,0.6,1.1-0.4,1.6c-1.5,0.9-3.1,0.6-4,0.2l-2.7,2.6c0.5,0.2,1,0.3,1.5,0.4
			c2.4,0.5,4.9,0,6.7-0.8l2.1,1.2L726.7,229.2z"/>
		<path class="st6" d="M721.7,229.7v2.2l2.1,1.2v-2.2L721.7,229.7z"/>
		<g class="st19">
			<path class="st16" d="M717.5,219.3v2.6l-0.9,0.9l-1.6,1.7v-2.7L717.5,219.3z"/>
			<path class="st16" d="M714.9,221.8v2.7h-5.2v-3.1C709.8,221.4,714.5,220.7,714.9,221.8z"/>
			<path class="st16" d="M726.7,229.2v2.2l-2.8,1.6l-2.1-1.2c-2.2,1-5.2,1.5-8.2,0.4V230l1.3-1.3l-1.3,0.4c-2,0.5-4.1,0.5-6.4-0.7
				c-1.3-0.7-1.8-1.5-1.8-2.3v-2.2l0.2-0.9l-0.8-0.4v-2.2l2.1,1.2c-1,0.8-1.6,1.6-1.5,2.4c0,0.8,0.6,1.6,1.8,2.3
				c2.7,1.6,5.6,1.1,8,0.3c2.3-0.8,4-1.6,5.4-0.9c0.8,0.5,0.6,1.1-0.4,1.6c-1.5,0.9-3.1,0.6-4,0.2l-2.7,2.6c0.5,0.2,1,0.3,1.5,0.4
				c2.4,0.5,4.9,0,6.7-0.8l2.1,1.2L726.7,229.2z"/>
			<path class="st16" d="M721.7,229.7v2.2l2.1,1.2v-2.2L721.7,229.7z"/>
		</g>
		<path class="st6" d="M726.3,229l-1.6-0.9c0,0,1.6-0.7,1.6-2.5c0-0.1,0-0.1,0-0.2c-0.1-0.8-0.6-1.5-1.8-2.2c-1.2-0.7-2.5-1-3.7-1
			c-0.1,0-0.2,0-0.3,0c-0.1,0-0.2,0-0.3,0c-0.1,0-0.2,0-0.3,0h-0.1c-0.1,0-0.2,0-0.2,0c-0.6,0.1-1.2,0.2-1.8,0.4
			c-0.3,0.1-0.6,0.2-0.9,0.3c-0.4,0.1-0.8,0.3-1.2,0.4c-0.2,0.1-0.3,0.1-0.4,0.2c-1.1,0.4-1.9,0.6-2.5,0.7c-0.4,0.1-0.8,0-1.1,0
			c-0.2,0-0.3-0.1-0.5-0.2c-0.6-0.4-0.7-0.9,0.5-1.6c1.3-0.7,2.5-0.8,3.6-0.4l2.5-2.5c-2.4-0.8-5.1-0.6-7.7,0.4l-2.1-1.2l-2.8,1.6
			l2.1,1.2c-1,0.8-1.6,1.6-1.5,2.4c0,0.8,0.6,1.6,1.8,2.3c2.7,1.6,5.6,1.1,8,0.3c2.3-0.8,4-1.6,5.4-0.9c0.8,0.5,0.6,1.1-0.3,1.6
			c-1.5,0.9-3.1,0.6-4,0.2l-2.7,2.6c0.5,0.2,1,0.3,1.5,0.4c2.4,0.5,4.9,0,6.7-0.8l2.1,1.2l2.8-1.6L726.3,229z"/>
		<path class="st18" d="M726.3,229l-1.6-0.9c0,0,1.6-0.7,1.6-2.5c0-0.1,0-0.1,0-0.2c-0.1-0.8-0.6-1.5-1.8-2.2c-1.2-0.7-2.5-1-3.7-1
			c-0.1,0-0.2,0-0.3,0c-0.1,0-0.2,0-0.3,0c-0.1,0-0.2,0-0.3,0h-0.1c-0.1,0-0.2,0-0.2,0c-0.6,0.1-1.2,0.2-1.8,0.4
			c-0.3,0.1-0.6,0.2-0.9,0.3c-0.4,0.1-0.8,0.3-1.2,0.4c-0.2,0.1-0.3,0.1-0.4,0.2c-1.1,0.4-1.9,0.6-2.5,0.7c-0.4,0.1-0.8,0-1.1,0
			c-0.2,0-0.3-0.1-0.5-0.2c-0.6-0.4-0.7-0.9,0.5-1.6c1.3-0.7,2.5-0.8,3.6-0.4l2.5-2.5c-2.4-0.8-5.1-0.6-7.7,0.4l-2.1-1.2l-2.8,1.6
			l2.1,1.2c-1,0.8-1.6,1.6-1.5,2.4c0,0.8,0.6,1.6,1.8,2.3c2.7,1.6,5.6,1.1,8,0.3c2.3-0.8,4-1.6,5.4-0.9c0.8,0.5,0.6,1.1-0.3,1.6
			c-1.5,0.9-3.1,0.6-4,0.2l-2.7,2.6c0.5,0.2,1,0.3,1.5,0.4c2.4,0.5,4.9,0,6.7-0.8l2.1,1.2l2.8-1.6L726.3,229z"/>
		<path class="st6" d="M745.5,216.4c-1.3-2.3-3.6-4.5-6.8-6.3c-11-6.4-28.9-6.4-40,0c-3.1,1.8-5.4,3.9-6.8,6.3h-1.5v5.8
			c0.2,4,2.9,8,8.3,11c11,6.4,28.9,6.4,40,0c5.3-3,8.1-7.1,8.3-11v-5.8H745.5z"/>
		<path class="st16" d="M745.5,216.4c-1.3-2.3-3.6-4.5-6.8-6.3c-11-6.4-28.9-6.4-40,0c-3.1,1.8-5.4,3.9-6.8,6.3h-1.5v5.8
			c0.2,4,2.9,8,8.3,11c11,6.4,28.9,6.4,40,0c5.3-3,8.1-7.1,8.3-11v-5.8H745.5z"/>
		<path class="st6" d="M738.8,204.9c-11-6.4-28.9-6.4-40,0c-11,6.4-11,16.7,0,23.1c11,6.4,28.9,6.4,40,0
			C749.8,221.7,749.8,211.3,738.8,204.9z"/>
		<path class="st17" d="M738.8,204.9c-11-6.4-28.9-6.4-40,0c-11,6.4-11,16.7,0,23.1c11,6.4,28.9,6.4,40,0
			C749.8,221.7,749.8,211.3,738.8,204.9z"/>
		<path class="st6" d="M731.8,209.1c-3.5-1.8-8.1-2.7-13.1-2.7c-4.9,0-9.5,1-13.1,2.7c-3.7,1.9-5.8,4.5-5.8,7.3c0,2.8,2,5.5,5.8,7.3
			c3.4,1.8,8.1,2.7,13.1,2.7c4.9,0,9.5-1,13.1-2.7c3.7-1.9,5.8-4.5,5.8-7.3C737.5,213.7,735.5,211.1,731.8,209.1z"/>
		<path class="st17" d="M731.8,209.1c-3.5-1.8-8.1-2.7-13.1-2.7c-4.9,0-9.5,1-13.1,2.7c-3.7,1.9-5.8,4.5-5.8,7.3
			c0,2.8,2,5.5,5.8,7.3c3.4,1.8,8.1,2.7,13.1,2.7c4.9,0,9.5-1,13.1-2.7c3.7-1.9,5.8-4.5,5.8-7.3
			C737.5,213.7,735.5,211.1,731.8,209.1z"/>
		<path class="st6" d="M738.2,206c-5.2-2.9-12-4.7-19.3-4.7s-14.2,1.6-19.3,4.7c-5,2.8-7.7,6.6-7.7,10.4c0,3.9,2.7,7.6,7.7,10.4
			c5.2,2.9,12,4.7,19.3,4.7s14.2-1.6,19.3-4.7c5-2.8,7.7-6.6,7.7-10.4C745.8,212.6,743.1,208.8,738.2,206z M731.8,223.8
			c-3.5,1.8-8.1,2.7-13.1,2.7c-4.9,0-9.5-1-13.1-2.7c-3.7-1.9-5.8-4.5-5.8-7.3c0-2.8,2-5.5,5.8-7.3c3.4-1.8,8.1-2.7,13.1-2.7
			c4.9,0,9.5,1,13.1,2.7c3.7,1.9,5.8,4.5,5.8,7.3C737.5,219.3,735.5,221.9,731.8,223.8z"/>
		<path class="st18" d="M738.2,206c-5.2-2.9-12-4.7-19.3-4.7s-14.2,1.6-19.3,4.7c-5,2.8-7.7,6.6-7.7,10.4c0,3.9,2.7,7.6,7.7,10.4
			c5.2,2.9,12,4.7,19.3,4.7s14.2-1.6,19.3-4.7c5-2.8,7.7-6.6,7.7-10.4C745.8,212.6,743.1,208.8,738.2,206z M731.8,223.8
			c-3.5,1.8-8.1,2.7-13.1,2.7c-4.9,0-9.5-1-13.1-2.7c-3.7-1.9-5.8-4.5-5.8-7.3c0-2.8,2-5.5,5.8-7.3c3.4-1.8,8.1-2.7,13.1-2.7
			c4.9,0,9.5,1,13.1,2.7c3.7,1.9,5.8,4.5,5.8,7.3C737.5,219.3,735.5,221.9,731.8,223.8z"/>
		<path class="st6" d="M718.8,225.5c9.8,0,17.8-4.1,17.8-9.1c0-5-8-9.1-17.8-9.1s-17.8,4.1-17.8,9.1
			C701,221.5,708.9,225.5,718.8,225.5z"/>
		<path class="st16" d="M718.8,225.5c9.8,0,17.8-4.1,17.8-9.1c0-5-8-9.1-17.8-9.1s-17.8,4.1-17.8,9.1
			C701,221.5,708.9,225.5,718.8,225.5z"/>
		<path class="st6" d="M731.3,212.5c-7-3.5-18.2-3.5-25.1,0c-2.8,1.5-4.6,3.3-5.1,5.3c0.5,1.9,2.2,3.7,5.1,5.3
			c7,3.5,18.2,3.5,25.1,0c2.8-1.5,4.6-3.3,5.1-5.3C735.9,215.7,734.3,213.9,731.3,212.5z"/>
		<path class="st17" d="M731.3,212.5c-7-3.5-18.2-3.5-25.1,0c-2.8,1.5-4.6,3.3-5.1,5.3c0.5,1.9,2.2,3.7,5.1,5.3
			c7,3.5,18.2,3.5,25.1,0c2.8-1.5,4.6-3.3,5.1-5.3C735.9,215.7,734.3,213.9,731.3,212.5z"/>
		<path class="st6" d="M720.5,210.1v2.6l-0.9,0.9l-1.6,1.7v-2.7L720.5,210.1z"/>
		<path class="st6" d="M718,212.7v2.7h-5.2v-3.1C712.8,212.3,717.6,211.6,718,212.7z"/>
		<path class="st6" d="M729.7,220.1v2.2l-2.8,1.6l-2.1-1.2c-2.2,1-5.2,1.5-8.2,0.4v-2.2l1.3-1.3l-1.3,0.4c-2,0.5-4.1,0.5-6.4-0.7
			c-1.3-0.7-1.8-1.5-1.8-2.3v-2.2l0.2-0.9l-0.8-0.4v-2.2l2.1,1.2c-1,0.8-1.6,1.6-1.5,2.4c0,0.8,0.6,1.6,1.8,2.3
			c2.7,1.6,5.6,1.1,8,0.3c2.3-0.8,4-1.6,5.4-0.9c0.8,0.5,0.6,1.1-0.4,1.6c-1.5,0.9-3.1,0.6-4,0.2l-2.7,2.6c0.5,0.2,1,0.3,1.5,0.4
			c2.4,0.5,4.9,0,6.7-0.8l2.1,1.2L729.7,220.1z"/>
		<path class="st6" d="M724.7,220.6v2.2l2.1,1.2v-2.2L724.7,220.6z"/>
		<g class="st19">
			<path class="st16" d="M720.5,210.1v2.6l-0.9,0.9l-1.6,1.7v-2.7L720.5,210.1z"/>
			<path class="st16" d="M718,212.7v2.7h-5.2v-3.1C712.8,212.3,717.6,211.6,718,212.7z"/>
			<path class="st16" d="M729.7,220.1v2.2l-2.8,1.6l-2.1-1.2c-2.2,1-5.2,1.5-8.2,0.4v-2.2l1.3-1.3l-1.3,0.4c-2,0.5-4.1,0.5-6.4-0.7
				c-1.3-0.7-1.8-1.5-1.8-2.3v-2.2l0.2-0.9l-0.8-0.4v-2.2l2.1,1.2c-1,0.8-1.6,1.6-1.5,2.4c0,0.8,0.6,1.6,1.8,2.3
				c2.7,1.6,5.6,1.1,8,0.3c2.3-0.8,4-1.6,5.4-0.9c0.8,0.5,0.6,1.1-0.4,1.6c-1.5,0.9-3.1,0.6-4,0.2l-2.7,2.6c0.5,0.2,1,0.3,1.5,0.4
				c2.4,0.5,4.9,0,6.7-0.8l2.1,1.2L729.7,220.1z"/>
			<path class="st16" d="M724.7,220.6v2.2l2.1,1.2v-2.2L724.7,220.6z"/>
		</g>
		<path class="st6" d="M729.3,219.9l-1.6-0.9c0,0,1.6-0.7,1.6-2.5c0-0.1,0-0.1,0-0.2c-0.1-0.8-0.6-1.5-1.8-2.2c-1.2-0.7-2.5-1-3.7-1
			c-0.1,0-0.2,0-0.3,0s-0.2,0-0.3,0c-0.1,0-0.2,0-0.3,0h-0.1c-0.1,0-0.2,0-0.2,0c-0.6,0.1-1.2,0.2-1.8,0.4c-0.3,0.1-0.6,0.2-0.9,0.3
			c-0.4,0.1-0.8,0.3-1.2,0.4c-0.2,0.1-0.3,0.1-0.4,0.2c-1.1,0.4-1.9,0.6-2.5,0.7c-0.4,0.1-0.8,0-1.1,0c-0.2,0-0.3-0.1-0.5-0.2
			c-0.6-0.4-0.7-0.9,0.5-1.6c1.3-0.7,2.5-0.8,3.6-0.4l2.5-2.5c-2.4-0.8-5.1-0.6-7.7,0.4l-2.1-1.2l-2.8,1.6l2.1,1.2
			c-1,0.8-1.6,1.6-1.5,2.4c0,0.8,0.6,1.6,1.8,2.3c2.7,1.6,5.6,1.1,8,0.3c2.3-0.8,4-1.6,5.4-0.9c0.8,0.5,0.6,1.1-0.3,1.6
			c-1.5,0.9-3.1,0.6-4,0.2l-2.7,2.6c0.5,0.2,1,0.3,1.5,0.4c2.4,0.5,4.9,0,6.7-0.8l2.1,1.2l2.8-1.6L729.3,219.9z"/>
		<path class="st18" d="M729.3,219.9l-1.6-0.9c0,0,1.6-0.7,1.6-2.5c0-0.1,0-0.1,0-0.2c-0.1-0.8-0.6-1.5-1.8-2.2
			c-1.2-0.7-2.5-1-3.7-1c-0.1,0-0.2,0-0.3,0s-0.2,0-0.3,0c-0.1,0-0.2,0-0.3,0h-0.1c-0.1,0-0.2,0-0.2,0c-0.6,0.1-1.2,0.2-1.8,0.4
			c-0.3,0.1-0.6,0.2-0.9,0.3c-0.4,0.1-0.8,0.3-1.2,0.4c-0.2,0.1-0.3,0.1-0.4,0.2c-1.1,0.4-1.9,0.6-2.5,0.7c-0.4,0.1-0.8,0-1.1,0
			c-0.2,0-0.3-0.1-0.5-0.2c-0.6-0.4-0.7-0.9,0.5-1.6c1.3-0.7,2.5-0.8,3.6-0.4l2.5-2.5c-2.4-0.8-5.1-0.6-7.7,0.4l-2.1-1.2l-2.8,1.6
			l2.1,1.2c-1,0.8-1.6,1.6-1.5,2.4c0,0.8,0.6,1.6,1.8,2.3c2.7,1.6,5.6,1.1,8,0.3c2.3-0.8,4-1.6,5.4-0.9c0.8,0.5,0.6,1.1-0.3,1.6
			c-1.5,0.9-3.1,0.6-4,0.2l-2.7,2.6c0.5,0.2,1,0.3,1.5,0.4c2.4,0.5,4.9,0,6.7-0.8l2.1,1.2l2.8-1.6L729.3,219.9z"/>
	</g>
</g>
</svg>
