<?xml version="1.0" encoding="utf-8"?>
<!-- Generator: Adobe Illustrator 23.0.1, SVG Export Plug-In . SVG Version: 6.00 Build 0)  -->
<svg version="1.1" id="Layer_1" xmlns="http://www.w3.org/2000/svg" xmlns:xlink="http://www.w3.org/1999/xlink" x="0px" y="0px"
	 viewBox="0 0 736 327" style="enable-background:new 0 0 736 327;" xml:space="preserve">
<style type="text/css">
	.st0{fill:url(#SVGID_1_);}
	.st1{fill:#FFCD83;filter:url(#Adobe_OpacityMaskFilter);}
	.st2{mask:url(#mask0_1_);}
	.st3{opacity:0.4;}
	.st4{fill:#70F7DE;}
	.st5{fill:#263238;}
	.st6{fill:#2D1413;}
	.st7{fill:#602171;}
	.st8{fill:#FFAF2F;}
	.st9{fill:#C59969;}
	.st10{fill:#F3BABC;}
	.st11{fill:#FA4B27;}
	.st12{fill:#6986FC;}
	.st13{fill:#FFD0C0;}
	.st14{fill:#E2A696;}
	.st15{fill:#E23D23;}
	.st16{fill:#4B195B;}
	.st17{fill:#405EBC;}
	.st18{fill:#F9F4F5;}
	.st19{fill:#C6C5C4;}
</style>
<linearGradient id="SVGID_1_" gradientUnits="userSpaceOnUse" x1="319.835" y1="306.0535" x2="470.196" y2="-135.8463" gradientTransform="matrix(1 0 0 -1 0 328)">
	<stop  offset="1.587280e-02" style="stop-color:#FBEFD8"/>
	<stop  offset="0.8288" style="stop-color:#D8FBEA"/>
</linearGradient>
<rect class="st0" width="736" height="327"/>
<defs>
	<filter id="Adobe_OpacityMaskFilter" filterUnits="userSpaceOnUse" x="257.9" y="99" width="515.1" height="531.8">
		<feColorMatrix  type="matrix" values="1 0 0 0 0  0 1 0 0 0  0 0 1 0 0  0 0 0 1 0"/>
	</filter>
</defs>
<mask maskUnits="userSpaceOnUse" x="257.9" y="99" width="515.1" height="531.8" id="mask0_1_">
	<path class="st1" d="M250,90h478c4.4,0,8,3.6,8,8v221c0,4.4-3.6,8-8,8H250c-4.4,0-8-3.6-8-8V98C242,93.6,245.6,90,250,90z"/>
</mask>
<g class="st2">
	<g class="st3">
		<path class="st4" d="M402.8,338.1c34.7-24.2,42.5-69.2,41.1-109.6c-0.2-6.7,0.5-13.9-2.7-19.8s-10.7-10-16.7-7.1
			c-5,2.3-7.2,8.2-10,13c-3.7,6.4-9.3,11.7-15.8,15.1c-4.3,2.2-9.6,3.6-13.8,1.2c-5.8-3.2-6.5-11.2-6.5-18c0.1-12.5,0.2-25,0.2-37.5
			c0-6.7,0.1-13.6-2-19.9c-2.1-6.4-6.7-12.3-13.1-14.1c-6.4-1.8-14.3,1.9-15.6,8.5c-0.5,2.7,0,5.6-0.2,8.4s-1.5,5.9-4.1,6.6
			c-2.7,0.8-5.4-1.1-7.4-3.1c-6.9-6.8-11.6-15.5-16-24.2c-4.4-8.7-8.7-17.6-14.9-25c-6.3-7.4-15-13.2-24.6-13.8
			c-9.6-0.5-19.8,5.4-22.3,14.8c-2.4,9.4,3.1,19,9.1,26.7c8.9,11.4,19.4,21.4,31.2,29.7c2.1,1.5,4.4,3.1,5.2,5.6
			c1.5,4.5-2.8,8.9-7.2,10.4c-5,1.7-10.4,1.2-15.7,1.8c-5.2,0.6-10.9,2.9-12.9,7.9c-2.7,6.9,3,14.1,8.6,18.7
			c11.3,9.4,24.2,16.9,38,21.9c4.9,1.8,10.1,3.4,14.1,6.9c4,3.5,6.4,9.5,4,14.2c-2.4,4.7-8.6,6.2-13.7,5.3
			c-5.2-0.9-9.8-3.8-14.7-5.6c-9.2-3.5-21.1-2.8-27,5.1c-3.9,5.2-4.2,12.5-2.3,18.8c2,6.2,5.9,11.6,10.2,16.6
			c14.8,17.3,33.7,31.3,55.1,38.7C361.7,343.9,381.5,345.9,402.8,338.1z"/>
		<path class="st5" d="M268.1,104.6c0,0,0.2,0.2,0.6,0.6c0.5,0.4,1.2,1,2,1.8c1.8,1.6,4.4,3.8,7.6,6.9c6.5,6.1,15.7,15.2,25.6,27.6
			c5,6.2,10.2,13.3,15.6,20.9c5.4,7.7,11.2,15.9,16.9,24.8c5.7,8.9,11.4,18.4,16.6,28.7c2.6,5.1,4.9,10.5,7.3,16
			c2.3,5.5,4.7,11,7.1,16.6c9.5,22.5,17.9,44.3,23.9,64.6c6,20.3,9.6,39.1,11.2,55c1.6,15.9,1.3,29,0.6,37.9
			c-0.4,4.5-0.7,7.9-1,10.3c-0.1,1.1-0.2,2-0.3,2.7c-0.1,0.6-0.1,0.9-0.1,0.9c0,0,0.1-0.3,0.2-0.9c0.1-0.7,0.2-1.5,0.4-2.7
			c0.4-2.3,0.8-5.8,1.2-10.3c0.8-8.9,1.2-22-0.2-38c-1.5-16-5-34.9-11-55.3c-5.9-20.4-14.3-42.2-23.9-64.7
			c-2.4-5.6-4.8-11.2-7.1-16.6c-2.3-5.5-4.7-10.9-7.3-16c-5.2-10.3-10.9-19.9-16.7-28.7c-5.8-8.9-11.5-17.1-17-24.7
			c-5.5-7.6-10.7-14.7-15.8-20.9c-10.1-12.4-19.4-21.5-26-27.5c-3.3-3-5.9-5.2-7.8-6.7c-0.9-0.7-1.6-1.2-2.1-1.7
			C268.3,104.8,268.1,104.6,268.1,104.6z"/>
		<path class="st5" d="M353.7,215.4c0.1,0,0.3-1,0.6-2.9c0.4-1.9,0.8-4.5,1.2-7.9c0.9-6.7,1.9-15.9,3-26.2
			c1.1-10.2,2.2-19.4,3.2-26.1c0.5-3.3,0.9-6,1.3-7.9c0.3-1.9,0.5-2.9,0.4-2.9c-0.1,0-0.4,1-0.9,2.8c-0.5,1.8-1.1,4.5-1.7,7.8
			c-1.3,6.6-2.5,15.9-3.6,26.1c-1,10.1-2,19.2-2.7,26.2c-0.3,3.1-0.6,5.8-0.9,7.9C353.7,214.3,353.6,215.4,353.7,215.4z"/>
		<path class="st5" d="M267.4,199.3c0,0.1,1.2,0.2,3.4,0.4c2.2,0.2,5.4,0.5,9.4,0.9c7.9,0.9,18.8,2.4,30.7,4.7
			c11.9,2.3,22.6,4.8,30.3,6.8c3.8,1,6.9,1.9,9.1,2.5c2.1,0.6,3.4,0.9,3.4,0.8c0-0.1-1.1-0.5-3.2-1.3c-2.1-0.7-5.2-1.8-9-2.9
			c-7.7-2.3-18.3-4.9-30.3-7.2c-11.9-2.3-22.9-3.7-30.8-4.3c-4-0.3-7.2-0.5-9.4-0.5C268.7,199.2,267.4,199.2,267.4,199.3z"/>
		<path class="st5" d="M391.3,311.2c0,0,0.2-0.3,0.6-1.1c0.4-0.9,0.9-1.9,1.5-3.1c1.3-2.7,3-6.7,5.1-11.6c4.2-9.9,9.5-23.7,15.1-39
			c5.7-15.4,10.9-29.2,14.8-39.2c1.9-4.8,3.5-8.8,4.7-11.8c0.5-1.3,0.9-2.3,1.2-3.2c0.3-0.7,0.4-1.1,0.4-1.2c0,0-0.2,0.3-0.6,1.1
			c-0.4,0.9-0.9,1.9-1.5,3.1c-1.3,2.7-3,6.7-5.1,11.6c-4.2,9.9-9.5,23.7-15.1,39c-5.7,15.3-10.9,29.2-14.8,39.2
			c-2,4.8-3.5,8.8-4.7,11.8c-0.5,1.3-0.9,2.3-1.2,3.2C391.4,310.8,391.2,311.2,391.3,311.2z"/>
		<path class="st5" d="M276.6,274.3c0,0,0.4,0.2,1.1,0.5c0.9,0.3,2,0.7,3.3,1.1c3.1,1,7.2,2.3,12.3,4c10.4,3.4,24.6,8.2,40.4,13.5
			c15.8,5.3,30.1,10,40.5,13.2c5.2,1.6,9.4,2.8,12.4,3.6c1.4,0.4,2.5,0.6,3.4,0.9c0.8,0.2,1.2,0.3,1.2,0.2c0,0-0.4-0.2-1.1-0.5
			c-0.9-0.3-2-0.7-3.3-1.1c-3.1-1-7.2-2.3-12.3-4c-10.4-3.4-24.6-8.2-40.4-13.5c-15.8-5.3-30.1-10-40.5-13.2
			c-5.2-1.6-9.4-2.8-12.4-3.6c-1.4-0.4-2.5-0.6-3.4-0.9C277.1,274.3,276.7,274.3,276.6,274.3z"/>
	</g>
	<path class="st6" d="M666,173.3c0,0-3.7,13.2-7.5,19.7c0,0,7.5,10.4,9.8,3C669,193.9,666,173.3,666,173.3z"/>
	<path class="st6" d="M667.6,167.4c0,0,2.6-2.4,8.1-2.4s9.3,2,8.7,7.5c-0.6,5.5,3.7,18.5,8.7,23.2c0,0-4.9,3.5-12.2,3.9l-6.1-28.9
		L667.6,167.4z"/>
	<path class="st6" d="M431.2,189.6c0,0-1,2.4,1,3.3c2,0.8,3.3,0.2,4.1,2c0.8,1.8-0.6,3.3,0,4.9c0.6,1.6,6.5,3.3,3.5,5.3
		c-1.2,0.8-7.3,0.4-7.3,0.4l-3.3-16.7L431.2,189.6z"/>
	<path class="st6" d="M412.3,163.8c0,0-7.3,5.1-3.9,12.8c3.5,7.5,2.4,11-1,13.2c-3.5,2.2-7.7,4.9-7.7,9.6s-2.2,6.1-2.2,6.1l16.1,1.6
		l2.4-33.9L412.3,163.8z"/>
	<path class="st7" d="M584.3,148.1c0,0,38.2,29.5,25.2,171.1h-11.8c0,0-11.6-103.8-21.9-122.3C565.4,178.4,571,135.3,584.3,148.1z"
		/>
	<path class="st8" d="M495.9,268.6c0,0-19.5,206.3,3,362.1h27c0,0,3.7-295.1,65.6-359.7L495.9,268.6z"/>
	<path class="st8" d="M600.5,266.4c0,0,36,84.5,17.3,364.4h-22.2c0,0-11-265.8-84.7-357.3L600.5,266.4z"/>
	<path class="st6" d="M550.7,373.3c0,0-3.3-39.4,0.8-46.3c0,0,9.3,37.8,7.3,54.1l-6.5-15.6L550.7,373.3z"/>
	<path class="st9" d="M387.3,299.7c0,0-24.2,2.2-34.1,29.3c-9.6,26-11.2,92.1,61.6,101.6L479,428L387.3,299.7z"/>
	<path class="st9" d="M730.4,299.7c0,0,24.2,2.2,34.1,29.3c9.6,26-1,99-61.6,101.6l-64.2-2.6L730.4,299.7z"/>
	<path class="st7" d="M509.9,151.2c0,0-36,31.3-42.9,82.5c-4.9,37,55.7,38.6,93.5-19.1l-5.9-6.9c0,0-26.6,22.2-56.3,25.8
		c0,0,11.6-15.4,19.7-29.3C526.1,190.4,526.5,131.9,509.9,151.2z"/>
	<path class="st10" d="M634.3,327c0,0-42.1,42.5-46.1,105.3c-3.9,59.3,27,198.6,27,198.6h24.2c0,0-4.3-167.3,20.5-208.1
		c24.8-40.8,54.7-59.3,70.1-93.9L634.3,327z"/>
	<path class="st11" d="M473.9,318.4c0.4-42.3-12-100.2-12-100.2s-2.2-13-13-13h-49c0,0-8.9,0-13.8,10.6
		c-4.9,10.6-12.8,94.1-12.8,100.6c0,3.3,1.4,6.9,4.7,9.8c0,0,0.2,0.2,1,0.8c3,2.2,13.6,8.1,39.4,8.7c26.4,0.6,41.9-2.6,49.2-6.9
		c1.2-0.6,2.4-1.4,3.5-2.4c0,0,0,0,0.2-0.2C472.9,324.5,474.1,321.9,473.9,318.4z"/>
	<path class="st12" d="M732.8,318.4c0.6-42.3-13.2-100.2-13.2-100.2s-2.4-13-14.2-13h-54.3c0,0-9.8,0-15.2,10.6
		c-5.3,10.6-14.2,94.1-14.2,100.6c0,3.3,2.2,11.6,5.7,14.2c0,0,0.4,0.2,1,0.8c3.5,2.2,14.6,3.7,43.1,4.1c29.3,0.6,46.3-2.6,54.7-6.9
		c1.2-0.6,2.6-1.4,3.7-2.4c0,0,0.2,0,0.2-0.2C731.8,324.5,733,321.9,732.8,318.4z"/>
	<path class="st7" d="M603.4,258.5c0.6-42.3-13.2-100.2-13.2-100.2s-2.4-13-14.2-13h-54.3c0,0-9.8,0-15.2,10.6
		c-5.3,10.6-14.2,94.1-14.2,100.6c0,3.3,2.2,11.6,5.7,14.2c0,0,0.4,0.2,1,0.8c3.5,2.2,14.6,3.7,43.1,4.1c29.3,0.6,46.3-2.6,54.7-6.9
		c1.2-0.6,2.6-1.4,3.7-2.4c0,0,0.2,0,0.2-0.2C602.3,264.6,603.6,261.9,603.4,258.5z"/>
	<path class="st13" d="M557.1,108.1l-14.8-0.8l-1,18.7l14.8,0.8L557.1,108.1z"/>
	<path class="st13" d="M557,108.1c0,0,4.7,19.7-2.2,22.4c-6.7,2.6-13.8-2.8-13.4-11.6C542.2,110.1,557,108.1,557,108.1z"/>
	<path class="st13" d="M537.3,145.3c0,0,3-11.4,4.1-22.2l14.6-0.4c0,0-0.2,12,2.8,22.6C559.1,145.5,543,148.1,537.3,145.3z"/>
	<path class="st13" d="M556.2,112.4c0,0,2.2-1.6,3.5,0.4c1,1.6-0.2,5.3-4.7,4.5C555.2,117.4,554.4,114.8,556.2,112.4z"/>
	<path class="st13" d="M433.5,205.4c0,0-3.3-12.8-4.1-23.4l-14.8-0.6c0,0-0.8,16.1-2.2,24C412.3,205.4,428,208.7,433.5,205.4z"/>
	<path class="st13" d="M414.6,185.2l14.8-0.2l-0.3-18.7l-14.8,0.2L414.6,185.2z"/>
	<path class="st13" d="M429,166.2c0,0,5.5,13.2,4.1,20.3c-1.2,6.1-11.4,4.7-14.2-1.2C416.2,179.4,415.8,166,429,166.2z"/>
	<path class="st14" d="M430.4,190c0,0-3.9,1.4-7.5-0.4c0,0,0.6,8.1,8.7,7.3L430.4,190z"/>
	<path class="st13" d="M412.3,205.4c0,0,3.9,11.8,12.4,14.2c8.5,2.4,12.4-5.1,8.7-14.2C433.5,205.4,417.2,201.8,412.3,205.4z"/>
	<path class="st13" d="M662.9,207.9c0,0,2.2-13,2.2-23.6l14.6-1.8c0,0,2,15,4.1,23C683.8,205.2,668.6,210.7,662.9,207.9z"/>
	<path class="st13" d="M681.9,169.7l-14.7-2.3l-2.9,18.5l14.7,2.3L681.9,169.7z"/>
	<path class="st13" d="M667.6,167.4c0,0-7.3,12.2-6.9,19.5c0.4,6.3,10.6,6.3,14.2,0.8C678.4,182.3,680.8,168.9,667.6,167.4z"/>
	<path class="st13" d="M683.8,205.2c0,0-4.3,10.2-13.6,11.4c-9.3,1.2-7.3-8.7-7.3-8.7l16.5-2.8L683.8,205.2z"/>
	<path class="st13" d="M680.4,173.7c0,0,2.4-1.2,3.5,1c0.8,1.8-1.2,5.1-5.3,3.7C678.4,178.4,678.1,175.8,680.4,173.7z"/>
	<path class="st11" d="M439.4,324.1l-79.3-9.3c0,0,24.2-19.5,34.1-51.6c6.9-22.6-3-48-6.3-55.5c-2.6,1.4-5.5,3.7-8.1,7.3
		c-15,21.1-50,71.9-53.4,93.1c-4.5,27,22.8,27.6,26,27c0,0,87.4,1,87,0C439,334.3,439.4,324.1,439.4,324.1z"/>
	<path class="st12" d="M659.5,323.1l79.3-9.1c0,0-24.2-19.3-34.1-51.2c-6.9-22.4,3-47.6,6.3-55.1c2.6,1.4,5.5,3.7,8.1,7.3
		c15.2,21.1,50,71.3,53.4,92.3c4.5,26.8-22.8,27.4-26,26.8c0,0-87.4,1-87,0C659.9,333.1,659.5,323.1,659.5,323.1z"/>
	<path class="st11" d="M395.7,205.2c-2,0.2-5.7,0.8-9.3,3.3l-2,11.8l23.2-15H395.7z"/>
	<path class="st13" d="M537.3,145.3c0,0,1,12,20.7,12l1-11.8L537.3,145.3z"/>
	<path class="st7" d="M494.6,266.4c0,0,1.6,18.5,67.5,17.5c66-1,34.3-53.9,34.3-53.9L494.6,266.4z"/>
	<path class="st12" d="M636.9,214c0,0-36,71.1-47.8,72.8c-6.5,0.8-2-67.3-2-67.3l-11.6-1.4c0,0-26.8,67.7-11.4,100.6
		c15.4,32.9,56.1,10.8,75.4-30.7C659,246.5,636.9,214,636.9,214z"/>
	<path class="st6" d="M394.2,263.2c-4.7,15-12.4,27.4-19.5,36.2l-1,11c36.8-44.1,21.9-75.2,21.9-75.2
		C397.1,244.1,397.1,253.8,394.2,263.2z"/>
	<path class="st15" d="M458.7,210.5c0,0,4.1,3,7.9,33.7l1-15.9C467.8,228.6,460.3,212.4,458.7,210.5z"/>
	<path class="st15" d="M457.6,294.7c0,0,8.7,3.3,12.8,3.5c0,0-4.1-37.4-3.9-43.1c0,0-1.6,17.9-0.6,25.2c1,7.1-3.5,9.1-2.8,11.2
		C463.7,293.4,460.5,295.9,457.6,294.7z"/>
	<path class="st6" d="M492.4,259.9c0.8,5.3,3.5,8.9,3.5,8.9c45.9-11.4,64.6-54.3,64.6-54.3C539.8,246.1,512.3,259.9,492.4,259.9z"/>
	<path class="st16" d="M514.1,210.5c0,0-13.2,19.9-15.9,22.8c0,0,9.3,0,27.2-7.9c0,0-11.2,2-15.4,2.6c-4.3,0.6,0.2-3.5,0.4-5.9
		C510.7,219.5,514.1,210.5,514.1,210.5z"/>
	<path class="st16" d="M523.1,196.9c-0.6,1.4,8.7-22.4,0-42.5C523.1,154.4,535.7,171.9,523.1,196.9z"/>
	<path class="st6" d="M587.1,151.2c0,0,12,28.2,12.8,61.4c0,0,1.2-26.8-7.9-54.5C592,158.1,588.7,153,587.1,151.2z"/>
	<path class="st6" d="M732.6,308.3l0.2,6.3c0,0-22.8-16.5-29.7-57.3C703.1,257.3,710.1,286.9,732.6,308.3z"/>
	<path class="st17" d="M610.1,313c-2,12.4-22.6,24.8-42.3,11.6c12.6,17.5,35.6,10.8,54.1-9.3l3.9-39.2
		C625.5,276,612.1,300.6,610.1,313z"/>
	<path class="st6" d="M634.7,218.5l-2,10.8l-0.8-5.5L634.7,218.5z"/>
	<path class="st17" d="M732.8,314.6l-73.4,8.5c0,0,16.7-2,31.7-5.9C706.2,313.4,723.9,306.4,732.8,314.6z"/>
	<path class="st15" d="M439.4,324.1l-65.8-7.5l0.2-4.9c0,0,12.4-1,28.7,4.3C418.6,321.5,439.4,324.1,439.4,324.1z"/>
	<path class="st6" d="M360.1,314.8c0,0-4.9,0.2-4.3-3c0,0,1.6,2.4,6.9,0.8L360.1,314.8z"/>
	<path class="st6" d="M588.3,286.3c0,0,1.6,2.4,5.1,1c0,0-2.2-0.2-2.4-1.4C591,285.9,589.5,287.1,588.3,286.3z"/>
	<path class="st6" d="M738.7,314c0,0,4.7-1,8.5-1.8c0,0-9.6-1.8-11.6-0.6L738.7,314z"/>
	<path class="st6" d="M425.7,167.4c0,0-0.8,8.1-11.2,8.3c0,0-3.9-8.9-2-12c1.8-2.8,17.7-1.6,18.5,0c0.8,1.6-0.4,5.9-0.4,5.9
		l-0.8-1.2C429.8,168.5,427.4,169.9,425.7,167.4z"/>
	<path class="st13" d="M415.6,170.7c0,0-2.2-1.4-3.5,0.4c-1,1.6,0.4,5.3,4.7,4.5C416.8,175.8,417.4,173.1,415.6,170.7z"/>
	<path class="st6" d="M414.6,175.8c0,0,3.7,3.3,1.6,8.7c-2,5.5,0,9.8,0,9.8s2.2,3.3,0,6.1c-2.2,2.8-6.7,0.2-6.7-2.2
		c-0.2-2.4,3.9-19.1,3.9-19.1L414.6,175.8z"/>
	<path class="st6" d="M667.6,167.4c0,0-2,1.4-3.9,4.5c0,0-5.1,0.6,14.6,4.3c0,0,2.4-2.2,3-2.6c0.8-0.4,1.2-4.1,1.2-4.1
		S670,166.2,667.6,167.4z"/>
	<path class="st6" d="M680,183.5l-0.4,9.6l3.3-0.6L680,183.5z"/>
	<path class="st6" d="M679.6,193c0,0-0.4,2.6,0.4,3.5c0.6,1,2.8,1.2,3.7-3.5l-2-1L679.6,193z"/>
	<path class="st6" d="M541.8,116.6c0,0,2.4-1,3.7-3.9c0,0,10.6,1.8,14.2-1.6c3.7-3.7,0.6-9.3-4.1-7.9c-4.7,1.4-12.2,0.4-12.2,0.4
		s-3,0.2-3,3c-0.4,2.4-1,10.4,1.2,12.4L541.8,116.6z"/>
	<path class="st13" d="M543,111.8c0,0-2-1.8-3.5,0c-1.2,1.4-0.2,5.3,4.1,5.1C543.6,116.8,544.6,114.4,543,111.8z"/>
	<path class="st14" d="M556.4,129.6c0,0-4.9,3.9-9.3,0.6c0,0,1.4,6.3,5.3,6.5C556.6,137,556.8,132.3,556.4,129.6z"/>
	<path class="st14" d="M664.7,191.4c0,0,5.9,1.2,10-3.9c0,0-4.9,8.3-10.2,6.1L664.7,191.4z"/>
	<path class="st13" d="M653.2,329c-0.4-0.4-3.7-1.6-4.9-2.8c-1.2-1.2-0.6,2.8,1.2,4.5C651.3,331.9,653.2,329,653.2,329z"/>
	<path class="st13" d="M584.9,219.1c0,0,3.3-2.6,4.3-8.5l-2,2c0,0,0.4-8.7-2.8-12.8c0,0,1,5.1,0,7.9c0,0-0.2-7.1-2.6-10.2
		c0,0,0.8,5.9-0.2,9.8c0,0-1-5.5-1.6-8.7l-1.2,10.2c0,0-1.2-6.1-1-8.5c0,0-1.6,6.3-1.2,10.4c0,0-1.2,4.5,0.8,7.5L584.9,219.1z"/>
	<path class="st13" d="M555.6,208.7c0,0,0.4-3.5,1.6-4.9c1.2-1.4,2.2-1,2.2-1s4.5-5.1,6.1-6.5c1.6-1.4-3.3,7.1-3.3,7.1
		s6.1-6.5,6.9-6.3s-5.3,8.3-5.3,8.3s0.8,0.8,0.8,1.6c0,0,0.8,1.2,0,2.4c-0.8,1.2-2.8,3.3-5.1,3.9L555.6,208.7z"/>
	<path class="st18" d="M400.9,306.7c0-0.4,22.8-58.3,22.8-58.3l38.4,13.4l-16.7,59.3L400.9,306.7z"/>
	<path class="st6" d="M407.5,280.2c0,0,23.2,28,52.6,51.8l5.3-2l-27.6-24L407.5,280.2z"/>
	<path class="st11" d="M458.7,210.5c0,0,41.9,80.1,42.1,100.8c0,25.4-16.5,26.2-27.4,22.8c-17.1-5.5-65.8-53.9-65.8-53.9l9.6-6.5
		c0,0,35.8,22.6,53.4,24.6L458.7,210.5z"/>
	<path class="st6" d="M470.5,298.1c0,0,3.3,0.4,4.9-0.8c1.6-1.2,1-3.9,1-3.9s-2.2,3.7-6.5,0L470.5,298.1z"/>
	<path class="st13" d="M409.1,279.2c0,0-1.8-3.3-0.4-6.7c1.8-4.3,8.7-8.1,8.1-6.5c-0.4,0.8-1.4,3.5-1.4,3.5s1.8,1.6,1,4.7
		L409.1,279.2z"/>
	<path class="st13" d="M415.4,269.5c0,0,2.6-3,2.4-1.8c0,0.8-0.2,4.7-1.4,6.5l-0.8,0.6L415.4,269.5z"/>
	<path class="st19" d="M429.4,256l24.8,8.9l-2.8,7.3l-25-8.7L429.4,256z"/>
</g>
</svg>
