<svg xmlns="http://www.w3.org/2000/svg" width="110" height="110" viewBox="0 0 110 110">
  <g id="icon-donor" transform="translate(-5220 -1513)">
    <rect id="Rectangle_41" data-name="Rectangle 41" width="110" height="110" rx="55" transform="translate(5220 1513)" fill="#f207e2"/>
    <g id="donor" transform="translate(5252 1543)">
      <ellipse id="Ellipse_6" data-name="Ellipse 6" cx="1.565" cy="1.565" rx="1.565" ry="1.565" transform="translate(17.671 11.368)" fill="#fff" stroke="#fff" stroke-miterlimit="10" stroke-width="0.5"/>
      <ellipse id="Ellipse_7" data-name="Ellipse 7" cx="1.565" cy="1.565" rx="1.565" ry="1.565" transform="translate(24.952 11.368)" fill="#fff" stroke="#fff" stroke-miterlimit="10" stroke-width="0.5"/>
      <path id="Path_23" data-name="Path 23" d="M261.72,334.549h0v0Z" transform="translate(-238.659 -284.579)" fill="#fff" stroke="#fff" stroke-miterlimit="10" stroke-width="0.5"/>
      <path id="Path_24" data-name="Path 24" d="M293.091,334.322a40.062,40.062,0,0,0-10.194-3.956,9.891,9.891,0,0,0,1.065-4.521V316.5a5,5,0,0,0-5-5h-10.5a5,5,0,0,0-5,5v9.259a10.021,10.021,0,0,0,1.109,4.608,36.5,36.5,0,0,0-10.3,4.151,7.173,7.173,0,0,0-3.152,5.955v11.781h12.932a33.6,33.6,0,0,0,10,9.15h.109a33.43,33.43,0,0,0,10-9.172h12.367V340.669A7.629,7.629,0,0,0,293.091,334.322Zm-24.626-20.953h10.5a3.195,3.195,0,0,1,3.2,3.217v4.347a9.216,9.216,0,0,0-5.868-1.826,21.735,21.735,0,0,1-11.02-2.717,3.217,3.217,0,0,1,3.2-3.108Zm-3.2,5.064a23.127,23.127,0,0,0,11.063,2.478,7.542,7.542,0,0,1,4.912,1.587c.3.261.63.543.913.826v2.521a8.455,8.455,0,1,1-16.888,0Zm18.736,31.1a37.45,37.45,0,0,1-9.846,9.846,38.124,38.124,0,0,1-9.846-9.846,6.064,6.064,0,0,1-.783-5.912,3.521,3.521,0,0,1,2.3-2.174c3.282-.913,8.194,2.63,8.259,2.652v0c1.369-1,5.521-3.412,8.259-2.652a3.564,3.564,0,0,1,2.3,2.173,6.021,6.021,0,0,1-.652,5.912Zm10.868.848h-9.237a7.8,7.8,0,0,0,.848-7.455,5.2,5.2,0,0,0-3.478-3.238c-3.13-.87-7.02,1.174-8.824,2.282-1.782-1.108-5.673-3.152-8.8-2.282a5.2,5.2,0,0,0-3.478,3.239,7.846,7.846,0,0,0,.826,7.455h-9.694v-9.977a5.369,5.369,0,0,1,2.347-4.456,36.25,36.25,0,0,1,10.3-4.043,10.259,10.259,0,0,0,16.345,0,38.683,38.683,0,0,1,10.216,3.847,5.825,5.825,0,0,1,2.717,4.934Z" transform="translate(-251.098 -311.5)" fill="#fff" stroke="#fff" stroke-miterlimit="10" stroke-width="0.5"/>
      <path id="Path_25" data-name="Path 25" d="M261.77,334.47Z" transform="translate(-238.6 -284.544)" fill="#fff" stroke="#fff" stroke-miterlimit="10" stroke-width="0.5"/>
      <rect id="Rectangle_39" data-name="Rectangle 39" width="9.259" height="2.217" rx="0.38" transform="translate(0 45.927)" fill="#fff" stroke="#fff" stroke-miterlimit="10" stroke-width="0.5"/>
      <rect id="Rectangle_40" data-name="Rectangle 40" width="9.259" height="2.217" rx="0.38" transform="translate(36.754 45.927)" fill="#fff" stroke="#fff" stroke-miterlimit="10" stroke-width="0.5"/>
    </g>
  </g>
</svg>
