<svg xmlns="http://www.w3.org/2000/svg" xmlns:xlink="http://www.w3.org/1999/xlink" width="110" height="110" viewBox="0 0 110 110">
  <defs>
    <linearGradient id="linear-gradient" x1="-0.323" y1="1.062" x2="1.046" y2="0.095" gradientUnits="objectBoundingBox">
      <stop offset="0" stop-color="#593adb" stop-opacity="0.8"/>
      <stop offset="1" stop-color="#41d5b5" stop-opacity="0.8"/>
    </linearGradient>
  </defs>
  <g id="Group_4" data-name="Group 4" transform="translate(-2053 -1868)">
    <rect id="Rectangle_12" data-name="Rectangle 12" width="110" height="110" rx="55" transform="translate(2053 1868)" fill="url(#linear-gradient)"/>
    <g id="Group_3" data-name="Group 3" transform="translate(2080.256 1895.253)">
      <path id="Path_4" data-name="Path 4" d="M70,64.911H63.264a1.658,1.658,0,0,0-1.718,2.114,1.751,1.751,0,0,0,1.718,1.189h7.664a3.281,3.281,0,0,1,.132,1.189v3.7a1.6,1.6,0,0,1-1.718,1.718H31.021A1.536,1.536,0,0,1,29.3,73.1a22.546,22.546,0,0,1,.4-5.946A11.425,11.425,0,0,1,40.271,58.7h1.718c.4,0,.529.132.661.529a8.087,8.087,0,0,0,7.8,5.946,7.93,7.93,0,0,0,7.664-5.814.725.725,0,0,1,.793-.529,11.715,11.715,0,0,1,6.343,1.321,10.841,10.841,0,0,1,4.625,4.493c0-.132,0,0,.132.264Z" transform="translate(-29.289 -19.698)" fill="#f5f6f7"/>
      <path id="Path_5" data-name="Path 5" d="M48.6,61.628a11.286,11.286,0,0,1-10.836-8.854c-.132-.529-.264-.661-.793-.793A3.255,3.255,0,0,1,34.2,48.81a3.045,3.045,0,0,1,2.907-3.039c.4-.132.661-.264.793-.661a6.01,6.01,0,0,1,7.664-3.436,7.309,7.309,0,0,0,8.061-1.586c1.189-1.057,1.718-1.057,2.907.132a9.062,9.062,0,0,1,2.775,3.964,2.384,2.384,0,0,0,1.718,1.982,3.029,3.029,0,0,1,1.982,3.171,3.1,3.1,0,0,1-2.775,2.775c-.529.132-.661.264-.793.661A10.956,10.956,0,0,1,48.6,61.628Zm.132-6.475a4.627,4.627,0,0,0,4.757-4.625,1.644,1.644,0,0,0-1.454-1.85c-.925-.132-1.586.529-1.718,1.586a1.839,1.839,0,0,1-1.586,1.718c-.925,0-1.454-.661-1.586-1.718a1.631,1.631,0,0,0-1.718-1.586,1.662,1.662,0,0,0-1.454,1.85A4.711,4.711,0,0,0,48.736,55.153Z" transform="translate(-27.71 -25.93)" fill="#f5f6f7"/>
      <path id="Path_6" data-name="Path 6" d="M34.332,47.171c0-3.436-.529-6.739.529-10.043a11.18,11.18,0,0,1,10.7-7.929,35.419,35.419,0,0,1,5.286.264,10.492,10.492,0,0,1,5.682,2.775,1.142,1.142,0,0,0,.793.4A8.049,8.049,0,0,1,63.271,40.3c.132,2.246,0,4.361,0,6.607a.129.129,0,0,0-.132.132,1.824,1.824,0,0,0-.4-.529,13.039,13.039,0,0,0-4.625-6.343,4.625,4.625,0,0,0-6.079.132l-.4.4a4.438,4.438,0,0,1-5.021,1.057,8.8,8.8,0,0,0-9.25,1.85c-.793.661-1.321,1.718-2.114,2.511C34.993,46.511,34.6,46.775,34.332,47.171Z" transform="translate(-27.71 -29.18)" fill="#f5f6f7"/>
      <path id="Path_7" data-name="Path 7" d="M60.613,74.4a4.667,4.667,0,0,0,4.1-3.3,3.9,3.9,0,0,0,.264-1.718V42.419a1.658,1.658,0,0,0-.793-1.454,35.191,35.191,0,0,1-4.1-3.436A4.608,4.608,0,0,1,58.631,32.9,4.8,4.8,0,0,1,65.9,30a1.824,1.824,0,0,1,.529.4A5.085,5.085,0,0,1,70,29.2a4.843,4.843,0,0,1,4.757,4.889,5.083,5.083,0,0,1-1.718,3.436,53.267,53.267,0,0,1-4.229,3.436,1.435,1.435,0,0,0-.529,1.189V69.508a8.092,8.092,0,0,1-5.946,7.929,1,1,0,0,1-.529.132q-.595-1.784-1.189-3.171Z" transform="translate(-19.899 -29.185)" fill="#f5f6f7"/>
      <path id="Path_8" data-name="Path 8" d="M50.982,57.9A4.738,4.738,0,0,1,46.225,62c-2.379,0-4.625-1.982-4.625-4.1A12.782,12.782,0,0,0,50.982,57.9Z" transform="translate(-25.332 -19.955)" fill="#f5f6f7"/>
    </g>
  </g>
</svg>
