<?xml version="1.0" encoding="utf-8"?>
<!-- Generator: Adobe Illustrator 23.0.1, SVG Export Plug-In . SVG Version: 6.00 Build 0)  -->
<svg version="1.1" id="Layer_1" xmlns="http://www.w3.org/2000/svg" xmlns:xlink="http://www.w3.org/1999/xlink" x="0px" y="0px"
	 viewBox="0 0 1495 162" style="enable-background:new 0 0 1495 162;" xml:space="preserve">
<style type="text/css">
	.st0{fill:url(#SVGID_1_);}
	.st1{fill:#FFCD83;filter:url(#Adobe_OpacityMaskFilter);}
	.st2{mask:url(#mask0_1_);}
	.st3{opacity:0.4;}
	.st4{fill:#70F7DE;}
	.st5{fill:#263238;}
	.st6{fill:#2D1413;}
	.st7{fill:#602171;}
	.st8{fill:#FFAF2F;}
	.st9{fill:#C59969;}
	.st10{fill:#F3BABC;}
	.st11{fill:#FA4B27;}
	.st12{fill:#6986FC;}
	.st13{fill:#FFD0C0;}
	.st14{fill:#E2A696;}
	.st15{fill:#895A15;}
	.st16{fill:#E23D23;}
	.st17{fill:#4B195B;}
	.st18{fill:#405EBC;}
	.st19{fill:#F9F4F5;}
	.st20{fill:#C6C5C4;}
</style>
<linearGradient id="SVGID_1_" gradientUnits="userSpaceOnUse" x1="741.0508" y1="160.7116" x2="761.1838" y2="-81.8869" gradientTransform="matrix(1 0 0 -1 0 164)">
	<stop  offset="1.587280e-02" style="stop-color:#FBEFD8"/>
	<stop  offset="0.8288" style="stop-color:#D8FBEA"/>
</linearGradient>
<rect class="st0" width="1495" height="162"/>
<defs>
	<filter id="Adobe_OpacityMaskFilter" filterUnits="userSpaceOnUse" x="19" y="-61" width="1505" height="427">
		<feColorMatrix  type="matrix" values="1 0 0 0 0  0 1 0 0 0  0 0 1 0 0  0 0 0 1 0"/>
	</filter>
</defs>
<mask maskUnits="userSpaceOnUse" x="19" y="-61" width="1505" height="427" id="mask0_1_">
	<path class="st1" d="M8,0h1479c4.4,0,8,3.6,8,8v146c0,4.4-3.6,8-8,8H8c-4.4,0-8-3.6-8-8V8C0,3.6,3.6,0,8,0z"/>
</mask>
<g class="st2">
	<g class="st3">
		<path class="st4" d="M163.9,178.1c34.7-24.2,42.5-69.2,41.1-109.6c-0.2-6.7,0.5-13.9-2.7-19.8c-3.2-5.9-10.7-10-16.7-7.1
			c-5,2.3-7.2,8.2-10,13c-3.7,6.4-9.3,11.7-15.8,15.1c-4.3,2.2-9.6,3.6-13.8,1.2c-5.8-3.2-6.5-11.2-6.5-18c0.1-12.5,0.2-25,0.2-37.5
			c0-6.7,0.1-13.6-2-19.9s-6.7-12.3-13.1-14.1c-6.4-1.8-14.3,1.9-15.6,8.5c-0.5,2.7,0,5.6-0.2,8.4s-1.5,5.9-4.1,6.6
			c-2.7,0.8-5.4-1.1-7.4-3.1c-6.9-6.8-11.6-15.5-16-24.2c-4.4-8.7-8.7-17.6-14.9-25c-6.3-7.4-15-13.2-24.6-13.8
			c-9.6-0.5-19.8,5.4-22.3,14.8c-2.4,9.4,3.1,19,9.1,26.7C37.6-8.1,48.1,1.9,59.9,10.3c2.1,1.5,4.4,3.1,5.2,5.6
			c1.5,4.5-2.8,8.9-7.2,10.4c-5,1.7-10.4,1.2-15.7,1.8S31.3,31,29.3,35.9c-2.7,6.9,3,14.1,8.6,18.7c11.3,9.4,24.2,16.9,38,21.9
			c4.9,1.8,10.1,3.4,14.1,6.9c4,3.5,6.4,9.5,4,14.2c-2.4,4.7-8.6,6.2-13.7,5.3c-5.2-0.9-9.8-3.8-14.7-5.6c-9.2-3.5-21.1-2.8-27,5.1
			c-3.9,5.2-4.2,12.5-2.3,18.8c2,6.2,5.9,11.6,10.2,16.6c14.8,17.3,33.7,31.3,55.1,38.7C122.8,183.9,142.7,185.9,163.9,178.1z"/>
		<path class="st5" d="M29.2-55.4c0,0,0.2,0.2,0.6,0.6c0.5,0.4,1.2,1,2,1.8c1.8,1.6,4.4,3.8,7.6,6.9C46-40,55.1-30.9,65.1-18.4
			c5,6.2,10.2,13.3,15.6,20.9c5.4,7.7,11.2,15.9,16.9,24.8c5.7,8.9,11.4,18.4,16.5,28.7c2.6,5.1,4.9,10.5,7.3,16
			c2.3,5.5,4.7,11,7.1,16.6c9.5,22.5,17.9,44.3,23.9,64.6c6,20.3,9.6,39.1,11.2,55c1.6,15.9,1.3,29,0.6,37.9
			c-0.4,4.5-0.7,7.9-1,10.3c-0.1,1.1-0.2,2-0.3,2.7c-0.1,0.6-0.1,0.9-0.1,0.9c0,0,0.1-0.3,0.2-0.9c0.1-0.7,0.2-1.5,0.4-2.7
			c0.4-2.3,0.8-5.8,1.2-10.3c0.8-8.9,1.2-22-0.2-38c-1.5-16-5-34.9-11-55.3c-5.9-20.4-14.3-42.2-23.9-64.7
			c-2.4-5.6-4.8-11.2-7.1-16.6c-2.3-5.5-4.7-10.9-7.3-16c-5.2-10.3-10.9-19.9-16.7-28.7C92.7,17.8,87,9.6,81.5,1.9
			C76-5.7,70.8-12.7,65.8-18.9c-10.1-12.4-19.4-21.5-26-27.5c-3.3-3-5.9-5.2-7.8-6.7c-0.9-0.7-1.6-1.2-2.1-1.7
			C29.5-55.2,29.2-55.4,29.2-55.4z"/>
		<path class="st5" d="M114.8,55.4c0.1,0,0.3-1,0.6-2.9c0.4-1.9,0.8-4.5,1.2-7.9c0.9-6.7,2-15.9,3-26.2C120.8,8.2,121.9-1,123-7.7
			c0.5-3.3,0.9-6,1.3-7.9c0.3-1.9,0.5-2.9,0.4-2.9c-0.1,0-0.4,1-0.9,2.8c-0.5,1.8-1.1,4.5-1.7,7.8c-1.3,6.6-2.5,15.9-3.6,26.1
			c-1,10.1-2,19.2-2.7,26.2c-0.3,3.1-0.6,5.8-0.9,7.9C114.8,54.3,114.7,55.4,114.8,55.4z"/>
		<path class="st5" d="M28.6,39.3c0,0.1,1.2,0.2,3.4,0.4c2.2,0.2,5.4,0.5,9.4,0.9c7.9,0.9,18.8,2.4,30.7,4.7
			c11.9,2.3,22.6,4.8,30.3,6.8c3.8,1,6.9,1.9,9.1,2.5c2.1,0.6,3.4,0.9,3.4,0.8c0-0.1-1.1-0.5-3.2-1.3c-2.1-0.7-5.2-1.8-9-2.9
			c-7.7-2.3-18.3-4.9-30.3-7.2c-11.9-2.3-22.9-3.7-30.8-4.3c-4-0.3-7.2-0.5-9.4-0.5C29.8,39.2,28.6,39.2,28.6,39.3z"/>
		<path class="st5" d="M152.4,151.2c0,0,0.2-0.3,0.6-1.1c0.4-0.9,0.9-1.9,1.5-3.1c1.3-2.7,3-6.7,5.1-11.6c4.2-9.9,9.5-23.7,15.1-39
			c5.7-15.4,10.9-29.2,14.8-39.2c1.9-4.8,3.5-8.8,4.7-11.8c0.5-1.3,0.9-2.3,1.2-3.2c0.3-0.7,0.4-1.1,0.4-1.2c0,0-0.2,0.3-0.6,1.1
			c-0.4,0.9-0.9,1.9-1.5,3.1c-1.3,2.7-3,6.7-5.1,11.6c-4.2,9.9-9.5,23.7-15.1,39c-5.7,15.3-10.9,29.2-14.8,39.2
			c-1.9,4.8-3.5,8.8-4.7,11.8c-0.5,1.3-0.9,2.3-1.2,3.2C152.5,150.8,152.4,151.2,152.4,151.2z"/>
		<path class="st5" d="M37.8,114.3c0,0,0.4,0.2,1.1,0.5c0.9,0.3,2,0.7,3.3,1.1c3.1,1,7.2,2.3,12.3,4c10.4,3.4,24.6,8.2,40.4,13.5
			c15.8,5.3,30.1,10,40.5,13.2c5.2,1.6,9.4,2.8,12.4,3.6c1.4,0.4,2.5,0.6,3.4,0.9c0.8,0.2,1.2,0.3,1.2,0.2c0,0-0.4-0.2-1.1-0.5
			c-0.9-0.3-2-0.7-3.3-1.1c-3.1-1-7.2-2.3-12.3-4c-10.4-3.4-24.6-8.2-40.4-13.5c-15.8-5.3-30.1-10-40.5-13.2
			c-5.2-1.6-9.4-2.8-12.4-3.6c-1.4-0.4-2.5-0.6-3.4-0.9C38.2,114.3,37.8,114.3,37.8,114.3z"/>
	</g>
	<path class="st6" d="M1394,0c0,0-2.9,10.6-6,15.8c0,0,6,8.3,7.8,2.4C1396.5,16.4,1394,0,1394,0z"/>
	<path class="st6" d="M1395.3-4.7c0,0,2.1-2,6.5-2c4.4,0,7.5,1.6,7,6s2.9,14.8,7,18.5c0,0-3.9,2.8-9.8,3.1l-4.9-23.1L1395.3-4.7z"/>
	<path class="st6" d="M1206.2,13c0,0-0.8,2,0.8,2.6c1.6,0.7,2.6,0.2,3.2,1.6c0.7,1.5-0.5,2.6,0,3.9c0.5,1.3,5.2,2.6,2.8,4.2
		c-1,0.7-5.8,0.3-5.8,0.3l-2.6-13.3L1206.2,13z"/>
	<path class="st6" d="M1191.1-7.7c0,0-5.8,4.1-3.1,10.2c2.8,6,1.9,8.8-0.8,10.6c-2.8,1.8-6.2,3.9-6.2,7.6s-1.8,4.9-1.8,4.9l12.9,1.3
		l1.9-27.2L1191.1-7.7z"/>
	<path class="st7" d="M1328.7-20.2c0,0,30.6,23.6,20.2,136.9h-9.4c0,0-9.3-83.1-17.6-97.9C1313.5,4.1,1318.1-30.4,1328.7-20.2z"/>
	<path class="st8" d="M1257.9,76.3c0,0-15.6,165.1,2.4,289.8h21.6c0,0,2.9-236.1,52.5-287.8L1257.9,76.3z"/>
	<path class="st8" d="M1341.7,74.5c0,0,28.8,67.6,13.8,291.6h-17.7c0,0-8.8-212.7-67.8-285.9L1341.7,74.5z"/>
	<path class="st6" d="M1301.8,160c0,0-2.6-31.5,0.7-37.1c0,0,7.5,30.2,5.9,43.3l-5.2-12.5L1301.8,160z"/>
	<path class="st9" d="M1171.1,101.1c0,0-19.3,1.8-27.3,23.4c-7.6,20.8-8.9,73.7,49.3,81.3l51.4-2.1L1171.1,101.1z"/>
	<path class="st9" d="M1445.6,101.1c0,0,19.4,1.8,27.3,23.4c7.6,20.8-0.8,79.2-49.3,81.3l-51.4-2.1L1445.6,101.1z"/>
	<path class="st7" d="M1269.1-17.7c0,0-28.8,25-34.3,66c-3.9,29.6,44.6,30.9,74.8-15.3l-4.7-5.5c0,0-21.3,17.7-45,20.7
		c0,0,9.3-12.4,15.8-23.4C1282.2,13.7,1282.5-33.2,1269.1-17.7z"/>
	<path class="st10" d="M1448,130.1c0,0,13.7,15.3,6.3,52.9c-7.3,37.4-27.3-46.8-27.3-46.8L1448,130.1z"/>
	<path class="st10" d="M1437.3,138.4c0,0,70.2,202.1,86.7,227.7h-19.3c0,0-105.2-148.5-115.8-192.4L1437.3,138.4z"/>
	<path class="st10" d="M1368.7,122.9c0,0-33.7,34-36.9,84.2c-3.1,47.5,21.6,158.9,21.6,158.9h19.4c0,0-3.4-133.8,16.4-166.5
		c19.8-32.7,43.8-47.5,56.1-75.1L1368.7,122.9z"/>
	<path class="st7" d="M1235.5,126.3c0,0,44.4,18.7,72.8,57.2c22.4,30.6,30.1,182.3,30.1,182.3h-17.1c0,0-37.6-118.4-53.2-139.5
		c-27.8-37.7-75.1-41.6-75.1-41.6L1235.5,126.3z"/>
	<path class="st7" d="M1176,149.3c0,0-20,1-25.4,26.3c-5.5,25.4-17.9,189.9-17.9,189.9s15.9,1,16.4,0c0.5-1,50.9-137.7,55.1-176.8
		C1208.8,144.9,1176,149.3,1176,149.3z"/>
	<path class="st7" d="M1150.4,175.6c0,0,2.6-35.8,16.9-46.7l68.1-2.6l-33.8,67.3L1150.4,175.6z"/>
	<path class="st11" d="M1240.3,116.1c0.3-33.8-9.6-80.2-9.6-80.2s-1.8-10.4-10.4-10.4h-39.2c0,0-7.2,0-11.1,8.5
		c-3.9,8.5-10.2,75.3-10.2,80.5c0,2.6,1.1,5.5,3.7,7.8c0,0,0.2,0.2,0.8,0.7c2.4,1.8,10.9,6.5,31.5,7c21.1,0.5,33.5-2.1,39.4-5.5
		c1-0.5,1.9-1.1,2.8-2c0,0,0,0,0.2-0.2C1239.5,121,1240.5,118.9,1240.3,116.1z"/>
	<path class="st12" d="M1447.5,116.1c0.5-33.8-10.6-80.2-10.6-80.2s-1.9-10.4-11.4-10.4h-43.4c0,0-7.8,0-12.2,8.5
		c-4.2,8.5-11.4,75.3-11.4,80.5c0,2.6,1.8,9.3,4.6,11.4c0,0,0.3,0.2,0.8,0.7c2.8,1.8,11.7,2.9,34.5,3.3c23.4,0.5,37.1-2.1,43.7-5.5
		c1-0.5,2.1-1.1,2.9-2c0,0,0.2,0,0.2-0.2C1446.7,121,1447.7,118.9,1447.5,116.1z"/>
	<path class="st7" d="M1343.9,68.1c0.5-33.8-10.6-80.2-10.6-80.2s-1.9-10.4-11.4-10.4h-43.4c0,0-7.8,0-12.2,8.5
		c-4.2,8.5-11.4,75.3-11.4,80.5c0,2.6,1.8,9.3,4.6,11.4c0,0,0.3,0.2,0.8,0.7c2.8,1.8,11.7,2.9,34.5,3.3c23.4,0.5,37.1-2.1,43.8-5.5
		c1-0.5,2.1-1.1,2.9-2c0,0,0.2,0,0.2-0.2C1343.1,73,1344.1,70.9,1343.9,68.1z"/>
	<path class="st13" d="M1208,25.7c0,0-2.6-10.2-3.2-18.7l-11.9-0.5c0,0-0.7,12.8-1.8,19.2C1191.1,25.7,1203.6,28.3,1208,25.7z"/>
	<path class="st13" d="M1192.9,9.5l11.9-0.2l-0.2-15l-11.9,0.2L1192.9,9.5z"/>
	<path class="st13" d="M1204.4-5.7c0,0,4.4,10.6,3.2,16.3c-1,4.9-9.1,3.7-11.4-1C1194.2,4.9,1193.8-5.9,1204.4-5.7z"/>
	<path class="st14" d="M1205.6,13.3c0,0-3.1,1.1-6-0.3c0,0,0.5,6.5,7,5.9L1205.6,13.3z"/>
	<path class="st13" d="M1191.1,25.7c0,0,3.1,9.4,9.9,11.4c6.8,2,9.9-4.1,7-11.4C1208,25.7,1195,22.8,1191.1,25.7z"/>
	<path class="st13" d="M1391.6,27.6c0,0,1.8-10.4,1.8-18.9l11.7-1.5c0,0,1.6,12,3.2,18.4C1408.3,25.5,1396.1,29.9,1391.6,27.6z"/>
	<path class="st13" d="M1406.8-2.9l-11.7-1.9l-2.3,14.8l11.7,1.9L1406.8-2.9z"/>
	<path class="st13" d="M1395.3-4.7c0,0-5.8,9.8-5.5,15.6c0.3,5,8.5,5,11.4,0.7C1403.9,7.1,1405.9-3.6,1395.3-4.7z"/>
	<path class="st13" d="M1408.3,25.5c0,0-3.4,8.1-10.9,9.1c-7.5,1-5.8-7-5.8-7l13.2-2.3L1408.3,25.5z"/>
	<path class="st13" d="M1405.6,0.3c0,0,2-1,2.8,0.8c0.7,1.5-1,4.1-4.2,2.9C1403.9,4.1,1403.8,1.9,1405.6,0.3z"/>
	<path class="st15" d="M1486.4,129.1h-367.7v2.3h367.7V129.1z"/>
	<path class="st15" d="M1188,129.9c0,0,99.4,25.5,233.8,0.2L1188,129.9z"/>
	<path class="st15" d="M1221,135.6h-86.5l-3.7-5.4h90.2V135.6z"/>
	<path class="st15" d="M1382,135.6h86.5l3.6-5.4H1382V135.6z"/>
	<path class="st11" d="M1212.7,120.7l-63.4-7.5c0,0,19.3-15.6,27.3-41.3c5.5-18.1-2.4-38.4-5-44.4c-2.1,1.1-4.4,2.9-6.5,5.9
		c-12,16.9-40,57.6-42.8,74.5c-3.6,21.6,18.2,22.1,20.8,21.6c0,0,69.9,0.8,69.6,0C1212.4,128.8,1212.7,120.7,1212.7,120.7z"/>
	<path class="st12" d="M1388.8,119.8l63.4-7.3c0,0-19.4-15.4-27.3-41c-5.5-17.9,2.4-38.1,5-44.1c2.1,1.1,4.4,2.9,6.5,5.9
		c12.2,16.9,40,57.1,42.8,73.8c3.6,21.5-18.2,22-20.8,21.5c0,0-69.9,0.8-69.6,0C1389.2,127.8,1388.8,119.8,1388.8,119.8z"/>
	<path class="st11" d="M1177.8,25.5c-1.6,0.2-4.6,0.7-7.5,2.6l-1.6,9.4l18.5-12H1177.8z"/>
	<path class="st7" d="M1256.9,74.5c0,0,1.3,14.8,54,14c52.8-0.8,27.5-43.1,27.5-43.1L1256.9,74.5z"/>
	<path class="st12" d="M1370.8,32.5c0,0-28.8,56.9-38.2,58.2c-5.2,0.7-1.6-53.8-1.6-53.8l-9.3-1.1c0,0-21.5,54.2-9.1,80.5
		c12.4,26.3,44.9,8.6,60.3-24.6C1388.5,58.5,1370.8,32.5,1370.8,32.5z"/>
	<path class="st6" d="M1202.3,199.5c0,0,3.6-22.4,10.4-25.9c6.7-3.4,12.2-7.5,8.6-19c0,0,10.1,9.6,4.9,19
		c-5.2,9.3,11.2,25.9,11.2,25.9H1202.3z"/>
	<path class="st6" d="M1389,199.5c0,0,2.1-21.8-4.4-31.1l8.5-10.1c0,0-7,16.8,6.2,41.1H1389z"/>
	<path class="st6" d="M1176.6,71.9c-3.7,12-9.9,22-15.6,28.9l-0.8,8.8c29.4-35.3,17.6-60.2,17.6-60.2
		C1178.9,56.6,1178.9,64.4,1176.6,71.9z"/>
	<path class="st16" d="M1228.2,29.8c0,0,3.2,2.4,6.3,27l0.8-12.7C1235.5,44.2,1229.5,31.2,1228.2,29.8z"/>
	<path class="st16" d="M1227.3,97.1c0,0,7,2.6,10.2,2.8c0,0-3.2-29.9-3.1-34.5c0,0-1.3,14.3-0.5,20.2c0.8,5.7-2.8,7.3-2.3,8.9
		C1232.2,96.1,1229.6,98.1,1227.3,97.1z"/>
	<path class="st6" d="M1255.2,69.3c0.7,4.2,2.8,7.2,2.8,7.2c36.8-9.1,51.7-43.4,51.7-43.4C1293,58.2,1271.1,69.3,1255.2,69.3z"/>
	<path class="st17" d="M1272.6,29.8c0,0-10.6,15.9-12.7,18.2c0,0,7.5,0,21.8-6.3c0,0-8.9,1.6-12.4,2.1c-3.4,0.5,0.2-2.8,0.3-4.7
		C1269.8,36.9,1272.6,29.8,1272.6,29.8z"/>
	<path class="st17" d="M1279.7,18.9c-0.5,1.1,7-17.9,0-34C1279.7-15.1,1289.8-1.1,1279.7,18.9z"/>
	<path class="st6" d="M1330.9-17.7c0,0,9.6,22.6,10.2,49.1c0,0,1-21.5-6.3-43.6C1334.8-12.2,1332.2-16.3,1330.9-17.7z"/>
	<path class="st6" d="M1447.4,108l0.2,5c0,0-18.2-13.2-23.7-45.9C1423.8,67.2,1429.3,90.9,1447.4,108z"/>
	<path class="st18" d="M1349.3,111.7c-1.6,9.9-18.1,19.8-33.8,9.3c10.1,14,28.5,8.6,43.3-7.5l3.1-31.4
		C1361.7,82.1,1350.9,101.8,1349.3,111.7z"/>
	<path class="st6" d="M1369,36.1l-1.6,8.6l-0.7-4.4L1369,36.1z"/>
	<path class="st18" d="M1447.5,113l-58.7,6.8c0,0,13.3-1.6,25.4-4.7C1426.2,112,1440.4,106.5,1447.5,113z"/>
	<path class="st16" d="M1212.7,120.7l-52.7-6l0.2-3.9c0,0,9.9-0.8,22.9,3.4C1196.1,118.5,1212.7,120.7,1212.7,120.7z"/>
	<path class="st6" d="M1149.3,113.2c0,0-3.9,0.2-3.4-2.4c0,0,1.3,2,5.5,0.7L1149.3,113.2z"/>
	<path class="st6" d="M1331.9,90.4c0,0,1.3,2,4.1,0.8c0,0-1.8-0.2-1.9-1.1C1334,90.1,1332.9,91.1,1331.9,90.4z"/>
	<path class="st6" d="M1452.2,112.5c0,0,3.7-0.8,6.8-1.5c0,0-7.6-1.5-9.3-0.5L1452.2,112.5z"/>
	<path class="st6" d="M1201.8-4.7c0,0-0.7,6.5-8.9,6.7c0,0-3.1-7.2-1.6-9.6c1.5-2.3,14.2-1.3,14.8,0c0.6,1.3-0.3,4.7-0.3,4.7l-0.7-1
		C1205.1-3.9,1203.1-2.8,1201.8-4.7z"/>
	<path class="st13" d="M1193.7-2.1c0,0-1.8-1.1-2.8,0.3c-0.8,1.3,0.3,4.2,3.7,3.6C1194.7,1.9,1195.2-0.2,1193.7-2.1z"/>
	<path class="st6" d="M1192.9,1.9c0,0,2.9,2.6,1.3,7c-1.6,4.4,0,7.8,0,7.8s1.8,2.6,0,4.9c-1.8,2.3-5.4,0.2-5.4-1.8
		c-0.2-2,3.1-15.3,3.1-15.3L1192.9,1.9z"/>
	<path class="st6" d="M1395.3-4.7c0,0-1.6,1.1-3.1,3.6c0,0-4.1,0.5,11.7,3.4c0,0,2-1.8,2.4-2.1c0.7-0.3,1-3.3,1-3.3
		S1397.3-5.7,1395.3-4.7z"/>
	<path class="st6" d="M1405.2,8.1l-0.3,7.6l2.6-0.5L1405.2,8.1z"/>
	<path class="st6" d="M1404.9,15.8c0,0-0.3,2.1,0.3,2.8c0.5,0.8,2.3,1,2.9-2.8l-1.6-0.8L1404.9,15.8z"/>
	<path class="st14" d="M1393.1,14.5c0,0,4.7,1,8-3.1c0,0-3.9,6.7-8.1,4.9L1393.1,14.5z"/>
	<path class="st13" d="M1212.4,124.7c0,0,3.6-0.8,6,0c2.4,0.8,13.7,2.4,14.8,3.4c1.1,1,1.1,1.5,1.1,1.5h-22V124.7z"/>
	<path class="st13" d="M1388.8,124.2c0,0-3.6-0.8-6,0c-2.4,0.8-13.7,2.4-14.8,3.4c-1.1,1-1.1,1.5-1.1,1.5h22V124.2z"/>
	<path class="st13" d="M1383.8,124.6c-0.3-0.3-2.9-1.3-3.9-2.3c-1-1-0.5,2.3,1,3.6C1382.3,126.8,1383.8,124.6,1383.8,124.6z"/>
	<path class="st13" d="M1329.1,36.6c0,0,2.6-2.1,3.4-6.8l-1.6,1.6c0,0,0.3-7-2.3-10.2c0,0,0.8,4.1,0,6.3c0,0-0.2-5.7-2.1-8.1
		c0,0,0.6,4.7-0.2,7.8c0,0-0.8-4.4-1.3-7l-1,8.1c0,0-1-4.9-0.8-6.8c0,0-1.3,5-1,8.3c0,0-1,3.6,0.6,6L1329.1,36.6z"/>
	<path class="st13" d="M1305.7,28.3c0,0,0.3-2.8,1.3-3.9c1-1.1,1.8-0.8,1.8-0.8s3.6-4.1,4.9-5.2c1.3-1.1-2.6,5.7-2.6,5.7
		s4.9-5.2,5.5-5s-4.2,6.7-4.2,6.7s0.7,0.7,0.7,1.3c0,0,0.6,1,0,2c-0.7,1-2.3,2.6-4.1,3.1L1305.7,28.3z"/>
	<path class="st19" d="M1182,106.7c0-0.3,18.2-46.7,18.2-46.7l30.7,10.7l-13.3,47.5L1182,106.7z"/>
	<path class="st6" d="M1187.2,85.5c0,0,18.5,22.4,42.1,41.5l4.2-1.6l-22.1-19.2L1187.2,85.5z"/>
	<path class="st11" d="M1228.2,29.8c0,0,33.5,64.1,33.7,80.7c0,20.3-13.2,21-21.9,18.2c-13.7-4.4-52.7-43.1-52.7-43.1l7.6-5.2
		c0,0,28.6,18.1,42.8,19.7L1228.2,29.8z"/>
	<path class="st6" d="M1237.6,99.8c0,0,2.6,0.3,3.9-0.7c1.3-1,0.8-3.1,0.8-3.1s-1.8,2.9-5.2,0L1237.6,99.8z"/>
	<path class="st13" d="M1188.5,84.7c0,0-1.5-2.6-0.3-5.4c1.5-3.4,7-6.5,6.5-5.2c-0.3,0.7-1.1,2.8-1.1,2.8s1.5,1.3,0.8,3.7
		L1188.5,84.7z"/>
	<path class="st13" d="M1193.5,76.9c0,0,2.1-2.4,1.9-1.5c0,0.7-0.2,3.7-1.1,5.2l-0.6,0.5L1193.5,76.9z"/>
	<path class="st20" d="M1204.7,66.2l19.8,7.2l-2.3,5.9l-20-7L1204.7,66.2z"/>
</g>
</svg>
