<svg xmlns="http://www.w3.org/2000/svg" width="24.005" height="30" viewBox="0 0 24.005 30">
  <path id="notice-active" d="M22.628,7.279a3.752,3.752,0,1,1,3.858,4.713A8.985,8.985,0,0,1,27,15v9h1.5a1.5,1.5,0,0,1,0,3h-6v1.5a4.5,4.5,0,0,1-9,0V27h-6a1.5,1.5,0,0,1,0-3H9V15a9,9,0,0,1,7.5-8.875l0-1.625a1.5,1.5,0,0,1,3,0V6.124a8.942,8.942,0,0,1,3.127,1.155ZM18,30a1.5,1.5,0,0,0,1.5-1.5V27h-3v1.5A1.5,1.5,0,0,0,18,30Zm-6-6H24V15a6,6,0,0,0-12,0Z" transform="translate(-6 -3)" fill="#707070" fill-rule="evenodd"/>
</svg>
