<?xml version="1.0" encoding="utf-8"?>
<!-- Generator: Adobe Illustrator 23.0.1, SVG Export Plug-In . SVG Version: 6.00 Build 0)  -->
<svg version="1.1" id="Layer_1" xmlns="http://www.w3.org/2000/svg" xmlns:xlink="http://www.w3.org/1999/xlink" x="0px" y="0px"
	 viewBox="0 0 593 406" style="enable-background:new 0 0 593 406;" xml:space="preserve">
<style type="text/css">
	.st0{fill:url(#SVGID_1_);}
	.st1{fill:url(#SVGID_2_);filter:url(#Adobe_OpacityMaskFilter);}
	.st2{mask:url(#mask0_1_);}
	.st3{opacity:8.000000e-02;}
	.st4{fill:#86EBF9;}
	.st5{fill:#8FB8CC;}
	.st6{fill:#263238;}
</style>
<linearGradient id="SVGID_1_" gradientUnits="userSpaceOnUse" x1="215.8503" y1="356.8116" x2="467.6213" y2="-123.3552" gradientTransform="matrix(1 0 0 -1 0 406)">
	<stop  offset="1.587280e-02" style="stop-color:#D8F3FB"/>
	<stop  offset="0.8288" style="stop-color:#EAD8FB"/>
</linearGradient>
<path class="st0" d="M8,0h577c4.4,0,8,3.6,8,8v390c0,4.4-3.6,8-8,8H8c-4.4,0-8-3.6-8-8V8C0,3.6,3.6,0,8,0z"/>
<defs>
	<filter id="Adobe_OpacityMaskFilter" filterUnits="userSpaceOnUse" x="-166" y="-347.3" width="639.1" height="1101.5">
		<feColorMatrix  type="matrix" values="1 0 0 0 0  0 1 0 0 0  0 0 1 0 0  0 0 0 1 0"/>
	</filter>
</defs>
<mask maskUnits="userSpaceOnUse" x="-166" y="-347.3" width="639.1" height="1101.5" id="mask0_1_">
	
		<linearGradient id="SVGID_2_" gradientUnits="userSpaceOnUse" x1="215.8503" y1="356.8116" x2="467.6213" y2="-123.3552" gradientTransform="matrix(1 0 0 -1 0 406)">
		<stop  offset="1.587280e-02" style="stop-color:#D8F3FB"/>
		<stop  offset="0.8288" style="stop-color:#EAD8FB"/>
	</linearGradient>
	<path class="st1" d="M8,0h577c4.4,0,8,3.6,8,8v390c0,4.4-3.6,8-8,8H8c-4.4,0-8-3.6-8-8V8C0,3.6,3.6,0,8,0z"/>
</mask>
<g class="st2">
	<g class="st3">
		<path class="st4" d="M-24.3,473.5c-118.9-83.2-145.9-237.5-141.2-376.1c0.7-23.1-1.8-47.6,9.2-67.9c11-20.3,36.7-34.2,57.4-24.5
			c17.2,8.1,24.7,28.1,34.3,44.7c12.8,22,31.9,40.2,54.3,51.9c14.8,7.6,33,12.3,47.5,4.3c20-11,22.3-38.6,22.2-61.6
			c-0.3-42.9-0.5-85.9-0.8-128.8c-0.1-23-0.2-46.6,6.9-68.4c7.1-21.9,23-42.2,44.9-48.3c21.9-6.2,49,6.5,53.7,29.1
			c1.9,9.4,0,19.1,0.6,28.7c0.6,9.5,5.1,20.1,14.1,22.8c9.2,2.7,18.4-3.9,25.3-10.6c23.7-23.2,39.9-53.2,54.9-83
			c15.1-29.7,29.7-60.3,51.3-85.7c21.5-25.3,51.4-45.4,84.3-47.3s68.1,18.5,76.5,50.8c8.4,32.4-10.6,65.4-31.2,91.6
			c-30.5,39-66.7,73.4-107,102c-7.2,5.1-15.2,10.7-17.9,19.2c-5,15.4,9.5,30.5,24.7,35.7c17.2,5.8,35.8,4,53.8,6.1
			c18,2.1,37.5,10,44.1,27C447,8.8,427.3,33.5,408,49.6c-38.8,32.3-83.1,58-130.3,75.2c-16.9,6.2-34.7,11.6-48.4,23.5
			s-21.9,32.6-13.7,48.9c8.3,16.2,29.4,21.4,47.2,18.1c17.8-3.2,33.6-13,50.5-19.2c31.6-11.9,72.5-9.7,92.8,17.6
			c13.3,18,14.5,43,7.7,64.4c-6.7,21.4-20.4,39.9-34.9,56.9c-50.7,59.5-115.6,107.4-189,132.9C116.7,493.4,48.6,500.2-24.3,473.5z"
			/>
		<path class="st5" d="M438-327.9c0.1,0.1-0.7,0.8-2.2,2.2c-1.7,1.5-4,3.6-6.8,6.1c-6.1,5.3-15,13.2-26,23.6
			c-22.4,20.8-53.8,52.1-88,94.9c-17.2,21.3-34.9,45.5-53.6,71.8c-18.6,26.4-38.3,54.6-57.8,85c-19.6,30.4-39.2,63.1-56.8,98.4
			c-8.9,17.6-16.7,36-24.9,54.8c-8.1,18.7-16.2,37.9-24.5,57.1c-32.7,77.2-61.5,151.9-82,221.6c-20.7,69.7-33,134.2-38.4,188.9
			c-5.5,54.7-4.4,99.4-2.2,130c1.3,15.4,2.4,27.2,3.5,35.3c0.4,3.9,0.8,6.9,1,9.2c0.2,2.1,0.3,3.1,0.2,3.1c-0.1,0-0.3-1-0.6-3
			c-0.3-2.3-0.8-5.2-1.5-9.1c-1.4-8-2.8-19.9-4.3-35.3c-2.7-30.7-4.3-75.5,0.8-130.4c5-54.9,17.1-119.8,37.7-189.8
			c20.4-70,49.2-144.9,81.9-222.1c8.3-19.2,16.4-38.4,24.5-57.1c8.1-18.7,16.1-37.3,25-55c17.8-35.5,37.6-68.2,57.2-98.6
			c19.8-30.5,39.5-58.7,58.3-84.9c18.8-26.3,36.8-50.3,54.1-71.7c34.5-42.7,66.4-73.8,89.1-94.3c11.4-10.3,20.4-17.9,26.7-23
			c3-2.4,5.3-4.3,7.1-5.8C437.2-327.3,438-327.9,438-327.9z"/>
		<path class="st5" d="M144.1,52.1c-0.3,0-1-3.5-2.2-9.8c-1.3-6.4-2.6-15.6-4.3-27.1c-3.2-22.9-6.7-54.7-10.4-89.9
			c-3.7-35.1-7.5-66.7-11.1-89.5c-1.8-11.4-3.2-20.6-4.4-27c-1-6.4-1.6-9.9-1.3-10c0.3-0.1,1.3,3.3,2.9,9.6
			c1.7,6.3,3.7,15.5,5.8,26.8c4.4,22.8,8.7,54.5,12.3,89.7c3.5,34.6,6.7,66,9.1,89.9c1.1,10.8,2.1,19.9,2.9,27.2
			C144.1,48.6,144.5,52.1,144.1,52.1z"/>
		<path class="st5" d="M440.2-3.1c0,0.3-4.2,0.7-11.8,1.5c-7.6,0.6-18.6,1.6-32.1,3.1c-27.1,2.9-64.4,8.3-105.3,16
			c-40.9,7.7-77.6,16.4-104,23.4c-13.2,3.5-23.9,6.5-31.2,8.5c-7.3,2.1-11.5,3.1-11.5,2.8c-0.1-0.3,3.9-1.9,11.1-4.4
			c7.2-2.5,17.8-6.1,30.9-9.8c26.3-7.7,63-16.8,104-24.7c41-7.7,78.6-12.7,105.9-14.8c13.6-1.2,24.7-1.7,32.3-1.8
			C435.9-3.5,440.2-3.4,440.2-3.1z"/>
		<path class="st6" d="M15.2,381.1c-0.1,0.1-0.8-1.1-2-3.7c-1.4-2.9-3-6.4-5-10.7c-4.4-9.3-10.4-23-17.5-40
			c-14.3-33.9-32.5-81.4-52-134c-19.5-52.7-37.2-100.2-50.8-134.4c-6.6-16.6-12.1-30.2-16.2-40.4c-1.8-4.4-3.1-8.1-4.3-11
			c-0.9-2.5-1.4-3.9-1.3-4c0.1-0.1,0.8,1.2,2,3.7c1.4,2.9,3,6.4,5,10.7c4.4,9.3,10.4,23,17.5,40c14.3,33.9,32.5,81.4,52,134
			s37.2,100.2,50.7,134.4C0,342.4,5.4,356,9.5,366.2c1.8,4.4,3.1,8.1,4.3,11C14.8,379.8,15.3,381.1,15.2,381.1z"/>
		<path class="st5" d="M408.6,254.4c0,0.1-1.4,0.7-3.9,1.6c-3,1-6.8,2.3-11.4,3.9c-10.6,3.5-24.8,8.1-42.2,13.6
			c-35.6,11.5-84.5,28-138.6,46.3c-54.1,18.3-103.2,34.4-139,45.2c-17.9,5.4-32.4,9.6-42.6,12.3c-4.7,1.3-8.5,2.2-11.6,3
			c-2.7,0.6-4.1,0.9-4.2,0.7c0-0.1,1.4-0.7,3.9-1.6c3-1,6.8-2.3,11.4-3.9c10.6-3.5,24.8-8.1,42.2-13.7c35.6-11.5,84.5-28,138.6-46.3
			c54.1-18.3,103.1-34.4,139-45.2c17.9-5.4,32.4-9.6,42.6-12.3c4.7-1.3,8.5-2.2,11.6-3C407.1,254.5,408.5,254.3,408.6,254.4z"/>
	</g>
</g>
</svg>
