<svg xmlns="http://www.w3.org/2000/svg" width="474.91" height="324.079" viewBox="0 0 474.91 324.079">
  <g id="Group_43" data-name="Group 43" transform="translate(0 -0.001)">
    <path id="Path_523" data-name="Path 523" d="M209.4,783.333c0,8.444-39.6,15.293-88.451,15.293S32.5,791.777,32.5,783.333c0-2.112,2.472-4.121,6.944-5.948,13.02-5.328,43-9.114,78.234-9.333q1.631-.012,3.274-.012C169.8,768.04,209.4,774.889,209.4,783.333Z" transform="translate(-29.607 -474.546)" fill="#3f3d56"/>
    <path id="Path_524" data-name="Path 524" d="M127.534,768.07A50.217,50.217,0,0,1,49.3,777.4C62.32,772.075,92.3,768.289,127.534,768.07Z" transform="translate(-39.463 -474.564)" opacity="0.1"/>
    <ellipse id="Ellipse_155" data-name="Ellipse 155" cx="46.292" cy="49.599" rx="46.292" ry="49.599" transform="translate(0 210.002)" fill="#3f3d56"/>
    <path id="Path_525" data-name="Path 525" d="M274.927,141.3c6.564,25.286,27.738,41.629,47.341,36.541" transform="translate(-171.833 -106.852)" fill="#3f3d56"/>
    <path id="Path_526" data-name="Path 526" d="M386.916,149.459c-6.637-25.57,5.694-50.856,27.571-56.535" transform="translate(-236.48 -78.472)" fill="#f207e2"/>
    <path id="Path_527" data-name="Path 527" d="M307.456,138.773c6.235,24.019,21.4,40.829,33.9,37.584" transform="translate(-190.917 -105.371)" fill="#f207e2"/>
    <path id="Path_528" data-name="Path 528" d="M385.885,128.947C377.4,96.274,391,64.525,416.288,57.961" transform="translate(-235.449 -57.96)" fill="#3f3d56"/>
    <path id="Path_529" data-name="Path 529" d="M371.616,226.426s4.99-1.461,6.225-2.933,7.122-4.377,7.948-2.743,9.794,6.648,4.127,8.168-13.424,2.54-15.176,2.012S371.616,226.426,371.616,226.426Z" transform="translate(-228.558 -153.18)" fill="#a8a8a8"/>
    <path id="Path_530" data-name="Path 530" d="M389.86,236.961c-5.667,1.52-13.424,2.54-15.176,2.012-1.334-.4-2.447-2.8-2.9-3.924l-.166.05s1.372,3.974,3.124,4.5,9.51-.492,15.176-2.012c1.636-.439,2.051-1.169,1.8-2.025C391.618,236.146,391.078,236.634,389.86,236.961Z" transform="translate(-228.557 -161.853)" opacity="0.2"/>
    <rect id="Rectangle_155" data-name="Rectangle 155" width="333.14" height="193.023" transform="translate(141.77 52.112)" fill="#f2f2f2"/>
    <rect id="Rectangle_156" data-name="Rectangle 156" width="182.69" height="95.685" transform="translate(149.624 110.701)" fill="#f207e2" opacity="0.3"/>
    <rect id="Rectangle_157" data-name="Rectangle 157" width="73.275" height="4.053" transform="translate(346.366 106.529)" fill="#3f3d56"/>
    <rect id="Rectangle_158" data-name="Rectangle 158" width="106.638" height="4.053" transform="translate(346.366 114.013)" fill="#3f3d56"/>
    <rect id="Rectangle_159" data-name="Rectangle 159" width="73.275" height="4.053" transform="translate(346.366 132.098)" fill="#3f3d56"/>
    <rect id="Rectangle_160" data-name="Rectangle 160" width="73.275" height="4.053" transform="translate(346.366 162.031)" fill="#3f3d56"/>
    <rect id="Rectangle_161" data-name="Rectangle 161" width="106.638" height="4.053" transform="translate(346.366 139.581)" fill="#3f3d56"/>
    <rect id="Rectangle_162" data-name="Rectangle 162" width="106.638" height="4.053" transform="translate(346.366 147.064)" fill="#3f3d56"/>
    <rect id="Rectangle_163" data-name="Rectangle 163" width="106.638" height="4.053" transform="translate(346.366 154.548)" fill="#3f3d56"/>
    <rect id="Rectangle_164" data-name="Rectangle 164" width="38.352" height="10.601" transform="translate(346.366 180.116)" fill="#f207e2"/>
    <path id="Path_531" data-name="Path 531" d="M339.988,445.186s6.885-19.507,11.857-13.387-7.65,16.447-7.65,16.447Z" transform="translate(-210.002 -276.585)" fill="#a0616a"/>
    <path id="Path_532" data-name="Path 532" d="M241.786,419.605l4.142,1.535s1.978,8.792,1.213,10.322-1.147.382,0,3.442,4.59,11.092,4.972,12.239,22.184-7.267,22.184-11.474c0,0,4.59,5.355,6.885,6.5,0,0-25.244,18.359-28.686,20.654s-5.355,1.147-8.415-1.53-16.064-24.861-16.064-24.861Z" transform="translate(-144.311 -270.128)" fill="#575a89"/>
    <path id="Path_533" data-name="Path 533" d="M282.183,744.631s-.382,4.207-1.147,4.59-6.5,9.945,0,11.857,10.327,1.147,11.857,1.912,28.3,2.295,28.686-1.912-13-4.972-13-4.972-12.239-8.032-14.152-12.239S282.183,744.631,282.183,744.631Z" transform="translate(-173.617 -459.372)" fill="#2f2e41"/>
    <path id="Path_534" data-name="Path 534" d="M90.018,766.623s-9.179,15.682-6.885,17.594,24.645,8.882,27.921,9.18c4.207.383,7.267-3.06,3.825-4.972s-10.71-9.945-10.71-12.622v-6.885Z" transform="translate(-59.096 -473.715)" fill="#2f2e41"/>
    <path id="Path_535" data-name="Path 535" d="M75.454,518.621s-8.032,9.945,4.59,26.009L101.081,571.4s-13,20.654-13.387,31.364-3.06,8.415-3.825,13-4.207,2.295-1.53,5.737,12.622,6.5,15.682,3.825a9.482,9.482,0,0,0,3.06-7.65c0-1.53,5.355-10.327,5.737-13S121.352,580.2,121.352,580.2s4.59-13-.765-20.272-8.893-17.574-8.893-17.574,15.778,19.1,26.87,23.694c0,0,4.207.765,3.442,2.677s0,3.06,1.147,4.972,9.18,24.1,11.857,29.834,1.53,9.18,4.59,11.092,16.829.383,16.829-1.53-1.912-6.885-3.06-9.562-10.327-33.659-9.562-39.013-.382-12.622-6.12-15.682-34.806-27.921-36.336-27.921S75.454,518.621,75.454,518.621Z" transform="translate(-53.329 -328.218)" fill="#2f2e41"/>
    <circle id="Ellipse_156" data-name="Ellipse 156" cx="16.064" cy="16.064" r="16.064" transform="translate(82.94 98.224)" fill="#a0616a"/>
    <path id="Path_536" data-name="Path 536" d="M216.309,338.171s-4.972,8.8-11.092,9.945,16.064,18.742,16.064,18.742,5.355-16.829,9.945-17.594S216.309,338.171,216.309,338.171Z" transform="translate(-130.309 -222.353)" fill="#a0616a"/>
    <path id="Path_537" data-name="Path 537" d="M156.846,385.275c0,4.972-14.917,19.124-14.917,19.124l-14.152,11.857s-.382,4.207-1.912,4.59-3.442.383-1.912,2.677,5.355,7.267,1.912,8.032a28.118,28.118,0,0,1-3.133.3c-.918.054-2,.1-3.209.149-2.83.1-6.372.164-10.208.138q-1.635-.006-3.328-.038c-14.462-.287-31.215-1.951-29.845-7.432,2.295-9.18.765-12.239,5.737-17.212s13-22.184,13-22.184,16.064-27.156,29.451-27.156l2.781-.731a6.368,6.368,0,0,1,6.95,2.67c2.685,4.089,6.919,10.231,9.394,12.213,3.825,3.06,4.422.864,4.422.864S156.846,380.3,156.846,385.275Z" transform="translate(-55.164 -233.504)" fill="#575a89"/>
    <path id="Path_538" data-name="Path 538" d="M179.921,565.815s11.092,17.212,4.207,20.272-10.71-17.977-10.71-17.977Z" transform="translate(-112.28 -355.906)" fill="#a0616a"/>
    <path id="Path_539" data-name="Path 539" d="M225.656,301.986c.617-.078.812-.856.915-1.468.556-3.281,3-6.392,6.286-6.922a8.9,8.9,0,0,1,3.745.3,14.212,14.212,0,0,1,4.806,2.365,7.927,7.927,0,0,0,2.4,1.508c.6.177,3.162,1.315,3.76,1.507,1.315.423,2.4,1.8,3.757,1.527,1.3-.261,1.788-1.825,2-3.13.474-2.973-1.227-7.409-2.919-9.9a10.5,10.5,0,0,0-5.629-3.685,40.443,40.443,0,0,0-7.807-1.551c-3.573-.422-7.274-.646-10.7.459s-6.542,3.806-7.182,7.347c-.133.738-.158,1.493-.321,2.225-.4,1.785-1.579,3.285-2.268,4.978a9.586,9.586,0,0,0,.292,7.771c.954,1.918,2.612,3.761,2.254,5.873L222,308.866a2.144,2.144,0,0,0,.985-2.509l-.429-3.7a3.252,3.252,0,0,1,.191-2C224.057,298.372,224.628,302.116,225.656,301.986Z" transform="translate(-137.153 -189.512)" fill="#2f2e41"/>
    <path id="Path_540" data-name="Path 540" d="M151.979,425.415l3.6,14.982c-3.634.13-8.441.2-13.536.1-1.285-3.855-2.513-7.875-3.454-11.639-3.442-13.769,2.295-34.806,5.355-44.751s10.71-12.622,10.71-12.622a34.881,34.881,0,0,1,8.8,4.59C168.426,379.517,151.979,425.415,151.979,425.415Z" transform="translate(-91.223 -241.897)" opacity="0.1"/>
    <path id="Path_541" data-name="Path 541" d="M159.382,435.54l3.752,15.6c-.918.054-2,.1-3.209.149-2.83.1-6.372.164-10.208.138-1.381-4.1-2.716-8.418-3.722-12.442-3.442-13.769,2.295-34.806,5.355-44.751s9.753.956,9.753.956-2.677-6.5,2.295-3.06S159.382,435.54,159.382,435.54Z" transform="translate(-95.567 -252.787)" opacity="0.1"/>
    <path id="Path_542" data-name="Path 542" d="M158.358,369.634s-7.65,2.677-10.71,12.622-8.8,30.981-5.355,44.751S153,457.988,153,457.988s7.267-5.355,9.945-4.207l-7.267-30.216s16.447-45.9,11.475-49.34A34.9,34.9,0,0,0,158.358,369.634Z" transform="translate(-93.395 -240.811)" fill="#575a89"/>
    <rect id="Rectangle_165" data-name="Rectangle 165" width="182.69" height="95.685" transform="translate(141.77 100.781)" fill="#3f3d56"/>
    <ellipse id="Ellipse_157" data-name="Ellipse 157" cx="20.673" cy="20.711" rx="20.673" ry="20.711" transform="translate(215.84 129.785)" fill="#fff"/>
    <path id="Path_543" data-name="Path 543" d="M562.654,363.423a24.707,24.707,0,1,0,24.707,24.707A24.707,24.707,0,0,0,562.654,363.423Zm-5.072,37.88-12.662-12.662,3.552-3.552,9.123,9.123,19.255-19.255,3.552,3.552L557.581,401.3Z" transform="translate(-326.14 -237.167)" fill="#f207e2"/>
  </g>
</svg>
