<svg id="Group_35" data-name="Group 35" xmlns="http://www.w3.org/2000/svg" xmlns:xlink="http://www.w3.org/1999/xlink" width="215.177" height="140.784" viewBox="0 0 215.177 140.784">
  <defs>
    <linearGradient id="linear-gradient" x1="0.5" y1="1" x2="0.5" gradientUnits="objectBoundingBox">
      <stop offset="0" stop-color="gray" stop-opacity="0.251"/>
      <stop offset="0.54" stop-color="gray" stop-opacity="0.122"/>
      <stop offset="1" stop-color="gray" stop-opacity="0.102"/>
    </linearGradient>
    <linearGradient id="linear-gradient-2" x1="-2.497" y1="1" x2="-2.497" y2="0" xlink:href="#linear-gradient"/>
  </defs>
  <ellipse id="Ellipse_73" data-name="Ellipse 73" cx="107.588" cy="16.922" rx="107.588" ry="16.922" transform="translate(0 106.94)" fill="#d8042c" opacity="0.1"/>
  <path id="Path_74" data-name="Path 74" d="M835.389,472.98v11.73l-3.1,6.257h0l-.1.2-8.209-.542-3.156-.21-7.324-.483V475.9l7.324.206,3.275.092,8.286.235Z" transform="translate(-657.069 -382.029)" fill="#f86d70"/>
  <path id="Path_75" data-name="Path 75" d="M914.3,476.58v11.038l-.76,1.529h0l-.775,1.567h0l-1.567,3.161.175-11.73.035-2.367,1.49-1.648h0l.65-.719Z" transform="translate(-735.982 -384.937)" opacity="0.1"/>
  <path id="Path_76" data-name="Path 76" d="M833.094,453.25v4.1l-.419.671-.754,1.2-.665,1.061-1.473,2.346-.035,0-19.608-1.01v-4.04l.05-.054,2.34-2.534.848-.917,1.533-1.658Z" transform="translate(-654.355 -365.414)" fill="#f86d70"/>
  <path id="Path_77" data-name="Path 77" d="M829.783,480.043v4.042l-19.643-1.011v-4.04l.05-.054Z" transform="translate(-654.355 -386.875)" opacity="0.1"/>
  <path id="Path_78" data-name="Path 78" d="M915.6,456.78v4.1l-3.311,5.276v-4.042Z" transform="translate(-736.862 -368.944)" opacity="0.15"/>
  <path id="Path_79" data-name="Path 79" d="M841.965,462.1l0,2.752,0,1.329-.006,10.407h0l-.775,1.567.115-10.913.017-1.671h0l.027-2.465-18.77-1.158.848-.917Z" transform="translate(-664.395 -372.377)" fill="#3f3d56"/>
  <path id="Path_80" data-name="Path 80" d="M856.192,467.29l-1.315,2.856-.011,1.456-.119,14.426-3.156-.21V469.955l1.682-2.665Z" transform="translate(-687.835 -377.433)" fill="#3f3d56"/>
  <path id="Path_81" data-name="Path 81" d="M879.864,531.377a4.158,4.158,0,0,1-2.354.083.942.942,0,0,1-.411-.192,1.072,1.072,0,0,1-.256-.506,3.978,3.978,0,0,1-.225-1.209,1.346,1.346,0,0,1,.5-1.081,1.177,1.177,0,0,0,.192-.144.812.812,0,0,0,.148-.3c.231-.687.675-1.41,1.39-1.521a2.389,2.389,0,0,1,1.769.792l1.115.95a1.759,1.759,0,0,1,3.282-.044,6.225,6.225,0,0,1,2.481-1.7.769.769,0,0,1,.652-.025.727.727,0,0,1,.26.348,5.355,5.355,0,0,1,.485,2.115.371.371,0,0,1,.431.148.978.978,0,0,1,.142.465,6.414,6.414,0,0,1,.044.769,1.153,1.153,0,0,1-.192.769,1.261,1.261,0,0,1-.961.3.388.388,0,0,1-.1.577,1.123,1.123,0,0,1-.652.127,4.481,4.481,0,0,1-2.513-.513c-.285-.192-.523-.444-.81-.635a3.934,3.934,0,0,0-2.39-.446C881.141,530.537,880.56,531.142,879.864,531.377Z" transform="translate(-715.838 -441.328)" fill="#3f3d56"/>
  <path id="Path_82" data-name="Path 82" d="M858.011,551.222s-7.24,1.01-8.251,5.384l1.517-.223,1.065,1.907s1.123-4.265,4.434-5.276a35.6,35.6,0,0,1,4.49-1.177s2.307.56,4.377,7.24l1.179-1.629,2.077.45s-1.515-5.221-5.613-6.678Z" transform="translate(-694.144 -461.363)" fill="#3f3d56"/>
  <path id="Path_83" data-name="Path 83" d="M750.517,496.84v15.845l-4.188,8.449v0l-.133.267-11.09-.733-4.263-.283-9.893-.654V500.782l9.893.279,4.425.125,11.193.315Z" transform="translate(-582.316 -401.301)" fill="#d8042c"/>
  <path id="Path_84" data-name="Path 84" d="M857.118,501.7v14.91l-1.023,2.063v0l-1.05,2.115h0l-2.115,4.269.236-15.845.048-3.2,2.011-2.225v0l.877-.969Z" transform="translate(-688.917 -405.226)" opacity="0.1"/>
  <path id="Path_85" data-name="Path 85" d="M747.427,470.176v5.536l-.569.906-1.015,1.617-.9,1.435-1.988,3.169-.048,0-26.487-1.361v-5.459l.065-.071,3.163-3.423,1.144-1.24,2.071-2.24Z" transform="translate(-578.657 -378.847)" fill="#d8042c"/>
  <path id="Path_86" data-name="Path 86" d="M742.955,506.376v5.459L716.42,510.47v-5.459l.065-.071Z" transform="translate(-578.657 -407.843)" opacity="0.1"/>
  <path id="Path_87" data-name="Path 87" d="M858.883,474.95v5.536l-4.473,7.126v-5.459Z" transform="translate(-690.112 -383.62)" opacity="0.15"/>
  <path id="Path_88" data-name="Path 88" d="M759.408,482.134l0,3.719v1.792L759.4,501.7v0l-1.05,2.115.158-14.741.023-2.256v0l.036-3.331L733.21,481.93l1.144-1.24Z" transform="translate(-592.218 -388.256)" fill="#3f3d56"/>
  <path id="Path_89" data-name="Path 89" d="M778.617,489.15l-1.777,3.857-.015,1.967-.161,19.485-4.263-.283V492.752l2.275-3.6Z" transform="translate(-623.872 -395.09)" fill="#3f3d56"/>
  <path id="Path_90" data-name="Path 90" d="M796.394,546.239a5.626,5.626,0,0,1-3.179.112,1.263,1.263,0,0,1-.556-.258,1.444,1.444,0,0,1-.346-.683,5.383,5.383,0,0,1-.3-1.636,1.819,1.819,0,0,1,.681-1.458,1.808,1.808,0,0,0,.258-.192,1.069,1.069,0,0,0,.192-.406c.31-.927.911-1.906,1.879-2.054a3.215,3.215,0,0,1,2.388,1.069l1.506,1.283a2.379,2.379,0,0,1,4.434-.06,8.419,8.419,0,0,1,3.352-2.308,1.033,1.033,0,0,1,.883-.035,1,1,0,0,1,.35.469,7.257,7.257,0,0,1,.654,2.857.5.5,0,0,1,.577.192,1.326,1.326,0,0,1,.192.631,8.9,8.9,0,0,1,.062,1.036,1.554,1.554,0,0,1-.273,1.038,1.729,1.729,0,0,1-1.311.408.526.526,0,0,1-.137.779,1.511,1.511,0,0,1-.881.171,6.122,6.122,0,0,1-3.394-.7c-.385-.256-.708-.6-1.094-.854a5.312,5.312,0,0,0-3.231-.6C798.119,545.1,797.335,545.924,796.394,546.239Z" transform="translate(-647.499 -451.919)" fill="#3f3d56"/>
  <path id="Path_91" data-name="Path 91" d="M766.843,573.08s-9.78,1.365-11.153,7.278l2.048-.3,1.44,2.579s1.517-5.769,5.99-7.126a50.9,50.9,0,0,1,6.065-1.592s3.107.758,5.913,9.78l1.592-2.2,2.813.608s-2.048-7.051-7.582-9.022Z" transform="translate(-618.163 -479.02)" fill="#3f3d56"/>
  <path id="Path_92" data-name="Path 92" d="M880.389,537.77v9.807l-2.592,5.23h0l-.083.165-6.863-.454-2.638-.175-6.123-.4V540.21l6.123.171,2.738.077,6.928.2Z" transform="translate(-696.315 -434.36)" fill="#3f3d56"/>
  <path id="Path_93" data-name="Path 93" d="M946.362,540.77V550l-.633,1.277h0l-.65,1.31v0l-1.309,2.642.146-9.807.031-1.979,1.244-1.379h0l.544-.6Z" transform="translate(-762.289 -436.783)" opacity="0.1"/>
  <path id="Path_94" data-name="Path 94" d="M878.471,521.264v3.427l-.352.56-.629,1-.556.888L875.7,529.1h-.031l-16.393-.844v-3.379l.04-.044,1.958-2.119.71-.765,1.281-1.388Z" transform="translate(-694.046 -420.46)" fill="#3f3d56"/>
  <path id="Path_95" data-name="Path 95" d="M875.7,543.668v3.379L859.28,546.2v-3.379l.04-.044Z" transform="translate(-694.046 -438.407)" opacity="0.1"/>
  <path id="Path_96" data-name="Path 96" d="M947.457,524.22v3.427l-2.767,4.409v-3.379Z" transform="translate(-763.032 -423.416)" opacity="0.15"/>
  <path id="Path_97" data-name="Path 97" d="M885.884,528.672v2.3l0,1.11,0,8.7h0l-.65,1.31.1-9.122.013-1.4h0l.023-2.061-15.693-.967.71-.765Z" transform="translate(-702.438 -426.291)" fill="#d8042c"/>
  <path id="Path_98" data-name="Path 98" d="M897.778,533.01l-1.1,2.388-.01,1.215-.1,12.061-2.638-.175V535.239l1.408-2.229Z" transform="translate(-722.033 -430.516)" fill="#d8042c"/>
  <path id="Path_99" data-name="Path 99" d="M924.2,600.37a3.5,3.5,0,0,1-1.967.069.8.8,0,0,1-.344-.161.906.906,0,0,1-.213-.421,3.332,3.332,0,0,1-.192-1.013,1.125,1.125,0,0,1,.421-.9.959.959,0,0,0,.16-.121.663.663,0,0,0,.123-.25c.192-.577.565-1.179,1.163-1.271a1.99,1.99,0,0,1,1.479.661l.933.794a1.471,1.471,0,0,1,2.744-.035,5.235,5.235,0,0,1,2.075-1.423.638.638,0,0,1,.544-.021.612.612,0,0,1,.217.29,4.465,4.465,0,0,1,.4,1.769.308.308,0,0,1,.359.123.83.83,0,0,1,.121.385,5.537,5.537,0,0,1,.036.642.961.961,0,0,1-.169.642,1.058,1.058,0,0,1-.812.252.327.327,0,0,1-.083.483.943.943,0,0,1-.546.106,3.732,3.732,0,0,1-2.1-.431c-.238-.158-.438-.369-.677-.529a3.293,3.293,0,0,0-2-.373C925.263,599.667,924.779,600.174,924.2,600.37Z" transform="translate(-752.072 -497.714)" fill="#d8042c"/>
  <path id="Path_100" data-name="Path 100" d="M905.948,616.94s-6.053.844-6.9,4.505l1.267-.192.89,1.6s.938-3.567,3.707-4.411a30.307,30.307,0,0,1,3.754-.985s1.923.469,3.654,6.051l.986-1.359,1.731.385s-1.267-4.363-4.692-5.577Z" transform="translate(-733.956 -514.445)" fill="#d8042c"/>
  <path id="Path_101" data-name="Path 101" d="M636.958,146.945c-.215-1.288-4.211-4.077-4.211-4.077a11.108,11.108,0,0,1-2.692-2.075c-.6-.708-.785-.7-.84-.6a.288.288,0,0,0-.131-.044c-.037-.027-.073-.052-.108-.081h0a.258.258,0,0,0-.148-.263,1.47,1.47,0,0,1-.136-.1,4.4,4.4,0,0,1-.448-1.888c-.044-.808-.961-.6-1.252-.515-.211-.4-.419-.823-.613-1.242a2.207,2.207,0,0,0,.2-.433c.558-1.231.435-2.64.677-3.94a11.606,11.606,0,0,0,.465-2.84v-.067a.036.036,0,0,1,0,.013,2.489,2.489,0,0,0-.154-.669c-.16-.413-.44-.769-.577-1.2-.2-.619-.073-1.3-.24-1.934a2.875,2.875,0,0,0-1.623-1.765,7.936,7.936,0,0,0-2.4-.577,11.093,11.093,0,0,0-6.105.46,1.069,1.069,0,0,1-.577.156,1.708,1.708,0,0,1-.519-.244,1.551,1.551,0,0,0-1.584.248,4.737,4.737,0,0,0-1.054,1.3,4.063,4.063,0,0,1-1.086,1.271c-.548.371-1.271.5-1.7,1a1.613,1.613,0,0,0-.354.831.033.033,0,0,0,0-.013v.271a2.09,2.09,0,0,0,0,.244,5.31,5.31,0,0,0,.363,1.365,1.9,1.9,0,0,0,.5.858c.658.546,1.7.031,2.5.335a1.889,1.889,0,0,1,.192.09l-.029.092a6.538,6.538,0,0,0,6.33,8.355,3.551,3.551,0,0,0,.4-.015c.019.071.04.142.058.213a7.223,7.223,0,0,1,.192,2.446l-.04-.356a1.827,1.827,0,0,0-.273-.108,2.423,2.423,0,0,0-.817-.125c-.894-.013-2.242.354-3.679,2.127,0,0-1.834,1.038-2.375,1.288a.268.268,0,0,0-.1.115h0s-2.427,3.775-2.679,5.2l-.035.192-4.115-.192a7.6,7.6,0,0,0-.692-2.963,1.06,1.06,0,0,0-.373-.5,1.1,1.1,0,0,0-.936.037,8.955,8.955,0,0,0-3.563,2.429,2.534,2.534,0,0,0-4.713.063l-1.6-1.346a3.424,3.424,0,0,0-2.538-1.131c-1.027.158-1.667,1.19-2,2.169a1.121,1.121,0,0,1-.212.429.74.74,0,0,1-.06.05l-1.261-.058-2.2,2.365-1.217,1.31-3.361,3.615-.071.075v3.611a6.559,6.559,0,0,0-.242.8l.242-.037v1.4l.927.048v16.647l10.517.69,4.532.292,8.009.525a2.79,2.79,0,0,0,.987,2.234,1.845,1.845,0,0,1,.442.4c-.035.067-.069.137-.1.206a4.238,4.238,0,0,0-.556,1.863,2.554,2.554,0,0,1-.385,1.663s-2.423,7.644-2.369,9.84a49.268,49.268,0,0,1-.863,7.025s-1,3.111-.406,4,1.269,4.748,1.269,4.748a3.961,3.961,0,0,1,.431,1.636,8.164,8.164,0,0,0,.433,2.115l1.511,5.552a5.01,5.01,0,0,0,.406,2.521c.567,1.046.511.723.242,2.548s.323,3.513,1.3,4.05a.6.6,0,0,1,.279.835h-.01c-.248-.1-.454.423-.577.844-.075.077-.125.121-.125.121l.085.021c-.054.2-.085.354-.085.354s-2.536,2.146-2.692,2.923-1.944,1.181-1.944,1.181a30.948,30.948,0,0,0-3.4,1.127,1.294,1.294,0,0,0-.744,1.04,2.922,2.922,0,0,0,.1,1.05c.271,1.1,4.05,1.208,5.857.913s5.561-1.369,5.561-1.369a31.6,31.6,0,0,0,5.1-.858c1.161-.473.242-1.715.242-1.715v-.117a6.921,6.921,0,0,0-.169-2.511,3.691,3.691,0,0,1-.175-1.679c.788-1.442-.906-5.769-.906-5.769a33.735,33.735,0,0,0,.108-4.853c-.217-.623-1.133-5.873-1.133-5.873a9.939,9.939,0,0,1-.352-2.79c.215-.4-.135-1.556-.135-1.556s-.917-1.286-.836-1.688a2.487,2.487,0,0,0-.269-1.127s2.754-4.184,2.509-4.961a4.555,4.555,0,0,1,.108-2.038l.769-1.3c.511-.869,1.131-1.913,1.346-2.238a28.147,28.147,0,0,0,1.26-3.188c.15-.431.252-.727.252-.727s.433,7.884.81,8.69.946,7.159.946,7.159a4.461,4.461,0,0,1,.269,1.771,44.627,44.627,0,0,0,.863,5.309,16.308,16.308,0,0,1,.135,3.861c-.271.8-.054,6.73-.054,6.73a7.579,7.579,0,0,0-1.861,2.036,8.989,8.989,0,0,0,.054,3.3l.173.083a5.035,5.035,0,0,0-.308,1.042c-.054.51-.865,2.817-.783,3.138a12.516,12.516,0,0,1-.406,1.823c-.054.51-.729,1.261-.783,1.538a6.515,6.515,0,0,1-.3.708,7,7,0,0,0-.35,1.09c-.269,1.125,2.942,1.313,2.942,1.313,4.75.885,5.615-2.734,5.615-2.734a26.855,26.855,0,0,1,.81-3.461.4.4,0,0,0,.036-.308h0a4.194,4.194,0,0,0-.685-1.517,1.8,1.8,0,0,1-.137-1.05,2.172,2.172,0,0,0,.406-.075c1.923-.563,1.135-3.809,1.135-3.809a10.316,10.316,0,0,0,1.294-2.977,33.416,33.416,0,0,1,.46-3.379c1.646-3,1-10.3,1.269-10.888s-.567-2.788-1.242-3.78-.4-3.675,0-4.452-.4-3.461-.4-3.461.783-5.2.756-6.007a17.9,17.9,0,0,1,.673-3.192s.7-1.233.54-1.608.54-1.346.352-1.771a4.827,4.827,0,0,1,.511-2.521,15.083,15.083,0,0,0,.577-2.471l.058-.321c.786.506,1.5.883,1.769.781.481-.192-.285-2.692-.812-4.254.09-.067.127-.119.09-.144-.323-.213.037-1.181.037-1.181,1.908-1.154,1.26-2,.648-2.5s-.215-1.923-.4-2.5a23.026,23.026,0,0,1,.54-5.077,3.688,3.688,0,0,0-.012-1.244c.348-.535.706-1.1,1.019-1.617,1.079-1.786,3.382-10.3,3.382-10.3l-.015-.044c.225-.452.385-.819.483-1.063C638.469,153.81,637.173,148.232,636.958,146.945Zm-16.774-4.9.05-.025v.042Zm-10.47,91.284a.852.852,0,0,1-.342-.067Z" transform="translate(-477.146 -115.038)" fill="url(#linear-gradient)"/>
  <path id="Path_102" data-name="Path 102" d="M614.061,360.169c1.581.6,5.261.667,6.9.665h.8l1.048-2.133-1.048-1.779s-.961-.263-2.238-.494c-1.885-.34-4.463-.606-5.692.158C611.769,357.859,612,359.386,614.061,360.169Z" transform="translate(-502.423 -303.757)" fill="#fec2be"/>
  <path id="Path_103" data-name="Path 103" d="M650.894,362.245h.8l1.048-2.133-1.048-1.779s-.961-.263-2.238-.494C650.5,358.6,652.989,360.249,650.894,362.245Z" transform="translate(-532.361 -305.169)" opacity="0.1"/>
  <path id="Path_104" data-name="Path 104" d="M667.465,242.283,667,241.75s-2.383,3.769-2.631,5.192-.577,3.059-.577,3.059-.594,1.846-.979,2.665a9.3,9.3,0,0,0-.781,1.956,1.712,1.712,0,0,1-.606,1.635,3.032,3.032,0,0,0-.925,1.85s-2.692,2.631-4.125,2.7-5.511.783-5.369,1.494-1.708,1.138-2.454,1.315,4.807,2.308,1.565,5.05c0,0,2.061.427,2.275.925s2.383-.285,2.383-.285a2.254,2.254,0,0,1,2.063-1.173,3.218,3.218,0,0,0,2.417-.89A9.086,9.086,0,0,1,661.75,266c.89-.25,2.061-.356,2.1-.6s5.332-23.114,5.332-23.114Z" transform="translate(-531.575 -211.402)" fill="#4c4981"/>
  <path id="Path_105" data-name="Path 105" d="M667.465,242.283,667,241.75s-2.383,3.769-2.631,5.192-.577,3.059-.577,3.059-.594,1.846-.979,2.665a9.3,9.3,0,0,0-.781,1.956,1.712,1.712,0,0,1-.606,1.635,3.032,3.032,0,0,0-.925,1.85s-2.692,2.631-4.125,2.7-5.511.783-5.369,1.494-1.708,1.138-2.454,1.315,4.807,2.308,1.565,5.05c0,0,2.061.427,2.275.925s2.383-.285,2.383-.285a2.254,2.254,0,0,1,2.063-1.173,3.218,3.218,0,0,0,2.417-.89A9.086,9.086,0,0,1,661.75,266c.89-.25,2.061-.356,2.1-.6s5.332-23.114,5.332-23.114Z" transform="translate(-531.575 -211.402)" opacity="0.05"/>
  <path id="Path_106" data-name="Path 106" d="M763.755,710.847c4.694.881,5.548-2.719,5.548-2.719a25.472,25.472,0,0,1,.8-3.44.394.394,0,0,0,.037-.306h0a4.171,4.171,0,0,0-.677-1.508c-.294-.348-.054-1.788-.054-1.788l-5.44-1.386a8.181,8.181,0,0,0-.533,1.6c-.052.506-.854,2.8-.769,3.121a12.029,12.029,0,0,1-.4,1.813c-.054.506-.719,1.254-.769,1.521a6.529,6.529,0,0,1-.294.7,6.862,6.862,0,0,0-.346,1.085C760.578,710.661,763.755,710.847,763.755,710.847Z" transform="translate(-622.323 -581.291)" fill="#ca8496"/>
  <path id="Path_107" data-name="Path 107" d="M763.719,730.515c4.694.881,5.548-2.719,5.548-2.719a25.47,25.47,0,0,1,.8-3.44.394.394,0,0,0,.036-.306l-1.131,3.238s-.933,1.948-4.4,1.654a8.109,8.109,0,0,1-3.415-.817,6.865,6.865,0,0,0-.346,1.085C760.543,730.328,763.719,730.515,763.719,730.515Z" transform="translate(-622.287 -600.959)" opacity="0.1"/>
  <path id="Path_108" data-name="Path 108" d="M789.734,727.4s-1.173.027-1.254-.933Z" transform="translate(-644.648 -602.914)" opacity="0.1"/>
  <path id="Path_109" data-name="Path 109" d="M688.1,432.826c.577.881,1.254,4.721,1.254,4.721a3.982,3.982,0,0,1,.427,1.627,8.393,8.393,0,0,0,.427,2.115l1.494,5.521a4.963,4.963,0,0,0,.4,2.5c.562,1.035.506.721.238,2.534s.321,3.494,1.281,4.027-.427,1.786-.427,1.786,6.134,1.654,7.415.64-.667-6.026-.667-6.026a34.282,34.282,0,0,0,.108-4.828c-.212-.613-1.121-5.846-1.121-5.846a9.913,9.913,0,0,1-.346-2.773c.214-.4-.135-1.548-.135-1.548s-.906-1.279-.827-1.679a2.465,2.465,0,0,0-.267-1.115s2.719-4.161,2.481-4.934a4.6,4.6,0,0,1,.106-2.027s.344-.59.758-1.294c.506-.865,1.117-1.9,1.323-2.225a28.634,28.634,0,0,0,1.244-3.171l.25-.723s.425,7.84.8,8.64.933,7.115.933,7.115a4.469,4.469,0,0,1,.267,1.761,44.5,44.5,0,0,0,.854,5.28,16.4,16.4,0,0,1,.133,3.846,56.842,56.842,0,0,0-.054,6.694,7.622,7.622,0,0,0-1.84,2.027,8.98,8.98,0,0,0,.054,3.281s4.267,2.133,6.153,1.573,1.119-3.786,1.119-3.786a10.308,10.308,0,0,0,1.281-2.961,33.488,33.488,0,0,1,.454-3.359c1.627-2.988.986-10.242,1.252-10.828s-.55-2.775-1.221-3.754-.4-3.654,0-4.423-.4-3.461-.4-3.461.769-5.175.748-5.975a18.335,18.335,0,0,1,.667-3.173s.692-1.227.533-1.6.533-1.335.346-1.761a4.767,4.767,0,0,1,.508-2.5,16.089,16.089,0,0,0,.577-2.458c.163-.921.285-1.731.285-1.731l-4.4-3.546-10.988-2.884-4.134-1.335-4.027,6.346s-.415.663-.785,1.429a4.249,4.249,0,0,0-.548,1.852,2.559,2.559,0,0,1-.373,1.654s-2.409,7.605-2.356,9.8a49.433,49.433,0,0,1-.846,6.988S687.516,431.945,688.1,432.826Z" transform="translate(-563.423 -339.86)" fill="#4c4981"/>
  <path id="Path_110" data-name="Path 110" d="M577.665,209.76V226.4l-4.4,8.876h0l-.14.281-11.647-.769-4.477-.3-10.392-.686V213.9l10.392.294,4.648.131,11.755.333Z" transform="translate(-441.5 -169.424)" fill="#d8042c"/>
  <path id="Path_111" data-name="Path 111" d="M689.63,214.87v15.66l-1.075,2.167v0l-1.1,2.221v0l-2.221,4.484.248-16.643.05-3.357,2.113-2.338h0l.921-1.019Z" transform="translate(-553.464 -173.552)" opacity="0.1"/>
  <path id="Path_112" data-name="Path 112" d="M574.417,181.764v5.813l-.6.952-1.067,1.7-.946,1.506-2.088,3.327-.05,0-27.819-1.431v-5.734l.069-.075,3.321-3.6,1.2-1.3,2.173-2.354Z" transform="translate(-437.656 -145.848)" fill="#d8042c"/>
  <path id="Path_113" data-name="Path 113" d="M569.719,219.78v5.732l-27.869-1.433v-5.734l.069-.075Z" transform="translate(-437.656 -176.298)" opacity="0.1"/>
  <path id="Path_114" data-name="Path 114" d="M691.478,186.78v5.813l-4.7,7.484v-5.732Z" transform="translate(-554.716 -150.863)" opacity="0.15"/>
  <path id="Path_115" data-name="Path 115" d="M587,194.325l0,3.905v1.884l-.008,14.764v0l-1.1,2.221.165-15.482.025-2.371h0l.038-3.5L559.48,194.11l1.2-1.3Z" transform="translate(-451.895 -155.734)" fill="#3f3d56"/>
  <path id="Path_116" data-name="Path 116" d="M607.18,201.69l-1.867,4.052-.015,2.065-.171,20.466-4.477-.3V205.47l2.388-3.78Z" transform="translate(-485.149 -162.906)" fill="#3f3d56"/>
  <path id="Path_117" data-name="Path 117" d="M623.854,257.393a5.919,5.919,0,0,1-3.336.117,1.36,1.36,0,0,1-.577-.271,1.522,1.522,0,0,1-.361-.717,5.68,5.68,0,0,1-.319-1.717,1.943,1.943,0,0,1,.713-1.538,1.561,1.561,0,0,0,.271-.2,1.087,1.087,0,0,0,.21-.425c.327-.973.961-2,1.973-2.158a3.384,3.384,0,0,1,2.509,1.125l1.583,1.346a2.5,2.5,0,0,1,4.657-.063,8.834,8.834,0,0,1,3.521-2.415,1.08,1.08,0,0,1,.925-.037,1.06,1.06,0,0,1,.367.494,7.588,7.588,0,0,1,.686,3,.525.525,0,0,1,.61.212,1.379,1.379,0,0,1,.2.661,9.365,9.365,0,0,1,.063,1.09,1.647,1.647,0,0,1-.286,1.09,1.812,1.812,0,0,1-1.377.427.554.554,0,0,1-.142.819,1.6,1.6,0,0,1-.927.179,6.431,6.431,0,0,1-3.565-.731c-.4-.269-.742-.629-1.154-.9a5.589,5.589,0,0,0-3.392-.635C625.667,256.206,624.842,257.07,623.854,257.393Z" transform="translate(-507.968 -218.344)" fill="#3f3d56"/>
  <path id="Path_118" data-name="Path 118" d="M592.827,285.62s-10.272,1.433-11.707,7.644l2.152-.317,1.511,2.707s1.594-6.053,6.292-7.486a51.808,51.808,0,0,1,6.369-1.673s3.269.8,6.211,10.272l1.673-2.307,2.946.638s-2.15-7.405-7.963-9.476Z" transform="translate(-477.162 -246.836)" fill="#3f3d56"/>
  <path id="Path_119" data-name="Path 119" d="M771.782,190.307c.169-.069,11.77-4.859,10.172-5.813-.948-.565-2.115-2.959-2.915-4.834-.558-1.311-.936-2.365-.936-2.365s-9.311-1.654-5.978,4.054a10.553,10.553,0,0,1,1.175,2.811A6.313,6.313,0,0,1,771.782,190.307Z" transform="translate(-630.856 -159.162)" fill="#fec2be"/>
  <path id="Path_120" data-name="Path 120" d="M772.124,181.348a10.553,10.553,0,0,1,1.175,2.811,6.507,6.507,0,0,0,5.5-3.865,6.15,6.15,0,0,0,.242-.635c-.558-1.311-.936-2.365-.936-2.365S768.792,175.641,772.124,181.348Z" transform="translate(-630.856 -159.162)" opacity="0.1"/>
  <path id="Path_121" data-name="Path 121" d="M745.05,151.727a6.507,6.507,0,0,0,12.461,2.627,6.442,6.442,0,0,0,.554-2.627,6.507,6.507,0,1,0-13.014,0Z" transform="translate(-609.569 -133.434)" fill="#fec2be"/>
  <path id="Path_122" data-name="Path 122" d="M712.4,408.58a3.972,3.972,0,0,1,.944,1.8s3.209,2.19,2.988.8,1.654-6.986,1.654-6.986l-.213,7.626s10.24-.479,10.988-1.227,5.121-2.186,5.121-2.186,1.346,1.075,2.569,1.89c.163-.921.285-1.731.285-1.731l-4.4-3.546-10.988-2.884-4.134-1.335-4.027,6.346S712.769,407.815,712.4,408.58Z" transform="translate(-583.198 -339.868)" opacity="0.1"/>
  <path id="Path_123" data-name="Path 123" d="M706.554,247.637a3.6,3.6,0,0,1,1.173,1.975s3.2,2.186,2.986.8,1.654-6.988,1.654-6.988l-.214,7.626s10.242-.479,10.988-1.227,5.121-2.186,5.121-2.186,3.786,3.04,4.48,2.775-1.227-5.442-1.227-5.442l-1.973-30.3s.533-9.015-.267-9.334a1.154,1.154,0,0,1-.336-.21,3.411,3.411,0,0,1-.731-2.244c-.052-.961-1.333-.481-1.333-.481l.746.961-6.609,4.017-.058.037a7.531,7.531,0,0,0-.794-.362,2.862,2.862,0,0,0-1.873-.225,1.806,1.806,0,0,0-.7.629,7.925,7.925,0,0,0-.9,1.825l-2.4,4.054s-1.227,5.384-1.227,5.6-.373,5.121-.8,5.653a8.926,8.926,0,0,0-.694,4,21.79,21.79,0,0,1-.267,3.786c-1.759,1.44-2.667,6.346-2.667,6.346s-2.773,5.494-2.986,6.134A2.9,2.9,0,0,0,706.554,247.637Z" transform="translate(-577.686 -179.526)" fill="#fff"/>
  <path id="Path_124" data-name="Path 124" d="M785.85,208.478a13.512,13.512,0,0,0,2.521,2.308l5.405-4.565a3.411,3.411,0,0,1-.731-2.244c-.052-.961-1.333-.481-1.333-.481l.154.192a.86.86,0,0,1-.231,1.261Z" transform="translate(-642.524 -180.406)" opacity="0.1"/>
  <path id="Path_125" data-name="Path 125" d="M785.85,207.368a13.512,13.512,0,0,0,2.521,2.308l5.405-4.565a3.411,3.411,0,0,1-.731-2.244c-.052-.961-1.333-.481-1.333-.481l.154.192a.86.86,0,0,1-.231,1.261Z" transform="translate(-642.524 -179.51)" fill="#fff"/>
  <path id="Path_126" data-name="Path 126" d="M772.85,229.09c.7.836,1.688,1.783,1.642,1.308a4.119,4.119,0,0,1,1-1.99,2.952,2.952,0,0,0-1.938.052A1.827,1.827,0,0,0,772.85,229.09Z" transform="translate(-632.024 -200.513)" opacity="0.1"/>
  <path id="Path_127" data-name="Path 127" d="M772.29,227.869c.7.835,1.688,1.783,1.642,1.308s.525-1.242.931-1.711a2.875,2.875,0,0,0-1.873-.227A1.8,1.8,0,0,0,772.29,227.869Z" transform="translate(-631.571 -199.612)" fill="#fff"/>
  <circle id="Ellipse_74" data-name="Ellipse 74" cx="0.427" cy="0.427" r="0.427" transform="translate(142.042 31.84)" fill="#ff718d"/>
  <circle id="Ellipse_75" data-name="Ellipse 75" cx="0.427" cy="0.427" r="0.427" transform="translate(138.805 43.36)" fill="#ff718d"/>
  <circle id="Ellipse_76" data-name="Ellipse 76" cx="0.427" cy="0.427" r="0.427" transform="translate(135.142 55.025)" fill="#ff718d"/>
  <circle id="Ellipse_77" data-name="Ellipse 77" cx="0.427" cy="0.427" r="0.427" transform="translate(135.036 67.718)" fill="#ff718d"/>
  <circle id="Ellipse_78" data-name="Ellipse 78" cx="0.427" cy="0.427" r="0.427" transform="translate(140.157 37.28)" fill="#ff718d"/>
  <circle id="Ellipse_79" data-name="Ellipse 79" cx="0.427" cy="0.427" r="0.427" transform="translate(137.277 49.121)" fill="#ff718d"/>
  <circle id="Ellipse_80" data-name="Ellipse 80" cx="0.427" cy="0.427" r="0.427" transform="translate(134.467 60.749)" fill="#ff718d"/>
  <circle id="Ellipse_81" data-name="Ellipse 81" cx="0.427" cy="0.427" r="0.427" transform="translate(135.108 69.141)" fill="#ff718d"/>
  <path id="Path_128" data-name="Path 128" d="M787.128,217.673s-.071-.64.854.461a11.262,11.262,0,0,0,2.667,2.063s3.948,2.773,4.159,4.054,1.492,6.826.817,8.676-5.832,10.7-5.832,10.7a4.8,4.8,0,0,1,1.033,3.484,23.694,23.694,0,0,0-.535,5.05c.177.569-.214,1.99.385,2.488s1.244,1.346-.64,2.49c0,0-.356.961-.036,1.173s-4.728,2.419-6.721,1.244S777.7,249,777.625,246.9a49.85,49.85,0,0,1,1.742-10.668c.64-1.631,2.561-8,3.379-9.422S787.128,217.673,787.128,217.673Z" transform="translate(-635.877 -191.805)" opacity="0.1"/>
  <path id="Path_129" data-name="Path 129" d="M788.214,217.673s-.071-.64.854.461a11.262,11.262,0,0,0,2.667,2.063s3.946,2.773,4.161,4.054,1.492,6.826.817,8.676-5.84,10.7-5.84,10.7a4.8,4.8,0,0,1,1.033,3.484,23.7,23.7,0,0,0-.535,5.05c.177.569-.213,1.99.385,2.488s1.244,1.346-.64,2.49c0,0-.356.961-.037,1.173s-4.729,2.419-6.721,1.244S778.782,249,778.7,246.9a49.85,49.85,0,0,1,1.742-10.668c.64-1.631,2.561-8,3.379-9.422S788.214,217.673,788.214,217.673Z" transform="translate(-636.75 -191.805)" fill="#4c4981"/>
  <path id="Path_130" data-name="Path 130" d="M823.16,249.88s-3.057,3.379-2.952,5.619A7.128,7.128,0,0,1,823.16,249.88Z" transform="translate(-670.273 -217.969)" opacity="0.1"/>
  <path id="Path_131" data-name="Path 131" d="M798.771,278.73c0,.108-2.061,7.788-1.956,8.747a18.808,18.808,0,0,1-.6,3.8l-.961-.25s.746-3.946.888-5.4S798.771,278.73,798.771,278.73Z" transform="translate(-650.116 -241.271)" opacity="0.1"/>
  <path id="Path_132" data-name="Path 132" d="M809.31,392.64c.071.108,4.873,5.548,3.521,5.938S809.31,392.64,809.31,392.64Z" transform="translate(-661.473 -333.277)" opacity="0.1"/>
  <path id="Path_133" data-name="Path 133" d="M829.84,385.43c.106.071,1.923,3.911,2.133,2.884s-1.563,2.809-1.848-.037Z" transform="translate(-678.055 -327.453)" opacity="0.1"/>
  <path id="Path_134" data-name="Path 134" d="M732.639,223.754s-1.983-1.208-4.473,1.884c0,0-1.813,1.033-2.346,1.281s-1.138,6.863-1.138,6.863-1.173,2.844-.854,4.48-.923,7.255-.923,7.255-2.063,10.1-1.992,10.384,2.1-3.165,2.061-4.871,1.708-7.042,1.958-7.361,1.958-9.461,1.958-9.461a34.271,34.271,0,0,1,2.275-5.155c.888-1.279,1.992-3.7,2.454-4.125a4.656,4.656,0,0,1,1.1-.711Z" transform="translate(-590.072 -196.679)" opacity="0.1"/>
  <path id="Path_135" data-name="Path 135" d="M731.729,223.754s-2.223-1.208-4.713,1.884c0,0-1.813,1.033-2.346,1.281s-1.138,6.863-1.138,6.863-1.173,2.844-.854,4.48-.923,7.255-.923,7.255-2.063,10.1-1.992,10.384,2.1-3.165,2.063-4.871,1.706-7.042,1.956-7.361,1.956-9.459,1.956-9.459a34.271,34.271,0,0,1,2.275-5.155c.888-1.279,1.992-3.7,2.454-4.125a4.371,4.371,0,0,1,1.315-.711Z" transform="translate(-589.143 -196.679)" fill="#4c4981"/>
  <path id="Path_136" data-name="Path 136" d="M690.3,332.814s-4.23-2.773-6.276-1.406-5.384,3.307-2.1,4.713a20.526,20.526,0,0,0,7.84,1.136Z" transform="translate(-557.463 -283.514)" fill="#fec2be"/>
  <path id="Path_137" data-name="Path 137" d="M745.595,468.023c.631,1.346,1.154,8.151,1.5,10.307.506-.865,1.117-1.9,1.323-2.225a28.625,28.625,0,0,0,1.244-3.171,21.261,21.261,0,0,1-1.511-4.807c0-1.254-2.027-2.827-2.027-2.827A2.355,2.355,0,0,0,745.595,468.023Z" transform="translate(-609.82 -391.965)" opacity="0.1"/>
  <path id="Path_138" data-name="Path 138" d="M791.049,583.487s-4.694-2-6.08-.577S791.049,583.487,791.049,583.487Z" transform="translate(-641.673 -486.546)" opacity="0.1"/>
  <path id="Path_139" data-name="Path 139" d="M803.58,592.22s4.748,2.667,3.121,3.119S803.58,592.22,803.58,592.22Z" transform="translate(-656.844 -494.479)" opacity="0.1"/>
  <path id="Path_140" data-name="Path 140" d="M729.8,580.15s2.027.133,1.252.533S729.8,580.15,729.8,580.15Z" transform="translate(-597.252 -484.73)" opacity="0.1"/>
  <path id="Path_141" data-name="Path 141" d="M716.62,583.34c.027.133,5.894,2.027,4.748,2.884S716.62,583.34,716.62,583.34Z" transform="translate(-586.606 -487.307)" opacity="0.1"/>
  <path id="Path_142" data-name="Path 142" d="M795.6,662.521c-.879-.133-5.786-2.4-3.867-.769A3.809,3.809,0,0,0,795.6,662.521Z" transform="translate(-646.922 -550.166)" opacity="0.1"/>
  <path id="Path_143" data-name="Path 143" d="M790.71,677.51a1.907,1.907,0,0,1-2.054,1.44C787.03,678.737,790.71,677.51,790.71,677.51Z" transform="translate(-644.456 -563.368)" opacity="0.1"/>
  <path id="Path_144" data-name="Path 144" d="M791.911,690.244c-.294-.081-3.788-1.681-3.867-.935s3.333,2.054,3.6,1.654A1.427,1.427,0,0,0,791.911,690.244Z" transform="translate(-644.295 -572.739)" opacity="0.1"/>
  <path id="Path_145" data-name="Path 145" d="M727.4,682.329c-.427-.027-4.423-1.306-5.227-.16Z" transform="translate(-591.089 -566.747)" opacity="0.1"/>
  <path id="Path_146" data-name="Path 146" d="M724.073,687.262a1.415,1.415,0,0,0-1.386-.292C721.995,687.29,724.073,687.262,724.073,687.262Z" transform="translate(-591.393 -570.933)" opacity="0.1"/>
  <path id="Path_147" data-name="Path 147" d="M772.726,723.28a1.188,1.188,0,0,1-.906.933Z" transform="translate(-631.192 -600.337)" opacity="0.1"/>
  <path id="Path_148" data-name="Path 148" d="M670.223,700.117c.267,1.092,4,1.2,5.788.906s5.494-1.352,5.494-1.352a29.907,29.907,0,0,0,5.04-.854c1.146-.481.24-1.708.24-1.708V697a6.988,6.988,0,0,0-.167-2.5,5.278,5.278,0,0,1-.135-2.159s-5.519,1.067-5.627.56a2.871,2.871,0,0,0-1.359-1.386c-.4-.16-.694,1.333-.694,1.333s-2.5,2.134-2.667,2.907-1.923,1.173-1.923,1.173a30.361,30.361,0,0,0-3.361,1.121,1.294,1.294,0,0,0-.737,1.035A2.95,2.95,0,0,0,670.223,700.117Z" transform="translate(-549.038 -574.666)" fill="#ca8496"/>
  <path id="Path_149" data-name="Path 149" d="M670.255,723.211c.267,1.092,4,1.2,5.788.906s5.494-1.352,5.494-1.352a29.907,29.907,0,0,0,5.04-.854c1.146-.481.24-1.708.24-1.708v-.113l-5.576,1.234a15.168,15.168,0,0,1-4.505,1.173c-1.538,0-4.98.631-6.578-.325A2.948,2.948,0,0,0,670.255,723.211Z" transform="translate(-549.069 -597.76)" opacity="0.1"/>
  <path id="Path_150" data-name="Path 150" d="M710,714.4a3.635,3.635,0,0,0,1.335,2.348Z" transform="translate(-581.259 -593.165)" opacity="0.1"/>
  <path id="Path_151" data-name="Path 151" d="M746.37,149.922a1.73,1.73,0,0,0,.315.131,1.965,1.965,0,0,0,1.435-.471c.444-.269,1.058-.469,1.442-.121.5.456.138,1.431.656,1.869.327.279.846.192,1.21.413a1.715,1.715,0,0,1,.565,1.163c.092.435.275.927.7,1.054s.817-.152,1.234-.137c.087,0,.192.013.246-.05a.258.258,0,0,0,.04-.192,4.113,4.113,0,0,1,.137-1.538,1.487,1.487,0,0,1,1.083-1.015c.75-.115,1.379.542,1.819,1.154a18.889,18.889,0,0,1,1.261,2.031,1.482,1.482,0,0,1,.063.14,6.44,6.44,0,0,0,.554-2.627,6.507,6.507,0,0,0-12.761-1.8Z" transform="translate(-610.636 -133.431)" opacity="0.1"/>
  <path id="Path_152" data-name="Path 152" d="M742.584,136.5c-.44-.617-1.069-1.273-1.819-1.154a1.472,1.472,0,0,0-1.083,1.013,4.084,4.084,0,0,0-.135,1.538.266.266,0,0,1-.044.192c-.058.063-.158.054-.244.05-.417-.015-.833.256-1.234.137s-.608-.619-.7-1.054a1.664,1.664,0,0,0-.565-1.154c-.373-.227-.883-.135-1.21-.413-.517-.44-.154-1.415-.656-1.869-.385-.35-1-.15-1.442.119a1.975,1.975,0,0,1-1.435.473c-.169-.046-.321-.144-.487-.208-.79-.3-1.815.21-2.465-.333a1.894,1.894,0,0,1-.492-.852,5.426,5.426,0,0,1-.36-1.358,1.815,1.815,0,0,1,.361-1.325c.423-.5,1.138-.623,1.679-.992a4.2,4.2,0,0,0,1.073-1.265,4.755,4.755,0,0,1,1.04-1.294,1.537,1.537,0,0,1,1.565-.244,1.764,1.764,0,0,0,.513.242,1.067,1.067,0,0,0,.577-.156,10.9,10.9,0,0,1,6.032-.458,7.826,7.826,0,0,1,2.375.577,2.847,2.847,0,0,1,1.6,1.756c.165.627.038,1.308.238,1.923.135.419.411.769.577,1.19.433,1.123-.085,2.357-.3,3.542-.24,1.294-.119,2.692-.669,3.921-.108.24-.229.661-.5.5-.192-.117-.4-.8-.512-1.011A18.7,18.7,0,0,0,742.584,136.5Z" transform="translate(-595.96 -117.857)" fill="#9a5e7f"/>
  <path id="Path_153" data-name="Path 153" d="M749.849,263.505l.962,2.738s-2.277,8.461-3.344,10.242-2.631,4.054-2.631,4.054a9.766,9.766,0,0,1-5.69.711c-3.059-.6-11.984-2.206-11.984-2.206a1.184,1.184,0,0,1-1.136-.427c-.39-.569-2.419-.854-2.419-.854s-2.346-3.413.535-4.836c0,0,.354.783,1.884.25s1.99.427,1.99.427a16.136,16.136,0,0,0,3.877.319c1.386-.179,4.836-.248,5.192-.533a.456.456,0,0,1,.64.035,3.885,3.885,0,0,0,1.137-.638c.285-.319.677.354.677.354s.5-.283.356-.638.461-1.708.461-1.708a3.449,3.449,0,0,0,.106-1.6c-.179-.711.89-3.269.89-3.269a4.525,4.525,0,0,0-.142-1.281c-.179-.64,1.346-1.923,1.346-1.923s1.494-7.253,4.659-4.871A6.22,6.22,0,0,1,749.849,263.505Z" transform="translate(-591.522 -224.02)" opacity="0.1"/>
  <path id="Path_154" data-name="Path 154" d="M750.973,263.505l.961,2.738s-2.277,8.461-3.344,10.242-2.631,4.054-2.631,4.054a9.771,9.771,0,0,1-5.69.711c-3.057-.6-11.988-2.206-11.988-2.206a1.184,1.184,0,0,1-1.136-.427c-.39-.569-2.419-.854-2.419-.854s-2.346-3.413.535-4.836c0,0,.354.783,1.885.25s1.99.427,1.99.427a16.2,16.2,0,0,0,3.877.319c1.377-.179,4.836-.248,5.192-.533a.454.454,0,0,1,.638.035,3.887,3.887,0,0,0,1.138-.638c.285-.319.677.354.677.354s.5-.283.354-.638.463-1.708.463-1.708a3.449,3.449,0,0,0,.106-1.6c-.179-.711.89-3.269.89-3.269a4.527,4.527,0,0,0-.142-1.281c-.179-.64,1.346-1.923,1.346-1.923s1.494-7.253,4.659-4.871A6.229,6.229,0,0,1,750.973,263.505Z" transform="translate(-592.427 -224.02)" fill="#4c4981"/>
  <path id="Path_155" data-name="Path 155" d="M742.985,348.82c.037.248.819,1.244.535,1.421s-.748.071-.321.64.385,1.423.108,1.315a3.459,3.459,0,0,1-.746-1.884A5.6,5.6,0,0,1,742.985,348.82Z" transform="translate(-607.558 -297.883)" opacity="0.1"/>
  <path id="Path_156" data-name="Path 156" d="M799.7,345.86s.214,2.488,1.956,3.2S799.7,345.86,799.7,345.86Z" transform="translate(-653.711 -295.492)" opacity="0.1"/>
  <path id="Path_157" data-name="Path 157" d="M818.56,341.42c.106.035,2.488,1.315,1.421,2.061S818.56,341.42,818.56,341.42Z" transform="translate(-668.944 -291.906)" opacity="0.1"/>
  <path id="Path_158" data-name="Path 158" d="M819.3,332.17s3.484.711,2.307,1.315S819.3,332.17,819.3,332.17Z" transform="translate(-669.542 -284.435)" opacity="0.1"/>
  <g id="Group_33" data-name="Group 33" transform="translate(132.238 13.241)" opacity="0.1">
    <path id="Path_159" data-name="Path 159" d="M787.241,162.187a1.484,1.484,0,0,1,1.083-1.013c.75-.115,1.379.54,1.819,1.154a18.694,18.694,0,0,1,1.261,2.029c.115.213.312.9.511,1.013.271.16.385-.263.5-.5.55-1.223.429-2.625.669-3.919a22.8,22.8,0,0,0,.458-2.286,11.219,11.219,0,0,1-.458,2.856c-.24,1.294-.119,2.692-.669,3.919-.108.24-.229.661-.5.5-.192-.117-.4-.8-.511-1.013a18.687,18.687,0,0,0-1.254-2.027c-.44-.619-1.069-1.273-1.819-1.154a1.472,1.472,0,0,0-1.083,1.013,2.821,2.821,0,0,0-.142.8A3.678,3.678,0,0,1,787.241,162.187Z" transform="translate(-775.765 -157.531)"/>
    <path id="Path_160" data-name="Path 160" d="M728.557,154.069a1.905,1.905,0,0,0,.492.852c.65.542,1.675.031,2.465.333a4.841,4.841,0,0,0,.487.206,1.925,1.925,0,0,0,1.435-.471c.444-.279,1.058-.469,1.442-.121.5.456.138,1.431.656,1.869.327.281.846.192,1.209.413a1.712,1.712,0,0,1,.565,1.154c.092.425.275.927.7,1.054s.817-.152,1.234-.137c.087,0,.192.013.244-.05a.142.142,0,0,0,.031-.052c0,.142,0,.285.013.427a.269.269,0,0,1-.044.192c-.058.063-.158.054-.244.05-.417-.015-.833.256-1.234.137s-.608-.621-.7-1.054a1.71,1.71,0,0,0-.565-1.163c-.373-.237-.883-.135-1.209-.413-.517-.438-.154-1.413-.656-1.869-.385-.348-1-.148-1.442.121a1.965,1.965,0,0,1-1.435.471c-.169-.046-.321-.142-.487-.206-.79-.3-1.815.21-2.465-.333a1.9,1.9,0,0,1-.492-.854,5.385,5.385,0,0,1-.36-1.358,2.194,2.194,0,0,1,.012-.477A5.771,5.771,0,0,0,728.557,154.069Z" transform="translate(-728.189 -152.79)"/>
  </g>
  <path id="Path_161" data-name="Path 161" d="M274.06,555.859c0,12,6.967,21.729,15.56,21.729s15.56-9.73,15.56-21.729-6.967-21.729-15.56-21.729S274.06,543.858,274.06,555.859Zm1.073-.29c0-10.507,6.126-19.026,13.682-19.026s13.693,8.522,13.693,19.026-6.126,19.026-13.684,19.026S275.133,566.076,275.133,555.569Z" transform="translate(-229.148 -447.559)" fill="#35323e"/>
  <path id="Path_162" data-name="Path 162" d="M302.393,400.18l1.073,18.245h21.087a7.307,7.307,0,0,1,4.957,1.875,6.607,6.607,0,0,1,2.127,4.3v27.365h-2.692l.019-1.879H302.384V447.39H329l.219-21.956a3.566,3.566,0,0,0-.085-.821,4.335,4.335,0,0,0-1.869-2.782,3.484,3.484,0,0,0-1.788-.465H301.584l-1.346-19.049H292.2V400.18Z" transform="translate(-243.8 -339.367)" fill="#464353"/>
  <path id="Path_163" data-name="Path 163" d="M302.393,400.18l1.073,18.245h21.087a7.307,7.307,0,0,1,4.957,1.875,6.607,6.607,0,0,1,2.127,4.3v27.365h-2.692l.019-1.879H302.384V447.39H329l.219-21.956a3.566,3.566,0,0,0-.085-.821,4.335,4.335,0,0,0-1.869-2.782,3.484,3.484,0,0,0-1.788-.465H301.584l-1.346-19.049H292.2V400.18Z" transform="translate(-243.8 -339.367)" opacity="0.1"/>
  <path id="Path_164" data-name="Path 164" d="M216.146,364.359l-20.256-.669,1.073,28.169,48.56.536-1.208-11.4-26.427,4.427Z" transform="translate(-158.222 -293.755)" fill="#35323e"/>
  <rect id="Rectangle_113" data-name="Rectangle 113" width="26.829" height="2.682" transform="translate(39.545 108.031)" fill="#464353"/>
  <path id="Path_165" data-name="Path 165" d="M335.378,602.044V594.16h2.146v7.884a4.073,4.073,0,0,1,1.346,3.242c0,2-1.083,3.621-2.415,3.621s-2.415-1.621-2.415-3.621A4.094,4.094,0,0,1,335.378,602.044Z" transform="translate(-277.594 -496.046)" fill="#464353"/>
  <path id="Path_166" data-name="Path 166" d="M375.639,667.238a2.523,2.523,0,0,0-3.3-.117h0s-3.219,2.146-.269,11.268c0,0,2.148,1.346,1.073-2.952s-.536-6.976.537-6.976,2.415,2.952,2.415,2.952l1.879-.8A11.41,11.41,0,0,0,375.639,667.238Z" transform="translate(-307.307 -554.527)" fill="#464353"/>
  <path id="Path_167" data-name="Path 167" d="M480.279,667.238a2.523,2.523,0,0,0-3.3-.117h0s-3.219,2.146-.269,11.268c0,0,2.148,1.346,1.075-2.952s-.538-6.976.536-6.976,2.413,2.952,2.413,2.952l1.879-.8A11.41,11.41,0,0,0,480.279,667.238Z" transform="translate(-391.826 -554.527)" fill="#464353"/>
  <ellipse id="Ellipse_82" data-name="Ellipse 82" cx="6.036" cy="8.049" rx="6.036" ry="8.049" transform="translate(82.204 115.007)" fill="#35323e"/>
  <ellipse id="Ellipse_83" data-name="Ellipse 83" cx="6.036" cy="8.049" rx="6.036" ry="8.049" transform="translate(62.082 115.007)" fill="#35323e"/>
  <path id="Path_168" data-name="Path 168" d="M250.363,373.627a3.64,3.64,0,0,0-2.138-1.1c-1.2,0-5.94-5.623-6.255-6.419-.115-.29-.308-.192-.5.063a14.937,14.937,0,0,1-1.023-3.106c.508-.129.833-.223.833-.223s.062-1.811-.385-2h-.012c-.431-.254-.431-3.99-.431-3.99a19.11,19.11,0,0,1-.883-4.494c.127-1.192-2.521-10.267-2.521-10.267s-.694-5.455-1.958-6.007c-1.067-.467-10.057-3.032-12.834-3.821a1.911,1.911,0,0,0-1.886-.981c-1.517,0-6.065.063-7.58-1.686a3.506,3.506,0,0,1-.467-.758,6.524,6.524,0,0,0,.529-4.179,10.115,10.115,0,0,1-.631-2.25,42.37,42.37,0,0,0-.446-4.561c-.254-.938-1.323-8.622-1.323-8.622a12.677,12.677,0,0,0-3.665-2.49,6.346,6.346,0,0,1-1.836-.961c.023-.125.046-.238.063-.335a5.679,5.679,0,0,0,1.923-3.219.905.905,0,0,0,.062-.213,2.168,2.168,0,0,0,.015-.3c.019-.181.031-.363.033-.548v-.119a.732.732,0,0,1,.106-.25c.221-.317.677-.385,1.04-.542a1.566,1.566,0,0,0,.16-.085l.046-.031c.035-.021.067-.042.1-.065l.054-.044.079-.067.052-.052c.023-.023.046-.046.067-.071l.05-.06c.019-.025.038-.048.056-.073l.046-.067a.777.777,0,0,0,.046-.073c.015-.025.031-.05.044-.077l.036-.071c.012-.023.029-.058.04-.087a.666.666,0,0,0,.027-.065c.013-.033.027-.065.038-.1l.017-.052c.012-.038.025-.077.037-.117v-.012a3.005,3.005,0,0,0,.088-1h0a1.555,1.555,0,0,0-.029-.25,6.411,6.411,0,0,1-.233-1.74h0a.814.814,0,0,1,.025-.15v-.017a1.53,1.53,0,0,1,.042-.154c.079-.229.213-.438.287-.667h0a1.323,1.323,0,0,0,.037-.144v-.038c0-.04.012-.081.013-.121v-.029a1.462,1.462,0,0,0-.021-.315h0a2.063,2.063,0,0,0-.686-1.154,5.294,5.294,0,0,0-1.875-.931,21.56,21.56,0,0,0-5.365-1.24c-.8-.052-1.856-.3-2.5.192a8.71,8.71,0,0,1-2.156,1.4,2.361,2.361,0,0,0-1.538,1.4,5.387,5.387,0,0,0-.033.915,7.131,7.131,0,0,1-.517,1.777,2.692,2.692,0,0,0-.142,1.073v.017a.676.676,0,0,0,.019.125v.021a1.435,1.435,0,0,0,.083.267c0,.012.01.021.013.033s.031.063.048.094l.017.033c.025.04.05.079.079.117.117.156.275.287.385.45a1.842,1.842,0,0,1,.219.829c.031.292.06.586.09.879v.065c-.01.129-.015.26-.015.385a5.825,5.825,0,0,0,.073.9,4.408,4.408,0,0,0-1.436,1.485.717.717,0,0,0-.152.423h0c-.6.471-3.159.192-3.159.192s-2.084,1.125-2.842.686-5.307,3.061-5.307,3.061-1.2.063-1.263.563a5.866,5.866,0,0,1-2.654,1.125c-1.138,0-1.833,1.436-1.833,1.436a20.492,20.492,0,0,1-2.527,1c-.633.125-1.706.75-1.388,1s-.063.811-.633,1.25-1.454,2.692-.694,3,2.842.938,3.411,1.25a1.232,1.232,0,0,0,.708.133,1.809,1.809,0,0,0,.808-.133l.088-.11a5.684,5.684,0,0,0,2.64,1.234c1.465.146,4.615.746,5.95,1.006v.248c-.012,2.334.1,4.753.548,5.494.948,1.563,1.073,13.809,1.073,13.809s2.969.438,3.98,1.375c.961.885,5.8,2.5,6.759.4l.3.131c2.461,1.067,5.728,2.586,6.1,3.269.606,1.125,4.965,3,4.965,3s2.844.061,2.021,2.692,5.457,8.926,5.457,8.926a1.73,1.73,0,0,0,.362,1.1,1.8,1.8,0,0,0,.269.273,5.333,5.333,0,0,0,1.946.7,3.912,3.912,0,0,1,.385,1.05c-.033.073.273.344.675.7h0a14.281,14.281,0,0,0,1.086,1.983h0a1.639,1.639,0,0,0,.563.567c.615.25,7.026,4.061,8.228,4.186,1.117.117,3.386.665,5.428-.925l-.329,2.665-.11.885a19.581,19.581,0,0,0,4.55,1.311c1.327,0,5.811,2.125,5.811,2.125s2.969.625,4.928-.686C251.338,375.205,251.048,374.313,250.363,373.627ZM229.98,344.652a2.525,2.525,0,0,0,.038,1.936,2.018,2.018,0,0,1,.467,2.125c-.379,1.125,2.463,11.37,3.727,12.745a.292.292,0,0,1-.023.094c-.092.417-.358,2.115,1.413,2.217h.2c.135,1.069.337,2.752.46,4.148a5.76,5.76,0,0,0-2.479-2.331,21.88,21.88,0,0,0-2.542-1.3s-3.538-.842-4.3-1.538a23.5,23.5,0,0,0-3.017-1.944h0c-.356-.321-.756-.683-1.133-1.029.021-.146.035-.3.042-.463a7.407,7.407,0,0,0-.335-.961,1.87,1.87,0,0,0-.55-.8c-.5-.312-2.211-6.748-2.211-7.5a22.178,22.178,0,0,0-1.452-4.936,12.792,12.792,0,0,1-.821-2.192,52.828,52.828,0,0,0,11.118.385C228.58,343.338,230.286,343.963,229.98,344.652Zm-44.485-28.867v.073l-.335-.083C185.368,315.785,185.495,315.785,185.495,315.785Zm18.237-9.536v.348l-.065-.067c-.054-.06-.1-.121-.156-.183A1.725,1.725,0,0,0,203.732,306.249Zm6.182,13.151c-.063-.367-.1-.577-.1-.577l.023-.352Zm-29.229-4.436a1.836,1.836,0,0,1,.411-.088,1.02,1.02,0,0,1,.352.1c.148.069.3.135.458.192l-1.1-.192a.613.613,0,0,0-.117-.006Z" transform="translate(-146.236 -251.122)" fill="url(#linear-gradient-2)"/>
  <path id="Path_169" data-name="Path 169" d="M414.17,642.636a24,24,0,0,1,1.208,2.813,24.56,24.56,0,0,0,2.727,2.417l3.038-2.169-.31-1.488s-3.409-3.077-3.654-3.429S414.17,642.636,414.17,642.636Z" transform="translate(-342.316 -533.671)" fill="#a1616a"/>
  <path id="Path_170" data-name="Path 170" d="M439.332,661.887c-2.115,2.046-4.588,1.425-5.769,1.3s-7.471-3.907-8.076-4.155a1.6,1.6,0,0,1-.552-.562h0a14.5,14.5,0,0,1-1.065-1.969c.042.011,2.106.6,2.627,0,0,0,.867-1.065,1.054-1.065s.013-1.867.013-1.867a24.706,24.706,0,0,1,2.963,1.923c.744.675,4.215,1.519,4.215,1.519a21.415,21.415,0,0,1,2.5,1.286C438.894,659.308,440.532,660.723,439.332,661.887Z" transform="translate(-350.15 -544.032)" fill="#67647e"/>
  <path id="Path_171" data-name="Path 171" d="M443.807,681.772c-2.115,2.046-4.588,1.425-5.769,1.3s-7.471-3.907-8.076-4.155a1.6,1.6,0,0,1-.552-.562c.735-.438,5.527,2.609,6.869,3.167s4.734.248,6.657-.558c.961-.4-.013-1.638-1.225-2.777C443.369,679.194,445.007,680.609,443.807,681.772Z" transform="translate(-354.625 -563.917)" opacity="0.1"/>
  <path id="Path_172" data-name="Path 172" d="M503,659.491s.885,6.634.66,7.5,5.542-2.977,5.542-2.977-2.017-4.157-1.427-5.113S503,659.491,503,659.491Z" transform="translate(-414.064 -548.085)" fill="#a1616a"/>
  <path id="Path_173" data-name="Path 173" d="M341.823,530.61a22.281,22.281,0,0,1-5.577.929c-1.731-.108-1.479-1.784-1.386-2.2.013-.06.023-.094.023-.094-1.24-1.363-4.038-11.538-3.654-12.649a2.006,2.006,0,0,0-.458-2.115,2.537,2.537,0,0,1-.038-1.923c.31-.683-1.363-1.3-1.363-1.3a50.908,50.908,0,0,1-10.913-.385,12.638,12.638,0,0,0,.806,2.177,22.154,22.154,0,0,1,1.427,4.9c0,.744,1.673,7.13,2.169,7.44a1.858,1.858,0,0,1,.54.788,7.534,7.534,0,0,1,.329.948c-.192,4.154-4.9,2.542-5.577,1.984a1.7,1.7,0,0,1-.619-1.365s-6.153-6.248-5.348-8.849-1.984-2.665-1.984-2.665-4.277-1.865-4.873-2.981c-.367-.687-3.577-2.194-5.992-3.254-1.513-.663-2.715-1.154-2.715-1.154l1.006-3.6.8-2.844,1.492-.561,4.765-1.786,8.567-1.179.785.1,8.321,1.077s12.153,3.471,13.393,4.019,1.923,5.961,1.923,5.961,2.6,8.992,2.481,10.174a19.219,19.219,0,0,0,.867,4.459s0,3.709.421,3.961h.013C341.882,528.812,341.823,530.61,341.823,530.61Z" transform="translate(-247.37 -419.08)" fill="#4c4981"/>
  <path id="Path_174" data-name="Path 174" d="M397.619,542.709a50.906,50.906,0,0,1-10.913-.385c-.373-1.171-5.577-4.4-5.577-4.4C385.4,536.879,397.619,542.709,397.619,542.709Z" transform="translate(-315.629 -450.525)" opacity="0.1"/>
  <path id="Path_175" data-name="Path 175" d="M413.01,641.888c-.192,4.154-4.9,2.542-5.577,1.984a1.743,1.743,0,0,1-.263-.271c1.648.608,4.567,1.075,5.517-2.661A7.524,7.524,0,0,1,413.01,641.888Z" transform="translate(-336.662 -533.83)" fill="#444053"/>
  <path id="Path_176" data-name="Path 176" d="M502.156,655.562a22.279,22.279,0,0,1-5.577.929c-1.731-.108-1.479-1.784-1.386-2.2a32.33,32.33,0,0,0,6.582-.721h.013C502.215,653.764,502.156,655.562,502.156,655.562Z" transform="translate(-407.703 -544.032)" fill="#444053"/>
  <path id="Path_177" data-name="Path 177" d="M413.01,641.888c-.192,4.154-4.9,2.542-5.577,1.984a1.743,1.743,0,0,1-.263-.271c1.648.608,4.567,1.075,5.517-2.661A7.524,7.524,0,0,1,413.01,641.888Z" transform="translate(-336.662 -533.83)" opacity="0.1"/>
  <path id="Path_178" data-name="Path 178" d="M502.156,655.562a22.279,22.279,0,0,1-5.577.929c-1.731-.108-1.479-1.784-1.386-2.2a32.33,32.33,0,0,0,6.582-.721h.013C502.215,653.764,502.156,655.562,502.156,655.562Z" transform="translate(-407.703 -544.032)" opacity="0.1"/>
  <path id="Path_179" data-name="Path 179" d="M514.775,689.77c-1.923,1.3-4.836.683-4.836.683s-4.4-2.115-5.7-2.115a19.06,19.06,0,0,1-4.465-1.3l.106-.877.515-4.2s4.83-.123,5.023-.558c0,0,.869-2.136,1.179-1.346s4.961,6.371,6.138,6.371a3.561,3.561,0,0,1,2.1,1.092C515.5,688.2,515.775,689.089,514.775,689.77Z" transform="translate(-411.455 -565.281)" fill="#67647e"/>
  <path id="Path_180" data-name="Path 180" d="M477.992,540.75s-4.038,2.542-2.913,3.1S477.992,540.75,477.992,540.75Z" transform="translate(-391.352 -452.906)" opacity="0.1"/>
  <path id="Path_181" data-name="Path 181" d="M489.424,566.22s-3.473,3.3-2.171,3.384S489.424,566.22,489.424,566.22Z" transform="translate(-401.11 -473.479)" opacity="0.1"/>
  <path id="Path_182" data-name="Path 182" d="M513.887,620.72s-1.754,3.323-1.1,3.888S513.887,620.72,513.887,620.72Z" transform="translate(-421.851 -517.499)" opacity="0.1"/>
  <path id="Path_183" data-name="Path 183" d="M398.762,628.99c.619.621-5.892-2.046-4.4-2.171S398.762,628.99,398.762,628.99Z" transform="translate(-326.134 -522.421)" opacity="0.1"/>
  <path id="Path_184" data-name="Path 184" d="M305.658,360.926l-.206-.031c-.769-.119-3.567-.558-6.075-1.1-.612-.133-1.2-.271-1.748-.413-1.923-.5-3.209-1.048-2.388-1.492A4.393,4.393,0,0,0,297.2,355.3q.044-.137.081-.265a6.84,6.84,0,0,0,.25-1.427s7.007-2.481,5.642,0a2.351,2.351,0,0,0,.413,2.906,5.448,5.448,0,0,0,1.51,1.125Z" transform="translate(-246.052 -300.861)" fill="#a1616a"/>
  <path id="Path_185" data-name="Path 185" d="M297.357,386.29a4.926,4.926,0,0,0,5.065.31c2.565-1.488,5.909,13.147,5.909,13.147L311.8,408.3s2.25,1.861-.55,2.667-9.009-.806-10.586,1.55a6.881,6.881,0,0,1-4.867,2.729c-.313,0-1.486-8.867-1.486-8.867L294,393.541Z" transform="translate(-245.254 -328.148)" opacity="0.1"/>
  <path id="Path_186" data-name="Path 186" d="M310.687,408.373c-2.8.806-9.011-.806-10.576,1.55a6.069,6.069,0,0,1-2.669,2.148,7.011,7.011,0,0,1-2.2.577c-.04,0-.1-.163-.167-.444-.436-1.794-1.319-8.422-1.319-8.422l-.306-12.836,2.946-6.382.4-.873a5.3,5.3,0,0,0,1.277.621,4.5,4.5,0,0,0,3.79-.31c.752-.436,1.571.513,2.354,2.077,1.883,3.761,3.554,11.068,3.554,11.068l3.473,8.555a3.025,3.025,0,0,1,.237.227C311.964,406.452,312.889,407.738,310.687,408.373Z" transform="translate(-244.809 -326.048)" fill="#f3f5f9"/>
  <path id="Path_187" data-name="Path 187" d="M297.309,394.249a16.153,16.153,0,0,1,.083,3.269,38.022,38.022,0,0,1-.577,4.615,1.539,1.539,0,0,1-.075.281c-1.513-.663-2.715-1.154-2.715-1.154l1-3.605c-.436-1.794-1.319-8.422-1.319-8.422L293.4,376.4l2.946-6.382c-1.923-.5-3.209-1.048-2.388-1.492A4.554,4.554,0,0,0,296,365.67a10.406,10.406,0,0,0,1.761,1.9l.038.033.223,2.163.069.665.142,1.381s-.683,16.307-1.179,17.237-.248,2.729.192,4.836C297.269,394,297.29,394.122,297.309,394.249Z" transform="translate(-244.769 -311.493)" opacity="0.1"/>
  <path id="Path_188" data-name="Path 188" d="M242.819,377.219c.435,2.115.062,5.577-.435,8.247s-5.769.931-6.757,0-3.907-1.363-3.907-1.363-.123-12.155-1.054-13.7c-.442-.735-.548-3.134-.536-5.452,0-2.083.112-4.1.15-4.782.01-.158.013-.244.013-.244s-4.038-6.821-3.967-7.317,1.24-.558,1.24-.558,4.463-3.473,5.207-3.038,2.79-.683,2.79-.683,2.594.294,3.129-.206a.273.273,0,0,0,.1-.229c-.062-.794,2.642-2.488,2.727-2.54-2.279,2.05,1.406,5.207,1.823,5.553l.038.033.435,4.209s-.683,16.306-1.179,17.237S242.385,375.111,242.819,377.219Z" transform="translate(-190.592 -295.081)" fill="#d8042c"/>
  <circle id="Ellipse_84" data-name="Ellipse 84" cx="0.31" cy="0.31" r="0.31" transform="translate(51.677 64.115)" fill="#444053"/>
  <path id="Path_189" data-name="Path 189" d="M294.646,352.161l-1.884,1.823L290,349.369a.279.279,0,0,0,.1-.229c-.062-.794,2.642-2.488,2.725-2.54C290.542,348.658,294.23,351.815,294.646,352.161Z" transform="translate(-242.023 -296.09)" opacity="0.1"/>
  <circle id="Ellipse_85" data-name="Ellipse 85" cx="0.31" cy="0.31" r="0.31" transform="translate(51.058 74.035)" opacity="0.1"/>
  <circle id="Ellipse_86" data-name="Ellipse 86" cx="0.31" cy="0.31" r="0.31" transform="translate(51.058 73.91)" fill="#444053"/>
  <path id="Path_190" data-name="Path 190" d="M295.278,350.871l-1.884,1.823-2.763-4.615a.273.273,0,0,0,.1-.229c-.062-.794,2.642-2.488,2.727-2.54C291.176,347.366,294.86,350.525,295.278,350.871Z" transform="translate(-242.532 -295.048)" fill="#d8042c"/>
  <path id="Path_191" data-name="Path 191" d="M347.511,393.688c-1.55.683-11.72-1.115-13.207-1.55s-3.654-3.782-2.606-6.2a5.694,5.694,0,0,0-.373-4.782s-2.233-4.773-2.729-5.7a42.432,42.432,0,0,1-1.675-4.092.384.384,0,0,1,.088-.285,10.861,10.861,0,0,1,1.958-1.7c.438.158.492-1.1.475-2.017-.01-.515-.04-.927-.04-.927s.206.21.542.494c.123.1.263.217.417.335a6.463,6.463,0,0,0,1.958,1.077,12.432,12.432,0,0,1,3.6,2.471l-.621,9.524s1.427,8.955,2.915,10.691,5.961,1.673,7.44,1.673A1.869,1.869,0,0,1,347.511,393.688Z" transform="translate(-271.844 -312.107)" opacity="0.1"/>
  <path id="Path_192" data-name="Path 192" d="M348.154,391.782c-1.55.681-11.718-1.117-13.207-1.552s-3.654-3.782-2.6-6.2a5.667,5.667,0,0,0-.373-4.775s-2.233-4.775-2.729-5.705-1.529-3.638-1.673-4.092a.358.358,0,0,1,.088-.283,10.748,10.748,0,0,1,1.958-1.7c.438.16.492-1.094.475-2.015-.01-.517-.04-.929-.04-.929s.206.21.54.5c.123.1.263.217.419.335a6.407,6.407,0,0,0,1.954,1.067,12.464,12.464,0,0,1,3.6,2.473l-.619,9.522s1.427,8.955,2.913,10.692,5.961,1.675,7.442,1.675A1.861,1.861,0,0,1,348.154,391.782Z" transform="translate(-272.365 -310.572)" fill="#d8042c"/>
  <path id="Path_193" data-name="Path 193" d="M332.189,365.82s-.06.329-.158.831c-.333,1.7-1.129,5.421-1.7,5.277a5.2,5.2,0,0,1-1.648-1.461,10.813,10.813,0,0,1,1.958-1.7c.438.16.492-1.094.475-2.015l.5-.433Z" transform="translate(-273.265 -311.614)" opacity="0.1"/>
  <path id="Path_194" data-name="Path 194" d="M331.547,364.53s-.058.329-.156.831c-.335,1.7-1.131,5.421-1.7,5.277a5.2,5.2,0,0,1-1.648-1.461,10.748,10.748,0,0,1,1.958-1.7c.438.16.492-1.094.475-2.015l.5-.433Z" transform="translate(-272.748 -310.572)" fill="#d8042c"/>
  <path id="Path_195" data-name="Path 195" d="M255.15,329.83v6.292l-1.663,3.356h0l-.052.106-4.4-.29-1.692-.113-3.929-.26V331.4l3.929.112,1.758.05,4.442.125Z" transform="translate(-196.604 -266.406)" fill="#f86d70"/>
  <path id="Path_196" data-name="Path 196" d="M297.473,331.76v5.921l-.406.819h0l-.417.84h0l-.84,1.7.094-6.292.019-1.269.8-.883v0l.348-.385Z" transform="translate(-238.928 -267.965)" opacity="0.1"/>
  <path id="Path_197" data-name="Path 197" d="M253.929,319.252v2.2l-.225.36-.4.644-.358.569-.788,1.258-.019,0-10.515-.54v-2.167l.025-.029,1.256-1.359.456-.49.821-.89Z" transform="translate(-195.158 -257.497)" fill="#f86d70"/>
  <path id="Path_198" data-name="Path 198" d="M252.154,333.621v2.167l-10.534-.542v-2.167l.025-.029Z" transform="translate(-195.158 -269.007)" opacity="0.1"/>
  <path id="Path_199" data-name="Path 199" d="M298.175,321.15v2.2l-1.775,2.831v-2.167Z" transform="translate(-239.404 -259.395)" opacity="0.15"/>
  <path id="Path_200" data-name="Path 200" d="M258.681,324l0,1.477v.713l0,5.58h0l-.417.84.062-5.852.01-.9v0l.015-1.321-10.067-.621.456-.49Z" transform="translate(-200.537 -261.236)" fill="#3f3d56"/>
  <path id="Path_201" data-name="Path 201" d="M266.309,326.78l-.706,1.533-.006.781-.065,7.736-1.692-.113v-8.505l.9-1.431Z" transform="translate(-213.105 -263.942)" fill="#3f3d56"/>
  <path id="Path_202" data-name="Path 202" d="M297.789,400.085a2.219,2.219,0,0,1-1.261.044.5.5,0,0,1-.221-.1.56.56,0,0,1-.137-.271,2.1,2.1,0,0,1-.121-.65.715.715,0,0,1,.269-.577.672.672,0,0,0,.1-.077.414.414,0,0,0,.081-.161c.123-.367.362-.756.744-.815a1.217,1.217,0,0,1,.95.425l.6.51a.944.944,0,0,1,1.759-.025,3.335,3.335,0,0,1,1.331-.911.416.416,0,0,1,.35-.015.427.427,0,0,1,.14.192,2.885,2.885,0,0,1,.258,1.135.192.192,0,0,1,.231.081.51.51,0,0,1,.077.25,3.267,3.267,0,0,1,.025.412.613.613,0,0,1-.11.411.679.679,0,0,1-.519.161.21.21,0,0,1-.054.31.6.6,0,0,1-.35.069,2.393,2.393,0,0,1-1.346-.277c-.154-.1-.281-.238-.435-.338a2.1,2.1,0,0,0-1.283-.24C298.474,399.633,298.155,399.96,297.789,400.085Z" transform="translate(-246.908 -337.143)" fill="#3f3d56"/>
  <path id="Path_203" data-name="Path 203" d="M286.073,410.7s-3.882.54-4.423,2.884l.811-.119.577,1.023s.6-2.288,2.377-2.831a19.015,19.015,0,0,1,2.408-.631s1.235.3,2.348,3.882l.633-.873,1.113.24s-.813-2.8-3.009-3.581Z" transform="translate(-235.278 -347.864)" fill="#3f3d56"/>
  <path id="Path_204" data-name="Path 204" d="M324.568,443.743s-3.1-.619-3.969-1.984-6.773-2.542-6.053-1.115,6.053,6.092,6.053,6.092l2.307,3.309,3.077-.783,1.3-2.527Z" transform="translate(-261.799 -371.526)" fill="#a1616a"/>
  <path id="Path_205" data-name="Path 205" d="M328.77,477.89s3,1.115,3.461,2.6S328.77,477.89,328.77,477.89Z" transform="translate(-273.337 -402.134)" opacity="0.1"/>
  <path id="Path_206" data-name="Path 206" d="M319.172,486.9s-.273,1.55,3.492,1.425Z" transform="translate(-265.581 -409.411)" opacity="0.1"/>
  <path id="Path_207" data-name="Path 207" d="M187.663,383.193l-1.363-.123a5.736,5.736,0,0,1-2.606,1.115c-1.117,0-1.8,1.427-1.8,1.427a20.146,20.146,0,0,1-2.481.992c-.621.125-1.673.744-1.363.992s-.062.806-.619,1.24-1.427,2.665-.683,2.975,2.79.931,3.348,1.24a1.54,1.54,0,0,0,1.24,0s3.284-4.279,4.959-3.471a10.708,10.708,0,0,0,3.969.806l1.8-3.782Z" transform="translate(-150.318 -325.547)" opacity="0.1"/>
  <path id="Path_208" data-name="Path 208" d="M363.083,406.98a1.658,1.658,0,0,1-1.154.8,8.762,8.762,0,0,1-3.609-.333s6.246-1.984.231-6.809h1.611l.538-.2-.246-1.285L360.1,387.57l1.3-.31s1.048,7.626,1.3,8.557a41.694,41.694,0,0,1,.436,4.527,10.444,10.444,0,0,0,.621,2.232A6.537,6.537,0,0,1,363.083,406.98Z" transform="translate(-297.205 -328.932)" fill="#d8042c"/>
  <path id="Path_209" data-name="Path 209" d="M361.769,462.332a1.659,1.659,0,0,1-1.154.8A8.768,8.768,0,0,1,357,462.8s6.246-1.984.231-6.809h1.613l.536-.2C360.269,457.353,361.655,460.136,361.769,462.332Z" transform="translate(-296.139 -384.284)" opacity="0.1"/>
  <path id="Path_210" data-name="Path 210" d="M363.083,462.332a1.658,1.658,0,0,1-1.154.8,8.762,8.762,0,0,1-3.609-.333s6.246-1.984.231-6.809h1.611l.538-.2C361.579,457.353,362.97,460.136,363.083,462.332Z" transform="translate(-297.205 -384.284)" fill="none"/>
  <path id="Path_211" data-name="Path 211" d="M363.083,462.332a1.658,1.658,0,0,1-1.154.8,8.762,8.762,0,0,1-3.609-.333s6.246-1.984.231-6.809h1.611l.538-.2C361.579,457.353,362.97,460.136,363.083,462.332Z" transform="translate(-297.205 -384.284)" fill="#d8042c"/>
  <path id="Path_212" data-name="Path 212" d="M312.9,356.482a5.646,5.646,0,0,1-6.386-1.221q.044-.137.081-.265a6.84,6.84,0,0,0,.25-1.427s7.007-2.481,5.642,0A2.36,2.36,0,0,0,312.9,356.482Z" transform="translate(-255.358 -300.829)" opacity="0.1"/>
  <path id="Path_213" data-name="Path 213" d="M309.516,321.662v.054a4.964,4.964,0,0,1-.031.544c-.019.179-.044.34-.077.508a5.646,5.646,0,0,1-10.872.729c-.037-.11-.071-.219-.1-.331a5.622,5.622,0,0,1-.2-1.5,3.168,3.168,0,0,1,.015-.385,5.642,5.642,0,0,1,11.27.385Z" transform="translate(-248.67 -271.395)" fill="#a1616a"/>
  <path id="Path_214" data-name="Path 214" d="M309.564,321.692a2.528,2.528,0,0,0-.031.544,2.139,2.139,0,0,1-.015.294.847.847,0,0,1-.062.213,1.056,1.056,0,0,1-1.463.536,1.588,1.588,0,0,1-.44-.577c-.521-.961-1.246-2.083-2.386-2.1a5.3,5.3,0,0,0-1.415.315,1.483,1.483,0,0,1-1.379-.192c-.269-.246-.4-.667-.758-.754s-.7.246-.861.577a1.719,1.719,0,0,1-.633.875c-.15.073-.325.094-.471.173-.675.371-.365,1.665-1.065,1.875l-.067.015-.035-.346-.192-1.892a5.642,5.642,0,0,1,11.27.385Z" transform="translate(-248.719 -271.37)" opacity="0.1"/>
  <path id="Path_215" data-name="Path 215" d="M295.59,294.414a2.317,2.317,0,0,0-1.5,1.39,5.489,5.489,0,0,0-.031.908,7.258,7.258,0,0,1-.508,1.763,1.965,1.965,0,0,0,.119,1.767c.117.156.271.285.375.448a1.827,1.827,0,0,1,.217.821l.306,3.052c.788-.146.436-1.51,1.133-1.89.146-.079.321-.1.471-.175.335-.167.465-.55.633-.875s.494-.658.861-.577.488.508.758.752a1.533,1.533,0,0,0,1.381.192,5.757,5.757,0,0,1,1.413-.317c1.14.019,1.865,1.135,2.386,2.1a1.611,1.611,0,0,0,.44.577,1.064,1.064,0,0,0,1.525-.752c.052-.363-.062-.769.15-1.079s.663-.385,1.019-.538a2.289,2.289,0,0,0,1.036-2.5,4.269,4.269,0,0,1-.158-2.046c.077-.227.21-.435.281-.661a1.8,1.8,0,0,0-.638-1.8,5.277,5.277,0,0,0-1.838-.925,21.19,21.19,0,0,0-5.267-1.231c-.788-.05-1.821-.3-2.446.192A8.1,8.1,0,0,1,295.59,294.414Z" transform="translate(-244.769 -252.569)" fill="#464353"/>
  <circle id="Ellipse_87" data-name="Ellipse 87" cx="0.31" cy="0.31" r="0.31" transform="translate(51.987 59.215)" opacity="0.1"/>
  <circle id="Ellipse_88" data-name="Ellipse 88" cx="0.31" cy="0.31" r="0.31" transform="translate(51.987 59.092)" fill="#444053"/>
  <circle id="Ellipse_89" data-name="Ellipse 89" cx="0.31" cy="0.31" r="0.31" transform="translate(50.004 78.685)" opacity="0.1"/>
  <circle id="Ellipse_90" data-name="Ellipse 90" cx="0.31" cy="0.31" r="0.31" transform="translate(50.004 78.562)" fill="#444053"/>
  <circle id="Ellipse_91" data-name="Ellipse 91" cx="0.31" cy="0.31" r="0.31" transform="translate(51.058 83.832)" opacity="0.1"/>
  <circle id="Ellipse_92" data-name="Ellipse 92" cx="0.31" cy="0.31" r="0.31" transform="translate(51.058 83.707)" fill="#444053"/>
  <path id="Path_216" data-name="Path 216" d="M361.776,419s.683,4.63,0,5.438S361.776,419,361.776,419Z" transform="translate(-299.751 -354.568)" opacity="0.1"/>
  <path id="Path_217" data-name="Path 217" d="M255.176,463.68a7,7,0,0,0,0,5.5c1.3,2.69,2.115,3.782,1.673,5.5S255.176,463.68,255.176,463.68Z" transform="translate(-213.427 -390.656)" opacity="0.1"/>
  <path id="Path_218" data-name="Path 218" d="M514.775,716.151c-1.923,1.3-4.836.683-4.836.683s-4.4-2.115-5.7-2.115a19.06,19.06,0,0,1-4.465-1.3l.106-.877a26.773,26.773,0,0,1,4.544,1.125c.435.373,5.769,2.171,5.769,2.171s3.63-.454,4.642-1.946C515.5,714.584,515.775,715.471,514.775,716.151Z" transform="translate(-411.455 -591.662)" opacity="0.1"/>
  <g id="Group_34" data-name="Group 34" transform="translate(48.625 43.445)" opacity="0.1">
    <path id="Path_219" data-name="Path 219" d="M296.82,310.064v.029A.152.152,0,0,0,296.82,310.064Z" transform="translate(-296.156 -309.86)"/>
    <path id="Path_220" data-name="Path 220" d="M306.712,328.276c-.356.165-.8.223-1.019.538s-.1.715-.15,1.079a1.062,1.062,0,0,1-1.525.752,1.6,1.6,0,0,1-.44-.577c-.521-.961-1.246-2.083-2.386-2.1a5.585,5.585,0,0,0-1.413.317,1.483,1.483,0,0,1-1.381-.192c-.269-.244-.4-.665-.758-.752s-.694.244-.862.577-.3.708-.633.875c-.15.073-.325.1-.471.175-.694.385-.344,1.744-1.133,1.89l-.306-3.052a1.827,1.827,0,0,0-.217-.821c-.1-.163-.258-.292-.375-.448a1.378,1.378,0,0,1-.254-.656,1.59,1.59,0,0,0,.254,1.154c.117.156.271.285.375.448a1.827,1.827,0,0,1,.217.821l.306,3.052c.788-.146.438-1.51,1.133-1.89.146-.079.321-.1.471-.175.335-.167.467-.55.633-.875s.494-.658.862-.577.488.508.758.752a1.533,1.533,0,0,0,1.381.192,5.757,5.757,0,0,1,1.413-.317c1.14.019,1.865,1.135,2.386,2.1a1.611,1.611,0,0,0,.44.577,1.064,1.064,0,0,0,1.525-.752c.052-.363-.062-.769.15-1.079s.663-.385,1.019-.538a2.2,2.2,0,0,0,1.063-2.25A2.017,2.017,0,0,1,306.712,328.276Z" transform="translate(-293.369 -322.799)"/>
    <path id="Path_221" data-name="Path 221" d="M367.265,310.672c-.071.227-.2.435-.281.661a1.923,1.923,0,0,0-.063.825,1.556,1.556,0,0,1,.071-.319c.077-.227.21-.435.281-.661a1.4,1.4,0,0,0,.037-.648A1.459,1.459,0,0,1,367.265,310.672Z" transform="translate(-352.762 -310.401)"/>
  </g>
  <path id="Path_222" data-name="Path 222" d="M251.483,428.591c-1.427-.312-4.775-1.3-4.775-1.3l-.6-.119c0-2.083.112-4.1.15-4.782h.013a22.973,22.973,0,0,1,3.534,1.425c.681.5,2.79.373,2.79.373a9.6,9.6,0,0,1,6.015,3.225C261.342,430.445,252.909,428.9,251.483,428.591Z" transform="translate(-206.572 -357.306)" opacity="0.1"/>
  <path id="Path_223" data-name="Path 223" d="M199.512,418.651a.827.827,0,0,0-.192,1.39,6.053,6.053,0,0,0,2.909,1.481c1.758.177,5.984,1.025,6.405,1.109l.065.015c.348.1,3.4,1,4.742,1.29,1.427.313,9.859,1.863,7.13-1.175a9.642,9.642,0,0,0-5.961-3.221,1.042,1.042,0,0,0-.11,0,5.972,5.972,0,0,1-2.742-.385,5.887,5.887,0,0,0-1.025-.51,19.617,19.617,0,0,0-4.192-1.21l-2.909-.49a.842.842,0,0,0-.49.062Z" transform="translate(-168.54 -352.9)" fill="#a1616a"/>
  <path id="Path_224" data-name="Path 224" d="M186.373,383.193l-1.363-.123a5.736,5.736,0,0,1-2.606,1.115c-1.117,0-1.8,1.427-1.8,1.427a20.146,20.146,0,0,1-2.481.992c-.621.125-1.673.744-1.363.992s-.062.806-.619,1.24-1.427,2.665-.683,2.975,2.79.931,3.348,1.24a1.54,1.54,0,0,0,1.24,0s3.284-4.279,4.959-3.471a10.737,10.737,0,0,0,3.977.806l1.8-3.782Z" transform="translate(-149.276 -325.547)" fill="#d8042c"/>
  <path id="Path_225" data-name="Path 225" d="M238.763,502v16.1h25.756v2.692H239.032v11.538H236.34V502Z" transform="translate(-198.681 -421.608)" fill="#464353"/>
  <path id="Path_226" data-name="Path 226" d="M187.55,400.18h10.192l1.073,18.245h21.091a7.307,7.307,0,0,1,4.957,1.875,6.607,6.607,0,0,1,2.127,4.3v27.365h-2.683l.265-26.517a3.564,3.564,0,0,0-.085-.821,4.335,4.335,0,0,0-1.869-2.783,3.484,3.484,0,0,0-1.788-.465H196.942L195.6,402.326H187.55Z" transform="translate(-159.273 -339.367)" fill="#464353"/>
  <path id="Path_227" data-name="Path 227" d="M169.42,555.859c0,12,6.967,21.729,15.56,21.729s15.56-9.73,15.56-21.729-6.967-21.729-15.56-21.729S169.42,543.858,169.42,555.859Zm1.073-.29c0-10.507,6.126-19.026,13.682-19.026s13.684,8.519,13.684,19.026-6.126,19.026-13.684,19.026S170.493,566.076,170.493,555.569Z" transform="translate(-144.629 -447.559)" fill="#35323e"/>
  <ellipse id="Ellipse_93" data-name="Ellipse 93" cx="2.415" cy="3.623" rx="2.415" ry="3.623" transform="translate(36.326 105.348)" fill="#35323e"/>
  <ellipse id="Ellipse_94" data-name="Ellipse 94" cx="0.536" cy="1.073" rx="0.536" ry="1.073" transform="translate(37.668 108.033)" fill="#464353"/>
  <path id="Path_228" data-name="Path 228" d="M389.86,622.228v2.95a2.7,2.7,0,0,1,2.584-.031,4.873,4.873,0,0,1,2.679,3.154c.65,2.25,1.923,6.677,3.054,10.838,1.609,5.892,4.561,4.546,4.561,4.546l20.523,1.477,8.721-4.423v-2.692h-22s-5.1,1.879-7.244,2.692-1.346-.806-4.175-10.928S389.86,622.228,389.86,622.228Z" transform="translate(-322.68 -518.488)" fill="#464353"/>
  <path id="Path_229" data-name="Path 229" d="M416.33,637.579l20.523,1.475,8.721-4.427-21.464-.267Z" transform="translate(-336.272 -512.376)" opacity="0.1"/>
  <ellipse id="Ellipse_95" data-name="Ellipse 95" cx="11.436" cy="2.2" rx="11.436" ry="2.2" transform="translate(185.681 119.928)" fill="#d8042c"/>
  <ellipse id="Ellipse_96" data-name="Ellipse 96" cx="1.331" cy="1.742" rx="1.331" ry="1.742" transform="translate(195.595 119.451)" fill="#3f3d56"/>
  <ellipse id="Ellipse_97" data-name="Ellipse 97" cx="1.331" cy="1.742" rx="1.331" ry="1.742" transform="translate(195.595 117.32)" fill="#3f3d56"/>
  <ellipse id="Ellipse_98" data-name="Ellipse 98" cx="1.331" cy="1.742" rx="1.331" ry="1.742" transform="translate(195.595 115.192)" fill="#3f3d56"/>
  <ellipse id="Ellipse_99" data-name="Ellipse 99" cx="1.331" cy="1.742" rx="1.331" ry="1.742" transform="translate(195.595 113.061)" fill="#3f3d56"/>
  <ellipse id="Ellipse_100" data-name="Ellipse 100" cx="1.331" cy="1.742" rx="1.331" ry="1.742" transform="translate(195.595 110.93)" fill="#3f3d56"/>
  <ellipse id="Ellipse_101" data-name="Ellipse 101" cx="1.331" cy="1.742" rx="1.331" ry="1.742" transform="translate(195.595 108.8)" fill="#3f3d56"/>
  <ellipse id="Ellipse_102" data-name="Ellipse 102" cx="1.331" cy="1.742" rx="1.331" ry="1.742" transform="translate(195.595 106.669)" fill="#3f3d56"/>
  <path id="Path_230" data-name="Path 230" d="M1042.645,528.534a6.589,6.589,0,0,0,.5-.731l-3.5-.577,3.784.027a6.393,6.393,0,0,0,.121-5.052l-5.075,2.633,4.68-3.442a6.378,6.378,0,1,0-10.534,7.138,6.46,6.46,0,0,0-.727,1.163l4.542,2.359-4.848-1.621a6.382,6.382,0,0,0,1.027,5.988,6.376,6.376,0,1,0,10.026,0,6.384,6.384,0,0,0,0-7.884Z" transform="translate(-840.734 -434.698)" fill="#d8042c"/>
  <path id="Path_231" data-name="Path 231" d="M1031.28,592.016a6.344,6.344,0,0,0,1.363,3.944,6.376,6.376,0,1,0,10.026,0C1043.532,594.875,1031.28,591.3,1031.28,592.016Z" transform="translate(-840.759 -494.238)" opacity="0.1"/>
  <ellipse id="Ellipse_103" data-name="Ellipse 103" cx="7.869" cy="1.513" rx="7.869" ry="1.513" transform="translate(10.03 121.087)" fill="#d8042c"/>
  <ellipse id="Ellipse_104" data-name="Ellipse 104" cx="0.915" cy="1.2" rx="0.915" ry="1.2" transform="translate(16.853 120.759)" fill="#3f3d56"/>
  <ellipse id="Ellipse_105" data-name="Ellipse 105" cx="0.915" cy="1.2" rx="0.915" ry="1.2" transform="translate(16.853 119.293)" fill="#3f3d56"/>
  <ellipse id="Ellipse_106" data-name="Ellipse 106" cx="0.915" cy="1.2" rx="0.915" ry="1.2" transform="translate(16.853 117.828)" fill="#3f3d56"/>
  <ellipse id="Ellipse_107" data-name="Ellipse 107" cx="0.915" cy="1.2" rx="0.915" ry="1.2" transform="translate(16.853 116.361)" fill="#3f3d56"/>
  <ellipse id="Ellipse_108" data-name="Ellipse 108" cx="0.915" cy="1.2" rx="0.915" ry="1.2" transform="translate(16.853 114.896)" fill="#3f3d56"/>
  <ellipse id="Ellipse_109" data-name="Ellipse 109" cx="0.915" cy="1.2" rx="0.915" ry="1.2" transform="translate(16.853 113.43)" fill="#3f3d56"/>
  <ellipse id="Ellipse_110" data-name="Ellipse 110" cx="0.915" cy="1.2" rx="0.915" ry="1.2" transform="translate(16.853 111.965)" fill="#3f3d56"/>
  <path id="Path_232" data-name="Path 232" d="M117.8,590.475a4.512,4.512,0,0,0,.342-.5l-2.408-.385,2.6.019a4.386,4.386,0,0,0,.083-3.477l-3.492,1.811,3.221-2.367a4.388,4.388,0,1,0-7.248,4.909,4.465,4.465,0,0,0-.5.8l3.125,1.625L110.2,591.79a4.423,4.423,0,0,0-.231,1.408,17.436,17.436,0,0,1,1.408,8.654,8.891,8.891,0,0,0,6.428-11.367Z" transform="translate(-96.607 -487.34)" fill="#d8042c"/>
  <path id="Path_233" data-name="Path 233" d="M109.988,634.109a17.436,17.436,0,0,1,1.408,8.654,4.39,4.39,0,0,0,6.428-5.94C118.408,636.076,109.988,633.616,109.988,634.109Z" transform="translate(-96.623 -528.261)" opacity="0.1"/>
  <ellipse id="Ellipse_111" data-name="Ellipse 111" cx="5.753" cy="1.106" rx="5.753" ry="1.106" transform="translate(111.177 116.782)" fill="#d8042c"/>
  <ellipse id="Ellipse_112" data-name="Ellipse 112" cx="0.669" cy="0.877" rx="0.669" ry="0.877" transform="translate(116.165 116.54)" fill="#3f3d56"/>
  <ellipse id="Ellipse_113" data-name="Ellipse 113" cx="0.669" cy="0.877" rx="0.669" ry="0.877" transform="translate(116.165 115.469)" fill="#3f3d56"/>
  <ellipse id="Ellipse_114" data-name="Ellipse 114" cx="0.669" cy="0.877" rx="0.669" ry="0.877" transform="translate(116.165 114.397)" fill="#3f3d56"/>
  <ellipse id="Ellipse_115" data-name="Ellipse 115" cx="0.669" cy="0.877" rx="0.669" ry="0.877" transform="translate(116.165 113.326)" fill="#3f3d56"/>
  <ellipse id="Ellipse_116" data-name="Ellipse 116" cx="0.669" cy="0.877" rx="0.669" ry="0.877" transform="translate(116.165 112.253)" fill="#3f3d56"/>
  <ellipse id="Ellipse_117" data-name="Ellipse 117" cx="0.669" cy="0.877" rx="0.669" ry="0.877" transform="translate(116.165 111.182)" fill="#3f3d56"/>
  <ellipse id="Ellipse_118" data-name="Ellipse 118" cx="0.669" cy="0.877" rx="0.669" ry="0.877" transform="translate(116.165 110.111)" fill="#3f3d56"/>
  <path id="Path_234" data-name="Path 234" d="M637.058,601.24a3.151,3.151,0,0,0,.25-.365l-1.76-.29,1.9.015a3.229,3.229,0,0,0,.292-1.346,3.191,3.191,0,0,0-.233-1.2l-2.554,1.325,2.356-1.731a8.86,8.86,0,0,0-5.665,4.169L633.933,603l-2.434-.817a40.818,40.818,0,0,1,.862,7.352,6.5,6.5,0,0,0,4.7-8.308Z" transform="translate(-517.717 -497.58)" fill="#d8042c"/>
  <path id="Path_235" data-name="Path 235" d="M631.33,633.092a12.76,12.76,0,0,1,1.031,6.324,3.207,3.207,0,0,0,4.7-4.339C637.489,634.53,631.33,632.732,631.33,633.092Z" transform="translate(-517.717 -527.453)" opacity="0.1"/>
  <circle id="Ellipse_119" data-name="Ellipse 119" cx="2.936" cy="2.936" r="2.936" transform="translate(87.044 15.08)" fill="#d8042c" opacity="0.1"/>
  <circle id="Ellipse_120" data-name="Ellipse 120" cx="4.923" cy="4.923" r="4.923" transform="translate(95.562 0)" fill="#d8042c" opacity="0.1"/>
  <circle id="Ellipse_121" data-name="Ellipse 121" cx="4.923" cy="4.923" r="4.923" transform="translate(89.047 23.887)" fill="#d8042c" opacity="0.1"/>
  <circle id="Ellipse_122" data-name="Ellipse 122" cx="2.936" cy="2.936" r="2.936" transform="translate(182.325 46.039)" fill="#d8042c" opacity="0.1"/>
  <circle id="Ellipse_123" data-name="Ellipse 123" cx="4.923" cy="4.923" r="4.923" transform="translate(169.832 30.959)" fill="#d8042c" opacity="0.1"/>
  <circle id="Ellipse_124" data-name="Ellipse 124" cx="4.923" cy="4.923" r="4.923" transform="translate(176.349 54.846)" fill="#d8042c" opacity="0.1"/>
  <circle id="Ellipse_125" data-name="Ellipse 125" cx="1.663" cy="1.663" r="1.663" transform="translate(17.618 52.631)" fill="#d8042c" opacity="0.1"/>
  <circle id="Ellipse_126" data-name="Ellipse 126" cx="2.788" cy="2.788" r="2.788" transform="translate(23.623 45.21)" fill="#d8042c" opacity="0.1"/>
  <circle id="Ellipse_127" data-name="Ellipse 127" cx="2.788" cy="2.788" r="2.788" transform="translate(10.278 49.535)" fill="#d8042c" opacity="0.1"/>
  <circle id="Ellipse_128" data-name="Ellipse 128" cx="6.971" cy="6.971" r="6.971" transform="translate(34.58 15.974)" fill="#d8042c" opacity="0.1"/>
  <circle id="Ellipse_129" data-name="Ellipse 129" cx="4.023" cy="4.023" r="4.023" transform="translate(77.717 54.304)" fill="#d8042c" opacity="0.1"/>
  <circle id="Ellipse_130" data-name="Ellipse 130" cx="4.023" cy="4.023" r="4.023" transform="translate(107.331 73.533)" fill="#d8042c" opacity="0.1"/>
</svg>
