<svg xmlns="http://www.w3.org/2000/svg" width="196.364" height="139.595" viewBox="0 0 196.364 139.595">
  <g id="Group_36" data-name="Group 36" transform="translate(0 -0.001)">
    <path id="Path_236" data-name="Path 236" d="M252.27,704.72l-.5-1.982a25.742,25.742,0,0,0-2.731-.98l-.063.921-.257-1.015c-1.151-.329-1.934-.473-1.934-.473a24.666,24.666,0,0,0,3.275,7.1l2.584.454-2.008.289a10.411,10.411,0,0,0,.9.952c3.226,2.995,6.82,4.369,8.027,3.069s-.431-4.781-3.657-7.776a13.71,13.71,0,0,0-3.515-2.26Z" transform="translate(-226.793 -575.787)" fill="#e6e6e6"/>
    <path id="Path_237" data-name="Path 237" d="M279.833,686.806l.594-1.957a25.741,25.741,0,0,0-1.831-2.25l-.53.756.3-1c-.815-.876-1.411-1.4-1.411-1.4a24.666,24.666,0,0,0-.864,7.767l1.978,1.724-1.868-.79a10.418,10.418,0,0,0,.277,1.279c1.214,4.232,3.58,7.265,5.285,6.776s2.1-4.316.889-8.547a13.709,13.709,0,0,0-1.84-3.751Z" transform="translate(-249.576 -560.026)" fill="#e6e6e6"/>
    <path id="Path_238" data-name="Path 238" d="M437.316,703.291l-.472-1.863a24.191,24.191,0,0,0-2.566-.921l-.06.866-.242-.954c-1.082-.309-1.817-.445-1.817-.445a23.183,23.183,0,0,0,3.078,6.669l2.429.427-1.887.272a9.79,9.79,0,0,0,.844.895c3.033,2.815,6.41,4.106,7.544,2.885s-.405-4.494-3.438-7.309a12.886,12.886,0,0,0-3.3-2.124Z" transform="translate(-371.132 -574.84)" fill="#e6e6e6"/>
    <path id="Path_239" data-name="Path 239" d="M463.222,686.454l.559-1.839a24.2,24.2,0,0,0-1.721-2.115l-.5.71.286-.941c-.766-.823-1.326-1.32-1.326-1.32a23.183,23.183,0,0,0-.812,7.3l1.859,1.621-1.756-.742a9.785,9.785,0,0,0,.26,1.2c1.141,3.977,3.365,6.829,4.967,6.369s1.976-4.056.835-8.034a12.885,12.885,0,0,0-1.73-3.526Z" transform="translate(-392.546 -560.026)" fill="#e6e6e6"/>
    <path id="Path_240" data-name="Path 240" d="M804.691,713.612l-.238-.939a12.2,12.2,0,0,0-1.293-.464l-.03.436-.122-.481c-.545-.156-.916-.224-.916-.224a11.68,11.68,0,0,0,1.551,3.361l1.224.215-.951.137a4.931,4.931,0,0,0,.425.451c1.528,1.418,3.23,2.069,3.8,1.454s-.2-2.265-1.732-3.683a6.493,6.493,0,0,0-1.665-1.07Z" transform="translate(-659.174 -584.156)" fill="#e6e6e6"/>
    <path id="Path_241" data-name="Path 241" d="M817.784,705.127l.281-.927a12.19,12.19,0,0,0-.867-1.066l-.251.358.144-.474c-.386-.415-.668-.665-.668-.665a11.684,11.684,0,0,0-.409,3.679l.937.817-.885-.374a4.934,4.934,0,0,0,.131.606c.575,2,1.7,3.441,2.5,3.209s1-2.044.421-4.048a6.5,6.5,0,0,0-.872-1.777Z" transform="translate(-670.003 -576.692)" fill="#e6e6e6"/>
    <path id="Path_242" data-name="Path 242" d="M894.464,704.432l-.313-1.235a16.021,16.021,0,0,0-1.7-.61l-.04.574-.16-.632c-.717-.2-1.2-.295-1.2-.295a15.365,15.365,0,0,0,2.04,4.42l1.61.283-1.251.18a6.468,6.468,0,0,0,.559.593c2.01,1.866,4.249,2.722,5,1.912s-.268-2.979-2.278-4.844a8.539,8.539,0,0,0-2.189-1.408Z" transform="translate(-728.435 -576.599)" fill="#e6e6e6"/>
    <path id="Path_243" data-name="Path 243" d="M911.635,693.272l.37-1.219a16.037,16.037,0,0,0-1.141-1.4l-.331.471.19-.624c-.508-.546-.879-.875-.879-.875a15.366,15.366,0,0,0-.538,4.839l1.232,1.074-1.164-.492a6.481,6.481,0,0,0,.172.8c.756,2.636,2.23,4.526,3.292,4.221s1.31-2.689.554-5.325a8.542,8.542,0,0,0-1.147-2.337Z" transform="translate(-742.629 -566.779)" fill="#e6e6e6"/>
    <path id="Path_244" data-name="Path 244" d="M712.277,665.518l1.422-1.649a27.411,27.411,0,0,0-.813-2.981l-.842.507.728-.844c-.416-1.2-.768-1.976-.768-1.976a26.266,26.266,0,0,0-4.19,7.191L709,668.3l-1.479-1.575a11.083,11.083,0,0,0-.282,1.365c-.642,4.644.354,8.618,2.225,8.877s3.908-3.3,4.55-7.94a14.6,14.6,0,0,0-.175-4.446Z" transform="translate(-585.164 -542.605)" fill="#e6e6e6"/>
    <path id="Path_245" data-name="Path 245" d="M720.869,681.435l2.07-.676a27.4,27.4,0,0,0,.845-2.972H722.8l1.06-.346c.266-1.246.364-2.089.364-2.089a26.267,26.267,0,0,0-7.3,3.99l-.3,2.779-.452-2.112a11.1,11.1,0,0,0-.947,1.023c-2.95,3.643-4.152,7.56-2.684,8.749s5.049-.8,8-4.445a14.6,14.6,0,0,0,2.149-3.9Z" transform="translate(-588.959 -555.667)" fill="#e6e6e6"/>
    <path id="Path_246" data-name="Path 246" d="M830.815,708.674l.633-.733a12.191,12.191,0,0,0-.362-1.326l-.375.226.324-.375c-.185-.536-.342-.879-.342-.879a11.684,11.684,0,0,0-1.863,3.2l.526,1.126-.658-.7a4.92,4.92,0,0,0-.125.607c-.286,2.065.157,3.833.989,3.948s1.738-1.466,2.024-3.531a6.492,6.492,0,0,0-.078-1.977Z" transform="translate(-679.725 -579.209)" fill="#e6e6e6"/>
    <path id="Path_247" data-name="Path 247" d="M834.636,715.753l.921-.3a12.191,12.191,0,0,0,.376-1.322H835.5l.471-.154c.118-.554.162-.929.162-.929a11.683,11.683,0,0,0-3.248,1.775l-.132,1.236-.2-.939a4.912,4.912,0,0,0-.421.455c-1.312,1.62-1.847,3.362-1.194,3.891s2.246-.356,3.558-1.977a6.5,6.5,0,0,0,.956-1.733Z" transform="translate(-681.413 -585.018)" fill="#e6e6e6"/>
    <path id="Path_248" data-name="Path 248" d="M157.017,740.382s154.627-15.939,196.245,0Z" transform="translate(-156.899 -600.786)" fill="#e6e6e6"/>
    <path id="Path_249" data-name="Path 249" d="M853.533,177.05c-.3-23.47-12.276-42.347-27-42.347-8.85,0-16.707,6.817-21.633,17.352l5.792,14.533-8-8.958a64.676,64.676,0,0,0-3.165,20.331,66.279,66.279,0,0,0,2.042,16.521l15.522-2.5-13.892,7.768c4.526,12.408,12.8,20.882,22.332,21.441l-1.838,49.99,5.687.2-1.216-50.243c13.577-1.293,24.453-18.646,25.325-40.363l-9.383-5.247Z" transform="translate(-657.169 -134.702)" fill="#e6e6e6"/>
    <path id="Path_250" data-name="Path 250" d="M442.83,136.326l7.472,1.314,2.491-12.485-6.019-2.628Z" transform="translate(-344.801 -95.403)" fill="#2f2e41"/>
    <path id="Path_251" data-name="Path 251" d="M483.418,145.346l7.472,1.314,2.491-12.484-6.019-2.628Z" transform="translate(-376.404 -102.426)" fill="#2f2e41"/>
    <path id="Path_252" data-name="Path 252" d="M523.631,556.815v5.191h3.794l-.4-4.992Z" transform="translate(-407.715 -433.552)" fill="#a0616a"/>
    <path id="Path_253" data-name="Path 253" d="M420.995,556.815v5.191H417.2l.4-4.992Z" transform="translate(-324.845 -433.552)" fill="#a0616a"/>
    <path id="Path_254" data-name="Path 254" d="M579.578,438.331l-3.033,18.488a110.416,110.416,0,0,0-1.4,14.228l-.562,17,3.993-.4,2.995-19.367s7.787-28.752,10.582-22.961,4.193,24.159,4.193,24.159l1.2,17.97h4.393l.4-23.56s2.4-32.945-3.594-35.74Z" transform="translate(-482.031 -363.188)" fill="#2f2e41"/>
    <path id="Path_255" data-name="Path 255" d="M674.64,705.985s-4.393-2.995-4.792-.6l-1.6,5.79s-2.4,4.592,2.8,4.592,3.594-3.394,3.594-3.394Z" transform="translate(-554.531 -578.33)" fill="#2f2e41"/>
    <path id="Path_256" data-name="Path 256" d="M571.065,705.985s4.393-2.995,4.792-.6l1.6,5.79s2.4,4.592-2.8,4.592-3.594-3.394-3.594-3.394Z" transform="translate(-479.108 -578.33)" fill="#2f2e41"/>
    <circle id="Ellipse_131" data-name="Ellipse 131" cx="5.79" cy="5.79" r="5.79" transform="translate(102.838 26.725)" fill="#a0616a"/>
    <path id="Path_257" data-name="Path 257" d="M622.08,292.856s.6,5.591-2.4,6.789l4.992,5.99,6.589-4.592s-4.792-1-3.993-3.794a21.022,21.022,0,0,0,.8-3.195Z" transform="translate(-517.145 -257.845)" fill="#a0616a"/>
    <path id="Path_258" data-name="Path 258" d="M598.293,320.366s4.193,3.195,4.992,2.995,2.4-2.4,2.4-2.4,5.89.1,8.286,1.7-2.3,11.481-2.3,11.481,1.3,4.492-.3,5.69.4,4.193.4,4.193-3.993,7.388-14.575,10.183c0,0-6.589,2.6-6.389,1.2s2.2-17.371,2.2-17.371V321.464Z" transform="translate(-494.656 -279.265)" fill="#575a89"/>
    <path id="Path_259" data-name="Path 259" d="M602,244.891a5.238,5.238,0,0,0-3.178,4.989,7.059,7.059,0,0,0,.21,1.89,5.541,5.541,0,0,1-1.04,4.3,42.6,42.6,0,0,0-2.418,4.159l-.009.019,3.321.415.706-5.5a27.414,27.414,0,0,1,2.177-7.728l.023-.051a5.347,5.347,0,0,0,4.359,2.7l-1.038-1.038s4.566,1.868,6.227,1.868c0,0,1.245.83,0,2.076s-3.736,4.151-2.283,6.434.208,2.906.208,2.906l2.283-1.245,1.038-.623v.83l5.4-.623s1.453-.208-1.66-3.736a3.7,3.7,0,0,1-.462-2.552,5.961,5.961,0,0,0,.227-2.788C615.385,247.7,612.648,239.963,602,244.891Z" transform="translate(-498.363 -219.259)" fill="#2f2e41"/>
    <path id="Path_260" data-name="Path 260" d="M365.556,341.7H419.9v30.12H413V380.1l-7.436-8.283h-40Z" transform="translate(-284.633 -266.057)" fill="#8c0375"/>
    <rect id="Rectangle_114" data-name="Rectangle 114" width="36.521" height="1.632" transform="translate(126.354 86.122) rotate(180)" fill="#fff"/>
    <rect id="Rectangle_115" data-name="Rectangle 115" width="36.521" height="1.632" transform="translate(126.354 91.518) rotate(180)" fill="#fff"/>
    <rect id="Rectangle_116" data-name="Rectangle 116" width="36.521" height="1.632" transform="translate(126.354 96.915) rotate(180)" fill="#fff"/>
    <path id="Path_261" data-name="Path 261" d="M581.8,396.78l.6,4.393,4.393,12.18s1,9.384,3.394,8.186-.4-9.584-.4-9.584l-3.594-11.381.2-3.993Z" transform="translate(-487.648 -338.608)" fill="#a0616a"/>
    <path id="Path_262" data-name="Path 262" d="M584.879,325.064l-1.8-.587-.795.388s-2.8.2-3.195,2.2-1.8,14.376-1.8,14.376l7.388.4Z" transform="translate(-484.137 -282.466)" fill="#575a89"/>
    <path id="Path_263" data-name="Path 263" d="M669.3,396.78l-.6,4.393-4.393,12.18s-1,9.384-3.394,8.186.4-9.584.4-9.584l3.594-11.381-.2-3.993Z" transform="translate(-548.494 -338.608)" fill="#a0616a"/>
    <path id="Path_264" data-name="Path 264" d="M672.447,325.65l.96-.313a2.185,2.185,0,0,1,1.635.113h0s2.8.2,3.195,2.2,1.8,14.376,1.8,14.376l-7.388.4Z" transform="translate(-558.228 -283.052)" fill="#575a89"/>
    <path id="Path_265" data-name="Path 265" d="M73.694,17.333H0V58.18H9.361V69.413L19.445,58.18H73.694Z" transform="translate(0 -13.496)" fill="#8c0375"/>
    <rect id="Rectangle_117" data-name="Rectangle 117" width="49.527" height="2.213" transform="translate(12.084 15.836)" fill="#fff"/>
    <rect id="Rectangle_118" data-name="Rectangle 118" width="49.527" height="2.213" transform="translate(12.084 23.155)" fill="#fff"/>
    <rect id="Rectangle_119" data-name="Rectangle 119" width="49.527" height="2.213" transform="translate(12.084 30.473)" fill="#fff"/>
    <circle id="Ellipse_132" data-name="Ellipse 132" cx="1.992" cy="1.992" r="1.992" transform="translate(5.985 57.208)" fill="#e6e6e6"/>
  </g>
</svg>
