<svg xmlns="http://www.w3.org/2000/svg" xmlns:xlink="http://www.w3.org/1999/xlink" width="639" height="347" viewBox="0 0 639 347">
  <defs>
    <clipPath id="clip-path">
      <rect id="Rectangle_220" data-name="Rectangle 220" width="639" height="347" rx="10" transform="translate(446 193)" fill="#f207e2"/>
    </clipPath>
    <linearGradient id="linear-gradient" x1="0.5" y1="1" x2="0.5" gradientUnits="objectBoundingBox">
      <stop offset="0" stop-color="gray" stop-opacity="0.251"/>
      <stop offset="0.54" stop-color="gray" stop-opacity="0.122"/>
      <stop offset="1" stop-color="gray" stop-opacity="0.102"/>
    </linearGradient>
    <linearGradient id="linear-gradient-2" x1="9.926" x2="9.926" y2="0" xlink:href="#linear-gradient"/>
  </defs>
  <g id="Mask_Group_3" data-name="Mask Group 3" transform="translate(-446 -193)" clip-path="url(#clip-path)">
    <g id="Group_46" data-name="Group 46" transform="translate(722.5 290.124)">
      <path id="Path_544" data-name="Path 544" d="M191.491,289.765c-4.774,1.442-9.243,4.934-10.435,9.779-1.364,5.568,1.781,11.181,2.236,16.9,1.468,18.731-25.179,31.947-21.377,50.347,1.509,7.316,7.61,12.7,13.622,17.144,9.63,7.1,20.315,13.372,32.148,15.142,17.96,2.691,36.725-5.218,54.181-.22,14.08,4.032,24.855,15.85,38.838,20.211,10.644,3.321,22.112,2.013,33.169.667,5.963-.723,12.209-1.558,17.021-5.136,8.944-6.66,9.507-19.812,15.5-29.237,9.25-14.535,29.532-17.39,46.538-14.565s33.52,9.779,50.749,9.213c3.682-.123,7.454-.622,10.666-2.43,3.906-2.2,6.544-6.064,8.877-9.891a160.051,160.051,0,0,0,23.207-79.528c.1-4.826-.071-9.861-2.341-14.121-2.87-5.389-8.605-8.613-14.315-10.782-13.711-5.218-28.857-6.071-42.293-11.956-12.958-5.676-23.453-15.631-34.738-24.161A185.036,185.036,0,0,0,336.53,193.2c-6.481-1.252-13.208-2.147-19.648-.7-7.42,1.666-13.816,6.291-19.566,11.27-15.3,13.245-27.56,29.588-41.659,44.1a237.173,237.173,0,0,1-31.649,27.292c-5.218,3.76-10.763,8.225-16.577,11.006C202.109,288.71,197.119,288.069,191.491,289.765Z" transform="translate(-143.451 -154.852)" fill="#bad8f2" opacity="0.2"/>
      <path id="Path_545" data-name="Path 545" d="M387.749,138.88s-14.4,19.13-4.1,41.428-17.96,58.125-17.96,58.125" transform="translate(-271.515 -121.685)" fill="none" stroke="#535461" stroke-miterlimit="10" stroke-width="2"/>
      <path id="Path_546" data-name="Path 546" d="M426.533,102.776c-1.144,4.923-6.619,7.856-6.619,7.856s-3.615-5.05-2.471-9.973,4.1-8.441,6.619-7.856S427.677,97.853,426.533,102.776Z" transform="translate(-303.84 -92.74)" fill="#8ed16f"/>
      <ellipse id="Ellipse_158" data-name="Ellipse 158" cx="2.873" cy="1.077" rx="2.873" ry="1.077" transform="translate(116.266 11.488) rotate(-76.9)" fill="#8ed16f"/>
      <ellipse id="Ellipse_159" data-name="Ellipse 159" cx="2.873" cy="1.077" rx="2.873" ry="1.077" transform="translate(116.266 11.488) rotate(-76.9)" opacity="0.3"/>
      <path id="Path_547" data-name="Path 547" d="M418.373,161.932c-4.756,1.714-10.193-1.29-10.193-1.29s2.273-5.78,7.033-7.491,9.317-1.118,10.193,1.289S423.129,160.217,418.373,161.932Z" transform="translate(-298.17 -130.023)" fill="#8ed16f"/>
      <ellipse id="Ellipse_160" data-name="Ellipse 160" cx="2.873" cy="1.077" rx="2.873" ry="1.077" transform="matrix(0.94, -0.34, 0.34, 0.94, 115.434, 27.066)" fill="#8ed16f"/>
      <ellipse id="Ellipse_161" data-name="Ellipse 161" cx="2.873" cy="1.077" rx="2.873" ry="1.077" transform="matrix(0.94, -0.34, 0.34, 0.94, 115.434, 27.066)" opacity="0.3"/>
      <path id="Path_548" data-name="Path 548" d="M415.4,208.7c-4.755,1.714-10.193-1.29-10.193-1.29s2.273-5.78,7.033-7.491,9.317-1.118,10.193,1.29S420.159,206.991,415.4,208.7Z" transform="translate(-296.307 -159.362)" fill="#8ed16f"/>
      <ellipse id="Ellipse_162" data-name="Ellipse 162" cx="2.873" cy="1.077" rx="2.873" ry="1.077" transform="translate(114.383 44.754) rotate(-19.8)" fill="#8ed16f"/>
      <ellipse id="Ellipse_163" data-name="Ellipse 163" cx="2.873" cy="1.077" rx="2.873" ry="1.077" transform="translate(114.383 44.754) rotate(-19.8)" opacity="0.3"/>
      <path id="Path_549" data-name="Path 549" d="M430.313,263.572c-4.755,1.714-10.193-1.289-10.193-1.289s2.273-5.78,7.033-7.491,9.317-1.118,10.193,1.289S435.069,261.869,430.313,263.572Z" transform="translate(-305.66 -193.783)" fill="#8ed16f"/>
      <ellipse id="Ellipse_164" data-name="Ellipse 164" cx="2.873" cy="1.077" rx="2.873" ry="1.077" transform="translate(119.94 65.212) rotate(-19.8)" fill="#8ed16f"/>
      <ellipse id="Ellipse_165" data-name="Ellipse 165" cx="2.873" cy="1.077" rx="2.873" ry="1.077" transform="translate(119.94 65.212) rotate(-19.8)" opacity="0.3"/>
      <path id="Path_550" data-name="Path 550" d="M420.613,313.752c-4.755,1.714-10.193-1.289-10.193-1.289s2.273-5.78,7.033-7.491,9.317-1.118,10.193,1.29S425.372,312.041,420.613,313.752Z" transform="translate(-299.575 -225.261)" fill="#8ed16f"/>
      <ellipse id="Ellipse_166" data-name="Ellipse 166" cx="2.873" cy="1.077" rx="2.873" ry="1.077" transform="matrix(0.94, -0.34, 0.34, 0.94, 116.335, 83.602)" fill="#8ed16f"/>
      <ellipse id="Ellipse_167" data-name="Ellipse 167" cx="2.873" cy="1.077" rx="2.873" ry="1.077" transform="matrix(0.94, -0.34, 0.34, 0.94, 116.335, 83.602)" opacity="0.3"/>
      <path id="Path_551" data-name="Path 551" d="M371.466,173.845c3.511,3.637,9.716,3.354,9.716,3.354s.511-6.19-3-9.828-7.86-5.136-9.716-3.354S367.955,170.207,371.466,173.845Z" transform="translate(-272.733 -136.983)" fill="#8ed16f"/>
      <ellipse id="Ellipse_168" data-name="Ellipse 168" cx="1.077" cy="2.873" rx="1.077" ry="2.873" transform="matrix(0.719, -0.695, 0.695, 0.719, 99.453, 32.185)" fill="#8ed16f"/>
      <ellipse id="Ellipse_169" data-name="Ellipse 169" cx="1.077" cy="2.873" rx="1.077" ry="2.873" transform="matrix(0.719, -0.695, 0.695, 0.719, 99.453, 32.185)" opacity="0.3"/>
      <path id="Path_552" data-name="Path 552" d="M366.056,328.835c3.511,3.637,9.716,3.354,9.716,3.354s.511-6.19-3-9.828-7.86-5.136-9.716-3.354S362.545,325.2,366.056,328.835Z" transform="translate(-269.34 -234.21)" fill="#8ed16f"/>
      <ellipse id="Ellipse_170" data-name="Ellipse 170" cx="1.077" cy="2.873" rx="1.077" ry="2.873" transform="matrix(0.719, -0.695, 0.695, 0.719, 97.432, 89.953)" fill="#8ed16f"/>
      <ellipse id="Ellipse_171" data-name="Ellipse 171" cx="1.077" cy="2.873" rx="1.077" ry="2.873" transform="matrix(0.719, -0.695, 0.695, 0.719, 97.432, 89.953)" opacity="0.3"/>
      <path id="Path_553" data-name="Path 553" d="M374.281,229.553c4.524,2.259,10.275-.089,10.275-.089s-1.584-6-6.1-8.262-9.123-2.236-10.275.089S369.757,227.295,374.281,229.553Z" transform="translate(-272.91 -172.275)" fill="#8ed16f"/>
      <ellipse id="Ellipse_172" data-name="Ellipse 172" cx="1.077" cy="2.873" rx="1.077" ry="2.873" transform="translate(100.477 52.617) rotate(-63.48)" fill="#8ed16f"/>
      <ellipse id="Ellipse_173" data-name="Ellipse 173" cx="1.077" cy="2.873" rx="1.077" ry="2.873" transform="translate(100.477 52.617) rotate(-63.48)" opacity="0.3"/>
      <path id="Path_554" data-name="Path 554" d="M379.373,284.123c4.524,2.258,10.275-.089,10.275-.089s-1.584-6-6.1-8.263-9.123-2.236-10.275.089S374.867,281.887,379.373,284.123Z" transform="translate(-276.105 -206.508)" fill="#8ed16f"/>
      <ellipse id="Ellipse_174" data-name="Ellipse 174" cx="1.077" cy="2.873" rx="1.077" ry="2.873" transform="translate(102.376 72.957) rotate(-63.48)" fill="#8ed16f"/>
      <ellipse id="Ellipse_175" data-name="Ellipse 175" cx="1.077" cy="2.873" rx="1.077" ry="2.873" transform="translate(102.376 72.957) rotate(-63.48)" opacity="0.3"/>
      <path id="Path_555" data-name="Path 555" d="M192.164,249.21s26.308,26.308,11.456,65.347,25.458,103.958,25.458,103.958-.432-.063-1.234-.2c-54.04-9.537-80.873-71.336-50.835-117.244C188.165,284,197.352,263.976,192.164,249.21Z" transform="translate(-145.306 -190.896)" fill="#8ed16f"/>
      <path id="Path_556" data-name="Path 556" d="M113,534.166s30.02-4.782,32.756,22.123,57.726,30.635,57.726,30.635-.373.246-1.032.686c-45.4,29.815-88.808,18.985-82.267-20.591C122.619,552.3,122.418,537.524,113,534.166Z" transform="translate(-113 -369.446)" fill="#8ed16f"/>
      <g id="Group_44" data-name="Group 44" transform="translate(0 164.392)" opacity="0.3">
        <path id="Path_557" data-name="Path 557" d="M113,534.166s30.02-4.782,32.756,22.123,57.726,30.635,57.726,30.635-.373.246-1.032.686c-45.4,29.815-88.808,18.985-82.267-20.591C122.619,552.3,122.418,537.524,113,534.166Z" transform="translate(-113 -533.838)" fill="#fff"/>
      </g>
      <ellipse id="Ellipse_176" data-name="Ellipse 176" cx="8.255" cy="21.538" rx="8.255" ry="21.538" transform="translate(31.004 121.313)" fill="#8ed16f"/>
      <ellipse id="Ellipse_177" data-name="Ellipse 177" cx="8.255" cy="21.538" rx="8.255" ry="21.538" transform="translate(31.004 121.313)" opacity="0.3"/>
      <ellipse id="Ellipse_178" data-name="Ellipse 178" cx="5.564" cy="12.384" rx="5.564" ry="12.384" transform="translate(17.057 207.492) rotate(-45)" fill="#8ed16f"/>
      <ellipse id="Ellipse_179" data-name="Ellipse 179" cx="5.564" cy="12.384" rx="5.564" ry="12.384" transform="translate(17.057 207.492) rotate(-45)" opacity="0.3"/>
      <path id="Path_558" data-name="Path 558" d="M492.979,358.2H297.563a8.9,8.9,0,0,0-8.9,8.9V481.642a8.9,8.9,0,0,0,8.9,8.9H492.979a8.9,8.9,0,0,0,8.9-8.9V367.1a8.9,8.9,0,0,0-8.9-8.9Z" transform="translate(-223.194 -259.266)" fill="url(#linear-gradient)"/>
      <rect id="Rectangle_168" data-name="Rectangle 168" width="208.202" height="129.23" rx="24.81" transform="translate(67.975 100.491)" fill="#bad8f2"/>
      <rect id="Rectangle_169" data-name="Rectangle 169" width="208.202" height="23.692" transform="translate(67.975 123.106)" fill="#bad8f2"/>
      <rect id="Rectangle_170" data-name="Rectangle 170" width="208.202" height="23.692" transform="translate(67.975 123.106)" opacity="0.3"/>
      <rect id="Rectangle_171" data-name="Rectangle 171" width="168.716" height="11.486" transform="translate(87.72 164.389)" fill="#d6d6e3"/>
      <circle id="Ellipse_180" data-name="Ellipse 180" cx="16.514" cy="16.514" r="16.514" transform="translate(85.204 188.081)" fill="#bad8f2"/>
      <circle id="Ellipse_181" data-name="Ellipse 181" cx="16.514" cy="16.514" r="16.514" transform="translate(85.204 188.081)" opacity="0.3"/>
      <path id="Path_559" data-name="Path 559" d="M822.178,232.139a3.615,3.615,0,0,0,1.591,2.013c3.425,2.262,10.871,1.781,11.766,1.781.19,0,.44.339.716.909a62.927,62.927,0,0,1,3.492,12.455c.183,2.165,2.2,12.3,5.49,16.074.1.116.2.224.3.324,3.231,3.246,7.021-.324,7.021-.324l.544-1.89c-.153.745-.324,1.614-.5,2.586-.086.488-.172,1.006-.254,1.539a58.974,58.974,0,0,0-.771,9.082,32.953,32.953,0,0,0,.141,3.309c.03.306.063.608.1.9a31.609,31.609,0,0,1,.246,4.04,109.83,109.83,0,0,1-2.076,18l.078-.026c-.048.25-.078.373-.078.373l.119-.037q-.086.555-.164,1.137c-.693,5.031-1.092,11.292-1.282,14.908a29.86,29.86,0,0,0,.253,5.71l3.637,25.607v11.926a21.057,21.057,0,0,0,.656,5.359c1.185,4.506.209,20.233-.339,27.694-.153,2.035-.272,3.459-.306,3.869v.123l.1-.041v.13a2.1,2.1,0,0,1,.484-.142c-1.442,2.236-4.055,5.933-6.064,6.556a6.362,6.362,0,0,0-3.03,2.009l-.052.071-.074.1a2.237,2.237,0,0,0-.436,1.14,1.267,1.267,0,0,1-.067-.22c-.153.831.347,1.591,1.916,1.96a12.9,12.9,0,0,0,2.776.224c5.441,0,15.1-1.673,16.164-3.473V401.69l.175.056v.056l.667.22,1.83-6.142c2.2-1.625.373-30.706,0-37.388-.335-6.09,3.432-30.314,4.1-34.582l-.089-.108.1-.622a2.652,2.652,0,0,1,.373.328,4.86,4.86,0,0,1,.57.842,11.245,11.245,0,0,1,.809,1.67c3.682,9.183,5.341,35.443,5.341,37.8v24.694a25.718,25.718,0,0,0,1.006,7.2,30.861,30.861,0,0,1,.783,3.749c.078.5.145.988.209,1.457s.127,1.006.175,1.446a3.025,3.025,0,0,0,.037.332.643.643,0,0,1,0,.153c.1.973.153,1.61.153,1.61a.374.374,0,0,1,.075-.145l.019.235a.5.5,0,0,1,.145-.231,3.538,3.538,0,0,1,.492-.4v3.138l-.089-.067v.54c3.794,2.862,9.969,3.727,14.71,3.693a18.819,18.819,0,0,0,6.429-.805c1.237-.607.559-2.024-.567-3.108a4.251,4.251,0,0,0-2.728-1.409c-1.2.13-5.3-4.517-7.454-7.062l.242-.108.343-.149V357.407s.552-16.257,2.2-32.334a57.2,57.2,0,0,0-2.814-23.986l-.052-.153.5.078c.529.082.813.13.813.13a3.1,3.1,0,0,0-.034-.373h.034s-.641-6.973-.649-15.731c0-9.928.839-22.033,4.308-28.883a20.378,20.378,0,0,0,2.609-9.556,10,10,0,0,0-1.785-6.112,4.845,4.845,0,0,0-2.054-1.625l-.071-.041h-.037a5.106,5.106,0,0,0-1.886-.373h-7.495a5,5,0,0,1-2.474-.652l-2.933-1.662a14.876,14.876,0,0,1-.909-7.264c0-.2.037-.4.056-.589l.213-.224c.164-.175.317-.373.466-.54a4.173,4.173,0,0,1-.033.44c-.037.235-.1.373-.2.4,1.6-.209,3.391-.525,4.375-1.763.041-.048.078-.1.115-.153a7.979,7.979,0,0,0,.719-1.491,4.329,4.329,0,0,1,.548-1c.246-.321.567-.581.831-.887l.045-.052c.943-1.118,1-2.721,1.006-4.182.019-3.548-.086-7.454-2.46-10.115-1.971-2.214-5.117-3.052-8.1-3.149s-5.963.44-8.944.455c-2.027,0-4.472-.034-5.59,1.644-.548.824-.615,1.9-1.211,2.691-.343.455-.868.846-.9,1.412a1.451,1.451,0,0,0,.194.745v.026a5.273,5.273,0,0,0,3.861,2.59,9.625,9.625,0,0,0-.745,1.029,9.794,9.794,0,0,0-1.491,5.218,6.112,6.112,0,0,0,.022.641,9.85,9.85,0,0,0,3.123,6.563c-.03.209-.06.417-.093.622l.067.06q.317.287.66.544l.082.063v.373a6.22,6.22,0,0,1-.022.648c-.022.212,0,.343-.022.514l-.048-.041-3.641-3.041-5.855-5.419s-14.639-10.655-15.373-5.59a3.648,3.648,0,0,0,.7,2.527c2.687,4.1,11.926,7.588,11.926,7.588a78.087,78.087,0,0,1,9.194,12.1c-.13.071-.261.138-.4.2-3.28,1.524-8.065.88-8.065.88-5.527.861-6.026,6.917-6,9.366v.507l-7.334-17.222-.022-.052a3.626,3.626,0,0,0-2.743-2.154C833.411,230.239,821.153,228.52,822.178,232.139Zm30.706,167.337a3.182,3.182,0,0,1,.324-.06l-.034.052Z" transform="translate(-557.838 -163.513)" fill="url(#linear-gradient-2)"/>
      <path id="Path_560" data-name="Path 560" d="M988.3,716.43s6.947,8.732,8.553,8.553,5.344,3.384,3.209,4.472-14.43,1.781-20.5-2.851v-6.98Z" transform="translate(-656.603 -483.988)" fill="#aca9c9"/>
      <path id="Path_561" data-name="Path 561" d="M891.238,717.86s-4.1,7.3-6.947,8.2-5.344,4.1-1.6,4.99,17.106-1.07,18.351-3.209v-9.448Z" transform="translate(-594.648 -484.885)" fill="#aca9c9"/>
      <path id="Path_562" data-name="Path 562" d="M894.505,478.1l3.54,25.261v11.743a21.05,21.05,0,0,0,.641,5.285c1.155,4.446.2,19.958-.332,27.318-.175,2.4-.309,3.936-.309,3.936,2.314-1.07,12.116,2.314,12.116,2.314l.991-3.373.79-2.683c2.139-1.6.373-30.288,0-36.9-.242-4.513,1.77-19.145,3.06-27.914.373-2.478.675-4.472.857-5.672.115-.745.179-1.159.179-1.159a3.9,3.9,0,0,1,.961,1.159,11.162,11.162,0,0,1,.786,1.647c3.585,9.06,5.218,34.962,5.218,37.269V540.7a25.687,25.687,0,0,0,.98,7.107,37.264,37.264,0,0,1,.965,5.132c.254,1.934.373,3.492.373,3.492.179-1.07,11.225-5.881,11.225-5.881V509.925s.533-16.026,2.139-31.895a56.9,56.9,0,0,0-2.05-21.459c-.443-1.517-.887-2.8-1.271-3.82-.652-1.733-1.118-2.691-1.118-2.691H897.859c-.611.116-1.118,1.345-1.577,3.213-.3,1.252-.559,2.788-.786,4.472-.675,4.961-1.062,11.136-1.249,14.706A29.767,29.767,0,0,0,894.505,478.1Z" transform="translate(-603.063 -316.891)" fill="#618fd8"/>
      <g id="Group_45" data-name="Group 45" transform="translate(295.072 133.28)" opacity="0.1">
        <path id="Path_563" data-name="Path 563" d="M988.3,550.852V510.229s.533-16.026,2.139-31.895a55.562,55.562,0,0,0-4.472-27.974h.712a55.886,55.886,0,0,1,4.472,27.974c-1.584,15.858-2.139,31.895-2.139,31.895v40.623s-11.047,4.811-11.225,5.881a5.348,5.348,0,0,0-.056-.648C980.138,554.411,988.3,550.852,988.3,550.852Z" transform="translate(-950.528 -450.36)"/>
        <path id="Path_564" data-name="Path 564" d="M905.72,722.324a2.763,2.763,0,0,0-.98.2v-.179A6.37,6.37,0,0,1,905.72,722.324Z" transform="translate(-904.74 -620.96)"/>
        <path id="Path_565" data-name="Path 565" d="M937.234,592.258c2.139-1.6.373-30.288,0-36.9s4.1-34.742,4.1-34.742a3.11,3.11,0,0,1,.615.634c-.656,4.2-4.323,28.1-4,34.108.373,6.593,2.139,35.279,0,36.9l-1.781,6.056-.648-.216Z" transform="translate(-924.049 -494.435)"/>
      </g>
      <path id="Path_566" data-name="Path 566" d="M858.334,295.417,854.607,308.6s-3.921,3.727-7.126,0-5.18-13.719-5.374-15.858-3.03-13.186-4.1-13.186-11.758.712-13.007-3.727c-1-3.57,10.935-1.863,15.713-1.062a3.54,3.54,0,0,1,2.672,2.124l7.327,17.5S854.592,289.894,858.334,295.417Z" transform="translate(-559.609 -206.229)" fill="#f7c4a7"/>
      <path id="Path_567" data-name="Path 567" d="M945.782,249.82s-4.632,13.007,1.249,17.639S926,273.34,926,273.34l3.652-3.473s2.583-10.245.8-18.8Z" transform="translate(-623.004 -191.278)" fill="#f7c4a7"/>
      <path id="Path_568" data-name="Path 568" d="M919.76,293.1s4.722-1.159,4.722-2.4l4.185,2.4h10.514s7.662,4.275,1.249,17.106-3.563,44.35-3.563,44.35-22.8-4.1-41.693,2.139c0,0,2.851-14.076,1.781-22.093s1.781-19.242,1.781-19.242l1.6-6.772s-.089-6.336-6.682-3.119c0,0-.98-9.176,5.792-10.245,0,0,7.827,1.07,10.156-2.851C909.6,292.392,914.773,295.422,919.76,293.1Z" transform="translate(-602.684 -216.923)" opacity="0.1"/>
      <path id="Path_569" data-name="Path 569" d="M919.76,292.154s4.722-1.159,4.722-2.4l3.067,1.763a4.845,4.845,0,0,0,2.408.641h7.353a4.845,4.845,0,0,1,3.939,2.005c1.688,2.374,3.2,7.055-.82,15.1-6.414,12.828-3.563,44.35-3.563,44.35s-22.8-4.1-41.693,2.139c0,0,2.851-14.076,1.781-22.093s1.781-19.216,1.781-19.216l1.6-6.772s-.089-6.336-6.682-3.119c0,0-.954-8.922,5.512-10.2a1.824,1.824,0,0,1,.548-.037c1.383.145,7.826.611,9.891-2.881C909.6,291.438,914.773,294.468,919.76,292.154Z" transform="translate(-602.684 -216.327)" fill="#e14b5a"/>
      <path id="Path_570" data-name="Path 570" d="M963.779,316.127s-5.7,3.563-14.967,0c0,0-10.156-3.727-13.365-11.047s16.212,1.249,16.212,1.249,4.1,0,5.344-.891S966.984,312.206,963.779,316.127Z" transform="translate(-628.706 -224.088)" opacity="0.1"/>
      <path id="Path_571" data-name="Path 571" d="M925.642,274.33s-5.7,3.563-14.967,0c0,0-10.156-3.727-13.365-11.047s-10.689-15.336-10.689-15.336-13.007-4.99-12.3-9.977,14.967,5.523,14.967,5.523l5.7,5.344,18.53,15.679s4.1,0,5.344-.891S928.847,270.409,925.642,274.33Z" transform="translate(-590.569 -183.003)" fill="#f7c4a7"/>
      <path id="Path_572" data-name="Path 572" d="M937.49,252.5l15.321-1.249a35.177,35.177,0,0,0-1.6,7.256,9.791,9.791,0,0,1-13.715.373A17.417,17.417,0,0,0,937.49,252.5Z" transform="translate(-630.212 -192.176)" opacity="0.1"/>
      <circle id="Ellipse_182" data-name="Ellipse 182" cx="9.798" cy="9.798" r="9.798" transform="translate(304.341 49.191)" fill="#f7c4a7"/>
      <path id="Path_573" data-name="Path 573" d="M941.781,227.5c-.574-.947.593-2.18.209-3.216-.354-.954-1.763-1.118-2.236-2.009-.373-.719,0-1.6-.149-2.4a2.462,2.462,0,0,0-2.363-1.714,8.431,8.431,0,0,0-3.052.675,11.719,11.719,0,0,1-5.028.775,5.272,5.272,0,0,1-4.152-2.635,1.491,1.491,0,0,1-.19-.723c.03-.559.544-.943.876-1.39.581-.779.648-1.841,1.178-2.654,1.081-1.655,3.455-1.614,5.43-1.621,2.907,0,5.8-.544,8.706-.447s5.963.921,7.89,3.1c2.311,2.627,2.415,6.474,2.4,9.977a6.35,6.35,0,0,1-.98,4.126c-.268.324-.6.593-.854.924-.559.745-.708,1.7-1.234,2.456-.932,1.345-2.75,1.673-4.372,1.89.477-.063.082-3.257,0-3.552C943.544,227.6,943.2,227.627,941.781,227.5Z" transform="translate(-622.264 -166.38)" opacity="0.1"/>
      <path id="Path_574" data-name="Path 574" d="M941.781,226.547c-.574-.947.593-2.18.209-3.216-.354-.954-1.763-1.118-2.236-2.009-.373-.719,0-1.6-.149-2.4a2.462,2.462,0,0,0-2.363-1.714,8.43,8.43,0,0,0-3.052.675,11.719,11.719,0,0,1-5.028.775,5.272,5.272,0,0,1-4.152-2.635,1.491,1.491,0,0,1-.19-.723c.03-.559.544-.943.876-1.39.581-.779.648-1.841,1.178-2.654,1.081-1.655,3.455-1.614,5.43-1.621,2.907,0,5.8-.544,8.706-.447s5.963.921,7.89,3.1c2.311,2.627,2.415,6.474,2.4,9.977a6.35,6.35,0,0,1-.98,4.126c-.268.324-.6.593-.854.924-.559.745-.708,1.7-1.234,2.456-.932,1.345-2.75,1.673-4.372,1.89.477-.063.082-3.257,0-3.552C943.544,226.629,943.2,226.673,941.781,226.547Z" transform="translate(-622.264 -165.784)" fill="#281c1c"/>
      <path id="Path_575" data-name="Path 575" d="M996.114,319.043s-4.811-12.474-8.553-12.828,7.126,0,7.126,0l3.563,6.414Z" transform="translate(-661.13 -226.557)" opacity="0.1"/>
      <path id="Path_576" data-name="Path 576" d="M997.073,319.043s-4.811-12.474-8.553-12.828,7.126,0,7.126,0l3.563,6.414Z" transform="translate(-661.732 -226.557)" fill="#e14b5a"/>
      <path id="Path_577" data-name="Path 577" d="M976.65,717.279c.253,1.934.373,3.492.373,3.492.179-1.07,11.225-5.881,11.225-5.881v-2.9a4.915,4.915,0,0,0-.842.041,15.893,15.893,0,0,0-5.963,2.437A54.38,54.38,0,0,1,976.65,717.279Z" transform="translate(-654.778 -481.203)" fill="#618fd8"/>
      <path id="Path_578" data-name="Path 578" d="M976.65,717.279c.253,1.934.373,3.492.373,3.492.179-1.07,11.225-5.881,11.225-5.881v-2.9a4.915,4.915,0,0,0-.842.041,15.893,15.893,0,0,0-5.963,2.437A54.38,54.38,0,0,1,976.65,717.279Z" transform="translate(-654.778 -481.203)" opacity="0.3"/>
      <path id="Path_579" data-name="Path 579" d="M904.5,715.622c2.314-1.07,12.116,2.314,12.116,2.314l.991-3.373c-1.711-.347-3.41-.779-5.08-1.293a16.9,16.9,0,0,1-2.281-.842,15.289,15.289,0,0,0-1.521-.708,7.889,7.889,0,0,0-3.921-.034C904.634,714.087,904.5,715.622,904.5,715.622Z" transform="translate(-609.517 -480.866)" fill="#618fd8"/>
      <path id="Path_580" data-name="Path 580" d="M904.5,715.622c2.314-1.07,12.116,2.314,12.116,2.314l.991-3.373c-1.711-.347-3.41-.779-5.08-1.293a16.9,16.9,0,0,1-2.281-.842,15.289,15.289,0,0,0-1.521-.708,7.889,7.889,0,0,0-3.921-.034C904.634,714.087,904.5,715.622,904.5,715.622Z" transform="translate(-609.517 -480.866)" opacity="0.3"/>
      <path id="Path_581" data-name="Path 581" d="M999.8,745.091a1.066,1.066,0,0,0,.611-.708,1.047,1.047,0,0,1-.611,1.241c-2.139,1.07-14.43,1.781-20.5-2.851v-.533C985.367,746.872,997.659,746.161,999.8,745.091Z" transform="translate(-656.44 -500.179)" fill="#fff" opacity="0.4"/>
      <path id="Path_582" data-name="Path 582" d="M882.439,746.4c3.727.891,17.106-1.07,18.351-3.209v.533c-1.249,2.139-14.609,4.1-18.351,3.209-1.528-.373-2.016-1.118-1.864-1.934C880.694,745.6,881.254,746.1,882.439,746.4Z" transform="translate(-594.492 -500.775)" fill="#fff" opacity="0.4"/>
      <path id="Path_583" data-name="Path 583" d="M918.352,402.6s-3.921-1.249-4.99,0-10.212,4.174-10.212,4.174" transform="translate(-608.67 -286.769)" opacity="0.1"/>
      <rect id="Rectangle_172" data-name="Rectangle 172" width="19.063" height="0.403" transform="translate(284.384 66.871) rotate(180)" fill="#8ed16f"/>
      <rect id="Rectangle_173" data-name="Rectangle 173" width="19.063" height="0.403" transform="translate(284.384 67.274) rotate(180)" fill="#8ed16f"/>
      <rect id="Rectangle_174" data-name="Rectangle 174" width="19.063" height="0.403" transform="translate(284.384 67.274) rotate(180)" opacity="0.1"/>
      <rect id="Rectangle_175" data-name="Rectangle 175" width="19.063" height="0.403" transform="translate(284.384 67.676) rotate(180)" fill="#8ed16f"/>
      <rect id="Rectangle_176" data-name="Rectangle 176" width="19.063" height="0.403" transform="translate(284.384 68.075) rotate(180)" fill="#8ed16f"/>
      <rect id="Rectangle_177" data-name="Rectangle 177" width="19.063" height="0.403" transform="translate(284.384 68.075) rotate(180)" opacity="0.1"/>
      <rect id="Rectangle_178" data-name="Rectangle 178" width="19.063" height="0.403" transform="translate(284.384 68.477) rotate(180)" fill="#8ed16f"/>
      <rect id="Rectangle_179" data-name="Rectangle 179" width="19.063" height="0.403" transform="translate(284.384 68.876) rotate(180)" fill="#8ed16f"/>
      <rect id="Rectangle_180" data-name="Rectangle 180" width="19.063" height="0.403" transform="translate(284.384 68.876) rotate(180)" opacity="0.1"/>
      <rect id="Rectangle_181" data-name="Rectangle 181" width="19.063" height="0.403" transform="translate(284.384 69.279) rotate(180)" fill="#8ed16f"/>
      <rect id="Rectangle_182" data-name="Rectangle 182" width="19.063" height="0.403" transform="translate(284.384 69.677) rotate(180)" fill="#8ed16f"/>
      <rect id="Rectangle_183" data-name="Rectangle 183" width="19.063" height="0.403" transform="translate(284.384 69.677) rotate(180)" opacity="0.1"/>
      <rect id="Rectangle_184" data-name="Rectangle 184" width="19.063" height="0.403" transform="translate(284.384 63.666) rotate(180)" fill="#8ed16f"/>
      <rect id="Rectangle_185" data-name="Rectangle 185" width="19.063" height="0.403" transform="matrix(-0.769, -0.639, 0.639, -0.769, 293.462, 66.326)" fill="#8ed16f"/>
      <rect id="Rectangle_186" data-name="Rectangle 186" width="19.063" height="0.403" transform="matrix(-0.769, -0.639, 0.639, -0.769, 280.099, 59.913)" fill="#8ed16f"/>
      <rect id="Rectangle_187" data-name="Rectangle 187" width="19.063" height="0.403" transform="translate(284.384 64.065) rotate(180)" fill="#8ed16f"/>
      <rect id="Rectangle_188" data-name="Rectangle 188" width="19.063" height="0.403" transform="translate(284.384 64.065) rotate(180)" opacity="0.1"/>
      <rect id="Rectangle_189" data-name="Rectangle 189" width="19.063" height="0.403" transform="translate(284.384 64.471) rotate(180)" fill="#8ed16f"/>
      <rect id="Rectangle_190" data-name="Rectangle 190" width="19.063" height="0.403" transform="translate(284.384 64.87) rotate(180)" fill="#8ed16f"/>
      <rect id="Rectangle_191" data-name="Rectangle 191" width="19.063" height="0.403" transform="translate(284.384 64.87) rotate(180)" opacity="0.1"/>
      <rect id="Rectangle_192" data-name="Rectangle 192" width="19.063" height="0.403" transform="translate(284.384 65.269) rotate(180)" fill="#8ed16f"/>
      <rect id="Rectangle_193" data-name="Rectangle 193" width="19.063" height="0.403" transform="translate(284.384 65.671) rotate(180)" fill="#8ed16f"/>
      <rect id="Rectangle_194" data-name="Rectangle 194" width="19.063" height="0.403" transform="translate(284.384 65.671) rotate(180)" opacity="0.1"/>
      <rect id="Rectangle_195" data-name="Rectangle 195" width="19.063" height="0.403" transform="translate(284.384 66.07) rotate(180)" fill="#8ed16f"/>
      <rect id="Rectangle_196" data-name="Rectangle 196" width="19.063" height="0.403" transform="translate(284.384 66.472) rotate(180)" fill="#8ed16f"/>
      <rect id="Rectangle_197" data-name="Rectangle 197" width="19.063" height="0.403" transform="translate(284.384 66.472) rotate(180)" opacity="0.1"/>
      <rect id="Rectangle_198" data-name="Rectangle 198" width="6.947" height="13.54" transform="translate(269.735 83.368) rotate(-169.48)" fill="#8ed16f"/>
      <ellipse id="Ellipse_183" data-name="Ellipse 183" cx="2.851" cy="1.424" rx="2.851" ry="1.424" transform="translate(265.731 78.664) rotate(-79.48)" fill="#8ed16f"/>
      <ellipse id="Ellipse_184" data-name="Ellipse 184" cx="2.851" cy="1.424" rx="2.851" ry="1.424" transform="translate(265.731 78.664) rotate(-79.48)" opacity="0.1"/>
      <rect id="Rectangle_199" data-name="Rectangle 199" width="6.947" height="13.54" transform="translate(270.904 111.467) rotate(-169.48)" fill="#8ed16f"/>
      <ellipse id="Ellipse_185" data-name="Ellipse 185" cx="2.851" cy="1.424" rx="2.851" ry="1.424" transform="translate(266.896 106.76) rotate(-79.48)" fill="#8ed16f"/>
      <ellipse id="Ellipse_186" data-name="Ellipse 186" cx="2.851" cy="1.424" rx="2.851" ry="1.424" transform="translate(266.896 106.76) rotate(-79.48)" opacity="0.1"/>
      <rect id="Rectangle_200" data-name="Rectangle 200" width="6.947" height="13.54" transform="matrix(0.476, -0.879, 0.879, 0.476, 236.062, 47.244)" fill="#8ed16f"/>
      <ellipse id="Ellipse_187" data-name="Ellipse 187" cx="1.427" cy="2.858" rx="1.427" ry="2.858" transform="translate(241.637 47.557) rotate(-61.39)" fill="#8ed16f"/>
      <ellipse id="Ellipse_188" data-name="Ellipse 188" cx="1.427" cy="2.858" rx="1.427" ry="2.858" transform="translate(241.637 47.557) rotate(-61.39)" opacity="0.1"/>
      <rect id="Rectangle_201" data-name="Rectangle 201" width="6.947" height="13.54" transform="matrix(0.476, -0.879, 0.879, 0.476, 209.915, 167.817)" fill="#8ed16f"/>
      <ellipse id="Ellipse_189" data-name="Ellipse 189" cx="1.424" cy="2.851" rx="1.424" ry="2.851" transform="matrix(0.476, -0.879, 0.879, 0.476, 214.299, 167.961)" fill="#8ed16f"/>
      <ellipse id="Ellipse_190" data-name="Ellipse 190" cx="1.424" cy="2.851" rx="1.424" ry="2.851" transform="matrix(0.476, -0.879, 0.879, 0.476, 214.299, 167.961)" opacity="0.1"/>
      <rect id="Rectangle_202" data-name="Rectangle 202" width="6.947" height="13.54" transform="matrix(0.476, -0.879, 0.879, 0.476, 193.918, 68.316)" fill="#8ed16f"/>
      <ellipse id="Ellipse_191" data-name="Ellipse 191" cx="1.424" cy="2.851" rx="1.424" ry="2.851" transform="matrix(0.476, -0.879, 0.879, 0.476, 198.298, 68.454)" fill="#8ed16f"/>
      <ellipse id="Ellipse_192" data-name="Ellipse 192" cx="1.424" cy="2.851" rx="1.424" ry="2.851" transform="matrix(0.476, -0.879, 0.879, 0.476, 198.298, 68.454)" opacity="0.1"/>
      <rect id="Rectangle_203" data-name="Rectangle 203" width="6.947" height="13.54" transform="matrix(0.476, -0.879, 0.879, 0.476, 213.968, 47.242)" fill="#8ed16f"/>
      <ellipse id="Ellipse_193" data-name="Ellipse 193" cx="1.424" cy="2.851" rx="1.424" ry="2.851" transform="matrix(0.476, -0.879, 0.879, 0.476, 218.348, 47.381)" fill="#8ed16f"/>
      <ellipse id="Ellipse_194" data-name="Ellipse 194" cx="1.424" cy="2.851" rx="1.424" ry="2.851" transform="matrix(0.476, -0.879, 0.879, 0.476, 218.348, 47.381)" opacity="0.1"/>
      <rect id="Rectangle_204" data-name="Rectangle 204" width="6.947" height="13.54" transform="matrix(0.994, -0.109, 0.109, 0.994, 230.388, 66.754)" fill="#8ed16f"/>
      <ellipse id="Ellipse_195" data-name="Ellipse 195" cx="1.424" cy="2.851" rx="1.424" ry="2.851" transform="matrix(0.994, -0.109, 0.109, 0.994, 232.761, 70.438)" fill="#8ed16f"/>
      <ellipse id="Ellipse_196" data-name="Ellipse 196" cx="1.424" cy="2.851" rx="1.424" ry="2.851" transform="matrix(0.994, -0.109, 0.109, 0.994, 232.761, 70.438)" opacity="0.1"/>
      <rect id="Rectangle_205" data-name="Rectangle 205" width="6.947" height="13.54" transform="matrix(0.994, -0.109, 0.109, 0.994, 277.735, 140.457)" fill="#8ed16f"/>
      <ellipse id="Ellipse_197" data-name="Ellipse 197" cx="1.424" cy="2.851" rx="1.424" ry="2.851" transform="matrix(0.994, -0.109, 0.109, 0.994, 280.111, 144.141)" fill="#8ed16f"/>
      <ellipse id="Ellipse_198" data-name="Ellipse 198" cx="1.424" cy="2.851" rx="1.424" ry="2.851" transform="matrix(0.994, -0.109, 0.109, 0.994, 280.111, 144.141)" opacity="0.1"/>
      <rect id="Rectangle_206" data-name="Rectangle 206" width="6.947" height="13.54" transform="matrix(0.476, -0.879, 0.879, 0.476, 206.945, 100.699)" fill="#8ed16f"/>
      <ellipse id="Ellipse_199" data-name="Ellipse 199" cx="1.424" cy="2.851" rx="1.424" ry="2.851" transform="matrix(0.476, -0.879, 0.879, 0.476, 211.323, 100.843)" fill="#8ed16f"/>
      <ellipse id="Ellipse_200" data-name="Ellipse 200" cx="1.424" cy="2.851" rx="1.424" ry="2.851" transform="matrix(0.476, -0.879, 0.879, 0.476, 211.323, 100.843)" opacity="0.1"/>
      <rect id="Rectangle_207" data-name="Rectangle 207" width="6.947" height="13.54" transform="matrix(0.476, -0.879, 0.879, 0.476, 176.896, 92.117)" fill="#8ed16f"/>
      <ellipse id="Ellipse_201" data-name="Ellipse 201" cx="1.427" cy="2.858" rx="1.427" ry="2.858" transform="translate(182.257 92.643) rotate(-61.39)" fill="#8ed16f"/>
      <ellipse id="Ellipse_202" data-name="Ellipse 202" cx="1.427" cy="2.858" rx="1.427" ry="2.858" transform="translate(182.257 92.643) rotate(-61.39)" opacity="0.1"/>
      <rect id="Rectangle_208" data-name="Rectangle 208" width="6.947" height="13.54" transform="matrix(0.476, -0.879, 0.879, 0.476, 167.272, 236.611)" fill="#8ed16f"/>
      <ellipse id="Ellipse_203" data-name="Ellipse 203" cx="1.424" cy="2.851" rx="1.424" ry="2.851" transform="matrix(0.476, -0.879, 0.879, 0.476, 171.651, 236.751)" fill="#8ed16f"/>
      <ellipse id="Ellipse_204" data-name="Ellipse 204" cx="1.424" cy="2.851" rx="1.424" ry="2.851" transform="matrix(0.476, -0.879, 0.879, 0.476, 171.651, 236.751)" opacity="0.1"/>
      <rect id="Rectangle_209" data-name="Rectangle 209" width="6.947" height="13.54" transform="translate(160.647 239.688) rotate(-79.49)" fill="#8ed16f"/>
      <rect id="Rectangle_210" data-name="Rectangle 210" width="6.947" height="13.54" transform="translate(160.647 239.688) rotate(-79.49)" opacity="0.05"/>
      <ellipse id="Ellipse_205" data-name="Ellipse 205" cx="1.424" cy="2.851" rx="1.424" ry="2.851" transform="translate(164.861 238.474) rotate(-79.49)" fill="#8ed16f"/>
      <ellipse id="Ellipse_206" data-name="Ellipse 206" cx="1.424" cy="2.851" rx="1.424" ry="2.851" transform="translate(164.861 238.474) rotate(-79.49)" opacity="0.1"/>
      <rect id="Rectangle_211" data-name="Rectangle 211" width="6.947" height="13.54" transform="translate(161.895 243.784) rotate(-79.49)" fill="#8ed16f"/>
      <ellipse id="Ellipse_207" data-name="Ellipse 207" cx="1.424" cy="2.851" rx="1.424" ry="2.851" transform="translate(166.104 242.57) rotate(-79.49)" fill="#8ed16f"/>
      <ellipse id="Ellipse_208" data-name="Ellipse 208" cx="1.424" cy="2.851" rx="1.424" ry="2.851" transform="translate(166.104 242.57) rotate(-79.49)" opacity="0.1"/>
      <rect id="Rectangle_212" data-name="Rectangle 212" width="6.947" height="13.54" transform="matrix(0.476, -0.879, 0.879, 0.476, 181.318, 254.171)" fill="#8ed16f"/>
      <ellipse id="Ellipse_209" data-name="Ellipse 209" cx="1.424" cy="2.851" rx="1.424" ry="2.851" transform="matrix(0.476, -0.879, 0.879, 0.476, 185.701, 254.311)" fill="#8ed16f"/>
      <ellipse id="Ellipse_210" data-name="Ellipse 210" cx="1.424" cy="2.851" rx="1.424" ry="2.851" transform="matrix(0.476, -0.879, 0.879, 0.476, 185.701, 254.311)" opacity="0.1"/>
      <rect id="Rectangle_213" data-name="Rectangle 213" width="6.947" height="13.54" transform="translate(174.696 257.243) rotate(-79.49)" fill="#8ed16f"/>
      <rect id="Rectangle_214" data-name="Rectangle 214" width="6.947" height="13.54" transform="translate(174.696 257.243) rotate(-79.49)" opacity="0.05"/>
      <ellipse id="Ellipse_211" data-name="Ellipse 211" cx="1.424" cy="2.851" rx="1.424" ry="2.851" transform="translate(178.906 256.029) rotate(-79.49)" fill="#8ed16f"/>
      <ellipse id="Ellipse_212" data-name="Ellipse 212" cx="1.424" cy="2.851" rx="1.424" ry="2.851" transform="translate(178.906 256.029) rotate(-79.49)" opacity="0.1"/>
      <rect id="Rectangle_215" data-name="Rectangle 215" width="6.947" height="13.54" transform="translate(175.943 261.344) rotate(-79.49)" fill="#8ed16f"/>
      <ellipse id="Ellipse_213" data-name="Ellipse 213" cx="1.424" cy="2.851" rx="1.424" ry="2.851" transform="translate(180.156 260.13) rotate(-79.49)" fill="#8ed16f"/>
      <ellipse id="Ellipse_214" data-name="Ellipse 214" cx="1.424" cy="2.851" rx="1.424" ry="2.851" transform="translate(180.156 260.13) rotate(-79.49)" opacity="0.1"/>
      <rect id="Rectangle_216" data-name="Rectangle 216" width="6.947" height="13.54" transform="matrix(0.476, -0.879, 0.879, 0.476, 202.393, 242.854)" fill="#8ed16f"/>
      <ellipse id="Ellipse_215" data-name="Ellipse 215" cx="1.424" cy="2.851" rx="1.424" ry="2.851" transform="matrix(0.476, -0.879, 0.879, 0.476, 206.769, 242.993)" fill="#8ed16f"/>
      <ellipse id="Ellipse_216" data-name="Ellipse 216" cx="1.424" cy="2.851" rx="1.424" ry="2.851" transform="matrix(0.476, -0.879, 0.879, 0.476, 206.769, 242.993)" opacity="0.1"/>
      <rect id="Rectangle_217" data-name="Rectangle 217" width="6.947" height="13.54" transform="translate(195.769 245.929) rotate(-79.49)" fill="#8ed16f"/>
      <rect id="Rectangle_218" data-name="Rectangle 218" width="6.947" height="13.54" transform="translate(195.769 245.929) rotate(-79.49)" opacity="0.05"/>
      <ellipse id="Ellipse_217" data-name="Ellipse 217" cx="1.424" cy="2.851" rx="1.424" ry="2.851" transform="translate(199.979 244.715) rotate(-79.49)" fill="#8ed16f"/>
      <ellipse id="Ellipse_218" data-name="Ellipse 218" cx="1.424" cy="2.851" rx="1.424" ry="2.851" transform="translate(199.979 244.715) rotate(-79.49)" opacity="0.1"/>
      <rect id="Rectangle_219" data-name="Rectangle 219" width="6.947" height="13.54" transform="translate(197.016 250.029) rotate(-79.49)" fill="#8ed16f"/>
      <ellipse id="Ellipse_219" data-name="Ellipse 219" cx="1.424" cy="2.851" rx="1.424" ry="2.851" transform="translate(201.229 248.815) rotate(-79.49)" fill="#8ed16f"/>
      <ellipse id="Ellipse_220" data-name="Ellipse 220" cx="1.424" cy="2.851" rx="1.424" ry="2.851" transform="translate(201.229 248.815) rotate(-79.49)" opacity="0.1"/>
    </g>
  </g>
</svg>
