<svg xmlns="http://www.w3.org/2000/svg" xmlns:xlink="http://www.w3.org/1999/xlink" width="110" height="110" viewBox="0 0 110 110">
  <defs>
    <linearGradient id="linear-gradient" x1="-0.323" y1="1.062" x2="1.046" y2="0.095" gradientUnits="objectBoundingBox">
      <stop offset="0" stop-color="#593adb" stop-opacity="0.8"/>
      <stop offset="1" stop-color="#41d5b5" stop-opacity="0.8"/>
    </linearGradient>
  </defs>
  <g id="Group_5" data-name="Group 5" transform="translate(-1917 -1924)">
    <rect id="Rectangle_13" data-name="Rectangle 13" width="110" height="110" rx="55" transform="translate(1917 1924)" fill="url(#linear-gradient)"/>
    <g id="Group_2" data-name="Group 2" transform="translate(1947.119 1951.5)">
      <path id="Path_2" data-name="Path 2" d="M78.614,335.734H31.21a1.312,1.312,0,0,1-1.31-1.31,1.189,1.189,0,0,1,.393-.917l5.762-5.369a.406.406,0,0,0,.131-.262V317.662a1.312,1.312,0,0,1,1.31-1.31h3.667a1.312,1.312,0,0,1,1.31,1.31h0v3.8a.347.347,0,0,0,.393.393.457.457,0,0,0,.262-.131l11-9.952a1.377,1.377,0,0,1,1.7,0l23.7,21.738a1.238,1.238,0,0,1,.131,1.7c-.393.262-.655.524-1.048.524Z" transform="translate(-29.9 -311.475)" fill="#fff"/>
      <path id="Path_3" data-name="Path 3" d="M32.6,331.6v27.631a.347.347,0,0,0,.393.393H75.814a.347.347,0,0,0,.393-.393h0V332.124a.347.347,0,0,0-.393-.393H32.6Zm18.857,3.929h5.631v7.2h7.2v5.631H57.219v7.2H51.588v-7.2h-7.2v-5.631h7.071Z" transform="translate(-29.064 -305.246)" fill="#fff"/>
    </g>
  </g>
</svg>
