<svg xmlns="http://www.w3.org/2000/svg" width="37.978" height="30.382" viewBox="0 0 37.978 30.382">
  <path id="comments" d="M7.5,26.189l-2.6,2.6V23.47A10.71,10.71,0,0,1,3,17.393C3,11.1,8.526,6,15.343,6c6.179,0,11.3,4.19,12.2,9.662a12.476,12.476,0,0,1,2.042-.167c6.293,0,11.393,4.675,11.393,10.444a9.779,9.779,0,0,1-1.9,5.774v4.67l-2.327-2.327a12,12,0,0,1-7.168,2.327,11.247,11.247,0,0,1-11.073-7.975,13.364,13.364,0,0,1-3.169.38,12.931,12.931,0,0,1-7.846-2.6Zm7.846-1.2c4.785,0,8.545-3.471,8.545-7.6s-3.76-7.6-8.545-7.6S6.8,13.269,6.8,17.393,10.558,24.989,15.343,24.989Zm6.733,1.956c.551,3.147,3.657,5.64,7.508,5.64,4.254,0,7.6-3.038,7.6-6.646s-3.342-6.646-7.6-6.646a8.58,8.58,0,0,0-2.12.262,11.412,11.412,0,0,1-5.388,7.389Z" transform="translate(-3 -6)" fill="#333" fill-rule="evenodd"/>
</svg>
