<svg xmlns="http://www.w3.org/2000/svg" width="37.5" height="30" viewBox="0 0 37.5 30">
  <path id="wallet" d="M36.75,15.375a3.761,3.761,0,0,1,3.75,3.75v3.75a3.761,3.761,0,0,1-3.75,3.75V32.25A3.75,3.75,0,0,1,33,36H6.75A3.75,3.75,0,0,1,3,32.25V9.75A3.75,3.75,0,0,1,6.75,6H33a3.75,3.75,0,0,1,3.75,3.75Zm-3.75,0V9.75H6.75v22.5H33V26.625H29.25a4.029,4.029,0,0,1-3.75-3.75v-3.69a3.774,3.774,0,0,1,3.75-3.81Zm-3.75,7.5H33v-3.75H29.25Z" transform="translate(-3 -6)" fill="#333" fill-rule="evenodd"/>
</svg>
